<svg xmlns="http://www.w3.org/2000/svg" width="391.2" height="388.8" viewBox="0 0 293.4 291.6"><defs><style>*{stroke-linejoin:round;stroke-linecap:butt}</style></defs><g id="figure_1"><path id="patch_1" d="M0 291.6h293.4V0H0z" style="fill:none"/><g id="axes_1"><path id="line2d_1" d="m19.882 271.8 13.35-44.84 13.348-52.533 13.35-71.904 13.349-19.052 13.35-11.937 13.349-3.61 13.349-3.483 13.35-.98 13.348-5.117 13.35-.482 13.349-5.497 13.35-9.914 13.348-1.568 13.35-.079 13.35-3.677 13.348-4.737 13.35-9.184 13.349-.056 13.35-3.35" clip-path="url(#p86c169cec6)" style="fill:none;stroke:coral;stroke-opacity:.5;stroke-linecap:square"/><path id="line2d_2" d="m19.882 271.8 13.35-56.782L46.58 203.03l13.35-42.799 13.349-42.718 13.35-3.948 13.349-11.891 13.349-6.364 13.35-11.039 13.348-5.054 13.35-12.925 13.349-3.31 13.35-6.458 13.348-.713 13.35-3.262 13.35-.689 13.348-.742 13.35-24.1 13.349-5.53 13.35-1.688" clip-path="url(#p86c169cec6)" style="fill:none;stroke:coral;stroke-opacity:.5;stroke-linecap:square"/><path id="line2d_3" d="m19.882 271.8 13.35-27.582 13.348-62.736 13.35-39.356 13.349-2.64 13.35-5.599 13.349-7.938 13.349-22.838 13.35-17.53 13.348-17.244 13.35-.596 13.349-12.553 13.35-7.776 13.348-9.88 13.35-1.12 13.35-6.674 13.348-.93 13.35-3.962 13.349-3.292 13.35-1.754" clip-path="url(#p86c169cec6)" style="fill:none;stroke:coral;stroke-opacity:.5;stroke-linecap:square"/><path id="line2d_4" d="m19.882 271.8 13.35-15.588 13.348-1.705 13.35-117.965 13.349-22.035 13.35-9.956 13.349-6.937 13.349-16.27 13.35-8.93 13.348-9.7 13.35-8.692 13.349-8.915 13.35-.373 13.348-2.717 13.35-1.762 13.35-6.474 13.348-8.908 13.35-.704 13.349-.589 13.35-3.78" clip-path="url(#p86c169cec6)" style="fill:none;stroke:coral;stroke-opacity:.5;stroke-linecap:square"/><path id="line2d_5" d="m19.882 271.8 13.35-42.679 13.348-20.96 13.35-10.946 13.349-59.863 13.35-3.471 13.349-4.244 13.349-26.814 13.35-14.365 13.348-4.383 13.35-2.17 13.349-3.172 13.35-16.966 13.348-9.696 13.35-3.013 13.35-.164 13.348-5.022 13.35-18.656 13.349-1.693 13.35-3.723" clip-path="url(#p86c169cec6)" style="fill:none;stroke:coral;stroke-opacity:.5;stroke-linecap:square"/><path id="line2d_6" d="m19.882 271.8 13.35-9.711L46.58 200.7l13.35-3.373 13.349-34.792 13.35-18.938 13.349-2.694 13.349-3.13 13.35-61.389 13.348-4 13.35-22.317 13.349-1.223 13.35-8.174 13.348-2.16 13.35-11.072 13.35-.898 13.348-.814 13.35-.685 13.349-.267 13.35-4.975" clip-path="url(#p86c169cec6)" style="fill:none;stroke:coral;stroke-opacity:.5;stroke-linecap:square"/><path id="line2d_7" d="m19.882 271.8 13.35-1.143 13.348-6.213 13.35-75.288 13.349-45.842 13.35-38.878 13.349-21.02 13.349-7.773 13.35-6.165 13.348-1.389 13.35-2.546 13.349-.415 13.35-4.134 13.348-18.88 13.35-9.2 13.35-3.127 13.348-1.606 13.35-1.149 13.349-3.845 13.35-3.387" clip-path="url(#p86c169cec6)" style="fill:none;stroke:coral;stroke-opacity:.5;stroke-linecap:square"/><path id="line2d_8" d="m19.882 271.8 13.35-133.701L46.58 88.873l13.35-12.7 13.349-3.361 13.35-15.48 13.349-9.174 13.349-3.354 13.35-3.32 13.348-.367 13.35-1.663 13.349-2.048 13.35-.793 13.348-1.239 13.35-.42 13.35-.964 13.348-3.875 13.35-.413 13.349-8 13.35-1.902" clip-path="url(#p86c169cec6)" style="fill:none;stroke:coral;stroke-opacity:.5;stroke-linecap:square"/><path id="line2d_9" d="m19.882 271.8 13.35-57.681 13.348-12.586 13.35-.476 13.349-45.007 13.35-8.972 13.349-30.348 13.349-16.615 13.35-7.707 13.348-8.194 13.35-10.903 13.349-1.283 13.35-2.607 13.348-1.594 13.35-9.17 13.35-3.107 13.348-11.012 13.35-17.703 13.349-3.804 13.35-3.231" clip-path="url(#p86c169cec6)" style="fill:none;stroke:coral;stroke-opacity:.5;stroke-linecap:square"/><path id="line2d_10" d="m19.882 271.8 13.35-30.505 13.348-14.638 13.35-72.543 13.349-17.5 13.35-37.007 13.349-1.617 13.349-12.849 13.35-3.76 13.348-8.697 13.35-1.94 13.349-.264 13.35-23.593 13.348-3.161 13.35-10.891 13.35-2.572 13.348-.538 13.35-1.297 13.349-4.22 13.35-4.408" clip-path="url(#p86c169cec6)" style="fill:none;stroke:coral;stroke-opacity:.5;stroke-linecap:square"/><path id="line2d_11" d="m19.882 271.8 13.35-95.998 13.348-28.635 13.35-37.129 13.349-11.443 13.35-4.33 13.349-3.153 13.349-.762 13.35-8.962 13.348-9.458 13.35-2.858 13.349-12.314 13.35-1.415 13.348-.545 13.35-20.294 13.35-4.338 13.348-.59 13.35-6.41 13.349-2.56 13.35-.806" clip-path="url(#p86c169cec6)" style="fill:none;stroke:coral;stroke-opacity:.5;stroke-linecap:square"/><path id="line2d_12" d="m19.882 271.8 13.35-34.682L46.58 217.62l13.35-65.508 13.349-.593 13.35-14.227 13.349-1.466 13.349-7.032 13.35-.806 13.348-7.041 13.35-22.087 13.349-5.177 13.35-19.46 13.348-5.77 13.35-2.621 13.35-24.55 13.348-4.048 13.35-1.717 13.349-9.766 13.35-5.951" clip-path="url(#p86c169cec6)" style="fill:none;stroke:coral;stroke-opacity:.5;stroke-linecap:square"/><path id="line2d_13" d="m19.882 271.8 13.35-35.055L46.58 146.67l13.35-9.773 13.349-21.163 13.35-24.182 13.349-.869 13.349-8.503 13.35-4.559 13.348-7.536 13.35-6.511 13.349-3.725 13.35-9.122 13.348-2.077 13.35-1.493 13.35-.805 13.348-3.65 13.35-3.91 13.349-15.45 13.35-3.542" clip-path="url(#p86c169cec6)" style="fill:none;stroke:coral;stroke-opacity:.5;stroke-linecap:square"/><path id="line2d_14" d="m19.882 271.8 13.35-43.515 13.348-2.768 13.35-9.715 13.349-27.048 13.35-.377 13.349-41.745 13.349-5.517 13.35-20.65 13.348-5.453 13.35-20.482 13.349-9.874 13.35-6.95 13.348-14.6 13.35-12.83 13.35-11.098 13.348-5.109 13.35-4.81 13.349-4.534 13.35-4.925" clip-path="url(#p86c169cec6)" style="fill:none;stroke:coral;stroke-opacity:.5;stroke-linecap:square"/><path id="line2d_15" d="m19.882 271.8 13.35-18.357 13.348-.373 13.35-41.784 13.349-12.267 13.35-20.237 13.349-13.772 13.349-22.003 13.35-10.003 13.348-19.519 13.35-3.112 13.349-18.09 13.35-6.665 13.348-2.105 13.35-6.58 13.35-16.42 13.348-11.008 13.35-21.503 13.349-6.421 13.35-1.781" clip-path="url(#p86c169cec6)" style="fill:none;stroke:coral;stroke-opacity:.5;stroke-linecap:square"/><path id="line2d_16" d="m19.882 271.8 13.35-17.003L46.58 152.83l13.35-32.646 13.349-4.188 13.35-7.107 13.349-22.937 13.349-8.489 13.35-5.298 13.348-1.449 13.35-2.546 13.349-2.75 13.35-3.867 13.348-13.77 13.35-1.434 13.35-1.358 13.348-8.189 13.35-13.174 13.349-2.435 13.35-1.394" clip-path="url(#p86c169cec6)" style="fill:none;stroke:coral;stroke-opacity:.5;stroke-linecap:square"/><path id="line2d_17" d="m19.882 271.8 13.35-6.394 13.348-1.558 13.35-56.632 13.349-12.4 13.35-25.718 13.349-59.121 13.349-7.314 13.35-7.184 13.348-22.22 13.35-18.53 13.349-9.182 13.35-12.048 13.348-.488 13.35-1.225 13.35-1.33 13.348-5.57 13.35-3.38 13.349-.023 13.35-1.683" clip-path="url(#p86c169cec6)" style="fill:none;stroke:coral;stroke-opacity:.5;stroke-linecap:square"/><path id="line2d_18" d="m19.882 271.8 13.35-50.293 13.348-4.377 13.35-13.656 13.349-62.047 13.35-4.788 13.349-14.2 13.349-21.364 13.35-3.912 13.348-2.51 13.35-9.475 13.349-2.568 13.35-3.414 13.348-5.186 13.35-6.03 13.35-19.304 13.348-.995 13.35-8.357 13.349-19.294 13.35-.23" clip-path="url(#p86c169cec6)" style="fill:none;stroke:coral;stroke-opacity:.5;stroke-linecap:square"/><path id="line2d_19" d="m19.882 271.8 13.35-74.75 13.348-13.149 13.35-5.73 13.349-4.912 13.35-18.363 13.349-25.754 13.349-.307 13.35-40.045 13.348-11.405 13.35-14.491 13.349-4.709 13.35-5.763 13.348-.935 13.35-7.58 13.35-3.035 13.348-1.537 13.35-1.678 13.349-5.519 13.35-12.338" clip-path="url(#p86c169cec6)" style="fill:none;stroke:coral;stroke-opacity:.5;stroke-linecap:square"/><path id="line2d_20" d="m19.882 271.8 13.35-71.924 13.348-1.731 13.35-50.802 13.349-7.449 13.35-12.753 13.349-20.386 13.349-21.352 13.35-5.295 13.348-11.72 13.35-1.014 13.349-7.961 13.35-1.268 13.348-3.618 13.35-4.766 13.35-10.443 13.348-4.428 13.35-1.543 13.349-.352 13.35-13.195" clip-path="url(#p86c169cec6)" style="fill:none;stroke:coral;stroke-opacity:.5;stroke-linecap:square"/><path id="line2d_21" d="m19.882 271.8 13.35-67.109L46.58 195.6l13.35-58.443 13.349-25.133 13.35-2.08 13.349-5.407 13.349-44.434 13.35-4.776 13.348-6.949 13.35-9.69 13.349-2.02 13.35-2.513 13.348-2.532 13.35-1.05 13.35-.71 13.348-.688 13.35-2.935 13.349-1.732 13.35-4.707" clip-path="url(#p86c169cec6)" style="fill:none;stroke:coral;stroke-opacity:.5;stroke-linecap:square"/><path id="line2d_22" d="m19.882 271.8 13.35-22.696 13.348-29.79 13.35-16.295 13.349-2.708 13.35-17.398 13.349-.02 13.349-22.177 13.35-38.621 13.348-4.493 13.35-28.912 13.349-9.055 13.35-2.123 13.348-11.448 13.35-3.577 13.35-8.783 13.348-19.136 13.35-6.705 13.349-.406 13.35-7.657" clip-path="url(#p86c169cec6)" style="fill:none;stroke:coral;stroke-opacity:.5;stroke-linecap:square"/><path id="line2d_23" d="m19.882 271.8 13.35-.124 13.348-85.954 13.35-15.403 13.349-46.798 13.35-28.472 13.349-3.853 13.349-1.5 13.35-3.868 13.348-7.64 13.35-1.81 13.349-3.353 13.35-.44 13.348-30.703 13.35-1.05 13.35-2.385 13.348-6.423 13.35-7.624 13.349-4.079 13.35-.521" clip-path="url(#p86c169cec6)" style="fill:none;stroke:coral;stroke-opacity:.5;stroke-linecap:square"/><path id="line2d_24" d="m19.882 271.8 13.35-71.927 13.348-3.338 13.35-13.95 13.349-40.26 13.35-24.296 13.349-.659 13.349-10.763 13.35-1.62 13.348-17.291 13.35-21.747 13.349-14.875 13.35-6.183 13.348-5.487 13.35-2.49 13.35-1.052 13.348-5.121 13.35-2.327 13.349-7.74 13.35-.874" clip-path="url(#p86c169cec6)" style="fill:none;stroke:coral;stroke-opacity:.5;stroke-linecap:square"/><path id="line2d_25" d="m19.882 271.8 13.35-15.8 13.348-47.454 13.35-2.202 13.349-43.639 13.35-7.285 13.349-13.035 13.349-38.029 13.35-.795 13.348-8.465 13.35-5.243 13.349-8.29 13.35-24.757 13.348-2.693 13.35-12.807 13.35-6.338 13.348-8.97 13.35-1.361 13.349-3.41 13.35-1.427" clip-path="url(#p86c169cec6)" style="fill:none;stroke:coral;stroke-opacity:.5;stroke-linecap:square"/><path id="line2d_26" d="m19.882 271.8 13.35-37.149 13.348-6.976 13.35-43.238 13.349-5.635 13.35-12.964 13.349-49.964 13.349-11.153 13.35-22.162 13.348-17.74 13.35-.883 13.349-7.585 13.35-3.75 13.348-4.205 13.35-7.612 13.35-8.757 13.348-3.623 13.35-1.876 13.349-.644 13.35-6.084" clip-path="url(#p86c169cec6)" style="fill:none;stroke:coral;stroke-opacity:.5;stroke-linecap:square"/><path id="line2d_27" d="m19.882 271.8 13.35-28.169 13.348-5.754 13.35-5.846 13.349-5.397 13.35-22.352 13.349-20.347 13.349-.741 13.35-58.859 13.348-38.203 13.35-4.065 13.349-2.112 13.35-2.164 13.348-18.724 13.35-2.447 13.35-2.965 13.348-.9 13.35-.643 13.349-17.641 13.35-14.671" clip-path="url(#p86c169cec6)" style="fill:none;stroke:coral;stroke-opacity:.5;stroke-linecap:square"/><path id="line2d_28" d="m19.882 271.8 13.35-2.489 13.348-22.884 13.35-8.48 13.349-49.192 13.35-1.445 13.349-32.81 13.349-3.3 13.35-2.552 13.348-13.738 13.35-9.577 13.349-51.647 13.35-.252 13.348-4.172 13.35-1.04 13.35-22.726 13.348-4.757 13.35-.687 13.349-12.647 13.35-7.605" clip-path="url(#p86c169cec6)" style="fill:none;stroke:coral;stroke-opacity:.5;stroke-linecap:square"/><path id="line2d_29" d="m19.882 271.8 13.35-18.778L46.58 160.88l13.35-9.036 13.349-14.194 13.35-5.149 13.349-4.163 13.349-9.978 13.35-12.877 13.348-4.398 13.35-1.423 13.349-.23 13.35-8.798 13.348-17.26 13.35-10.473 13.35-12.296 13.348-2.563 13.35-24.45 13.349-.752 13.35-3.039" clip-path="url(#p86c169cec6)" style="fill:none;stroke:coral;stroke-opacity:.5;stroke-linecap:square"/><path id="line2d_30" d="m19.882 271.8 13.35-113.233 13.348-32.793 13.35-25.509 13.349-6.635 13.35-.563 13.349-3.664 13.349-5.295 13.35-4.132 13.348-1.216 13.35-16.035 13.349-8.551 13.35-2.404 13.348-.75 13.35-3.196 13.35-5.64 13.348-1.695 13.35-15.62 13.349-4.257 13.35-.812" clip-path="url(#p86c169cec6)" style="fill:none;stroke:coral;stroke-opacity:.5;stroke-linecap:square"/><path id="line2d_31" d="m19.882 271.8 13.35-79.51 13.348-5.785 13.35-51.892 13.349-17.508 13.35-2.854 13.349-6.73 13.349-32.628 13.35-8.549 13.348-17.218 13.35-1.594 13.349-3.639 13.35-7.895 13.348-.194 13.35-.227 13.35-.626 13.348-6.275 13.35-.637 13.349-2.803 13.35-5.436" clip-path="url(#p86c169cec6)" style="fill:none;stroke:coral;stroke-opacity:.5;stroke-linecap:square"/><path id="line2d_32" d="m19.882 271.8 13.35-27.545L46.58 197.7l13.35-17.096 13.349-57.27 13.35-20.474 13.349-8.577 13.349-3.211 13.35-5.5 13.348-2.152 13.35-30.74 13.349-6.37 13.35-.725 13.348-3.238 13.35-1.604 13.35-3.348 13.348-4.398 13.35-3.238 13.349-2.847 13.35-7.111" clip-path="url(#p86c169cec6)" style="fill:none;stroke:coral;stroke-opacity:.5;stroke-linecap:square"/><path id="line2d_33" d="m19.882 271.8 13.35-63.937 13.348-50.597 13.35-14.127 13.349-17.68 13.35-4.247 13.349-21.934 13.349-8.568 13.35-5.87 13.348-.353 13.35-8.182 13.349-20.291 13.35-1.117 13.348-2.546 13.35-9.383 13.35-4.042 13.348-6.77 13.35-1.877 13.349-2.073 13.35-8.406" clip-path="url(#p86c169cec6)" style="fill:none;stroke:coral;stroke-opacity:.5;stroke-linecap:square"/><path id="line2d_34" d="m19.882 271.8 13.35-61.802 13.348-3.688 13.35-44.76 13.349-84.8 13.35-.644 13.349-.426 13.349-6.758 13.35-7.708 13.348-2.408 13.35-8.056 13.349-4.6 13.35-2.34 13.348-5.643 13.35-3.042 13.35-1.782 13.348-6.411 13.35-4.553 13.349-.635 13.35-1.945" clip-path="url(#p86c169cec6)" style="fill:none;stroke:coral;stroke-opacity:.5;stroke-linecap:square"/><path id="line2d_35" d="m19.882 271.8 13.35-67.363 13.348-54.439 13.35-13.912 13.349-2.687 13.35-46.722 13.349-6.691 13.349-15.184 13.35-8.574 13.348-1.326 13.35-11.443 13.349-.831 13.35-.216 13.348-.425 13.35-6.324 13.35-4.75 13.348-1.47 13.35-2.015 13.349-4.478 13.35-3.15" clip-path="url(#p86c169cec6)" style="fill:none;stroke:coral;stroke-opacity:.5;stroke-linecap:square"/><path id="line2d_36" d="m19.882 271.8 13.35-8.712 13.348-.057 13.35-13.113 13.349-68.011 13.35-29.249 13.349-5.03 13.349-6.701 13.35-.668 13.348-7.94 13.35-29.717 13.349-.298 13.35-30.312 13.348-8.373 13.35-3.957 13.35-6.208 13.348-5.784 13.35-15.836 13.349-8.053 13.35-3.981" clip-path="url(#p86c169cec6)" style="fill:none;stroke:coral;stroke-opacity:.5;stroke-linecap:square"/><path id="line2d_37" d="m19.882 271.8 13.35-44.98 13.348-53.257 13.35-4.35 13.349-47.132 13.35-.018 13.349-13.94 13.349-5.464 13.35-20.35 13.348-2.967 13.35-2.05 13.349-12.862 13.35-12.478 13.348-1.423 13.35-5.939 13.35-2.92 13.348-10.59 13.35-5.528 13.349-1.888 13.35-3.863" clip-path="url(#p86c169cec6)" style="fill:none;stroke:coral;stroke-opacity:.5;stroke-linecap:square"/><path id="line2d_38" d="m19.882 271.8 13.35-24.838 13.348-62.798 13.35-1.879 13.349-3.506 13.35-12.046 13.349-39.278 13.349-5.448 13.35-9.954 13.348-3.233 13.35-5.616 13.349-22.579 13.35-14.351 13.348-.936 13.35-4.163 13.35-10.57 13.348-5.859 13.35-8.648 13.349-15.967 13.35-.331" clip-path="url(#p86c169cec6)" style="fill:none;stroke:coral;stroke-opacity:.5;stroke-linecap:square"/><path id="line2d_39" d="m19.882 271.8 13.35-11.747 13.348-17.868 13.35-39.404 13.349-6.659 13.35-3.358 13.349-9.14 13.349-36.88 13.35-3.773 13.348-55.788 13.35-21.11 13.349-2.74 13.35-1.934 13.348-1.77 13.35-.08 13.35-5.531L233.47 30.62l13.35-9.044 13.349-.931 13.35-.846" clip-path="url(#p86c169cec6)" style="fill:none;stroke:coral;stroke-opacity:.5;stroke-linecap:square"/><path id="line2d_40" d="m19.882 271.8 13.35-111.182L46.58 142.19l13.35-16.119 13.349-1.008 13.35-1.053 13.349-4.167 13.349-11.564 13.35-11.972 13.348-39.495 13.35-.13 13.349-.864 13.35-4.616 13.348-7.235 13.35-8.892 13.35-3.548 13.348-2.02 13.35-8.367 13.349-.81 13.35-.531" clip-path="url(#p86c169cec6)" style="fill:none;stroke:coral;stroke-opacity:.5;stroke-linecap:square"/><path id="line2d_41" d="m19.882 271.8 13.35-67.976 13.348-4.553 13.35-7.933 13.349-69.284 13.35-2.313 13.349-6.034 13.349-13.052 13.35-9.643 13.348-5.204 13.35-12.348 13.349-3.224 13.35-2.24 13.348-1.813 13.35-2.358 13.35-3.624 13.348-2.954 13.35-18.835 13.349-3.278 13.35-15.334" clip-path="url(#p86c169cec6)" style="fill:none;stroke:coral;stroke-opacity:.5;stroke-linecap:square"/><path id="line2d_42" d="m19.882 271.8 13.35-112.426 13.348-1.75 13.35-4.57 13.349-23.246 13.35-16.864L99.977 95.57l13.349-3.522 13.35-5.726 13.348-9.841 13.35-9.685 13.349-12.61 13.35-13.787 13.348-.452 13.35-1.688 13.35-4.362 13.348-8.55 13.35-2.798 13.349-.302 13.35-2.447" clip-path="url(#p86c169cec6)" style="fill:none;stroke:coral;stroke-opacity:.5;stroke-linecap:square"/><path id="line2d_43" d="m19.882 271.8 13.35-37.259 13.348-.852 13.35-8.016 13.349-3.102 13.35-16.348 13.349-82.816 13.349-7.673 13.35-11.926 13.348-4.629 13.35-8.39 13.349-5.346 13.35-7.797 13.348-14.362 13.35-10.06 13.35-3.082 13.348-3.543 13.35-7.549 13.349-.441 13.35-18.809" clip-path="url(#p86c169cec6)" style="fill:none;stroke:coral;stroke-opacity:.5;stroke-linecap:square"/><path id="line2d_44" d="m19.882 271.8 13.35-77.262 13.348-19.166 13.35-45.953 13.349-7.681 13.35-.118 13.349-7.892 13.349-23.118 13.35-14.859 13.348-4.01 13.35-.807 13.349-22.348 13.35-10.787 13.348-1.059 13.35-4.244 13.35-.32 13.348-.33 13.35-11.269 13.349-.182 13.35-.595" clip-path="url(#p86c169cec6)" style="fill:none;stroke:coral;stroke-opacity:.5;stroke-linecap:square"/><path id="line2d_45" d="m19.882 271.8 13.35-36.851 13.348-54.05 13.35-10.401 13.349-13.696 13.35-12.192 13.349-11.577 13.349-8.577 13.35-17.665 13.348-4.352 13.35-3.147 13.349-2.063 13.35-18.077 13.348-.135 13.35-33.095 13.35-1.655 13.348-3.326 13.35-15.85 13.349-1.708 13.35-3.583" clip-path="url(#p86c169cec6)" style="fill:none;stroke:coral;stroke-opacity:.5;stroke-linecap:square"/><path id="line2d_46" d="m19.882 271.8 13.35-13.265 13.348-23.21 13.35-49.644 13.349-9.692 13.35-4.465L99.977 145.8l13.349-9.926 13.35-10.014 13.348-6.385 13.35-9.631 13.349-7.48 13.35-3.353 13.348-9.219 13.35-11.754 13.35-40.016 13.348-4.414 13.35-1.466 13.349-11.095 13.35-1.248" clip-path="url(#p86c169cec6)" style="fill:none;stroke:coral;stroke-opacity:.5;stroke-linecap:square"/><path id="line2d_47" d="m19.882 271.8 13.35-90.774 13.348-11.361 13.35-67.587 13.349-2.255 13.35-1.767L99.977 72.02l13.349-2.379 13.35-1.925 13.348-3.473 13.35-2.49 13.349-4.287 13.35-6.425 13.348-10.35 13.35-.903 13.35-6.954 13.348-7.826 13.35-4.197 13.349-.753 13.35-.258" clip-path="url(#p86c169cec6)" style="fill:none;stroke:coral;stroke-opacity:.5;stroke-linecap:square"/><path id="line2d_48" d="m19.882 271.8 13.35-44.929 13.348-18.055 13.35-1.246 13.349-9.96 13.35-11.681L99.977 171.2l13.349-4.282 13.35-41.068 13.348-9.975 13.35-21.055 13.349-.738 13.35-17.681 13.348-8.189 13.35-20.83 13.35-6.772 13.348-4.325 13.35-10.74 13.349-5.228 13.35-.518" clip-path="url(#p86c169cec6)" style="fill:none;stroke:coral;stroke-opacity:.5;stroke-linecap:square"/><path id="line2d_49" d="m19.882 271.8 13.35-74.083 13.348-25.553 13.35-53.853 13.349-3.53 13.35-10.537 13.349-11.92 13.349-8.812 13.35-2.827 13.348-6.474 13.35-5.182 13.349-7.214 13.35-.192 13.348-2.246 13.35-7.523 13.35-9.746 13.348-2.191 13.35-14.787 13.349-3.95 13.35-1.38" clip-path="url(#p86c169cec6)" style="fill:none;stroke:coral;stroke-opacity:.5;stroke-linecap:square"/><path id="line2d_50" d="m19.882 271.8 13.35-44.05 13.348-52.314 13.35-31.524 13.349-8.265 13.35-12.827 13.349-7.62 13.349-12.993 13.35-2.267 13.348-5.539 13.35-.146 13.349-2.452 13.35-6.844 13.348-13.822 13.35-.239 13.35-7.406 13.348-4.124 13.35-19.703 13.349-.756 13.35-19.109" clip-path="url(#p86c169cec6)" style="fill:none;stroke:coral;stroke-opacity:.5;stroke-linecap:square"/></g></g><defs><clipPath id="p86c169cec6"><path d="M7.2 7.2h279v277.2H7.2z"/></clipPath></defs></svg>