<svg xmlns="http://www.w3.org/2000/svg" width="391.2" height="388.8" viewBox="0 0 293.4 291.6"><defs><style>*{stroke-linejoin:round;stroke-linecap:butt}</style></defs><g id="figure_1"><path id="patch_1" d="M0 291.6h293.4V0H0z" style="fill:none"/><g id="axes_1"><path id="line2d_1" d="m19.882 112.708 4.658 13.055 4.657 12.389 4.658 11.736 4.658 11.098 4.234 9.547 4.235 9.04 4.234 8.546 4.234 8.06 4.235 7.586 4.234 7.121 4.234 6.667 4.235 6.224 3.81 5.23 3.811 4.888 3.811 4.551 3.811 4.224 3.811 3.902 3.81 3.59 3.812 3.284 3.81 2.986 3.812 2.695 3.81 2.413 3.811 2.137 3.811 1.87 3.811 1.61 3.811 1.357 3.811 1.112 3.81.874 3.812.645 3.81.422 3.812.208 3.387-.015 2.54-.258 2.541-.495 2.54-.728 2.541-.959 2.541-1.189 2.54-1.415 2.541-1.641 2.964-2.195 2.964-2.495 2.964-2.79 2.964-3.083 3.388-3.876 3.387-4.248 3.388-4.615 3.387-4.975 3.811-6.023 3.811-6.465 3.81-6.901 4.235-8.169 4.235-8.686 4.234-9.194 4.658-10.686 4.657-11.274 4.658-11.847 5.081-13.563 5.082-14.21 5.08-14.841 5.505-16.768 5.505-17.464 5.928-19.56 5.928-20.312 5.928-21.035h0" clip-path="url(#p672a93bddd)" style="fill:none;stroke:#0ff;stroke-opacity:.5;stroke-linecap:square"/><path id="line2d_2" d="m19.882 271.8 11.01-17.85 10.161-16.06 9.74-14.977L60.107 209 69 196.125l8.469-11.867 8.045-10.894 7.622-9.962 7.622-9.595 7.198-8.708 7.198-8.35 6.775-7.52 6.775-7.176 6.352-6.406 6.351-6.085 5.928-5.381 12.28-10.743 11.009-9.341 10.162-8.33 9.316-7.355 8.892-6.738 8.469-6.136 8.045-5.553 7.622-4.993 7.198-4.46 7.198-4.198 6.775-3.697 6.775-3.44 6.352-2.98 6.351-2.732 5.928-2.317 3.811-1.368h0" clip-path="url(#p672a93bddd)" style="fill:none;stroke:#03fcff;stroke-opacity:.5;stroke-linecap:square"/><path id="line2d_3" d="m19.882 101.552 4.658 13.669 4.657 13.001 4.658 12.346 4.658 11.703 4.658 11.07 4.234 9.528 4.234 9.024 4.235 8.532 4.234 8.047 4.234 7.571 4.235 7.106 4.234 6.649 4.234 6.201 3.811 5.206 3.811 4.857 3.811 4.515 3.81 4.18 3.812 3.85 3.81 3.53 3.812 3.214 3.81 2.905 3.811 2.603 3.811 2.307 3.811 2.02 3.388 1.557 3.387 1.339 3.388 1.126 3.387.917 3.81.787 3.812.536 3.81.291 3.388.054 2.54-.176 2.541-.408 2.54-.639 2.542-.868 2.54-1.094 2.54-1.319 2.541-1.542 2.964-2.077 2.964-2.375 2.964-2.67 2.964-2.96 2.964-3.249 3.388-4.06 3.387-4.43 3.388-4.79 3.387-5.15 3.811-6.215 3.811-6.656 3.811-7.09 4.234-8.377 4.235-8.897 4.234-9.406 4.658-10.923 4.658-11.517 4.657-12.097 5.082-13.845 5.08-14.506 5.082-15.152 5.505-17.124 5.504-17.842 5.928-19.996 5.928-20.78 3.811-13.763h0" clip-path="url(#p672a93bddd)" style="fill:none;stroke:#04fbff;stroke-opacity:.5;stroke-linecap:square"/><path id="line2d_4" d="m19.882 271.8 5.928-21.684 5.928-20.836 5.505-18.572 5.504-17.81 5.505-17.03 5.081-15.018 5.081-14.329 5.081-13.629 4.658-11.868 4.658-11.26 4.658-10.643 4.234-9.133 4.234-8.608 4.235-8.077 3.81-6.809 3.811-6.367 3.811-5.922 3.388-4.884 3.387-4.525 3.388-4.16 3.387-3.794 2.964-3.015 2.964-2.729 2.964-2.44 2.964-2.149 2.964-1.855 2.964-1.56 2.541-1.099 2.54-.879 2.541-.656 2.54-.433 2.541-.208 2.964.016 3.388.243 3.387.474 3.388.71 3.387.947 3.388 1.19 3.387 1.437 3.388 1.686 3.387 1.939 3.388 2.195 3.387 2.456 3.388 2.72 3.387 2.986 3.387 3.258 3.811 3.993 3.811 4.345 3.811 4.703 3.811 5.066 3.811 5.433 3.81 5.806 3.812 6.184 4.234 7.32 4.234 7.8 4.235 8.287 4.234 8.78 4.234 9.281 4.235 9.788 4.658 11.362 4.657 11.994 4.658 12.634 4.658 13.285 4.658 13.945 4.657 14.613.847 2.73h0" clip-path="url(#p672a93bddd)" style="fill:none;stroke:#04fbff;stroke-opacity:.5;stroke-linecap:square"/><path id="line2d_5" d="m19.882 126.623 4.658 12.288 4.657 11.625 4.235 10.005 4.234 9.48 4.234 8.97 4.235 8.47 4.234 7.982 4.234 7.505 4.235 7.042 4.234 6.59 4.234 6.149 4.235 5.721 3.81 4.793 3.811 4.464 3.811 4.144 3.811 3.833 3.811 3.53 3.811 3.238 3.81 2.952 3.812 2.675 3.81 2.408 3.812 2.149 3.81 1.898 3.811 1.657 3.811 1.424 3.811 1.2 3.811.985 4.234.851 4.235.609 4.234.377 4.234.157 2.964-.063 2.541-.304 2.54-.545 2.541-.783 2.54-1.018 2.541-1.252 2.541-1.481 2.54-1.71 2.965-2.279 2.964-2.58 2.964-2.88 2.964-3.174 3.387-3.982 3.388-4.355 3.387-4.722 3.388-5.082 3.81-6.141 3.811-6.581 3.811-7.013 4.235-8.286 4.234-8.797 4.234-9.294 4.658-10.785 4.658-11.356 4.658-11.913 5.08-13.612 5.082-14.234 5.505-16.099 5.504-16.778 5.928-18.8 5.928-19.526 6.352-21.688 4.234-14.881h0" clip-path="url(#p672a93bddd)" style="fill:none;stroke:#08f7ff;stroke-opacity:.5;stroke-linecap:square"/><path id="line2d_6" d="m19.882 271.8 9.315-29.694 8.046-24.927 7.198-21.615 6.775-19.652 6.351-17.736 5.928-15.89L69 128.157l5.081-12.465 5.081-11.875 4.658-10.334 4.658-9.78 4.234-8.384 4.235-7.88 3.81-6.646 3.811-6.205 3.811-5.749 3.388-4.715 3.387-4.332 3.388-3.939 2.964-3.114 2.964-2.797 2.964-2.474 2.54-1.856 2.541-1.608 2.54-1.355 2.541-1.098 2.54-.836 2.541-.57 2.118-.267 2.54-.078 14.397.104 8.045.274 6.775.44 5.928.59 5.505.756 5.504.986 5.082 1.142 4.657 1.263 4.658 1.49 4.658 1.734 4.234 1.804 4.234 2.037 4.235 2.283 4.234 2.542 4.234 2.816 4.235 3.105 4.234 3.406 4.234 3.721 4.235 4.052 4.234 4.396 4.234 4.754 4.235 5.125 4.234 5.512 4.234 5.911 1.694 2.48h0" clip-path="url(#p672a93bddd)" style="fill:none;stroke:#0ef1ff;stroke-opacity:.5;stroke-linecap:square"/><path id="line2d_7" d="m19.882 271.8 6.775-3.124 6.775-3.37 7.198-3.839 7.198-4.096 7.622-4.606 7.622-4.87 8.045-5.411 8.045-5.677 8.47-6.245 8.891-6.836 9.316-7.447 9.739-8.073 10.162-8.709 11.01-9.728 11.432-10.392 6.775-6.434 6.775-6.733 7.198-7.472 7.199-7.789 7.621-8.581 7.622-8.912 8.045-9.753 8.47-10.633 8.468-10.992 8.892-11.91 9.315-12.86 9.74-13.838 10.162-14.841 10.586-15.864 8.468-12.965h0" clip-path="url(#p672a93bddd)" style="fill:none;stroke:#0ff0ff;stroke-opacity:.5;stroke-linecap:square"/><path id="line2d_8" d="m19.882 271.8 16.514-49.14 9.315-27.041 8.045-22.672 6.775-18.454 6.352-16.665 5.928-14.913 5.505-13.227 5.08-11.623 4.659-10.12 4.657-9.57 4.235-8.19 4.234-7.678 3.81-6.448 3.812-5.99 3.387-4.925 3.388-4.532 2.964-3.632 2.964-3.312 2.964-2.982 2.964-2.643 2.54-1.987 2.541-1.725 2.54-1.457 2.541-1.182 2.54-.902 2.118-.533 2.117-.331 2.117-.125 27.947.04 22.865.212 18.208.384 16.09.56 14.397.717 13.55.895 12.703 1.06 1.27.118h0" clip-path="url(#p672a93bddd)" style="fill:none;stroke:#1ef;stroke-opacity:.5;stroke-linecap:square"/><path id="line2d_9" d="m19.882 261.279 7.622 1.785 8.045 1.652 8.045 1.43 8.469 1.282 8.892 1.12 9.315.949 9.74.773 10.585.619 11.856.464 13.55.298 16.937.136 15.244-.038 2.117-.246 2.117-.45 2.118-.647 2.54-1.034 2.54-1.31 2.541-1.58 2.54-1.843 2.542-2.1 2.964-2.77 2.964-3.104 2.964-3.428 2.964-3.743 3.387-4.653 3.388-5.039 3.387-5.41 3.81-6.515 3.812-6.95 4.234-8.206 4.234-8.69 4.658-10.088 4.658-10.605 5.081-12.118 5.505-13.72 5.928-15.4 6.351-17.136 7.199-20.102 8.045-23.169 9.739-28.78 11.01-33.113h0" clip-path="url(#p672a93bddd)" style="fill:none;stroke:#15eaff;stroke-opacity:.5;stroke-linecap:square"/><path id="line2d_10" d="m19.882 271.8 10.586-7.702 10.585-7.975 11.01-8.573 11.432-9.195 11.433-9.481 11.856-10.124 12.28-10.784 12.703-11.462 13.126-12.156 13.55-12.862 13.126-12.763 10.586-10.61 11.01-11.354 11.009-11.673 11.433-12.449 11.856-13.249 11.856-13.583 12.28-14.407L244.3 56.145l13.127-16.117 13.55-17 2.54-3.228h0" clip-path="url(#p672a93bddd)" style="fill:none;stroke:#17e8ff;stroke-opacity:.5;stroke-linecap:square"/><path id="line2d_11" d="m19.882 221.423 4.234 4.88 4.234 4.553 4.235 4.24 4.234 3.936 4.234 3.644 4.235 3.363 4.234 3.094 4.234 2.836 4.235 2.589 4.658 2.576 4.657 2.305 4.658 2.05 4.658 1.81 4.658 1.585 5.08 1.49 5.082 1.259 5.505 1.125 5.504.902 5.928.75 6.352.583 7.198.432 8.469.268 11.01.103 7.197-.075 2.118-.273 2.117-.464 2.54-.805 2.541-1.071 2.54-1.334 2.541-1.59 2.54-1.842 2.541-2.09 2.964-2.743 2.964-3.065 2.964-3.38 3.388-4.238 3.387-4.626 3.388-5.004 3.81-6.066 3.812-6.512 3.81-6.943 4.235-8.199 4.234-8.687 4.658-10.093 4.658-10.626 5.08-12.166 5.082-12.727 5.505-14.374 5.928-16.109 6.351-17.912 6.775-19.77 7.622-22.944 8.469-26.214 6.351-20.054h0" clip-path="url(#p672a93bddd)" style="fill:none;stroke:#17e8ff;stroke-opacity:.5;stroke-linecap:square"/><path id="line2d_12" d="m19.882 271.8 13.55-.11 13.973-.338 13.973-.563 13.974-.783 14.396-1.03 14.397-1.25 14.82-1.514 14.82-1.736 13.55-1.784 2.54-.548 2.541-.81 2.54-1.065 2.542-1.318 2.54-1.563 2.54-1.804 2.965-2.402 2.964-2.714 2.964-3.018 2.964-3.314 3.387-4.138 3.388-4.501 3.387-4.852 3.811-5.861 3.811-6.272 4.234-7.427 4.235-7.888 4.657-9.18 4.658-9.674 5.081-11.08 5.505-12.578 5.928-14.151 6.352-15.787 6.775-17.46 7.621-20.29 8.892-24.354 11.01-30.849 6.351-17.994h0" clip-path="url(#p672a93bddd)" style="fill:none;stroke:#18e7ff;stroke-opacity:.5;stroke-linecap:square"/><path id="line2d_13" d="m19.882 271.8 16.937-19.413 16.514-18.59 16.09-17.784 15.667-16.992 15.668-16.662L116 166.47l14.82-15.13 14.82-14.812 16.514-16.169 16.514-15.865 16.09-15.156 15.668-14.461 15.667-14.159 15.243-13.477 14.82-12.81 14.82-12.517 2.541-2.115h0" clip-path="url(#p672a93bddd)" style="fill:none;stroke:#19e6ff;stroke-opacity:.5;stroke-linecap:square"/><path id="line2d_14" d="m19.882 271.8 4.658-.546 4.657-.762 5.082-1.068 5.08-1.307 5.082-1.534 5.505-1.908 5.504-2.152 5.505-2.381 5.928-2.809 6.351-3.27 6.352-3.524 6.775-4.015 7.198-4.53 7.622-5.06 8.469-5.904 9.315-6.78 10.586-7.995 13.126-10.21 8.046-6.455 4.657-4.071 4.658-4.35 5.081-5.055 5.082-5.368 5.504-6.157 5.505-6.5 5.504-6.83 5.928-7.712 5.929-8.063 6.351-9.013 6.775-10.017 6.775-10.412 7.198-11.468 7.622-12.566 8.045-13.701 8.469-14.865 9.315-16.82 9.74-18.045 4.657-8.777h0" clip-path="url(#p672a93bddd)" style="fill:none;stroke:#1be4ff;stroke-opacity:.5;stroke-linecap:square"/><path id="line2d_15" d="m19.882 271.8 5.081-1.155 5.081-1.372 5.505-1.721 5.504-1.957 5.505-2.182 5.928-2.591 5.928-2.83 6.352-3.281 6.351-3.527 6.775-4.014 7.198-4.53 7.622-5.073 8.046-5.633 8.468-6.206 9.316-7.113 10.162-8.047 11.856-9.69 9.74-8.199 5.08-4.596 5.505-5.29 5.505-5.6 5.504-5.905 5.928-6.686 5.928-7.013 6.352-7.865 6.351-8.212 6.775-9.125 7.199-10.09 7.198-10.475 7.622-11.487 8.045-12.537 8.469-13.623 8.892-14.736 9.315-15.868 10.163-17.758 3.387-6.013h0" clip-path="url(#p672a93bddd)" style="fill:none;stroke:#1de2ff;stroke-opacity:.5;stroke-linecap:square"/><path id="line2d_16" d="m19.882 218.995 4.234 5.115 4.234 4.773 4.235 4.444 4.234 4.125 4.234 3.82 4.235 3.526 4.234 3.243 4.234 2.972 4.235 2.714 4.234 2.466 4.658 2.442 4.658 2.173 4.657 1.92 4.658 1.681 4.658 1.46 5.081 1.359 5.081 1.133 5.505.997 5.928.835 6.352.656 6.774.471 7.622.307 9.74.153 10.585-.028 2.117-.233 2.117-.424 2.54-.758 2.542-1.024 2.54-1.286 2.54-1.544 2.541-1.795 2.54-2.043 2.965-2.689 2.964-3.012 2.964-3.327 2.964-3.634 3.388-4.52 3.387-4.9 3.387-5.268 3.811-6.353 3.811-6.79 4.235-8.035 4.234-8.531 4.658-9.93 4.657-10.474 5.082-12.011 5.08-12.585 5.505-14.235 5.929-15.975 6.351-17.793 6.775-19.666 7.198-21.572 8.046-24.805 8.468-26.74h0" clip-path="url(#p672a93bddd)" style="fill:none;stroke:#1de2ff;stroke-opacity:.5;stroke-linecap:square"/><path id="line2d_17" d="m19.882 271.8 13.55-35.608 9.739-24.988 8.045-20.068 7.198-17.398 6.775-15.803 6.352-14.24 5.928-12.727 5.504-11.285 5.082-9.922 4.657-8.648 4.658-8.194 4.234-7.033 4.235-6.616 4.234-6.18 3.81-5.173 3.812-4.79 3.387-3.924 3.388-3.6 3.387-3.265 2.964-2.576 2.964-2.305 2.964-2.028 2.964-1.745 2.964-1.454 2.541-1.01 3.387-1.06 11.433-3.306 11.01-2.951 10.585-2.61 10.163-2.287 10.162-2.058 9.739-1.75 9.739-1.522 9.315-1.233 9.316-1.008 8.892-.745 8.892-.524 8.892-.297 6.775-.069h0" clip-path="url(#p672a93bddd)" style="fill:none;stroke:#1ee1ff;stroke-opacity:.5;stroke-linecap:square"/><path id="line2d_18" d="m19.882 271.8 13.126-33.846 9.74-24.518 8.468-20.713 7.198-17.047 6.775-15.489 6.352-13.962 5.928-12.49 5.504-11.082 5.082-9.753 5.08-9.265 4.658-8.034 4.658-7.573 4.235-6.461 4.234-6.041 3.81-5.062 3.812-4.692 3.387-3.85 3.388-3.537 3.387-3.217 3.388-2.886 2.964-2.246 2.964-1.98 2.964-1.706 2.964-1.427 2.54-.996 10.163-3.394 10.585-3.316 10.163-2.96 10.162-2.727 9.74-2.38 9.315-2.052 9.315-1.821 8.892-1.514 8.892-1.283 8.47-1 8.468-.776 8.045-.52 8.045-.303 6.775-.081h0" clip-path="url(#p672a93bddd)" style="fill:none;stroke:#20dfff;stroke-opacity:.5;stroke-linecap:square"/><path id="line2d_19" d="m19.882 271.8 9.315-.113 9.316-.336 9.315-.551 9.74-.8 9.738-1.023 10.163-1.294 10.162-1.52 10.586-1.812 10.586-2.038 11.009-2.349 11.433-2.675 11.432-2.903 5.928-1.653 2.541-.975 2.54-1.2 2.541-1.422 2.964-1.933 2.964-2.221 2.964-2.503 2.964-2.776 3.388-3.5 3.387-3.84 3.388-4.166 3.81-5.066 3.812-5.454 3.81-5.825 4.235-6.891 4.234-7.312 4.658-8.503 4.658-8.96 5.08-10.263 5.505-11.654 5.505-12.168 5.928-13.625 6.352-15.136 7.198-17.743 8.045-20.45 9.316-24.32 11.856-31.613 1.27-3.414h0" clip-path="url(#p672a93bddd)" style="fill:none;stroke:#21deff;stroke-opacity:.5;stroke-linecap:square"/><path id="line2d_20" d="m19.882 271.8 11.433-25.597 9.738-21.262 8.47-17.968 7.62-15.678 7.2-14.314 6.774-12.983 6.352-11.7 5.928-10.472 5.928-10.007 5.504-8.848 5.082-7.767 5.08-7.36 4.659-6.374 4.657-6 4.235-5.12 4.234-4.786 4.234-4.443 3.811-3.694 3.811-3.4 3.811-3.093 3.388-2.488 3.387-2.235 4.658-2.756 11.432-6.54 10.163-5.565 9.315-4.851 8.469-4.17 8.045-3.72 7.622-3.284 7.198-2.869 7.199-2.623 6.775-2.229 6.351-1.864 6.352-1.633 5.928-1.306 5.928-1.083 5.928-.852 5.504-.575 5.505-.357 5.505-.133.423-.001h0" clip-path="url(#p672a93bddd)" style="fill:none;stroke:#2df;stroke-opacity:.5;stroke-linecap:square"/><path id="line2d_21" d="m19.882 247.135 5.504 3.074 5.505 2.808 5.505 2.553 5.504 2.31 5.505 2.08 5.928 1.997 5.928 1.758 5.928 1.536 6.352 1.415 6.351 1.194 6.775 1.053 7.198.893 7.622.721 8.469.57 9.315.395 11.01.232 15.243.076 5.081-.082 2.118-.282 2.117-.48 2.117-.675 2.54-1.062 2.541-1.332 2.54-1.597 2.541-1.856 2.54-2.11 2.965-2.774 2.964-3.104 2.964-3.425 2.964-3.736 3.388-4.641 3.387-5.024 3.387-5.393 3.811-6.494 3.811-6.927 4.235-8.182 4.234-8.669 4.658-10.067 4.657-10.591 5.082-12.113 5.504-13.73 5.928-15.43 6.352-17.196 6.775-19.007 7.622-22.073 8.892-26.487 11.009-33.554 1.27-3.907h0" clip-path="url(#p672a93bddd)" style="fill:none;stroke:#24dbff;stroke-opacity:.5;stroke-linecap:square"/><path id="line2d_22" d="m19.882 271.8 10.586-17.857 10.162-16.71 9.316-14.902 8.892-13.817 8.468-12.758 8.046-11.73 7.621-10.74 7.622-10.355 7.198-9.408 6.775-8.508 6.775-8.157 6.352-7.315 6.351-6.98 5.928-6.204 5.928-5.892 5.929-5.57 5.504-4.878 12.703-10.835 11.01-9.103 9.738-7.778 9.316-7.154 8.469-6.23 8.045-5.648 7.622-5.087 7.198-4.547 7.198-4.28 6.775-3.768 6.352-3.29 6.351-3.043 5.928-2.607 5.928-2.37 5.928-2.125 5.505-1.744 2.117-.61h0" clip-path="url(#p672a93bddd)" style="fill:none;stroke:#28d7ff;stroke-opacity:.5;stroke-linecap:square"/><path id="line2d_23" d="m19.882 271.8 11.856-28.16 9.739-22.572 8.469-19.075 7.621-16.63 7.199-15.163 6.351-12.883 5.928-11.562 5.928-11.075 5.505-9.814 5.081-8.632 5.081-8.195 4.658-7.108 4.658-6.702 4.234-5.725 4.235-5.36 4.234-4.981 3.81-4.147 3.812-3.819 3.81-3.48 3.388-2.8 3.387-2.517 3.388-2.227 2.964-1.705 4.234-2.125 11.01-5.283 10.162-4.625 9.315-4 8.893-3.578 8.468-3.17 8.045-2.779 7.622-2.408 7.622-2.175 7.198-1.828 7.199-1.596 6.775-1.279 6.775-1.053 6.351-.774 6.352-.557 6.351-.335 5.928-.103h0" clip-path="url(#p672a93bddd)" style="fill:none;stroke:#28d7ff;stroke-opacity:.5;stroke-linecap:square"/><path id="line2d_24" d="m19.882 271.8 40.226-39.149 40.226-39.457 40.65-40.184 40.226-40.073 40.226-40.387 40.65-41.127L273.517 19.8h0" clip-path="url(#p672a93bddd)" style="fill:none;stroke:#2ed1ff;stroke-opacity:.5;stroke-linecap:square"/><path id="line2d_25" d="m19.882 271.8 15.243-42.73 9.74-26.65 8.045-21.383 7.198-18.505 6.351-15.738 5.929-14.116 5.504-12.554 5.081-11.068 5.082-10.526 4.657-9.138 4.235-7.855 4.234-7.4 3.81-6.252 3.812-5.846 3.81-5.424 3.388-4.452 3.388-4.092 3.387-3.72 2.964-2.94 2.964-2.637 2.964-2.326 2.54-1.74 2.541-1.502 2.54-1.257 2.542-1.007 2.54-.752 2.54-.492 14.82-2.11 14.398-1.825 13.973-1.551 13.973-1.329 13.55-1.07 13.55-.848 13.55-.622 13.126-.381 13.127-.158 2.54-.004h0" clip-path="url(#p672a93bddd)" style="fill:none;stroke:#31ceff;stroke-opacity:.5;stroke-linecap:square"/><path id="line2d_26" d="m19.882 271.8 4.658-.41 4.657-.637 4.658-.854 5.081-1.169 5.081-1.407 5.082-1.635 5.504-2.015 5.505-2.255 5.928-2.684 5.928-2.93 6.352-3.393 6.774-3.887 7.199-4.405 7.622-4.939 8.045-5.481 8.892-6.33 10.162-7.51 12.703-9.677 10.586-8.289 4.658-3.999 4.658-4.292 4.657-4.578 5.082-5.31 5.08-5.628 5.505-6.446 5.505-6.794 5.928-7.691 5.928-8.062 6.352-9.032 6.351-9.417 6.775-10.448 7.199-11.528 7.621-12.654 8.046-13.815 8.468-15.008 8.892-16.217 9.74-18.235 6.774-12.939h0" clip-path="url(#p672a93bddd)" style="fill:none;stroke:#35caff;stroke-opacity:.5;stroke-linecap:square"/><path id="line2d_27" d="m19.882 271.8 4.658-.116 4.657-.342 4.658-.56 4.658-.77 5.081-1.07 5.081-1.299 5.081-1.517 5.505-1.878 5.505-2.107 5.928-2.512 5.928-2.745 6.351-3.182 6.775-3.645 7.199-4.13 7.621-4.626 8.47-5.403 9.738-6.495 11.433-7.91 13.973-9.934 4.234-3.281 4.235-3.578 4.234-3.866 4.658-4.576 4.658-4.906 4.657-5.223 5.081-6.05 5.082-6.402 5.504-7.318 5.505-7.699 5.928-8.696 5.928-9.096 6.352-10.164 6.774-11.29 6.775-11.72 7.199-12.887 7.622-14.092 8.468-16.142 8.892-17.43 10.163-20.43 3.387-6.913h0" clip-path="url(#p672a93bddd)" style="fill:none;stroke:#35caff;stroke-opacity:.5;stroke-linecap:square"/><path id="line2d_28" d="m19.882 271.8 5.928-2.178 5.928-2.407 6.351-2.824 6.352-3.068 6.775-3.528 6.775-3.783 7.198-4.283 7.199-4.54 7.621-5.073 8.046-5.63 8.468-6.212 8.892-6.812 9.316-7.423 9.739-8.042 10.586-9.025 11.856-10.405 5.928-5.424 6.351-6.13 6.352-6.449 6.351-6.758 6.775-7.539 6.775-7.866 7.198-8.705 7.199-9.047 7.622-9.935 8.045-10.868 8.045-11.236 8.469-12.205 8.892-13.205 9.315-14.234 9.74-15.284 10.585-17.038 2.964-4.844h0" clip-path="url(#p672a93bddd)" style="fill:none;stroke:#3ec1ff;stroke-opacity:.5;stroke-linecap:square"/><path id="line2d_29" d="m19.882 271.8 11.01-22.245 9.738-19.172 8.892-17.007 8.045-14.913 7.622-13.664 7.199-12.446 6.774-11.273 6.352-10.15 6.351-9.717 5.928-8.658 5.505-7.662 5.505-7.282 5.08-6.37 5.082-6.017 4.658-5.195 4.658-4.877 4.657-4.549 4.235-3.84 4.234-3.554 4.234-3.258 8.47-6.054 13.972-9.789 10.586-7.144 8.892-5.74 8.046-4.937 7.621-4.412 6.775-3.675 6.352-3.211 6.351-2.963 5.928-2.523 5.505-2.117 5.505-1.886 5.504-1.64 5.081-1.287 5.082-1.055 5.08-.813 4.659-.524 4.657-.303 3.811-.078h0" clip-path="url(#p672a93bddd)" style="fill:none;stroke:#40bfff;stroke-opacity:.5;stroke-linecap:square"/><path id="line2d_30" d="m19.882 271.8 11.856-27.797 9.739-22.275 8.469-18.821 7.621-16.411 7.199-14.965 6.351-12.721 6.352-12.219 5.928-10.912 5.504-9.673 5.082-8.51 5.08-8.085 4.659-7.017 4.657-6.622 4.235-5.662 4.234-5.307 4.234-4.939 3.811-4.118 3.811-3.8 3.811-3.47 3.387-2.8 3.388-2.527 3.387-2.244 3.388-1.956 7.622-3.905 10.585-5.211 9.74-4.551 9.315-4.104 8.469-3.494 8.045-3.092 8.045-2.85 7.622-2.463 7.198-2.098 7.199-1.863 6.775-1.527 6.774-1.297 6.352-.997 6.351-.776 6.352-.546 5.928-.294 5.081-.081h0" clip-path="url(#p672a93bddd)" style="fill:none;stroke:#43bcff;stroke-opacity:.5;stroke-linecap:square"/><path id="line2d_31" d="m19.882 271.8 12.28-29.394 9.738-22.739 8.469-19.21 7.622-16.741 6.775-14.375 6.351-12.988 5.928-11.653 5.928-11.158 5.505-9.883 5.081-8.687 5.081-8.243 4.658-7.144 4.658-6.73 4.234-5.743 4.235-5.371 3.81-4.504 3.811-4.18 3.811-3.845 3.388-3.128 3.387-2.85 3.388-2.561 3.387-2.267 2.964-1.736 3.388-1.708 11.009-5.17 10.162-4.526 9.316-3.916 8.892-3.506 8.469-3.11 8.045-2.73 8.045-2.497 7.622-2.135 7.622-1.898 7.198-1.563 7.198-1.329 6.775-1.026 6.775-.8 6.352-.536 6.351-.321 5.928-.099h0" clip-path="url(#p672a93bddd)" style="fill:none;stroke:#43bcff;stroke-opacity:.5;stroke-linecap:square"/><path id="line2d_32" d="m19.882 271.8 10.586-17.899 10.162-16.748 9.316-14.936 8.892-13.846 8.468-12.784 8.046-11.753 7.621-10.76 7.622-10.371 7.198-9.421 6.775-8.519 6.775-8.164 6.352-7.32 6.351-6.983 5.928-6.203 5.928-5.89 5.929-5.565 5.504-4.87 12.703-10.818 11.01-9.09 9.738-7.765 9.316-7.142 8.469-6.218 8.045-5.637 7.622-5.073 7.198-4.535 7.198-4.265 6.775-3.753 6.352-3.275 6.351-3.027 5.928-2.589 5.928-2.351 5.928-2.105 5.505-1.723 2.117-.602h0" clip-path="url(#p672a93bddd)" style="fill:none;stroke:#48b7ff;stroke-opacity:.5;stroke-linecap:square"/><path id="line2d_33" d="m19.882 271.8 15.243-45.676 9.316-27.233 8.045-22.833 6.775-18.59 6.352-16.795 5.928-15.04 5.504-13.35 5.081-11.743 4.658-10.235 4.658-9.692 4.234-8.308 4.235-7.803 3.81-6.567 3.811-6.116 3.388-5.042 3.387-4.655 3.388-4.255 2.964-3.385 2.964-3.058 2.964-2.723 2.54-2.06 2.541-1.801 2.54-1.536 2.541-1.266 2.54-.988 2.118-.609 2.117-.409 2.117-.206 3.388-.026 26.253.113 15.243.295 12.703.467 11.433.645 10.162.79 9.74.975 9.315 1.16 8.892 1.335 8.469 1.498 8.045 1.643 4.234.957h0" clip-path="url(#p672a93bddd)" style="fill:none;stroke:#4ab5ff;stroke-opacity:.5;stroke-linecap:square"/><path id="line2d_34" d="m19.882 271.8 16.937-49.6 9.316-26.618 8.045-22.323 6.775-18.176 6.351-16.418 5.928-14.697 5.505-13.04 5.081-11.463 4.658-9.983 4.658-9.444 4.234-8.088 4.234-7.585 3.811-6.374 3.811-5.925 3.388-4.874 3.387-4.49 3.388-4.09 2.964-3.243 2.964-2.917 2.964-2.582 2.54-1.94 2.54-1.683 2.541-1.418 2.541-1.148 2.54-.872 2.118-.512 2.117-.312 2.54-.133 29.64-.849 29.641-.625 29.217-.396 29.217-.173 8.045-.009h0" clip-path="url(#p672a93bddd)" style="fill:none;stroke:#4bb4ff;stroke-opacity:.5;stroke-linecap:square"/><path id="line2d_35" d="m19.882 271.8 11.01-34.176 8.891-26.88 7.622-22.346 6.775-19.206 6.351-17.355 5.928-15.558 5.505-13.834 5.081-12.201 5.081-11.612 4.658-10.093 4.235-8.69 4.234-8.203 4.234-7.692 3.811-6.467 3.811-6.017 3.387-4.957 3.388-4.575 3.387-4.182 2.964-3.327 2.964-3.008 2.965-2.682 2.964-2.346 2.54-1.739 2.54-1.482 2.541-1.219 2.54-.952 2.542-.68 2.117-.353 2.117-.159 5.928-.006 13.55.128 9.315.306 7.622.459 7.198.656 6.352.795 5.928.952 5.928 1.18 5.505 1.32 5.504 1.559 5.082 1.665 5.08 1.9 5.082 2.149 4.658 2.202 4.657 2.436 4.658 2.683 4.658 2.941 4.658 3.21 4.657 3.494 4.658 3.786 4.658 4.092 2.117 1.964h0" clip-path="url(#p672a93bddd)" style="fill:none;stroke:#50afff;stroke-opacity:.5;stroke-linecap:square"/><path id="line2d_36" d="m19.882 271.8 15.667-18.543 15.243-17.69 14.82-16.857 14.397-16.038 13.974-15.238 13.55-14.458 13.55-14.135 13.126-13.376 13.126-13.055 15.667-15.236 15.244-14.51 14.82-13.8 14.397-13.102 13.973-12.42 13.55-11.754 13.55-11.46 13.126-10.813 11.856-9.515h0" clip-path="url(#p672a93bddd)" style="fill:none;stroke:#51aeff;stroke-opacity:.5;stroke-linecap:square"/><path id="line2d_37" d="m19.882 271.8 11.433-25.485 9.738-21.168 8.47-17.888 7.62-15.608 7.2-14.252 6.774-12.929 6.352-11.652 5.928-10.432 5.928-9.972 5.504-8.82 5.082-7.744 5.08-7.342 4.659-6.361 4.657-5.993 4.658-5.608 4.234-4.752 4.235-4.412 3.81-3.669 3.812-3.375 3.81-3.074 3.811-2.763 3.388-2.19 8.469-4.986 11.009-6.266 9.739-5.296 8.892-4.59 8.468-4.124 8.046-3.664 7.622-3.22 7.198-2.796 6.775-2.397 6.775-2.154 6.351-1.786 6.352-1.545 5.928-1.216 5.928-.984 5.504-.7 5.505-.483 5.505-.26 3.387-.044h0" clip-path="url(#p672a93bddd)" style="fill:none;stroke:#51aeff;stroke-opacity:.5;stroke-linecap:square"/><path id="line2d_38" d="m19.882 271.8 8.045-26.515 7.198-22.994L41.9 201.36l6.352-18.93 5.928-17.009 5.928-16.322 5.505-14.5 5.08-12.787 5.082-12.183 4.658-10.61 4.657-10.052 4.235-8.635 4.234-8.137 3.811-6.882 3.811-6.451 3.81-6.008 3.388-4.956 3.388-4.586 3.387-4.207 3.388-3.818 2.964-3.015 2.964-2.705 2.964-2.388 2.54-1.79 2.541-1.549 2.54-1.304 2.541-1.055 2.54-.803 2.541-.547 2.541-.286 2.54-.044 9.316.126 6.775.297 5.928.468 5.505.652 5.08.824 4.659.968 4.657 1.197 4.235 1.307 4.234 1.534 4.234 1.778 4.235 2.04 3.81 2.075 3.812 2.314 3.81 2.568 3.811 2.833 3.811 3.113 3.811 3.404 3.811 3.71 3.81 4.026 3.812 4.358 3.81 4.701 3.812 5.059 3.81 5.428 3.811 5.812 3.811 6.207 3.811 6.616 3.811 7.038 3.811 7.473 2.117 4.344h0" clip-path="url(#p672a93bddd)" style="fill:none;stroke:#5ca3ff;stroke-opacity:.5;stroke-linecap:square"/><path id="line2d_39" d="m19.882 271.8 7.622-25.44 7.198-23.253 6.775-21.124 6.351-19.071 5.928-17.11 5.505-15.25 5.505-14.6 5.08-12.869 5.082-12.253 4.658-10.669 4.658-10.106 4.234-8.68 4.234-8.182 4.235-7.666 3.81-6.444 3.811-6 3.388-4.952 3.387-4.584 3.388-4.206 3.387-3.821 2.964-3.02 2.964-2.714 2.964-2.4 2.964-2.082 2.541-1.527 2.54-1.284 2.541-1.04 2.54-.79 2.541-.537 2.541-.282 2.54-.042 7.199.143 5.928.326 5.505.515 5.08.688 5.082.922 4.658 1.075 4.658 1.318 4.234 1.427 4.234 1.663 4.235 1.914 3.81 1.952 3.811 2.182 3.811 2.424 3.811 2.677 3.811 2.943 3.81 3.221 3.812 3.511 3.81 3.813 3.812 4.127 3.81 4.454 3.811 4.792 3.811 5.142 3.811 5.505 3.811 5.879 3.811 6.266 3.81 6.664 3.812 7.076 4.234 8.358 4.234 8.897 1.694 3.713h0" clip-path="url(#p672a93bddd)" style="fill:none;stroke:#5da2ff;stroke-opacity:.5;stroke-linecap:square"/><path id="line2d_40" d="m19.882 271.8 8.045-26.529 7.198-23.003L41.9 201.33l6.352-18.934 5.928-17.011 5.928-16.324 5.505-14.499 5.08-12.786 5.082-12.181 4.658-10.609 4.657-10.05 4.235-8.633 4.234-8.134 3.811-6.88 3.811-6.449 3.81-6.004 3.388-4.955 3.388-4.584 3.387-4.204 3.388-3.817 2.964-3.013 2.964-2.703 2.964-2.387 2.54-1.788 2.541-1.549 2.54-1.303 2.541-1.055 2.54-.802 2.541-.546 2.541-.286 2.54-.044 9.316.13 6.775.306 5.928.478 5.505.664 5.08.836 4.659.982 4.657 1.211 4.235 1.322 4.234 1.548 4.234 1.794 4.235 2.058 3.81 2.091 3.812 2.332 3.81 2.585 3.811 2.852 3.811 3.13 3.811 3.424 3.811 3.729 3.81 4.047 3.812 4.378 3.81 4.722 3.812 5.08 3.81 5.45 3.811 5.833 3.811 6.229 3.811 6.637 3.811 7.06 3.811 7.495 2.117 4.357h0" clip-path="url(#p672a93bddd)" style="fill:none;stroke:#5ea1ff;stroke-opacity:.5;stroke-linecap:square"/><path id="line2d_41" d="m19.882 271.8 7.198-24.569 6.775-22.33 6.352-20.18 5.928-18.137 5.928-17.42 5.504-15.5 5.505-14.818 5.081-13.044 5.081-12.412 4.658-10.8 4.658-10.23 4.234-8.786 4.235-8.285 4.234-7.767 3.81-6.537 3.812-6.097 3.81-5.646 3.388-4.632 3.388-4.26 3.387-3.88 2.964-3.08 2.964-2.778 2.964-2.472 2.964-2.163 2.54-1.602 2.541-1.368 2.54-1.13 2.541-.888 2.541-.645 2.54-.397 2.541-.147 5.081.091 5.082.31 4.657.495 4.658.718 4.658.96 4.234 1.096 4.235 1.327 4.234 1.57 4.234 1.828 3.811 1.877 3.811 2.109 3.811 2.35 3.81 2.6 3.812 2.864 3.81 3.135 3.812 3.419 3.81 3.712 3.811 4.015 3.811 4.33 3.811 4.654 3.811 4.989 3.81 5.334 3.812 5.69 3.81 6.056 4.235 7.17 4.234 7.65 4.235 8.144 4.234 8.651 4.234 9.173 4.235 9.71 3.387 8.162h0" clip-path="url(#p672a93bddd)" style="fill:none;stroke:#629dff;stroke-opacity:.5;stroke-linecap:square"/><path id="line2d_42" d="m19.882 271.8 7.198-24.341 6.775-22.164 6.352-20.066 6.351-19.322 5.928-17.32 5.505-15.425 5.504-14.76 5.082-13.003 5.08-12.38 4.659-10.78 4.657-10.213 4.235-8.776 4.234-8.277 4.234-7.762 3.811-6.533 3.811-6.092 3.811-5.64 3.387-4.625 3.388-4.252 3.387-3.87 2.964-3.068 2.964-2.764 2.965-2.455 2.964-2.142 2.54-1.582 2.54-1.345 2.541-1.104 2.54-.859 2.542-.612 2.54-.36 2.54-.108 5.929.117 5.504.33 5.082.523 4.657.688 4.658.906 4.658 1.147 4.234 1.267 4.235 1.498 4.234 1.744 4.234 2.004 3.811 2.04 3.811 2.275 3.81 2.52 3.812 2.778 3.81 3.046 3.812 3.325 3.81 3.615 3.811 3.918 3.811 4.23 3.811 4.554 3.811 4.89 3.811 5.235 3.81 5.593 3.812 5.96 3.81 6.342 4.235 7.504 4.234 8.002 4.235 8.515 4.234 9.043 4.234 9.586.847 1.984h0" clip-path="url(#p672a93bddd)" style="fill:none;stroke:#6a95ff;stroke-opacity:.5;stroke-linecap:square"/><path id="line2d_43" d="m19.882 271.8 8.892-28.556 8.045-25.093 7.198-21.735 6.775-19.743 6.352-17.806 5.928-15.943 5.505-14.17 5.08-12.496 5.082-11.901L83.397 94l4.658-9.799 4.234-8.402 4.234-7.899 3.811-6.661 3.811-6.223 3.81-5.768 3.388-4.735 3.388-4.353 3.387-3.962 2.964-3.138 2.964-2.822 2.964-2.502 2.541-1.882 2.54-1.637 2.541-1.386 2.54-1.131 2.541-.873 2.541-.609 2.54-.34 2.541-.078 13.973.106 8.046.288 6.775.47 5.928.634 5.504.814 5.081.974 4.658 1.105 4.658 1.327 4.658 1.572 4.234 1.657 4.234 1.891 4.235 2.14 4.234 2.406 4.234 2.686 3.811 2.669 3.811 2.92 3.811 3.182 3.811 3.455 3.81 3.74 3.812 4.035 3.81 4.343 3.812 4.66 3.81 4.99 3.811 5.332 3.811 5.682 3.811 6.047h0" clip-path="url(#p672a93bddd)" style="fill:none;stroke:#6a95ff;stroke-opacity:.5;stroke-linecap:square"/><path id="line2d_44" d="m19.882 271.8 11.433-35.286 8.892-26.747 7.621-22.253 6.775-19.138 6.352-17.3 5.928-15.515 5.505-13.798 5.08-12.17 5.082-11.585 4.658-10.067 4.234-8.666 4.234-8.18 4.235-7.666 3.81-6.443 3.811-5.991 3.388-4.932 3.387-4.548 3.388-4.153 2.964-3.299 2.964-2.978 2.964-2.649 2.54-2.002 2.541-1.749 2.54-1.49 2.541-1.228 2.54-.958 2.542-.684 2.117-.356 2.117-.16 5.928-.006 14.397.127 9.739.306 8.045.464 7.198.624 6.775.804 6.352.973 5.928 1.123 5.928 1.354 5.504 1.48 5.505 1.715 5.081 1.805 5.081 2.032 5.082 2.272 5.08 2.526 5.082 2.794 4.658 2.808 4.657 3.054 4.658 3.31 4.658 3.578 2.117 1.717h0" clip-path="url(#p672a93bddd)" style="fill:none;stroke:#6d92ff;stroke-opacity:.5;stroke-linecap:square"/><path id="line2d_45" d="m19.882 271.8 7.622-25.488 7.198-23.287 6.775-21.147 6.351-19.086 5.928-17.118 5.505-15.255 5.505-14.6 5.08-12.865 5.082-12.248 4.658-10.662 4.658-10.099 4.234-8.673 4.234-8.172 3.811-6.915 3.811-6.483 3.811-6.042 3.387-4.99 3.388-4.621 3.387-4.247 3.388-3.862 2.964-3.058 2.964-2.752 2.964-2.44 2.964-2.123 2.54-1.563 2.541-1.322 2.54-1.077 2.541-.83 2.541-.578 2.54-.324 2.541-.072 6.775.123 5.928.316 5.505.508 5.081.685 4.658.835 4.657 1.055 4.658 1.297 4.235 1.407 4.234 1.642 4.234 1.893 4.235 2.16 3.81 2.185 3.811 2.428 3.811 2.68 3.811 2.947 3.811 3.223L224.4 48.7l3.81 3.814 3.812 4.127 3.81 4.453 3.812 4.79 3.81 5.139 3.811 5.5 3.811 5.872 3.811 6.258 3.811 6.654 3.81 7.063 4.235 8.341 4.235 8.878 2.54 5.59h0" clip-path="url(#p672a93bddd)" style="fill:none;stroke:#708fff;stroke-opacity:.5;stroke-linecap:square"/><path id="line2d_46" d="m19.882 271.8 6.775-23.585 6.351-21.327 6.352-20.528 5.928-18.4 5.504-16.401 5.505-15.713 5.081-13.87 5.081-13.24 5.082-12.59 4.657-10.95 4.658-10.369 4.234-8.908 4.235-8.402 4.234-7.884 3.811-6.642 3.811-6.204 3.81-5.756 3.388-4.733 3.388-4.367 3.387-3.993 2.964-3.184 2.964-2.888 2.964-2.59 2.964-2.287 2.964-1.98 2.541-1.448 2.54-1.217 2.541-.984 2.54-.746 2.541-.507 2.541-.265 2.54-.036 4.235.15 4.234.362 4.235.585 4.234.82 4.234 1.068 3.811 1.182 3.811 1.403 3.81 1.63 3.812 1.868 3.81 2.113 3.812 2.37 3.81 2.632 3.811 2.905 3.811 3.188 3.811 3.478 3.811 3.778 3.811 4.086 3.81 4.403 3.812 4.73 3.81 5.066 3.812 5.409 3.81 5.763 4.235 6.827 4.234 7.287 4.234 7.758 4.235 8.242 4.234 8.738 4.234 9.246 4.235 9.766 4.234 10.299 4.234 10.843 1.694 4.493h0" clip-path="url(#p672a93bddd)" style="fill:none;stroke:#708fff;stroke-opacity:.5;stroke-linecap:square"/><path id="line2d_47" d="m19.882 271.8 6.351-22.715 5.928-20.412 5.928-19.624 5.505-17.494 5.505-16.772 5.504-16.03 5.082-14.118 5.08-13.453 4.658-11.732 4.658-11.146 4.658-10.547 4.234-9.058 4.235-8.544 4.234-8.02 3.81-6.762 3.812-6.324 3.81-5.878 3.388-4.846 3.388-4.483 3.387-4.117 3.388-3.744 2.964-2.968 2.964-2.676 2.964-2.382 2.964-2.083 2.964-1.783 2.54-1.285 2.54-1.06 2.541-.833 2.541-.602 2.54-.371 2.541-.138 3.811.102 3.811.337 3.811.578 3.81.826 3.812 1.08 3.387 1.181 3.388 1.392 3.387 1.608 3.388 1.83 3.81 2.328 3.811 2.621 3.811 2.921 3.811 3.227 3.811 3.541 3.811 3.86 3.81 4.188 3.812 4.522 3.81 4.862 3.812 5.21 3.81 5.563 3.811 5.925 4.235 7.015 4.234 7.478 4.234 7.952 4.235 8.433 4.234 8.925 4.234 9.427 4.235 9.936 4.657 11.531 4.658 12.173 4.658 12.826 4.658 13.492.423 1.26h0" clip-path="url(#p672a93bddd)" style="fill:none;stroke:#708fff;stroke-opacity:.5;stroke-linecap:square"/><path id="line2d_48" d="m19.882 271.8 10.162-31.82 8.469-25.827 7.622-22.546 6.775-19.375 6.351-17.506 5.928-15.696 5.505-13.962 5.081-12.32 5.081-11.734 4.658-10.207 4.658-9.652 4.234-8.265 4.234-7.758 3.811-6.53 3.811-6.082 3.388-5.019 3.387-4.64 3.388-4.252 2.964-3.392 2.964-3.076 2.964-2.754 2.964-2.423 2.54-1.808 2.54-1.554 2.541-1.296 2.541-1.032 2.54-.763 2.118-.428 2.117-.235 2.54-.048 15.668.108 8.892.28 7.621.459 6.775.63 6.352.821 5.928 1 5.505 1.154 5.08 1.28 5.082 1.505 5.081 1.748 4.658 1.83 4.658 2.065 4.657 2.31 4.658 2.573 4.658 2.848 4.234 2.839 4.235 3.088 4.234 3.349 4.234 3.619 4.235 3.9 4.234 4.19 4.234 4.494.847.936h0" clip-path="url(#p672a93bddd)" style="fill:none;stroke:#758aff;stroke-opacity:.5;stroke-linecap:square"/><path id="line2d_49" d="m19.882 271.8 5.928-21.95 5.505-19.578 5.504-18.791 5.505-17.992 5.081-15.887 5.081-15.186 5.081-14.476 4.658-12.636 4.658-12.024 4.658-11.403 4.234-9.823 4.234-9.298 4.235-8.769 4.234-8.233 3.81-6.947 3.812-6.505 3.81-6.06 3.812-5.608 3.387-4.604 3.387-4.243 3.388-3.877 3.387-3.51 2.964-2.768 2.964-2.482 2.965-2.195 2.964-1.905 2.964-1.614 2.54-1.15 2.54-.934 2.541-.716 2.541-.497 2.54-.277 2.541-.058 2.964.139 2.964.335 2.964.532 2.964.733 2.964.934 3.388 1.317 3.387 1.586 3.388 1.858 3.387 2.132 3.388 2.41 3.387 2.689 3.388 2.973 3.387 3.258 3.387 3.547 3.811 4.34 3.811 4.712 3.811 5.09 3.811 5.47 3.811 5.856 3.81 6.246 3.812 6.638 4.234 7.843 4.234 8.339 4.235 8.84 4.234 9.349 4.234 9.86 4.658 11.446 4.658 12.081 4.658 12.723 4.657 13.373 4.658 14.03 4.658 14.693 5.081 16.796h0" clip-path="url(#p672a93bddd)" style="fill:none;stroke:#7689ff;stroke-opacity:.5;stroke-linecap:square"/><path id="line2d_50" d="m19.882 271.8 6.775-23.614 6.351-21.35 5.928-19.2 5.928-18.466 5.505-16.46 5.505-15.77 5.08-13.924 5.082-13.293 5.081-12.642 4.658-10.998 4.658-10.418 4.234-8.953 4.234-8.448 4.235-7.93 3.81-6.684 3.812-6.247 3.81-5.8 3.388-4.773 3.387-4.408 3.388-4.035 3.387-3.657 2.964-2.884 2.964-2.586 2.964-2.283L129.974 25l2.541-1.447 2.54-1.215 2.541-.982 2.54-.745 2.541-.506 2.541-.265 2.54-.035 4.235.154 4.234.368 4.235.596 4.234.835 3.81.965 3.812 1.178 3.81 1.399 3.811 1.628 3.811 1.868 3.811 2.115 3.811 2.37 3.811 2.637 3.811 2.91 3.81 3.194 3.812 3.484 3.81 3.785 3.812 4.094 3.81 4.413 3.811 4.739 3.811 5.074 3.811 5.42 3.811 5.772 4.234 6.838 4.235 7.298 4.234 7.77 4.234 8.252 4.235 8.748 4.234 9.255 4.234 9.775 4.235 10.306 4.234 10.85 2.117 5.633h0" clip-path="url(#p672a93bddd)" style="fill:none;stroke:#7887ff;stroke-opacity:.5;stroke-linecap:square"/><path id="line2d_51" d="m19.882 271.8 6.351-22.497 6.352-21.667 5.928-19.442 5.928-18.66 5.505-16.6 5.504-15.879 5.081-13.995 5.082-13.343 4.657-11.641 4.658-11.063 4.658-10.472 4.234-8.994 4.235-8.483 4.234-7.962 3.81-6.711 3.812-6.273 3.81-5.826 3.388-4.798 3.387-4.435 3.388-4.065 3.387-3.691 2.964-2.918 2.964-2.624 2.965-2.326 2.964-2.024 2.54-1.492 2.54-1.266 2.541-1.037 2.54-.806 2.542-.572 2.54-.338 2.54-.1 3.812.114 3.81.323 3.811.541 3.811.766 3.811.999 3.811 1.239 3.811 1.487 3.81 1.742 3.812 2.006 3.81 2.276 3.812 2.555 3.81 2.84 3.811 3.135 3.811 3.436 3.811 3.744 3.811 4.06 3.811 4.385 3.81 4.717 3.812 5.055 3.81 5.403 3.812 5.757 4.234 6.822 4.234 7.279 4.235 7.747 4.234 8.225 4.234 8.714 4.235 9.214 4.234 9.723 4.234 10.243 4.658 11.88 4.658 12.537 3.387 9.537h0" clip-path="url(#p672a93bddd)" style="fill:none;stroke:#7887ff;stroke-opacity:.5;stroke-linecap:square"/><path id="line2d_52" d="m19.882 224.35 5.081-16.938 5.081-16.14 5.081-15.348 4.658-13.382 4.658-12.733 4.658-12.09 4.657-11.454 4.658-10.826 4.235-9.302 4.234-8.793 4.234-8.291 4.235-7.793 4.234-7.3 3.81-6.154 3.812-5.763 3.81-5.376 3.811-4.993 3.811-4.614 3.811-4.239 3.388-3.455 3.387-3.165 3.388-2.877L116 30.732l3.388-2.309 3.387-2.029 3.388-1.752 3.387-1.477 3.387-1.206 2.964-.834 2.964-.63 2.965-.428 2.964-.227 2.964-.021 2.54.202 2.54.422 2.541.64 2.541.859 2.54 1.074 2.541 1.29 2.964 1.774 2.964 2.064 2.964 2.352 2.964 2.637 2.964 2.922 2.964 3.203 3.388 4.005 3.387 4.367 3.388 4.729 3.387 5.087 3.811 6.147 3.811 6.592 3.81 7.035 3.812 7.473 4.234 8.812 4.234 9.343 4.235 9.869 4.658 11.456 4.657 12.078 4.658 12.694 4.658 13.302 5.081 15.197 5.081 15.903 5.081 16.6 5.505 18.76 5.505 19.555 5.504 20.34.847 3.198h0" clip-path="url(#p672a93bddd)" style="fill:none;stroke:#8679ff;stroke-opacity:.5;stroke-linecap:square"/><path id="line2d_53" d="m19.882 215.271 5.081-16.394 5.081-15.595 4.658-13.604 4.658-12.95 4.657-12.307 4.658-11.67 4.658-11.041 4.234-9.5 4.235-8.995 4.234-8.495 4.234-8.002 4.235-7.515 4.234-7.035 3.81-5.926 3.812-5.546 3.81-5.171 3.812-4.802 3.81-4.435 3.811-4.075 3.811-3.718 3.388-3.01 3.387-2.734 3.388-2.464 3.387-2.195 3.388-1.93 3.387-1.667 3.388-1.41 3.387-1.154 3.387-.902 3.388-.653 3.387-.407 3.388-.165 2.54.059 2.541.28 2.54.502 2.541.724 2.54.944 2.541 1.162 2.541 1.38 2.964 1.881 2.964 2.174 2.964 2.462 2.964 2.75 2.964 3.035 3.388 3.815 3.387 4.18 3.388 4.544 3.387 4.904 3.81 5.942 3.812 6.389 3.81 6.831 3.812 7.268 4.234 8.584 4.234 9.111 4.235 9.633 4.657 11.191 4.658 11.807 4.658 12.413 4.658 13.012 5.08 14.867 5.082 15.559 5.081 16.238 5.505 18.348 5.505 19.118 5.928 21.437 2.54 9.452h0" clip-path="url(#p672a93bddd)" style="fill:none;stroke:#8679ff;stroke-opacity:.5;stroke-linecap:square"/><path id="line2d_54" d="m19.882 236.118 5.081-17.645 5.081-16.844 5.081-16.048 4.658-14.018 4.658-13.361 4.658-12.71 4.657-12.062 4.658-11.421 4.235-9.83 4.234-9.31 4.234-8.792 4.235-8.277 4.234-7.769 3.81-6.559 3.812-6.152 3.81-5.748 3.811-5.348 3.811-4.95 3.811-4.554 3.388-3.719 3.387-3.411 3.388-3.105L116 31.683l3.388-2.5 3.387-2.2 2.964-1.681 2.964-1.455 2.964-1.23 2.964-1.005 2.964-.783 2.964-.562 2.964-.343 2.964-.124 2.54.09 2.541.306 2.541.521 2.54.735 2.541.948 2.54 1.16 2.965 1.622 2.964 1.908 2.964 2.193 2.964 2.476 2.964 2.76 2.964 3.04 3.388 3.816 3.387 4.18 3.387 4.542 3.388 4.9 3.81 5.94 3.812 6.389 3.81 6.835 3.812 7.278 4.234 8.604 4.234 9.143 4.234 9.679 4.235 10.21 4.658 11.841 4.657 12.475 4.658 13.102 5.081 15.003 5.082 15.738 5.08 16.464 5.082 17.185 5.505 19.422 5.504 20.25 2.964 11.245h0" clip-path="url(#p672a93bddd)" style="fill:none;stroke:#87f;stroke-opacity:.5;stroke-linecap:square"/><path id="line2d_55" d="m19.882 215.971 5.081-16.435 5.081-15.637 4.658-13.643 4.658-12.988 4.657-12.344 4.658-11.706 4.658-11.078 4.234-9.533 4.235-9.026 4.234-8.526 4.234-8.032 4.235-7.544 4.234-7.063 3.81-5.95 3.812-5.57 3.81-5.194 3.812-4.822 3.81-4.456 3.811-4.094 3.811-3.736 3.388-3.024 3.387-2.749 3.388-2.475 3.387-2.207 3.388-1.94 3.387-1.677 3.388-1.418 3.387-1.16 3.387-.908 3.388-.656 3.387-.41 3.388-.166 2.54.059 2.541.28 2.54.501 2.541.723 2.54.943 2.541 1.161 2.541 1.378 2.964 1.88 2.964 2.171 2.964 2.46 2.964 2.748 2.964 3.032 3.388 3.812 3.387 4.178 3.388 4.54 3.387 4.9 3.81 5.94 3.812 6.385 3.81 6.828 3.812 7.265 4.234 8.58 4.234 9.11 4.235 9.63 4.657 11.19 4.658 11.806 4.658 12.414 4.658 13.012 5.08 14.87 5.082 15.563 5.081 16.244 5.505 18.355 5.505 19.129 5.928 21.45 2.54 9.459h0" clip-path="url(#p672a93bddd)" style="fill:none;stroke:#8c73ff;stroke-opacity:.5;stroke-linecap:square"/><path id="line2d_56" d="m19.882 155.99 4.658-11.793 4.234-10.146 4.234-9.612 4.235-9.09 4.234-8.58 4.234-8.085 4.235-7.601 4.234-7.132 4.234-6.675 4.235-6.23 4.234-5.8 3.81-4.86 3.812-4.532 3.81-4.212 3.811-3.901 3.811-3.6 3.811-3.309 3.811-3.026 3.811-2.753 3.811-2.49 3.81-2.236 3.812-1.991 3.81-1.756 3.812-1.53 4.234-1.448 4.234-1.193 4.235-.952 4.234-.724 4.234-.508 4.658-.327 4.658-.097 2.54.144 2.54.39 2.542.634 2.54.873 2.54 1.11 2.541 1.346 2.54 1.577 2.965 2.129 2.964 2.436 2.964 2.739 2.964 3.037 2.964 3.331 3.388 4.162 3.387 4.533 3.387 4.897 3.811 5.938 3.811 6.381 3.811 6.817 3.811 7.24 4.234 8.534 4.235 9.033 4.657 10.499 4.658 11.07 4.658 11.627 5.081 13.296 5.081 13.915 5.505 15.745 5.505 16.415 5.928 18.396 5.928 19.105 6.351 21.216 6.775 23.434h0" clip-path="url(#p672a93bddd)" style="fill:none;stroke:#8d72ff;stroke-opacity:.5;stroke-linecap:square"/><path id="line2d_57" d="m19.882 181.293 4.658-13.187 4.657-12.52 4.658-11.868 4.658-11.228 4.658-10.602 4.234-9.106 4.234-8.61 4.235-8.125 4.234-7.648 4.234-7.182 4.235-6.726 4.234-6.281 3.81-5.28 3.812-4.935 3.81-4.596 3.812-4.266 3.81-3.943 3.811-3.627 3.811-3.318 3.811-3.017 3.811-2.723 3.81-2.436 3.812-2.158 3.81-1.885 3.812-1.622 3.81-1.364 3.811-1.115 3.811-.872 3.811-.638 3.811-.41 3.811-.19 2.964.025 2.54.257 2.541.493 2.54.725 2.541.956 2.541 1.184 2.54 1.411 2.541 1.636 2.964 2.188 2.964 2.487 2.964 2.782 2.964 3.074 3.388 3.866 3.387 4.238 3.388 4.604 3.387 4.965 3.811 6.01 3.811 6.454 3.81 6.89 3.812 7.318 4.234 8.625 4.234 9.134 4.235 9.634 4.658 11.162 4.657 11.74 5.081 13.453 5.082 14.108 5.08 14.746 5.506 16.674 5.504 17.38 5.928 19.48 5.928 20.246 6.352 22.51.423 1.53h0" clip-path="url(#p672a93bddd)" style="fill:none;stroke:#926dff;stroke-opacity:.5;stroke-linecap:square"/><path id="line2d_58" d="m19.882 134.432 4.234-9.67 4.234-9.123 4.235-8.592 4.234-8.076 4.234-7.576 4.235-7.09 4.234-6.621 3.811-5.57 3.81-5.212 3.812-4.867 3.81-4.533 3.812-4.209 3.81-3.896 3.811-3.596 3.811-3.306 3.811-3.027 3.811-2.76 3.811-2.503 3.81-2.258 3.812-2.024 4.234-1.988 4.234-1.729 4.235-1.484L116 23.467l4.658-1.135 4.658-.897 4.657-.678 5.082-.517 5.504-.325 5.928-.115 2.54.108 2.541.36 2.541.613 2.54.86 2.541 1.104 2.54 1.346 2.541 1.583 2.541 1.818 2.964 2.413 2.964 2.722 2.964 3.026 2.964 3.325 3.388 4.16 3.387 4.535 3.388 4.902 3.81 5.946 3.811 6.39 3.811 6.823 4.235 8.075 4.234 8.581 4.234 9.072 4.658 10.526 4.658 11.08 5.081 12.697 5.081 13.305 5.505 15.07 5.504 15.72 5.929 17.617 6.351 19.62 6.351 20.341 6.775 22.432 4.658 15.83h0" clip-path="url(#p672a93bddd)" style="fill:none;stroke:#926dff;stroke-opacity:.5;stroke-linecap:square"/><path id="line2d_59" d="m19.882 19.8 19.054.112 19.055.335 19.478.568 19.478.793 19.478 1.013 19.9 1.258 11.857.903 2.117.393 2.54.724 2.541.995 2.541 1.26 2.54 1.519 2.541 1.773 2.54 2.022 2.965 2.665 2.964 2.986 2.964 3.298 2.964 3.603 3.387 4.476 3.388 4.849 3.81 5.881 3.812 6.316 3.81 6.731 4.235 7.943 4.234 8.407 4.658 9.75 5.081 11.2 5.081 11.743L224.4 136.6l5.928 14.893 6.352 16.555 7.198 19.402 8.045 22.336 9.74 27.714 11.855 34.301h0" clip-path="url(#p672a93bddd)" style="fill:none;stroke:#926dff;stroke-opacity:.5;stroke-linecap:square"/><path id="line2d_60" d="m19.882 19.8 26.253 24.805L72.81 70.116l27.1 26.227 27.1 26.535 27.523 27.26 26.252 26.311 26.677 27.049 27.1 27.796 27.522 28.552 11.433 11.954h0" clip-path="url(#p672a93bddd)" style="fill:none;stroke:#936cff;stroke-opacity:.5;stroke-linecap:square"/><path id="line2d_61" d="m19.882 142.347 4.234-10.066 4.234-9.519 4.235-8.985 4.234-8.468 4.234-7.963 4.235-7.473 4.234-6.999 4.234-6.537 4.235-6.092 3.81-5.113 3.812-4.773 3.81-4.445 3.811-4.127 3.811-3.82 3.811-3.522 3.811-3.235 3.811-2.96 3.81-2.694 3.812-2.44 3.81-2.195 3.812-1.961 4.234-1.918 4.234-1.656 4.235-1.41 4.234-1.178 4.234-.96 4.658-.82 4.658-.595 5.08-.413 5.082-.19 3.811.023 2.54.273 2.541.523 2.54.77 2.541 1.011 2.541 1.252 2.54 1.489 2.541 1.722 2.964 2.3 2.964 2.61 2.964 2.913 2.964 3.212 3.388 4.031 3.387 4.407 3.388 4.777 3.387 5.138 3.811 6.204 3.811 6.641 3.81 7.07 4.235 8.342 4.235 8.844 4.234 9.328 4.658 10.806 4.657 11.357 5.082 12.994 5.08 13.603 5.505 15.393 5.505 16.046 5.928 17.973 6.352 20.01 6.351 20.742 6.775 22.877 2.117 7.299h0" clip-path="url(#p672a93bddd)" style="fill:none;stroke:#946bff;stroke-opacity:.5;stroke-linecap:square"/><path id="line2d_62" d="m19.882 19.8 5.081.117 5.081.344 5.081.565 5.082.775 5.504 1.069 5.505 1.297 5.504 1.513 5.929 1.861 5.928 2.088 6.351 2.473 6.775 2.889 6.775 3.13 7.198 3.565 7.622 4.022 8.469 4.73 8.892 5.225 10.162 6.236 11.856 7.55 7.199 4.778 3.81 2.863 3.812 3.14 3.81 3.41 4.235 4.099 4.234 4.412 4.234 4.719 4.658 5.532 4.658 5.876 5.081 6.79 5.081 7.168 5.505 8.173 5.505 8.577 5.928 9.662 5.928 10.08 6.351 11.231 6.775 12.437 7.199 13.687 7.621 14.97L252.77 228l9.315 19.39 10.586 22.583.847 1.828h0" clip-path="url(#p672a93bddd)" style="fill:none;stroke:#9768ff;stroke-opacity:.5;stroke-linecap:square"/><path id="line2d_63" d="m19.882 104.935 3.81-7.398 3.812-6.957 3.81-6.529 3.811-6.115 3.811-5.714 3.811-5.326 3.811-4.953 3.811-4.593 3.81-4.247 3.812-3.914 3.81-3.594 3.812-3.289 3.81-2.997 3.811-2.718 3.811-2.453 3.811-2.202 3.811-1.964 4.234-1.92 4.235-1.662 4.234-1.422 4.234-1.201 4.658-1.089 4.658-.869 5.081-.726 5.505-.562 6.351-.41 7.199-.232 10.162-.079 3.387.075 2.541.334 2.54.595 2.541.854 2.54 1.107 2.541 1.358 2.541 1.604 2.54 1.846 2.965 2.455 2.964 2.772 2.964 3.083 2.964 3.388 3.387 4.237 3.388 4.617 3.387 4.988 3.811 6.043 3.81 6.487 3.812 6.916 4.234 8.173 4.235 8.668 4.657 10.084 4.658 10.637 5.081 12.205 5.081 12.8 5.505 14.5 5.505 15.121 5.928 16.93 6.351 18.827 6.775 20.796 7.199 22.82 8.045 26.277.423 1.403h0" clip-path="url(#p672a93bddd)" style="fill:none;stroke:#9b64ff;stroke-opacity:.5;stroke-linecap:square"/><path id="line2d_64" d="m19.882 19.8 12.703 16.814 12.28 15.888L56.72 67.48l11.433 14.09 11.01 13.225 11.009 12.872 10.586 12.031 10.162 11.218 10.162 10.881 9.74 10.101 9.315 9.353 9.739 9.454 12.703 12.02 12.28 11.319 11.855 10.63 11.433 9.955 11.01 9.297 10.585 8.657 10.586 8.366 10.162 7.747 9.74 7.15 9.738 6.873 9.316 6.305 4.234 2.776h0" clip-path="url(#p672a93bddd)" style="fill:none;stroke:#9c63ff;stroke-opacity:.5;stroke-linecap:square"/><path id="line2d_65" d="m19.882 75.448 4.234-5.39 4.234-5.03 4.235-4.683 4.234-4.348 4.234-4.026 4.235-3.715 4.234-3.418 4.234-3.132 4.235-2.86 4.234-2.599 4.234-2.351 4.235-2.116 4.658-2.07 4.657-1.817 4.658-1.58 4.658-1.36 5.081-1.251 5.081-1.03 5.505-.892 5.928-.73 6.351-.555 7.199-.395 8.468-.229 11.857-.07 3.81.078 2.118.27 2.117.46 2.54.8 2.541 1.064 2.54 1.325 2.541 1.58 2.54 1.83 2.541 2.077 2.964 2.727 2.964 3.048 2.964 3.362 3.388 4.215 3.387 4.604 3.388 4.98 3.81 6.04 3.812 6.486 3.81 6.917 4.235 8.172 4.234 8.662 4.658 10.068 4.658 10.606 5.08 12.148 5.082 12.716 5.505 14.371 5.928 16.116 6.351 17.936 6.775 19.812 7.622 23.02 8.469 26.336 6.351 20.173h0" clip-path="url(#p672a93bddd)" style="fill:none;stroke:#9e61ff;stroke-opacity:.5;stroke-linecap:square"/><path id="line2d_66" d="m19.882 75.978 4.234-5.441 4.234-5.079 4.235-4.727 4.234-4.39 4.234-4.063 4.235-3.75 4.234-3.451 4.234-3.162 4.235-2.887 4.234-2.624 4.234-2.374 4.235-2.136 4.658-2.09 4.657-1.834 4.658-1.595 4.658-1.373 5.081-1.263 5.081-1.04 5.505-.9 5.928-.737 6.351-.56 7.199-.4 8.468-.23 11.857-.072 3.81.079 2.118.27 2.117.46 2.54.799 2.541 1.064 2.54 1.323 2.541 1.58 2.54 1.829 2.541 2.075 2.964 2.725 2.964 3.047 2.964 3.36 3.388 4.212 3.387 4.602 3.388 4.978 3.81 6.037 3.812 6.483 3.81 6.915 4.235 8.17 4.234 8.659 4.658 10.065 4.658 10.604 5.08 12.147 5.082 12.714 5.505 14.37 5.928 16.117 6.351 17.939 6.775 19.817 7.622 23.027 8.469 26.348 6.351 20.185h0" clip-path="url(#p672a93bddd)" style="fill:none;stroke:#9f60ff;stroke-opacity:.5;stroke-linecap:square"/><path id="line2d_67" d="m19.882 56.251 4.658-3.87 4.657-3.587 4.658-3.313 4.658-3.05 4.658-2.8 4.657-2.557 5.082-2.53 5.08-2.268 5.082-2.023 5.081-1.792 5.505-1.697 5.504-1.458 5.505-1.24 5.928-1.11 6.352-.955 6.775-.782 7.198-.6 8.045-.438 9.316-.27 12.28-.107 8.044.077 2.118.278 2.117.472 2.54.82 2.541 1.091 2.54 1.357 2.541 1.617 2.54 1.873 2.541 2.123 2.964 2.786 2.964 3.112 2.964 3.428 3.388 4.296 3.387 4.687 3.388 5.065 3.81 6.136 3.812 6.581 3.81 7.01 4.235 8.27 4.234 8.754 4.658 10.158 4.658 10.682 5.08 12.212 5.506 13.842 5.928 15.56 6.351 17.348 6.775 19.187 7.198 21.052 8.47 25.486 10.161 31.35 1.694 5.286h0" clip-path="url(#p672a93bddd)" style="fill:none;stroke:#9f60ff;stroke-opacity:.5;stroke-linecap:square"/><path id="line2d_68" d="m19.882 65.797 4.234-4.455 4.234-4.158 4.235-3.871 4.234-3.594 4.234-3.327 4.658-3.365 4.658-3.067 4.658-2.786 4.658-2.516 4.657-2.26L69 30.379l4.658-1.79 5.081-1.71 5.081-1.472 5.081-1.253 5.505-1.129 5.928-.977 5.928-.757 6.775-.63 7.198-.443 8.47-.287 10.585-.122 9.315.07 2.118.275 2.117.466 2.54.81 2.541 1.078 2.54 1.34 2.541 1.6 2.54 1.851 2.541 2.1 2.964 2.757 2.964 3.08 2.964 3.395 3.388 4.256 3.387 4.645 3.388 5.023 3.81 6.088 3.812 6.535 3.81 6.963 4.235 8.222 4.234 8.708 4.658 10.113 4.658 10.644 5.08 12.18 5.506 13.822 5.504 14.421 5.928 16.146 6.352 17.935 7.198 21.027 7.622 22.954 8.892 27.5 5.081 15.987h0" clip-path="url(#p672a93bddd)" style="fill:none;stroke:#a55aff;stroke-opacity:.5;stroke-linecap:square"/><path id="line2d_69" d="m19.882 26.269 9.739-1.379 10.162-1.214 10.586-1.04 11.433-.895 11.856-.705 13.126-.554 14.397-.383 17.36-.228 24.136-.07 5.928.083 2.118.29 2.117.49 2.117.69 2.54 1.087 2.541 1.362 2.54 1.631 2.541 1.896 2.54 2.153 2.965 2.83 2.964 3.164 2.964 3.487 2.964 3.803 3.388 4.719 3.387 5.104 3.81 6.184 3.812 6.633 3.81 7.063 4.235 8.326 4.234 8.804 4.658 10.204 5.081 11.71 5.081 12.268 5.505 13.864 5.928 15.532 6.352 17.248 7.198 20.195 8.469 24.46 10.586 31.326 8.468 25.393h0" clip-path="url(#p672a93bddd)" style="fill:none;stroke:#a659ff;stroke-opacity:.5;stroke-linecap:square"/><path id="line2d_70" d="m19.882 74.101 4.234-5.26 4.234-4.908 4.235-4.57 4.234-4.242 4.234-3.928 4.235-3.626 4.234-3.335 4.234-3.056 4.235-2.79 4.234-2.537 4.234-2.294 4.658-2.26 4.658-1.996 4.658-1.752 4.657-1.521 5.082-1.417 5.08-1.184 5.506-1.043 5.504-.822 5.928-.666 6.775-.526 7.622-.351 8.892-.18 12.28-.013 2.117.194 2.117.386 2.54.711 2.541.979 2.54 1.24 2.541 1.498 2.54 1.75 2.542 1.999 2.964 2.638 2.964 2.961 2.964 3.278 2.964 3.585 3.387 4.465 3.388 4.846 3.387 5.217 3.81 6.296 3.812 6.735 4.234 7.976 4.234 8.475 4.235 8.952 4.658 10.37 4.657 10.892 5.082 12.44 5.504 14.093 5.928 15.838 5.928 16.464 6.775 19.507 7.199 21.434 8.045 24.69 9.315 29.364.847 2.703h0" clip-path="url(#p672a93bddd)" style="fill:none;stroke:#a857ff;stroke-opacity:.5;stroke-linecap:square"/><path id="line2d_71" d="m19.882 56.782 4.658-3.927 4.657-3.638 4.658-3.362 4.658-3.095 4.658-2.84 4.657-2.595 5.082-2.565 5.08-2.302 5.082-2.053 5.081-1.818 5.505-1.721 5.504-1.48 5.505-1.258 5.928-1.126 6.352-.969 6.775-.794 7.198-.608 8.045-.444 9.316-.274 11.856-.108 8.468.076 2.118.277 2.117.472 2.54.82 2.541 1.09 2.54 1.356 2.541 1.616 2.54 1.872 2.541 2.122 2.964 2.784 2.964 3.11 2.964 3.427 3.388 4.293 3.387 4.685 3.388 5.062 3.81 6.133 3.812 6.58 3.81 7.007 4.235 8.268 4.234 8.75 4.658 10.156 4.658 10.68 5.08 12.21 5.506 13.841 5.928 15.56 6.351 17.348 6.775 19.191 7.198 21.057 8.47 25.495 9.738 30.049 2.117 6.608h0" clip-path="url(#p672a93bddd)" style="fill:none;stroke:#a956ff;stroke-opacity:.5;stroke-linecap:square"/><path id="line2d_72" d="m19.882 75.081 4.234-5.354 4.234-4.997 4.235-4.652 4.234-4.32 4.234-3.999 4.235-3.69 4.234-3.396 4.234-3.111 4.235-2.841 4.234-2.582 4.234-2.336 4.235-2.102 4.658-2.057 4.657-1.805 4.658-1.57 5.081-1.462 5.081-1.224 5.505-1.081 5.505-.853 5.928-.694 6.351-.522 7.199-.368 8.468-.207 12.703-.058 2.117.079 2.118.27 2.117.461 2.54.8 2.541 1.065 2.54 1.325 2.541 1.58 2.54 1.832 2.541 2.077 2.964 2.729 2.964 3.049 2.964 3.363 3.388 4.217 3.387 4.605 3.388 4.982 3.81 6.041 3.812 6.488 3.81 6.92 4.235 8.173 4.234 8.664 4.658 10.07 4.658 10.607 5.08 12.15 5.082 12.716 5.505 14.371 5.928 16.116 6.351 17.934 6.775 19.81 7.622 23.014 8.469 26.327 6.351 20.165h0" clip-path="url(#p672a93bddd)" style="fill:none;stroke:#ac53ff;stroke-opacity:.5;stroke-linecap:square"/><path id="line2d_73" d="m19.882 19.8 5.081 1.063 5.081 1.286 5.505 1.636 5.504 1.878 5.505 2.11 5.928 2.518 5.928 2.764 6.352 3.218 6.351 3.467 6.775 3.958 7.198 4.475 7.622 5.019 8.046 5.58 8.468 6.153 9.316 7.056 10.162 7.984 11.856 9.61 9.74 8.13 5.08 4.57 5.082 4.853 5.504 5.57 5.505 5.882 5.928 6.675 5.928 7.013 6.351 7.877 6.352 8.235 6.775 9.163 6.775 9.534 7.198 10.516 7.622 11.544 8.045 12.612 8.469 13.715 8.892 14.845 9.315 15.994 10.163 17.909 4.234 7.588h0" clip-path="url(#p672a93bddd)" style="fill:none;stroke:#ac53ff;stroke-opacity:.5;stroke-linecap:square"/><path id="line2d_74" d="m19.882 68.89 4.234-4.754 4.234-4.438 4.235-4.13 4.234-3.836 4.234-3.552 4.235-3.277 4.234-3.015 4.234-2.763 4.658-2.763 4.658-2.485 4.658-2.224 4.658-1.976 4.657-1.743 5.081-1.653 5.082-1.413 5.08-1.19 5.505-1.063 5.929-.904 6.351-.728 6.775-.543 7.622-.376 8.892-.207 13.126-.057 2.117.08 2.118.272 2.117.465 2.54.806 2.541 1.074 2.54 1.335 2.541 1.593 2.54 1.845 2.541 2.093 2.964 2.747 2.964 3.07 2.964 3.384 3.388 4.243 3.387 4.632 3.388 5.01 3.81 6.072 3.812 6.519 3.81 6.949 4.235 8.205 4.234 8.693 4.658 10.099 4.658 10.632 5.08 12.17 5.506 13.814 5.504 14.42 5.928 16.15 6.352 17.95 6.775 19.798 7.621 22.963 8.893 27.545 5.504 17.372h0" clip-path="url(#p672a93bddd)" style="fill:none;stroke:#ad52ff;stroke-opacity:.5;stroke-linecap:square"/><path id="line2d_75" d="m19.882 19.8 15.243.109 15.667.336 15.667.558 16.09.8 16.091 1.025 16.09 1.244 16.515 1.5 16.09 1.683 2.117.385 2.54.708 2.542.972 2.54 1.23 2.54 1.485 2.541 1.731 2.54 1.975 2.965 2.602 2.964 2.916 2.964 3.222 3.387 4.045 3.388 4.42 3.387 4.78 3.811 5.797 3.811 6.22 3.811 6.625 4.234 7.815 4.235 8.268 4.658 9.588 5.08 11.012 5.082 11.544 5.505 13.06 5.928 14.643 6.351 16.28 7.198 19.088 8.046 21.987 9.739 27.301 12.28 35.046h0" clip-path="url(#p672a93bddd)" style="fill:none;stroke:#b04fff;stroke-opacity:.5;stroke-linecap:square"/><path id="line2d_76" d="m19.882 19.8 5.081.111 5.081.328 5.081.538 5.505.81 5.505 1.037 5.504 1.255 5.928 1.582 5.928 1.811 6.352 2.18 6.351 2.413 6.775 2.815 7.199 3.241 7.621 3.691 8.046 4.157 8.468 4.631 9.316 5.356 10.162 6.102 12.28 7.646 3.81 2.517 3.812 2.809 3.81 3.097 3.811 3.378 4.235 4.074 4.234 4.402 4.234 4.72 4.658 5.545 4.658 5.904 4.658 6.248 5.08 7.194 5.082 7.57 5.505 8.604 5.928 9.711 5.928 10.145 6.351 11.32 6.775 12.55 7.199 13.825 7.621 15.135 8.046 16.467 8.892 18.702 10.162 21.904 2.964 6.475h0" clip-path="url(#p672a93bddd)" style="fill:none;stroke:#b24dff;stroke-opacity:.5;stroke-linecap:square"/><path id="line2d_77" d="m19.882 19.8 8.045.112 8.045.331 8.469.579 8.469.806 8.468 1.026 8.892 1.305 8.892 1.529 9.316 1.832 9.315 2.058 9.74 2.381 10.162 2.723 10.162 2.95 10.586 3.303 9.316 3.105 2.54 1.055 2.964 1.496 2.964 1.775 2.964 2.047 2.964 2.315 2.964 2.575 3.388 3.253 3.387 3.575 3.388 3.888 3.81 4.735 3.812 5.105 3.81 5.462 4.235 6.47 4.234 6.876 4.658 8.008 4.658 8.45 5.08 9.696 5.082 10.16 5.505 11.495 5.928 12.901 6.351 14.367 6.775 15.875 7.622 18.448 8.469 21.1 10.162 25.954 8.045 20.879h0" clip-path="url(#p672a93bddd)" style="fill:none;stroke:#b44bff;stroke-opacity:.5;stroke-linecap:square"/><path id="line2d_78" d="m19.882 19.8 5.928.116 5.928.343 5.928.562 6.351.836 6.352 1.068 6.351 1.29 6.775 1.61 6.775 1.84 7.199 2.193 7.198 2.424 7.622 2.803 8.045 3.203 8.469 3.623 8.892 4.054 9.315 4.494 10.163 5.154 10.586 5.618 3.387 2.052 3.388 2.33 3.387 2.602 3.387 2.866 3.811 3.533 3.811 3.85 3.811 4.16 4.234 4.97 4.235 5.326 4.234 5.67 4.658 6.616 4.658 6.999 5.08 8.05 5.082 8.463 5.505 9.607 5.928 10.825 5.928 11.287 6.351 12.565 6.775 13.894 7.199 15.259 8.045 17.583 8.892 19.982 10.162 23.39 3.811 8.89h0" clip-path="url(#p672a93bddd)" style="fill:none;stroke:#b847ff;stroke-opacity:.5;stroke-linecap:square"/><path id="line2d_79" d="m19.882 101.262 3.81-7.125 3.812-6.697 3.81-6.283 3.811-5.88 3.811-5.493 3.811-5.118 3.811-4.755 3.811-4.408 3.81-4.072 3.812-3.75 3.81-3.44 3.812-3.146 3.81-2.864 3.811-2.594 3.811-2.34 3.811-2.096 4.234-2.06 4.235-1.797 4.234-1.55 4.234-1.322 4.658-1.212 4.658-.981 5.081-.838 5.505-.666 5.928-.484 6.775-.318 8.468-.154 9.316.027 2.54.29 2.541.556 2.54.814 2.541 1.071 2.541 1.323 2.54 1.57 2.541 1.815 2.964 2.42 2.964 2.738 2.964 3.051 2.964 3.358 3.388 4.204 3.387 4.587 3.388 4.958 3.81 6.011 3.812 6.456 3.81 6.887 4.235 8.14 4.234 8.637 4.658 10.05 4.658 10.602 5.08 12.165 5.082 12.758 5.505 14.453 5.504 15.069 5.928 16.868 6.352 18.754 6.775 20.707 7.198 22.712 8.045 26.137.847 2.793h0" clip-path="url(#p672a93bddd)" style="fill:none;stroke:#b946ff;stroke-opacity:.5;stroke-linecap:square"/><path id="line2d_80" d="m19.882 90.56 4.234-6.854 4.234-6.397 3.811-5.378 3.811-5.032 3.811-4.698 3.811-4.374 3.811-4.063 3.81-3.762 3.812-3.474 3.81-3.197 3.812-2.93 3.81-2.678 4.235-2.69 4.234-2.407 4.234-2.139 4.235-1.886 4.234-1.65 4.658-1.562 4.658-1.316 4.657-1.091 5.082-.96 5.504-.796 5.928-.616 6.352-.429 7.198-.263 9.74-.113 7.197.072 2.118.265 2.54.563 2.54.827 2.541 1.086 2.541 1.342 2.54 1.592 2.541 1.838 2.964 2.45 2.964 2.772 2.964 3.087 2.964 3.396 3.388 4.25 3.387 4.633 3.388 5.006 3.81 6.064 3.812 6.51 3.81 6.938 4.235 8.194 4.234 8.687 4.658 10.1 4.658 10.642 5.08 12.198 5.082 12.778 5.505 14.457 5.928 16.233 6.351 18.095 6.775 20.027 7.198 22.01 7.622 24.015 6.775 21.868h0" clip-path="url(#p672a93bddd)" style="fill:none;stroke:#bf40ff;stroke-opacity:.5;stroke-linecap:square"/><path id="line2d_81" d="m19.882 54.12 4.658-3.645 4.657-3.377 4.658-3.119 4.658-2.872 5.081-2.864 5.081-2.594 5.081-2.34 5.082-2.096 5.08-1.868 5.505-1.78 5.505-1.544 5.928-1.418 5.928-1.184 6.352-1.033 6.775-.862 7.198-.68 7.622-.494 8.892-.343 10.586-.174 13.55-.008 2.117.2 2.117.396 2.117.59 2.54.958 2.541 1.228 2.54 1.491 2.541 1.75 2.541 2.004 2.964 2.65 2.964 2.98 2.964 3.302 2.964 3.613 3.388 4.502 3.387 4.887 3.388 5.26 3.81 6.346 3.811 6.785 4.235 8.03 4.234 8.526 4.658 9.92 4.658 10.457 5.08 11.982 5.082 12.54 5.505 14.166 5.928 15.872 6.351 17.641 7.199 20.687 8.045 23.85 9.315 28.366 6.775 20.996h0" clip-path="url(#p672a93bddd)" style="fill:none;stroke:#c837ff;stroke-opacity:.5;stroke-linecap:square"/><path id="line2d_82" d="m19.882 109.892 4.234-8.442 3.811-7.131 3.81-6.704 3.812-6.29 3.81-5.89 3.812-5.502 3.81-5.126 3.811-4.766 3.811-4.417 3.811-4.083 3.811-3.76 3.811-3.452 3.81-3.156 3.812-2.874 3.81-2.605 3.812-2.35 3.81-2.106 4.235-2.071 4.234-1.806 4.234-1.56 4.235-1.329 4.658-1.22 4.657-.987 5.082-.843 5.504-.67 5.928-.485 6.775-.315 8.045-.14 5.928.063 2.541.33 2.54.592 2.541.848 2.54 1.1 2.541 1.35 2.541 1.593 2.54 1.835 2.965 2.44 2.964 2.756 2.964 3.066 2.964 3.37 3.387 4.217 3.388 4.595 3.387 4.967 3.811 6.018 3.81 6.462 3.812 6.892 4.234 8.148 4.235 8.645 4.234 9.124 4.658 10.57 4.657 11.102 5.082 12.693 5.504 14.4 5.505 15.034 5.928 16.857 6.351 18.773 6.775 20.767 7.199 22.824 7.621 24.923 1.694 5.634h0" clip-path="url(#p672a93bddd)" style="fill:none;stroke:#c936ff;stroke-opacity:.5;stroke-linecap:square"/><path id="line2d_83" d="m19.882 91.118 4.234-6.908 4.234-6.447 3.811-5.42 3.811-5.073 3.811-4.734 3.811-4.409 3.811-4.095 3.81-3.792 3.812-3.5 3.81-3.223 3.812-2.954 3.81-2.698 4.235-2.712 4.234-2.425 4.234-2.156 4.235-1.902 4.234-1.663 4.234-1.442 4.658-1.348 4.658-1.12 5.081-.985 5.081-.767 5.505-.615 6.351-.476 7.199-.303 8.892-.137 8.892.033 2.117.227 2.54.518 2.541.783 2.541 1.043 2.54 1.298 2.541 1.55 2.54 1.795 2.541 2.039 2.964 2.679 2.964 2.996 2.964 3.307 2.964 3.61 3.388 4.488 3.387 4.864 3.388 5.232 3.81 6.31 3.812 6.747 4.234 7.99 4.234 8.49 4.235 8.969 4.657 10.396 4.658 10.926 5.081 12.491 5.505 14.167 5.505 14.783 5.928 16.559 6.351 18.415 6.775 20.335 7.198 22.3 8.046 25.65 3.387 10.996h0" clip-path="url(#p672a93bddd)" style="fill:none;stroke:#c936ff;stroke-opacity:.5;stroke-linecap:square"/><path id="line2d_84" d="m19.882 71.742 4.234-5.03 4.234-4.696 4.235-4.371 4.234-4.059 4.234-3.757 4.235-3.468 4.234-3.19 4.234-2.924 4.235-2.669 4.234-2.426 4.658-2.402 4.658-2.138 4.657-1.888 4.658-1.654 5.081-1.557 5.082-1.316 5.08-1.098 5.505-.964 5.928-.805 6.352-.63 6.775-.45 8.045-.302 10.162-.136 9.74.067 2.117.272 2.117.463 2.54.803 2.541 1.07 2.54 1.33 2.541 1.588 2.54 1.838 2.541 2.086 2.964 2.739 2.964 3.06 2.964 3.374 3.388 4.231 3.387 4.62 3.388 4.996 3.81 6.059 3.812 6.504 3.81 6.936 4.235 8.19 4.234 8.68 4.658 10.085 4.658 10.62 5.08 12.162 5.082 12.723 5.505 14.374 5.928 16.11 6.351 17.92 6.775 19.782 7.622 22.966 8.469 26.25 6.351 20.09h0" clip-path="url(#p672a93bddd)" style="fill:none;stroke:#c3f;stroke-opacity:.5;stroke-linecap:square"/><path id="line2d_85" d="m19.882 79.365 4.234-5.77 4.234-5.384 4.235-5.012 4.234-4.654 4.234-4.309 4.235-3.977 4.234-3.658 4.234-3.353 4.235-3.06 4.234-2.783 4.234-2.517 4.235-2.265 4.234-2.026 4.658-1.968 4.658-1.714L88.9 25.44l4.658-1.256 5.081-1.141 5.505-.991 5.505-.766 5.928-.605 6.775-.458 7.621-.285 9.74-.127 8.891.068 2.118.27 2.54.571 2.54.84 2.541 1.102 2.541 1.36 2.54 1.615 2.541 1.863 2.964 2.483 2.964 2.807 2.964 3.125 2.964 3.436 3.388 4.296 3.387 4.682 3.388 5.056 3.81 6.12 3.812 6.565 3.81 6.992 4.235 8.251 4.234 8.74 4.658 10.15 4.658 10.685 5.08 12.233 5.082 12.8 5.505 14.46 5.928 16.213 6.351 18.042 6.775 19.928 7.622 23.158 8.469 26.499 5.504 17.58h0" clip-path="url(#p672a93bddd)" style="fill:none;stroke:#ce31ff;stroke-opacity:.5;stroke-linecap:square"/><path id="line2d_86" d="m19.882 19.8 16.514.113 16.514.338 16.513.557 16.938.795 16.937 1.018 17.36 1.268 17.362 1.49 10.162 1.022 2.117.438 2.54.773 2.541 1.038 2.541 1.298 2.54 1.551 2.541 1.8 2.54 2.044 2.965 2.684 2.964 2.998 2.964 3.305 3.387 4.14 3.388 4.516 3.387 4.877 3.811 5.905 3.811 6.328 4.234 7.506 4.235 7.981 4.657 9.298 4.658 9.807 5.081 11.242 5.505 12.767 5.505 13.326 5.928 14.912 6.775 17.667 7.621 20.547 8.47 23.492 10.585 30.045 8.045 23.114h0" clip-path="url(#p672a93bddd)" style="fill:none;stroke:#d42bff;stroke-opacity:.5;stroke-linecap:square"/><path id="line2d_87" d="m19.882 20.712 26.676-.463 30.487-.298 38.11-.137 33.027.037 2.117.25 2.117.455 2.118.655 2.54 1.047 2.54 1.325 2.541 1.597 2.54 1.864 2.542 2.123 2.964 2.799 2.964 3.134 2.964 3.462 2.964 3.778 3.387 4.693 3.388 5.081 3.387 5.454 3.81 6.563 3.812 6.996 4.234 8.257 4.234 8.738 4.658 10.135 5.081 11.638 5.082 12.198 5.504 13.79 5.928 15.452 6.352 17.162 7.198 20.091 8.469 24.33 10.586 31.137 9.315 27.745h0" clip-path="url(#p672a93bddd)" style="fill:none;stroke:#d629ff;stroke-opacity:.5;stroke-linecap:square"/><path id="line2d_88" d="m19.882 115.084 4.234-8.701 4.234-8.157 4.235-7.63 3.81-6.43 3.812-6.032 3.81-5.644 3.811-5.27 3.811-4.908 3.811-4.559 3.811-4.223 3.811-3.9 3.81-3.59 3.812-3.291 3.81-3.007 3.812-2.734 3.81-2.475 3.811-2.229 3.811-1.994 4.235-1.957 4.234-1.7 4.234-1.464 4.235-1.243 4.657-1.132 4.658-.91 5.081-.767 5.505-.599 5.928-.417 6.775-.248 8.045-.065 2.54.198 2.541.458 2.54.715 2.542.967 2.54 1.217 2.54 1.462 2.541 1.704 2.54 1.941 2.965 2.56 2.964 2.874 2.964 3.179 2.964 3.48 3.388 4.337 3.387 4.713 3.387 5.08 3.811 6.14 3.811 6.583 3.811 7.008 4.234 8.274 4.235 8.767 4.658 10.194 4.657 10.748 5.082 12.328 5.08 12.93 5.505 14.649 5.505 15.28 5.928 17.119 6.352 19.048 6.774 21.062 7.199 23.138 7.198 23.839h0" clip-path="url(#p672a93bddd)" style="fill:none;stroke:#d728ff;stroke-opacity:.5;stroke-linecap:square"/><path id="line2d_89" d="m19.882 132.398 4.234-9.568 4.234-9.022 4.235-8.491 4.234-7.976 4.234-7.476 4.235-6.992 4.234-6.524 3.811-5.483 3.81-5.128 3.812-4.784 3.81-4.451 3.812-4.13 3.81-3.82 3.811-3.52 3.811-3.234 3.811-2.957 3.811-2.693 3.811-2.439 3.81-2.197 4.235-2.171 4.235-1.902 4.234-1.649 4.234-1.41 4.235-1.188 4.657-1.068 4.658-.839 5.081-.677 5.081-.455 5.505-.274 5.928-.072 2.54.193 2.541.446 2.54.697 2.542.945 2.54 1.188 2.54 1.43 2.541 1.666 2.964 2.239 2.964 2.552 2.964 2.86 2.964 3.162 2.964 3.46 3.388 4.31 3.387 4.682 3.388 5.048 3.81 6.105 3.812 6.545 3.81 6.974 4.235 8.239 4.234 8.739 4.235 9.223 4.657 10.687 4.658 11.234 5.081 12.854 5.081 13.453 5.505 15.22 5.505 15.856 5.928 17.75 6.351 19.745 6.775 21.834 7.199 24.001 2.54 8.655h0" clip-path="url(#p672a93bddd)" style="fill:none;stroke:#d827ff;stroke-opacity:.5;stroke-linecap:square"/><path id="line2d_90" d="m19.882 148.061 4.234-10.352 4.234-9.804 4.235-9.27 4.234-8.75 4.234-8.242 4.235-7.75 4.234-7.271 4.234-6.806 4.235-6.355 4.234-5.917 3.811-4.963 3.81-4.63 3.812-4.306 3.81-3.994 3.812-3.69 3.81-3.398 3.811-3.115 3.811-2.843 3.811-2.58 3.811-2.327 3.811-2.085 3.81-1.852 4.235-1.798 4.235-1.538 4.234-1.29 4.234-1.058 4.235-.838 4.657-.685 4.658-.456 4.658-.243 4.658-.033 2.54.23 2.54.476 2.541.722 2.541.964 2.54 1.203 2.541 1.438 2.54 1.671 2.965 2.24 2.964 2.548 2.964 2.85 2.964 3.15 3.387 3.96 3.388 4.335 3.387 4.706 3.388 5.068 3.81 6.126 3.812 6.566 3.81 6.995 4.235 8.265 4.234 8.769 4.234 9.26 4.658 10.735 4.658 11.294 5.081 12.935 5.081 13.555 5.505 15.354 5.505 16.022 5.928 17.967 5.928 18.668 6.351 20.737 6.775 22.906 2.964 10.263h0" clip-path="url(#p672a93bddd)" style="fill:none;stroke:#e11eff;stroke-opacity:.5;stroke-linecap:square"/><path id="line2d_91" d="m19.882 160.39 4.658-12.036 4.657-11.373 4.235-9.777 4.234-9.255 4.234-8.745 4.235-8.249 4.234-7.763 4.234-7.291 4.235-6.831 4.234-6.384 4.234-5.95 3.811-4.992 3.811-4.659 3.811-4.335 3.81-4.02 3.812-3.714 3.81-3.417 3.812-3.13 3.81-2.85 3.811-2.581 3.811-2.32 3.811-2.07 3.811-1.825 3.811-1.593 3.81-1.369 3.812-1.153 4.234-1.04 4.234-.798 4.235-.568 4.234-.35 4.658-.15 2.54.067 2.541.307 2.54.548 2.541.789 2.54 1.025 2.541 1.26 2.541 1.49 2.54 1.72 2.965 2.293 2.964 2.596 2.964 2.895 2.964 3.19 3.387 4.001 3.388 4.375 3.387 4.743 3.388 5.102 3.81 6.164 3.811 6.603 3.811 7.033 4.235 8.309 4.234 8.816 4.234 9.31 4.658 10.8 4.658 11.366 5.081 13.028 5.081 13.662 5.081 14.274 5.505 16.13 5.505 16.797 5.928 18.803 6.351 20.93 6.352 21.699 3.387 11.873h0" clip-path="url(#p672a93bddd)" style="fill:none;stroke:#e619ff;stroke-opacity:.5;stroke-linecap:square"/><path id="line2d_92" d="m19.882 167.404 4.658-12.422 4.657-11.758 4.658-11.11 4.234-9.548 4.235-9.038 4.234-8.537 4.234-8.049 4.235-7.572 4.234-7.107 4.234-6.653 4.235-6.212 4.234-5.781 3.811-4.846 3.81-4.514 3.812-4.193 3.81-3.88 3.812-3.574 3.81-3.278 3.811-2.99 3.811-2.71 3.811-2.44 3.811-2.177 3.81-1.923 3.812-1.677 3.81-1.44 3.812-1.213 3.81-.992 3.811-.78 4.235-.63 4.234-.39 4.234-.164 2.964.062 2.541.303 2.54.543 2.541.78 2.54 1.015 2.541 1.247 2.541 1.477 2.54 1.704 2.965 2.272 2.964 2.573 2.964 2.872 2.964 3.165 3.387 3.972 3.388 4.344 3.387 4.71 3.388 5.072 3.81 6.13 3.811 6.569 3.811 7.001 4.235 8.275 4.234 8.787 4.234 9.285 4.658 10.777 4.658 11.351 4.658 11.91 5.08 13.613 5.082 14.24 5.505 16.109 5.504 16.796 5.928 18.826 5.928 19.56 6.352 21.735 4.234 14.919h0" clip-path="url(#p672a93bddd)" style="fill:none;stroke:#ef10ff;stroke-opacity:.5;stroke-linecap:square"/><path id="line2d_93" d="m19.882 186.736 4.658-13.487 4.657-12.82 4.658-12.164 4.658-11.523 4.658-10.894 4.234-9.368 4.234-8.868 4.235-8.377 4.234-7.896 4.234-7.424 4.235-6.962 4.234-6.51 4.234-6.066 3.811-5.09 3.811-4.744 3.811-4.407 3.81-4.076 3.812-3.754 3.81-3.436 3.812-3.127 3.81-2.824 3.811-2.528 3.811-2.24 3.811-1.956 3.811-1.683 3.81-1.414 3.812-1.152 3.81-.899 3.812-.65 3.81-.412 3.811-.177 2.964.058 2.541.294 2.54.526 2.541.758 2.54.986 2.541 1.213 2.541 1.437 2.964 1.958 2.964 2.258 2.964 2.554 2.964 2.848 2.964 3.137 3.388 3.936 3.387 4.306 3.388 4.67 3.387 5.031 3.81 6.083 3.812 6.526 3.81 6.96 4.235 8.237 4.234 8.755 4.235 9.266 4.657 10.77 4.658 11.363 4.658 11.943 5.081 13.676 5.081 14.335 5.082 14.977 5.504 16.932 5.505 17.646 5.928 19.778 5.928 20.556 5.081 18.219h0" clip-path="url(#p672a93bddd)" style="fill:none;stroke:#f00fff;stroke-opacity:.5;stroke-linecap:square"/><path id="line2d_94" d="m19.882 210.653 5.081-16.117 4.658-14.072 4.658-13.412 4.657-12.76 4.658-12.117 4.658-11.483 4.658-10.859 4.234-9.338 4.234-8.835 4.235-8.341 4.234-7.853 4.234-7.371 4.235-6.897 3.81-5.807 3.811-5.434 3.811-5.064 3.811-4.7 3.811-4.343 3.811-3.988 3.81-3.639 3.388-2.945 3.388-2.678 3.387-2.413 3.388-2.151 3.387-1.894 3.388-1.639 3.387-1.389 3.388-1.14 3.387-.898 3.387-.658 3.388-.42 3.387-.187 2.964.052 2.541.283 2.54.506 2.541.73 2.54.95 2.541 1.17 2.541 1.39 2.964 1.893 2.964 2.187 2.964 2.478 2.964 2.765 2.964 3.052 3.388 3.834 3.387 4.201 3.388 4.564 3.387 4.924 3.81 5.965 3.812 6.412 3.81 6.852 3.812 7.287 4.234 8.603 4.234 9.129 4.235 9.646 4.657 11.202 4.658 11.812 4.658 12.412 5.081 14.216 5.081 14.908 5.082 15.588 5.504 17.642 5.505 18.412 5.504 19.167 5.928 21.468 1.694 6.289h0" clip-path="url(#p672a93bddd)" style="fill:none;stroke:#f40bff;stroke-opacity:.5;stroke-linecap:square"/><path id="line2d_95" d="m19.882 207.248 5.081-15.911 4.658-13.886 4.658-13.226 4.657-12.575 4.658-11.935 4.658-11.304 4.658-10.682 4.234-9.18 4.234-8.682 4.235-8.19 4.234-7.707 4.234-7.23 4.235-6.76 3.81-5.688 3.811-5.32 3.811-4.955 3.811-4.596 3.811-4.243 3.811-3.895 3.81-3.551 3.388-2.874 3.388-2.61 3.387-2.35 3.388-2.095 3.387-1.843 3.388-1.594 3.387-1.35 3.388-1.108 3.387-.871 3.387-.638 3.388-.407 3.387-.182 2.964.054 2.541.284 2.54.509 2.541.733 2.54.956 2.541 1.176 2.541 1.396 2.964 1.903 2.964 2.197 2.964 2.489 2.964 2.777 2.964 3.064 3.388 3.848 3.387 4.216 3.388 4.58 3.387 4.939 3.81 5.982 3.812 6.427 3.81 6.868 3.812 7.302 4.234 8.617 4.234 9.14 4.235 9.657 4.657 11.21 4.658 11.816 4.658 12.411 5.081 14.21 5.081 14.895 5.082 15.569 5.504 17.611 5.505 18.372 5.504 19.115 5.928 21.4 1.694 6.267h0" clip-path="url(#p672a93bddd)" style="fill:none;stroke:#f40bff;stroke-opacity:.5;stroke-linecap:square"/><path id="line2d_96" d="m19.882 221.966 5.081-16.795 5.081-15.997 4.658-13.969 4.658-13.313 4.657-12.663 4.658-12.023 4.658-11.388 4.658-10.762 4.234-9.246 4.234-8.74 4.235-8.238 4.234-7.744 4.234-7.254 3.811-6.115 3.811-5.727 3.811-5.343 3.811-4.964 3.81-4.587 3.812-4.216 3.387-3.438 3.388-3.151 3.387-2.866 3.388-2.584 3.387-2.305 3.388-2.029 3.387-1.755 3.388-1.485 3.387-1.217 3.387-.952 3.388-.69 2.964-.392 2.964-.194 2.964.013 2.54.24 2.541.46 2.54.68 2.541.898 2.541 1.114 2.54 1.33 2.965 1.822 2.964 2.113 2.964 2.4 2.964 2.686 2.964 2.97 3.387 3.74 3.388 4.106 3.387 4.47 3.388 4.828 3.387 5.186 3.811 6.258 3.81 6.703 3.812 7.142 4.234 8.448 4.234 8.981 4.235 9.509 4.234 10.03 4.658 11.63 4.658 12.248 4.657 12.857 5.082 14.714 5.08 15.42 5.082 16.12 5.505 18.238 5.504 19.034 5.505 19.818 4.234 15.77h0" clip-path="url(#p672a93bddd)" style="fill:none;stroke:#f906ff;stroke-opacity:.5;stroke-linecap:square"/><path id="line2d_97" d="m19.882 248.367 5.081-18.382 5.081-17.577 5.081-16.777 5.082-15.981 4.657-13.955 4.658-13.293 4.658-12.636 4.658-11.981 4.657-11.331 4.235-9.74 4.234-9.206 4.234-8.677 4.235-8.15 3.81-6.886 3.812-6.464 3.81-6.042 3.811-5.624 3.811-5.206 3.388-4.28 3.387-3.951 3.388-3.627 3.387-3.303 3.388-2.98 3.387-2.659 2.964-2.064 2.964-1.82 2.964-1.576 2.964-1.333 2.964-1.093 2.964-.852 2.964-.612 2.964-.373 2.964-.136 2.54.088 2.541.3 2.541.51 2.54.72 2.541.929 2.54 1.138 2.965 1.591 2.964 1.874 2.964 2.156 2.964 2.436 2.964 2.717 2.964 2.996 3.388 3.764 3.387 4.126 3.387 4.487 3.388 4.846 3.387 5.204 3.811 6.28 3.811 6.731 3.811 7.178 3.811 7.624 4.234 8.99 4.235 9.537L224.4 116.1l4.234 10.62 4.658 12.3 4.658 12.948 4.658 13.591 5.08 15.557 5.082 16.313 5.081 17.065 5.081 17.813 5.505 20.136 5.081 19.357h0" clip-path="url(#p672a93bddd)" style="fill:none;stroke:#fc03ff;stroke-opacity:.5;stroke-linecap:square"/><path id="line2d_98" d="m19.882 234.283 5.081-17.535 5.081-16.734 5.081-15.94 4.658-13.918 4.658-13.263 4.658-12.613 4.657-11.967 4.658-11.329 4.235-9.748 4.234-9.229 4.234-8.713 4.235-8.202 4.234-7.696 3.81-6.495 3.812-6.092 3.81-5.69 3.811-5.292 3.811-4.898 3.811-4.505 3.388-3.678 3.387-3.373 3.388-3.07L116 31.536l3.388-2.47 3.387-2.174 3.388-1.88 2.964-1.404 2.964-1.182 2.964-.96 2.964-.743 2.964-.523 2.964-.307 2.964-.092 2.54.127 2.54.343 2.542.558 2.54.773 2.54.987 2.541 1.199 2.964 1.667 2.964 1.953 2.964 2.24 2.964 2.523 2.964 2.805 2.964 3.087 3.388 3.87 3.387 4.234 3.388 4.594 3.387 4.954 3.811 5.999 3.811 6.447 3.811 6.893 3.81 7.335 4.235 8.665 4.235 9.203 4.234 9.737 4.234 10.267 4.658 11.9 4.658 12.531 4.658 13.156 5.08 15.057 5.082 15.787 5.081 16.51 5.081 17.225 5.505 19.459 5.505 20.28 2.54 9.635h0" clip-path="url(#p672a93bddd)" style="fill:none;stroke:#fc03ff;stroke-opacity:.5;stroke-linecap:square"/><path id="line2d_99" d="m19.882 257.684 5.081-18.94 5.081-18.136 5.081-17.331 5.082-16.53 5.08-15.732 4.659-13.723 4.657-13.056 4.658-12.391 4.658-11.73 4.234-10.09 4.235-9.547 4.234-9.004 4.234-8.463 3.811-7.156 3.811-6.72 3.81-6.287 3.812-5.853 3.81-5.42 3.388-4.457 3.388-4.117 3.387-3.777 3.388-3.44 3.387-3.103 2.964-2.438 2.964-2.182 2.964-1.925 2.964-1.668 2.964-1.414 2.964-1.158 2.964-.905 2.964-.65 2.964-.397 2.964-.144 2.54.087 2.541.294 2.541.501 2.54.709 2.541.915 2.54 1.121 2.965 1.569 2.964 1.848 2.964 2.127 2.964 2.406 2.964 2.685 2.964 2.961 3.388 3.724 3.387 4.086 3.387 4.445 3.388 4.805 3.387 5.163 3.811 6.237 3.811 6.688 3.811 7.139 3.811 7.588 4.234 8.957 4.235 9.509 4.234 10.06 4.234 10.607 4.658 12.3 4.658 12.96 4.658 13.619 4.657 14.274 5.082 16.317 5.08 17.092 5.082 17.864 5.081 18.634 5.505 21.052.423 1.657h0" clip-path="url(#p672a93bddd)" style="fill:none;stroke:#fd02ff;stroke-opacity:.5;stroke-linecap:square"/><path id="line2d_100" d="m19.882 248.173 5.081-18.37 5.081-17.565 5.081-16.766 5.082-15.97 4.657-13.944 4.658-13.283 4.658-12.626 4.658-11.972 4.657-11.321 4.235-9.73 4.234-9.2 4.234-8.668 4.235-8.142 3.81-6.88 3.812-6.457 3.81-6.037 3.811-5.618 3.811-5.2 3.388-4.275 3.387-3.948 3.388-3.623 3.387-3.299 3.388-2.977 3.387-2.655 2.964-2.061 2.964-1.818 2.964-1.574 2.964-1.332 2.964-1.091 2.964-.851 2.964-.612 2.964-.373 2.964-.135 2.54.088 2.541.3 2.541.51 2.54.72 2.541.93 2.54 1.138 2.965 1.592 2.964 1.874 2.964 2.157 2.964 2.437 2.964 2.717 2.964 2.996 3.388 3.765 3.387 4.127 3.387 4.488 3.388 4.847 3.387 5.205 3.811 6.282 3.811 6.731 3.811 7.179 3.811 7.624 4.234 8.992 4.235 9.536 4.234 10.08 4.234 10.619 4.658 12.3 4.658 12.948 4.658 13.59 5.08 15.556 5.082 16.312 5.081 17.063 5.081 17.811 5.505 20.133 5.081 19.353h0" clip-path="url(#p672a93bddd)" style="fill:none;stroke:#f0f;stroke-opacity:.5;stroke-linecap:square"/></g></g><defs><clipPath id="p672a93bddd"><path d="M7.2 7.2h279v277.2H7.2z"/></clipPath></defs></svg>