<svg xmlns="http://www.w3.org/2000/svg" width="391.2" height="388.8" viewBox="0 0 293.4 291.6"><defs><style>*{stroke-linejoin:round;stroke-linecap:butt}</style></defs><g id="figure_1"><path id="patch_1" d="M0 291.6h293.4V0H0z" style="fill:none"/><g id="axes_1"><path id="line2d_1" d="m19.882 271.8 3.047-15.224 10.155-51.933 2.285-10.06 2.031-7.9 1.524-5.147 1.523-4.38 1.27-2.998 1.015-1.934 1.016-1.493.761-.814.762-.54 4.57-2.322 4.824-2.2 4.824-1.96 5.078-1.828 5.331-1.683 5.586-1.532 6.093-1.438 6.601-1.328 7.617-1.3 9.648-1.405 27.166-3.814 7.617-1.379 6.6-1.417 6.348-1.36 7.11-1.293 8.631-1.334 13.457-1.818 13.964-1.955 8.378-1.403 6.855-1.366 6.347-1.494 5.84-1.607 5.331-1.694 5.078-1.84 4.824-1.972 4.824-2.213 4.316-2.2.762-.539.761-.814 1.016-1.493 1.016-1.934 1.27-2.998 1.269-3.594 1.523-5.026 1.777-6.731 2.031-8.663 2.285-10.725 3.047-15.404 8.632-44.501h0" clip-path="url(#pb4c28acfcc)" style="fill:none;stroke:#f0f;stroke-opacity:.5;stroke-linecap:square"/><path id="line2d_2" d="m19.882 271.8 2.793-28.036 5.585-59.153 3.555-36.311 2.539-23.686 2.03-16.924 1.778-12.947 1.523-9.475 1.27-6.606 1.015-4.363 1.016-3.48.762-2 .761-1.447.508-.647 1.523-1.21 4.57-3.353 4.57-3.07 4.57-2.8 4.57-2.55 4.824-2.437 4.824-2.193 5.078-2.066 5.332-1.924 5.585-1.775 5.84-1.623 6.347-1.533 7.109-1.482 8.378-1.507 11.425-1.807 19.296-3.042 13.202-2.078 13.71-1.928 14.218-1.775 14.98-1.646 15.995-1.533 17.264-1.43 17.265-1.214 14.726-.796 3.3-.153h0" clip-path="url(#pb4c28acfcc)" style="fill:none;stroke:#807fff;stroke-opacity:.5;stroke-linecap:square"/><path id="line2d_3" d="m19.882 271.8 2.793-30.336 5.077-58.337 3.809-42.511 2.539-25.918 2.03-18.564L37.909 81.9l1.523-10.44 1.27-7.3 1.015-4.833 1.016-3.87.762-2.236.761-1.632.508-.74.508-.454 5.078-3.08 5.077-2.82 5.078-2.573 5.332-2.45 5.332-2.208 5.585-2.068 5.586-1.835 5.84-1.686 6.093-1.528 6.347-1.365 6.855-1.24 7.363-1.099 8.124-.977 9.14-.866 11.425-.846 19.804-1.204 20.819-1.053 19.803-.78 18.788-.52 18.28-.284 23.358-.102 9.14-.011h0" clip-path="url(#pb4c28acfcc)" style="fill:none;stroke:#5af;stroke-opacity:.5;stroke-linecap:square"/><path id="line2d_4" d="m19.882 271.8 2.793-31.536 5.077-60.745 3.809-44.277 2.539-26.965 2.03-19.283 1.778-14.75 1.523-10.784 1.27-7.505 1.015-4.94 1.016-3.924.762-2.236.761-1.598.508-.698.508-.395 5.585-2.68 5.84-2.55 5.84-2.3 5.839-2.068 6.093-1.922 6.347-1.76 6.348-1.532 6.6-1.368 6.856-1.196 7.363-1.055 7.616-.866 8.379-.724 9.14-.558 10.41-.403 19.549-.45 31.99-.551 30.467-.304 30.213-.075 17.772-.002h0" clip-path="url(#pb4c28acfcc)" style="fill:none;stroke:#40bfff;stroke-opacity:.5;stroke-linecap:square"/><path id="line2d_5" d="m19.882 271.8 2.793-32.305 4.824-59.178 3.808-45.631 2.539-27.918 2.03-20.041 1.778-15.394 1.523-11.31 1.27-7.919 1.015-5.252 1.016-4.216.762-2.44.761-1.79.508-.816.508-.506 1.016-.437 6.347-2.386 6.347-2.148 6.601-1.995 6.601-1.764 6.855-1.601 7.11-1.43 7.362-1.251 7.617-1.067 8.124-.907 8.379-.711 9.14-.55 9.901-.369 11.172-.19 50.524-.356 48.493-.122h26.912" clip-path="url(#pb4c28acfcc)" style="fill:none;stroke:#3cf;stroke-opacity:.5;stroke-linecap:square"/><path id="line2d_6" d="m19.882 271.8 2.793-32.844 4.824-60.216 3.808-46.438 2.539-28.398 2.03-20.37 1.778-15.627 1.523-11.464 1.27-8.008 1.015-5.297 1.016-4.234.762-2.435.761-1.767.508-.793.508-.474 1.016-.359 6.855-2.065 7.108-1.908 7.363-1.74 7.363-1.512 7.617-1.341 7.87-1.165 8.379-1.013 8.632-.82 9.14-.648 9.902-.478 10.917-.297 12.695-.11 78.706-.172 44.938-.007h0" clip-path="url(#pb4c28acfcc)" style="fill:none;stroke:#2ad5ff;stroke-opacity:.5;stroke-linecap:square"/><path id="line2d_7" d="m19.882 271.8 2.539-30.118 4.316-54.418 4.316-53.703 2.539-29.03 2.031-20.914L37.4 67.493l1.524-11.897 1.269-8.372 1.27-6.82 1.015-4.246.762-2.43.761-1.75.508-.774.508-.449 1.016-.298 7.616-1.852 7.87-1.682 8.125-1.505 8.379-1.32 8.632-1.136 9.14-.972 9.394-.775 10.156-.612 10.917-.43 11.933-.241 14.98-.064 120.343-.068h0" clip-path="url(#pb4c28acfcc)" style="fill:none;stroke:#24dbff;stroke-opacity:.5;stroke-linecap:square"/><path id="line2d_8" d="m19.882 271.8 2.539-30.391 4.316-54.937 4.316-54.223 2.539-29.303 2.031-21.103L37.4 65.585l1.524-11.986 1.269-8.425 1.27-6.852 1.015-4.253.762-2.426.761-1.735.508-.76.508-.429 1.016-.25 8.378-1.659 8.632-1.48 8.886-1.3 9.394-1.144 9.648-.95 10.156-.776 10.917-.607 11.679-.424 12.948-.242 15.995-.059 120.852-.028h0" clip-path="url(#pb4c28acfcc)" style="fill:none;stroke:#20dfff;stroke-opacity:.5;stroke-linecap:square"/><path id="line2d_9" d="m19.882 271.8 2.539-30.603 4.316-55.342 4.316-54.628 2.539-29.517 2.031-21.249L37.4 64.097l1.524-12.055 1.269-8.466 1.27-6.875 1.015-4.26.762-2.42.761-1.725.508-.747.508-.414 1.016-.213 9.14-1.483 9.394-1.303 9.901-1.148 10.41-.978 10.917-.799 11.679-.625 12.44-.44 13.71-.26 15.996-.073 123.898-.013h0" clip-path="url(#pb4c28acfcc)" style="fill:none;stroke:#1ce3ff;stroke-opacity:.5;stroke-linecap:square"/><path id="line2d_10" d="m19.882 271.8 2.539-30.772 4.062-52.352 4.57-58.26 2.539-29.686 2.031-21.365L37.4 62.918l1.524-12.11 1.269-8.498 1.27-6.894 1.015-4.264.762-2.418.76-1.714.508-.737.508-.402 1.016-.183 10.155-1.357 10.41-1.166 10.917-.999 11.425-.822 12.187-.653 13.202-.48 14.472-.3 16.503-.114 128.214-.006h0" clip-path="url(#pb4c28acfcc)" style="fill:none;stroke:#19e6ff;stroke-opacity:.5;stroke-linecap:square"/><path id="line2d_11" d="m19.882 271.8 16.503-.856 14.218-.964 18.28-1.461 16.756-1.561 15.488-1.664 14.725-1.807 13.964-1.937 13.203-2.052 19.803-3.139 14.218-2.264 8.378-1.555 7.11-1.539 6.346-1.596 5.84-1.692 5.586-1.85 5.331-2.005 5.078-2.15 4.824-2.28 4.824-2.532 4.57-2.646 4.57-2.904 4.57-3.177 4.062-3.068.508-.517.762-1.259.761-1.817.762-2.353 1.016-3.929 1.015-4.782 1.27-7.091 1.523-10 1.777-13.477 2.031-17.425 2.285-21.643 3.047-31.147 8.632-89.861h0" clip-path="url(#pb4c28acfcc)" style="fill:none;stroke:#f0f;stroke-opacity:.5;stroke-linecap:square"/><path id="line2d_12" d="m19.882 271.8 9.648-6.913 6.855-5.176 5.84-4.676 5.585-4.759 6.347-5.699 6.855-6.458 7.363-7.246 8.124-8.313 9.14-9.677 10.918-11.893 16.503-18.35 20.31-22.524 10.918-11.768 15.233-16.31 13.203-14.579L204.46 82.28l10.156-10.85 8.632-8.911 7.87-7.81 7.11-6.748 6.6-5.969 6.094-5.217 5.84-4.689 6.6-5 8.125-5.854 2.031-1.432h0" clip-path="url(#pb4c28acfcc)" style="fill:none;stroke:#f0f;stroke-opacity:.5;stroke-linecap:square"/><path id="line2d_13" d="m19.882 271.8 34.275-51.994 7.363-11.902 9.394-15.637 26.912-45.066 7.363-11.747 6.347-9.716 5.586-8.16 5.078-7.046 4.824-6.323 4.57-5.619 4.316-4.944 4.062-4.306 3.808-3.71 3.809-3.381 16.502-14.067 9.648-7.934 8.125-6.395 7.109-5.316 6.347-4.48 6.093-4.031L207 36.593l5.332-3.02 5.077-2.62 4.824-2.243 4.57-1.888 4.57-1.641 4.317-1.314 4.062-1.014 4.062-.79 4.062-.555 10.918-1.036 7.362-.486 6.094-.18 1.27-.006h0" clip-path="url(#pb4c28acfcc)" style="fill:none;stroke:#a5f;stroke-opacity:.5;stroke-linecap:square"/><path id="line2d_14" d="m19.882 271.8 12.948-30.285 5.332-11.843 4.316-9.067 4.316-8.519 8.379-16.617 14.725-29.822 11.425-22.894 7.617-14.77 6.347-11.837 5.586-9.962 5.078-8.617 4.824-7.742 4.316-6.518 4.062-5.748 3.808-5.019 3.555-4.34 3.554-3.985 3.3-3.366 3.047-2.806 3.047-2.503 2.793-2.019 2.793-1.744 3.046-1.611 9.648-4.797 8.886-4.177 8.379-3.693 7.87-3.226 7.363-2.78 7.11-2.449 6.854-2.123 6.601-1.81 6.348-1.507 6.093-1.22 5.84-.952 5.839-.727 5.585-.476 5.586-.252 8.378-.09 19.042-.087h0" clip-path="url(#pb4c28acfcc)" style="fill:none;stroke:#807fff;stroke-opacity:.5;stroke-linecap:square"/><path id="line2d_15" d="m19.882 271.8 13.456-42.597 3.808-11.117 3.3-8.954 2.794-6.96 2.539-5.77 23.611-51.735 7.617-16.053 6.601-13.408 5.84-11.368 5.331-9.898 4.824-8.504 4.57-7.617 4.317-6.762 4.062-5.95 3.808-5.189 3.555-4.48 3.3-3.83 3.3-3.495 3.047-2.916 3.047-2.607 2.793-2.108 2.793-1.827 2.539-1.41 2.538-1.165 2.54-.912 3.808-1.045 10.663-2.726 10.156-2.37 9.901-2.084 9.648-1.8 9.394-1.524 9.14-1.253 8.886-.992 8.633-.74 8.378-.497 8.378-.273 8.887-.055 21.834-.009h0" clip-path="url(#pb4c28acfcc)" style="fill:none;stroke:#69f;stroke-opacity:.5;stroke-linecap:square"/><path id="line2d_16" d="M19.882 271.8 34.1 215.497l3.046-10.792 2.793-9.07 2.285-6.71 2.031-5.348 2.54-5.961 9.647-22.026 7.87-17.425 6.856-14.64 6.093-12.5 5.586-10.967 5.331-9.973 4.824-8.562 4.57-7.673 4.316-6.824 4.063-6.023 3.808-5.275 3.808-4.894 3.555-4.21 3.3-3.584 3.3-3.26 3.048-2.71 3.046-2.414 2.793-1.944 2.793-1.679 2.793-1.407 2.539-1.037 2.538-.8 2.54-.559 4.062-.567 13.71-1.719 13.456-1.463 13.202-1.211 12.949-.964 12.694-.72 12.44-.485 12.187-.255 13.457-.045 19.55-.001h0" clip-path="url(#pb4c28acfcc)" style="fill:none;stroke:#5af;stroke-opacity:.5;stroke-linecap:square"/><path id="line2d_17" d="m19.882 271.8 5.585-26.925 5.84-27.807 3.3-14.676 2.793-11.427 2.285-8.48 2.031-6.756 1.778-5.227 1.777-4.517 7.109-16.328 6.6-14.624 6.094-12.98 5.84-11.918 5.331-10.397 5.078-9.436 4.824-8.515 4.57-7.638 4.316-6.81 4.316-6.396 4.063-5.627 3.808-4.914 3.808-4.55 3.555-3.908 3.554-3.57 3.3-3 3.301-2.692 3.047-2.201 3.047-1.924 2.793-1.512 2.792-1.268 2.793-1.019 2.54-.704 2.538-.49 2.539-.27 19.042-1.17 18.534-.916 18.28-.686 18.026-.457 18.026-.233 21.58-.032h13.203" clip-path="url(#pb4c28acfcc)" style="fill:none;stroke:#49b6ff;stroke-opacity:.5;stroke-linecap:square"/><path id="line2d_18" d="m19.882 271.8 4.57-25.32 6.601-36.505 3.3-16.938 2.54-11.93 2.284-9.679 2.032-7.596 1.777-5.758 1.523-4.202 1.777-4.14 6.094-13.546 5.84-12.438 5.585-11.37 5.332-10.35 5.077-9.377 4.824-8.457 4.824-8 4.57-7.142 4.316-6.342 4.316-5.937 4.063-5.208 3.808-4.538 3.808-4.197 3.555-3.601 3.554-3.29 3.3-2.77 3.301-2.491 3.301-2.206 3.047-1.778 3.046-1.526 3.047-1.27 2.793-.935 2.793-.713 2.792-.488 2.793-.26 7.11-.23 26.658-.706 26.404-.476 26.151-.249 29.197-.041h11.933" clip-path="url(#pb4c28acfcc)" style="fill:none;stroke:#40bfff;stroke-opacity:.5;stroke-linecap:square"/><path id="line2d_19" d="m19.882 271.8 4.062-25.195 7.363-45.848 3.047-17.455 2.538-13.233 2.032-9.483 1.777-7.345 1.523-5.495 1.524-4.678 1.269-3.223 3.808-8.237 5.332-11.087 5.332-10.57 5.078-9.577 4.823-8.646 4.824-8.196 4.57-7.34 4.57-6.923 4.317-6.146 4.316-5.759 4.062-5.06 4.062-4.708 3.808-4.087 3.809-3.767 3.808-3.442 3.555-2.917 3.554-2.627 3.3-2.177 3.301-1.922 3.3-1.662 3.301-1.401 3.047-1.06 3.047-.83 3.046-.603 3.047-.37 3.047-.137 38.337-.487 37.83-.258 41.13-.049h9.14" clip-path="url(#pb4c28acfcc)" style="fill:none;stroke:#38c7ff;stroke-opacity:.5;stroke-linecap:square"/><path id="line2d_20" d="m19.882 271.8 3.808-25.938 7.87-54.046 2.794-17.52 2.285-13.062 2.03-10.388 1.778-7.974 1.523-5.893 1.27-4.18 1.27-3.46 1.269-2.758 5.077-10.212 5.078-9.717 4.824-8.768 4.824-8.316 4.824-7.86 4.57-7.022 4.57-6.609 4.316-5.86 4.316-5.486 4.063-4.821 4.062-4.487 4.062-4.152 3.808-3.585 3.809-3.288 3.808-2.99 3.555-2.518 3.554-2.255 3.554-1.992 3.555-1.727 3.3-1.366 3.301-1.135 3.3-.904 3.301-.671 3.3-.44 3.301-.204 7.11-.06 55.093-.276 57.38-.06h8.124" clip-path="url(#pb4c28acfcc)" style="fill:none;stroke:#3cf;stroke-opacity:.5;stroke-linecap:square"/><path id="line2d_21" d="m19.882 271.8 32.244-.111 18.026-.275 18.534-.506 19.296-.749 20.311-1.01 21.327-1.286 12.694-.95 9.394-.918 8.125-1.012 7.362-1.137 6.856-1.284 6.347-1.409 6.093-1.575 5.84-1.737 5.585-1.886 5.586-2.123 5.331-2.264 5.332-2.51 5.078-2.635 5.078-2.884 4.062-2.525.508-.597.761-1.426.762-2.037.762-2.622 1.015-4.36 1.016-5.29 1.27-7.826 1.523-11.01 1.777-14.809 2.031-19.103 2.285-23.673 3.047-33.965 8.124-91.838.254-2.658h0" clip-path="url(#pb4c28acfcc)" style="fill:none;stroke:#f0f;stroke-opacity:.5;stroke-linecap:square"/><path id="line2d_22" d="m19.882 271.8 5.585-.11 6.348-.35 7.87-.664 8.379-.903 4.062-.703 4.062-.931 4.316-1.23 4.316-1.463 4.57-1.793 4.57-2.03 4.824-2.385 5.078-2.76 5.332-3.154 5.585-3.562 6.094-4.157 6.601-4.785 7.109-5.435 8.124-6.504 9.648-8.025 13.964-11.942 3.809-3.42 3.554-3.492 3.808-4.048 4.063-4.643 4.316-5.277 4.57-5.942 4.824-6.631 5.331-7.71 5.84-8.842 6.601-10.41 7.87-12.849 10.664-17.874 19.803-33.245 7.871-12.737 6.601-10.28 10.664-16.036 17.01-25.678h0" clip-path="url(#pb4c28acfcc)" style="fill:none;stroke:#f0f;stroke-opacity:.5;stroke-linecap:square"/><path id="line2d_23" d="m19.882 271.8 3.3-.12 3.555-.369 3.808-.63 4.316-.944 5.332-1.4 6.855-2.035 2.539-1.01 2.793-1.36 2.793-1.607 3.046-2.023 3.047-2.29 3.3-2.764 3.555-3.286 3.808-3.85 4.063-4.45 4.316-5.079 4.57-5.724 5.078-6.718 5.839-8.107 7.109-10.272 10.917-16.225 12.187-18.01 6.855-9.742 5.84-7.916 5.077-6.51 11.933-14.974 5.586-7.63 6.6-9.418 8.887-13.106 18.026-26.674 6.601-9.32L207 60.72l5.078-6.46 4.57-5.45 4.062-4.514 3.808-3.914 3.555-3.352 3.3-2.83 3.301-2.539 3.047-2.068 3.046-1.79 2.793-1.382 2.793-1.123 2.793-.871 8.124-2.25 4.824-1.108 4.062-.709 3.555-.402 3.3-.155.508-.003h0" clip-path="url(#pb4c28acfcc)" style="fill:none;stroke:#f0f;stroke-opacity:.5;stroke-linecap:square"/><path id="line2d_24" d="m19.882 271.8 3.047-.518 3.046-.738 3.3-1.022 3.555-1.33 4.062-1.767 4.57-2.246 4.824-2.615 2.285-1.515 2.285-1.778 2.54-2.272 2.538-2.568 2.793-3.148 3.047-3.797 3.046-4.148 3.301-4.859 3.554-5.617 4.063-6.856 4.316-7.723 5.078-9.562 6.093-11.984 8.886-18.042 12.44-25.218 6.094-11.835 5.078-9.388 4.316-7.539 4.062-6.652 3.555-5.415 3.3-4.65 3.047-3.94 3.047-3.57 3.3-3.488 12.95-13.66 14.218-14.913 8.124-8.197 6.855-6.603 5.84-5.33 5.331-4.582 5.078-4.074 4.57-3.395 4.316-2.949 4.316-2.674 4.063-2.25 3.808-1.855 3.554-1.499 3.555-1.26 3.3-.948 3.301-.722 3.3-.489 3.047-.235 12.949-.4 11.425-.163 1.27-.002h0" clip-path="url(#pb4c28acfcc)" style="fill:none;stroke:#c03fff;stroke-opacity:.5;stroke-linecap:square"/><path id="line2d_25" d="m19.882 271.8 3.3-1.321 3.301-1.552 3.554-1.918 3.555-2.164 3.808-2.58 4.062-3.035 4.063-3.313 2.285-2.13 2.285-2.443 2.539-3.066 2.539-3.414 2.792-4.133 3.047-4.928 3.3-5.792 3.555-6.713 3.808-7.678 4.317-9.22 4.823-10.835 6.094-14.273 9.648-23.274 9.648-23.1 5.839-13.413 4.824-10.536 4.316-8.883 3.808-7.328 3.555-6.342 3.047-5.01 3.046-4.578 2.793-3.787 2.539-3.078 2.285-2.456 2.285-2.142 2.031-1.628 9.902-7.092 8.886-6.111 7.87-5.156 7.363-4.56 6.855-3.979 6.348-3.428 6.093-3.035 5.586-2.542 5.331-2.196 5.332-1.954 5.078-1.624 4.824-1.316 4.824-1.083 4.57-.802 4.57-.574 4.316-.324 4.316-.105 24.881-.056h0" clip-path="url(#pb4c28acfcc)" style="fill:none;stroke:#96f;stroke-opacity:.5;stroke-linecap:square"/><path id="line2d_26" d="m19.882 271.8 4.062-2.865 4.062-3.131 4.063-3.418 4.062-3.725 3.808-3.789 3.809-4.094 3.046-3.554 2.54-3.364 2.538-3.74 2.793-4.523 3.046-5.386 3.301-6.322 3.555-7.32 3.808-8.362 4.316-10.03 5.078-12.405 6.093-15.504 11.933-31.155 7.617-19.544 5.585-13.732 4.57-10.663 4.063-8.931 3.554-7.315 3.3-6.317 3.047-5.38 2.793-4.517 2.793-4.088 2.539-3.319 2.285-2.643 2.285-2.302 2.03-1.744 2.032-1.45 1.777-1.016 3.047-1.394 9.14-3.974 8.632-3.511 8.125-3.07 7.87-2.74 7.617-2.417 7.363-2.102 7.109-1.798 6.855-1.508 6.601-1.231 6.601-1.005 6.347-.744 6.348-.517 6.093-.276 6.347-.06 23.358-.005h0" clip-path="url(#pb4c28acfcc)" style="fill:none;stroke:#807fff;stroke-opacity:.5;stroke-linecap:square"/><path id="line2d_27" d="m19.882 271.8 5.84-6.237 5.077-5.735 4.57-5.484 4.316-5.516 4.063-5.539 3.3-4.832 2.793-4.533 3.047-5.408 3.3-6.359 3.555-7.375 3.808-8.44 4.316-10.141 4.824-11.93 5.84-15.067 8.632-22.972 11.425-30.321 5.84-14.86 4.823-11.689 4.316-9.872 3.809-8.158 3.554-7.077 3.047-5.606 3.047-5.138 2.792-4.267 2.54-3.484 2.284-2.796 2.285-2.456 2.031-1.885 2.031-1.592 2.032-1.288 1.777-.868 1.777-.618 9.394-2.407 10.156-2.386 9.901-2.099 9.648-1.82 9.394-1.55 9.14-1.288 9.14-1.063 8.886-.81 8.633-.569 8.632-.347 8.378-.117 25.643-.001h0" clip-path="url(#pb4c28acfcc)" style="fill:none;stroke:#6d92ff;stroke-opacity:.5;stroke-linecap:square"/><path id="line2d_28" d="m19.882 271.8 9.394-13.826 6.6-10.11 5.586-8.958 4.824-8.137 3.047-5.57 3.3-6.495 3.555-7.478 4.062-9.089 4.57-10.816 5.078-12.607 6.347-16.388 11.426-30.27 8.632-22.56 5.84-14.644 4.823-11.512 4.316-9.725 3.809-8.045 3.554-6.99 3.3-5.992 3.047-5.064 2.793-4.216 2.54-3.456 2.538-3.074 2.285-2.424 2.285-2.083 2.031-1.554 2.031-1.262 1.777-.856 1.778-.617 1.777-.372 13.202-1.846 12.949-1.584 12.694-1.327 12.44-1.077 12.188-.836 12.186-.611 11.933-.376 11.679-.15 27.42-.003h0" clip-path="url(#pb4c28acfcc)" style="fill:none;stroke:#609fff;stroke-opacity:.5;stroke-linecap:square"/><path id="line2d_29" d="m19.882 271.8 22.85-43.445 5.84-11.46 3.808-8.053 4.316-9.662 4.824-11.365 5.585-13.744 7.363-18.762 19.55-50.172 5.585-13.577 4.824-11.173 4.316-9.454 3.809-7.842 3.554-6.839 3.3-5.89 3.047-5.006 2.793-4.2 2.793-3.802 2.539-3.09 2.285-2.468 2.285-2.156 2.285-1.832 2.031-1.345 2.031-1.069 1.777-.7 1.778-.476 1.777-.245 17.264-1.281 17.011-1.04 16.757-.803 16.757-.58 16.503-.347 16.248-.122h26.151" clip-path="url(#pb4c28acfcc)" style="fill:none;stroke:#5af;stroke-opacity:.5;stroke-linecap:square"/><path id="line2d_30" d="M19.882 271.8 34.1 238.683l6.6-14.773 5.84-12.511 4.57-10.047 5.078-11.712 6.093-14.647 7.871-19.541 18.788-46.869 6.093-14.477 5.078-11.522 4.57-9.839 4.062-8.245 3.809-7.245 3.554-6.289 3.3-5.393 3.047-4.566 2.793-3.814 2.793-3.437 2.539-2.78 2.539-2.436 2.285-1.885 2.285-1.582 2.031-1.143 2.031-.886 2.031-.622 1.777-.322 2.032-.131 23.358-.884 23.104-.65 22.85-.422 22.596-.197 34.021-.016h0" clip-path="url(#pb4c28acfcc)" style="fill:none;stroke:#4cb3ff;stroke-opacity:.5;stroke-linecap:square"/><path id="line2d_31" d="m19.882 271.8 52.809-.11 30.213-.335 31.736-.578 21.327-.569 9.902-.508 8.886-.677 8.124-.843 7.617-1.016 7.109-1.171 6.855-1.355 6.601-1.534 6.347-1.704 6.094-1.863 6.093-2.101 5.84-2.25 5.84-2.494 5.585-2.626 1.523-.79.508-.546.508-.847.761-1.814.762-2.442 1.016-4.184 1.015-5.185 1.27-7.786 1.269-9.115 1.523-12.513 1.778-16.484 2.03-20.892 2.54-28.419 4.062-48.351 4.824-56.863 1.27-14.035h0" clip-path="url(#pb4c28acfcc)" style="fill:none;stroke:#f0f;stroke-opacity:.5;stroke-linecap:square"/><path id="line2d_32" d="m19.882 271.8 22.088-.113 8.633-.185 5.585-.386 5.586-.604 5.84-.855 6.093-1.125 6.093-1.352 6.347-1.636 6.601-1.936 6.855-2.246 7.11-2.567 7.362-2.894 7.87-3.335 8.38-3.798 8.885-4.274 8.633-4.384 2.538-1.528 2.793-1.944 2.793-2.213 3.047-2.706 3.046-3 3.3-3.567 3.555-4.19 3.555-4.533 3.808-5.213 4.062-5.94 4.317-6.704 4.57-7.503 5.077-8.771 5.586-10.108 6.347-11.97 7.363-14.385 9.902-19.882 21.073-42.455 8.632-17.236 4.57-9.898 5.332-12.103 8.124-19.064 2.285-5.397h0" clip-path="url(#pb4c28acfcc)" style="fill:none;stroke:#f0f;stroke-opacity:.5;stroke-linecap:square"/><path id="line2d_33" d="m19.882 271.8 10.41-.113 13.456-.388 4.57-.272 3.3-.47 3.3-.705 3.301-.93 3.555-1.243 3.554-1.482 3.809-1.84 3.808-2.084 4.062-2.478 4.316-2.901 4.57-3.35 4.824-3.82 5.078-4.304 5.586-5.028 6.093-5.784 7.109-7.064 8.632-8.907 15.995-16.906 10.918-11.655 3.046-3.79 3.047-4.14 3.3-4.851 3.555-5.611 4.062-6.849 4.316-7.717 5.078-9.556 6.093-11.979 8.633-17.52 12.694-25.742 6.094-11.84 5.077-9.394 4.317-7.546 4.062-6.659 3.554-5.423 3.3-4.658 3.048-3.946 3.046-3.58 2.793-2.934 2.539-2.362 2.539-2.056 2.285-1.574 2.285-1.313 5.332-2.767 4.316-2.008 3.808-1.546 3.554-1.215 3.301-.9 3.047-.612 1.27-.188h0" clip-path="url(#pb4c28acfcc)" style="fill:none;stroke:#f0f;stroke-opacity:.5;stroke-linecap:square"/><path id="line2d_34" d="m19.882 271.8 6.347-.11 7.363-.357 9.14-.679 4.57-.487 2.285-.52 2.285-.74 2.539-1.069 2.539-1.32 2.539-1.561 2.792-1.98 2.793-2.244 3.047-2.73 3.3-3.269 3.555-3.855 3.808-4.484 4.063-5.145 4.316-5.827 4.824-6.887 5.585-8.373 6.855-10.7 11.933-19.129 9.648-15.278 6.347-9.645 5.332-7.705 4.57-6.235 4.316-5.515 4.062-5.158 4.316-5.839 4.824-6.898 5.586-8.384 6.855-10.708 12.44-19.946 9.14-14.456 6.348-9.634 5.332-7.693 4.57-6.223 4.316-5.5 3.808-4.508 3.555-3.88 3.3-3.292 3.3-2.97 3.047-2.434 2.793-1.957 2.793-1.677 2.539-1.272 2.539-1.018 2.285-.691 2.285-.47 2.539-.273 10.917-.824 7.617-.358 5.84-.093h0" clip-path="url(#pb4c28acfcc)" style="fill:none;stroke:#f0f;stroke-opacity:.5;stroke-linecap:square"/><path id="line2d_35" d="m19.882 271.8 4.57-.115 5.078-.364 5.585-.632 6.855-1.005 4.824-.875 1.777-.581 2.032-.908 2.03-1.16 2.032-1.402 2.285-1.855 2.285-2.135 2.539-2.685 2.793-3.311 2.792-3.663 3.047-4.368 3.3-5.132 3.555-5.948 3.808-6.8 4.317-8.165 5.077-10.106 6.348-13.179 11.932-25.45 7.871-16.495 5.586-11.202 4.57-8.696 4.062-7.28 3.808-6.37 3.3-5.115 3.047-4.35 3.047-3.958 2.793-3.26 8.124-9.16 14.726-17.024 10.917-12.45 7.363-8.069 6.347-6.627 5.586-5.51 5.078-4.696 4.57-3.934 4.316-3.433 4.062-2.956 3.809-2.508 3.808-2.235 3.554-1.824 3.301-1.454 3.3-1.211 3.047-.891 3.047-.665 3.047-.429 2.792-.177 9.394-.1 16.503-.082h0" clip-path="url(#pb4c28acfcc)" style="fill:none;stroke:#c3f;stroke-opacity:.5;stroke-linecap:square"/><path id="line2d_36" d="m19.882 271.8 3.3-.105 3.555-.327 4.062-.605 4.57-.92 5.586-1.371 5.331-1.5 1.778-.778 1.777-1.03 1.777-1.275 2.031-1.743 2.031-2.038 2.285-2.628 2.285-2.965 2.54-3.668 2.792-4.459 2.793-4.87 3.047-5.743 3.3-6.678 3.808-8.225 4.317-9.889 4.824-11.62 6.347-15.917 19.55-49.483 4.823-11.383 4.316-9.614 3.809-7.931 3.3-6.387 3.047-5.443 2.793-4.57 2.793-4.133 2.538-3.35 2.285-2.66 2.285-2.308 2.54-2.197 12.186-10.158 9.14-7.333 7.617-5.835 6.855-4.984 6.347-4.346 5.84-3.74 5.585-3.316L207 31.369l5.078-2.513 4.824-2.138 4.57-1.788 4.57-1.543 4.316-1.22 4.062-.927 4.062-.703 4.063-.47 3.808-.22 5.078-.031 22.088-.016h0" clip-path="url(#pb4c28acfcc)" style="fill:none;stroke:#a5f;stroke-opacity:.5;stroke-linecap:square"/><path id="line2d_37" d="m19.882 271.8 2.793-.119 2.792-.34 3.047-.59 3.3-.862 3.809-1.228 4.57-1.713 5.84-2.428 1.523-.856 1.777-1.265 1.777-1.54 2.031-2.085 2.032-2.416 2.285-3.094 2.285-3.472 2.538-4.274 2.793-5.173 3.047-6.16 3.3-7.226 3.555-8.348 4.062-10.158 4.57-12.066 5.586-15.421 8.886-25.308 9.14-25.835 5.332-14.427 4.316-11.092 3.808-9.224 3.555-8.04 3.3-6.898 2.793-5.36 2.793-4.882 2.539-3.989 2.285-3.198 2.285-2.804 2.03-2.145 2.032-1.801 1.777-1.282 3.047-1.79 8.886-4.999 8.125-4.326 7.87-3.938 7.363-3.436 6.855-2.962 6.601-2.619 6.347-2.288 6.094-1.971 6.093-1.737 5.84-1.433 5.585-1.149 5.586-.921 5.332-.66 5.331-.434 5.078-.197 7.617-.02 19.803-.001h0" clip-path="url(#pb4c28acfcc)" style="fill:none;stroke:#926dff;stroke-opacity:.5;stroke-linecap:square"/><path id="line2d_38" d="m19.882 271.8 2.285-.184 2.539-.435 2.539-.652 2.792-.94 3.047-1.251 3.555-1.702 4.316-2.32 5.078-2.955 1.777-1.325 1.777-1.62 1.777-1.906 2.031-2.51 2.031-2.85 2.285-3.591 2.54-4.442 2.538-4.885 2.793-5.847 3.047-6.895 3.3-8.014 3.809-9.86 4.316-11.836 5.078-14.616 6.855-20.48L105.95 118.8l5.077-14.46 4.317-11.653 3.808-9.662 3.3-7.814 3.047-6.688 2.793-5.637 2.539-4.679 2.539-4.22 2.285-3.378 2.03-2.65 2.032-2.3 1.777-1.714 1.777-1.421 1.778-1.119 1.523-.71 8.378-3.054 9.14-3.105 8.633-2.702 8.378-2.395 8.125-2.097 7.87-1.81 7.87-1.58 7.618-1.301 7.362-1.038 7.363-.811 7.11-.562 7.108-.335 6.855-.104h25.135" clip-path="url(#pb4c28acfcc)" style="fill:none;stroke:#807fff;stroke-opacity:.5;stroke-linecap:square"/><path id="line2d_39" d="m19.882 271.8 2.539-.608 2.793-.911 2.792-1.143 3.047-1.487 3.3-1.862 3.555-2.257 4.062-2.845 4.063-3.093 1.777-1.65 1.777-1.94 2.031-2.556 2.031-2.905 2.285-3.66 2.54-4.53 2.538-4.981 2.793-5.964 3.047-7.035 3.3-8.179 3.808-10.065 4.317-12.086 5.077-14.931 6.855-20.932 14.218-43.618 5.078-14.783 4.316-11.915 3.809-9.88 3.3-7.992 3.047-6.84 2.793-5.769 2.539-4.789 2.538-4.321 2.285-3.462 2.032-2.718 2.03-2.361 1.778-1.76 1.777-1.464 1.777-1.156 1.524-.736 1.523-.494 9.394-2.077 10.663-2.147 10.41-1.872 10.155-1.606 10.156-1.38 9.902-1.12 9.648-.87 9.647-.647 9.394-.409 9.394-.184 17.011-.01h11.171" clip-path="url(#pb4c28acfcc)" style="fill:none;stroke:#718eff;stroke-opacity:.5;stroke-linecap:square"/><path id="line2d_40" d="m19.882 271.8 3.047-1.323 3.046-1.568 3.3-1.962 3.301-2.222 3.555-2.668 3.808-3.155 3.809-3.44 2.792-2.755 2.031-2.38 2.032-2.732 2.285-3.472 2.285-3.872 2.538-4.743 2.793-5.716 3.047-6.782 3.3-7.928 3.555-9.134 4.062-11.086 4.57-13.138 5.84-17.526 10.41-32.144 7.616-23.176 5.332-15.522 4.316-11.906 3.808-9.88 3.555-8.59 3.046-6.812 2.793-5.745 2.793-5.224 2.539-4.26 2.285-3.41 2.03-2.674 2.032-2.32 1.777-1.726 1.777-1.431 1.778-1.126 1.523-.714 1.523-.474 1.778-.283 13.456-1.701 13.456-1.475 13.202-1.222 12.949-.976 12.694-.738 12.695-.516 12.44-.285 12.695-.068h22.342" clip-path="url(#pb4c28acfcc)" style="fill:none;stroke:#69f;stroke-opacity:.5;stroke-linecap:square"/><path id="line2d_41" d="m19.882 271.8 72.866-.11 49.763-.338 15.487-.249 10.156-.404 9.14-.58 8.632-.77 8.125-.95 7.616-1.111 7.363-1.298 7.109-1.479 6.855-1.653 6.601-1.815 6.601-2.05 6.348-2.204 5.585-2.139.508-.347.508-.663.507-.969.762-2.01.762-2.65 1.015-4.481 1.016-5.501 1.27-8.206L256 218.205l1.523-13.332 1.777-17.41 2.285-24.756 2.793-32.814 9.14-110.093h0" clip-path="url(#pb4c28acfcc)" style="fill:none;stroke:#f0f;stroke-opacity:.5;stroke-linecap:square"/><path id="line2d_42" d="m19.882 271.8 32.752-.11 8.378-.327 8.378-.552 8.633-.792 8.886-1.043 8.886-1.265 9.14-1.522 9.394-1.786 9.902-2.113 10.155-2.399 10.41-2.686 4.062-1.197 2.539-1.039 2.539-1.288 2.539-1.531 2.793-1.956 2.792-2.231 3.047-2.738 3.047-3.042 3.3-3.626 3.3-3.954 3.555-4.607 3.809-5.317 4.062-6.08 4.316-6.888 4.57-7.74 4.824-8.623 5.078-9.526 5.585-10.947 6.348-12.942 7.362-15.544 9.14-19.844L249.4 91.216l2.539-6.146 2.792-7.334 3.3-9.318 3.81-11.434 5.077-15.987 6.601-21.197h0" clip-path="url(#pb4c28acfcc)" style="fill:none;stroke:#f0f;stroke-opacity:.5;stroke-linecap:square"/><path id="line2d_43" d="m19.882 271.8 27.928-.108 4.316-.26 4.316-.474 4.57-.726 4.57-.95 4.824-1.23 4.824-1.458 5.078-1.764 5.331-2.095 5.586-2.442 5.84-2.807 6.093-3.184 6.347-3.57 6.855-4.117 7.363-4.688 8.124-5.446 9.14-6.405 7.11-5.2 2.03-1.792 2.286-2.318 2.285-2.623 2.538-3.255 2.793-3.969 2.793-4.349 3.047-5.145 3.3-6.006 3.555-6.92 4.062-8.408 4.57-9.996 5.332-12.225 6.855-16.308 18.026-43.187 5.332-12.06 4.57-9.807 4.062-8.206 3.554-6.713 3.301-5.792 3.047-4.928 2.792-4.133 2.793-3.737 2.54-3.03 2.284-2.41 2.285-2.093 4.316-3.49 4.063-3 3.808-2.545 3.808-2.272 3.555-1.864 3.554-1.605 2.285-.89h0" clip-path="url(#pb4c28acfcc)" style="fill:none;stroke:#f0f;stroke-opacity:.5;stroke-linecap:square"/><path id="line2d_44" d="m19.882 271.8 19.803-.113 8.125-.177 2.793-.328 3.046-.587 3.047-.817 3.047-1.038 3.3-1.361 3.3-1.598 3.555-1.97 3.809-2.384 3.808-2.646 4.062-3.092 4.316-3.566 4.57-4.062 5.078-4.82 5.586-5.628 6.093-6.46 7.363-8.15 9.648-11.041 20.565-23.62 4.824-5.551 2.793-3.645 3.046-4.35 3.3-5.114 3.555-5.93 3.809-6.785 4.316-8.149 5.078-10.092 6.093-12.632 10.663-22.735 8.633-18.186 5.839-11.788 4.824-9.237 4.062-7.326 3.809-6.42 3.554-5.543 3.047-4.368 3.046-3.979 2.793-3.278 2.54-2.653 2.538-2.32 2.285-1.791 2.285-1.493 2.031-1.067 2.031-.812 1.777-.493 2.793-.484 8.125-1.21 5.84-.655 5.077-.354 4.316-.102h0" clip-path="url(#pb4c28acfcc)" style="fill:none;stroke:#f0f;stroke-opacity:.5;stroke-linecap:square"/><path id="line2d_45" d="m19.882 271.8 12.44-.111 13.964-.333 2.285-.293 2.285-.53 2.285-.76 2.285-.978 2.54-1.337 2.538-1.587 2.793-2.02 2.793-2.294 3.047-2.796 3.3-3.353 3.555-3.958 3.808-4.605 4.062-5.285 4.316-5.985 4.824-7.072 5.586-8.591 7.109-11.374 24.12-38.995 5.585-8.4 4.824-6.859 4.316-5.758 9.14-11.913 4.57-6.528 5.332-8.028 6.347-9.992 8.886-14.454 13.964-22.714 6.347-9.882 5.332-7.898 4.57-6.392 4.316-5.65 3.809-4.63 3.554-3.982 3.3-3.377 3.047-2.821 3.047-2.516 2.793-2.02 2.539-1.587 2.539-1.337 2.538-1.074 2.285-.734 2.285-.504 2.285-.266 3.809-.11 16.503-.29 5.84-.027h0" clip-path="url(#pb4c28acfcc)" style="fill:none;stroke:#f0f;stroke-opacity:.5;stroke-linecap:square"/><path id="line2d_46" d="m19.882 271.8 8.632-.109 10.663-.37 7.617-.441 1.777-.382 1.778-.588 2.03-.918 2.032-1.169 2.031-1.41 2.285-1.866 2.285-2.146 2.539-2.696 2.793-3.324 2.793-3.675 3.046-4.378 3.3-5.143 3.555-5.956 4.062-7.273 4.317-8.189 5.077-10.119 6.348-13.166 21.834-45.75 5.078-9.868 4.316-7.915 3.809-6.544 3.554-5.678 3.3-4.854 3.047-4.086 2.793-3.384 7.363-8.577 9.648-11.621 18.788-22.697 7.362-8.49 6.094-6.691 5.331-5.534 4.824-4.7 4.57-4.145 4.317-3.606 4.062-3.094 3.808-2.612 3.555-2.17 3.3-1.766 3.3-1.514 3.047-1.161 3.047-.925 2.793-.63 2.793-.415 2.792-.19 5.84-.029 20.311-.036h0" clip-path="url(#pb4c28acfcc)" style="fill:none;stroke:#d52aff;stroke-opacity:.5;stroke-linecap:square"/><path id="line2d_47" d="m19.882 271.8 6.601-.114 7.363-.353 9.394-.687 3.554-.406 1.524-.434 1.777-.752 1.777-1.006 1.777-1.252 2.031-1.721 2.031-2.018 2.285-2.607 2.285-2.948 2.54-3.65 2.792-4.443 2.793-4.856 3.047-5.728 3.3-6.664 3.809-8.208 4.316-9.869 5.078-12.215 6.347-15.888 17.772-44.852 5.078-12.022 4.316-9.651 3.808-7.976 3.301-6.432 3.047-5.49 2.792-4.616 2.793-4.181 2.54-3.396 2.284-2.704 2.285-2.35 7.617-7.01 11.933-10.781 8.632-7.506 7.363-6.11 6.6-5.19 5.84-4.32 5.586-3.86 5.332-3.409 4.824-2.828 4.57-2.438 4.57-2.184 4.316-1.815 4.062-1.476 4.062-1.238 3.809-.935 3.808-.705 3.554-.443 3.555-.226 4.57-.032 22.596-.005h0" clip-path="url(#pb4c28acfcc)" style="fill:none;stroke:#b649ff;stroke-opacity:.5;stroke-linecap:square"/><path id="line2d_48" d="m19.882 271.8 5.078-.11 5.585-.346 6.601-.643 8.379-1.06 1.523-.367 1.523-.598 1.524-.823 1.777-1.234 1.777-1.518 1.777-1.793 2.032-2.37 2.03-2.7 2.286-3.407 2.539-4.22 2.539-4.649 2.792-5.569 3.047-6.571 3.3-7.643 3.809-9.407 4.316-11.295 5.078-13.948 6.855-19.536 13.456-38.48 5.078-13.8 4.316-11.123 3.808-9.22 3.3-7.452 3.048-6.375 2.792-5.369 2.54-4.45 2.538-4.01 2.285-3.204 2.031-2.508 2.031-2.17 1.778-1.61 1.777-1.329 9.394-6.234 8.378-5.304 7.87-4.72 7.11-4.011 6.855-3.616 6.347-3.104 6.093-2.74 5.84-2.39 5.586-2.055 5.585-1.815 5.332-1.497 5.078-1.2 5.077-.969 4.824-.698 4.824-.473 4.57-.231 5.586-.035 22.342-.001h0" clip-path="url(#pb4c28acfcc)" style="fill:none;stroke:#a05fff;stroke-opacity:.5;stroke-linecap:square"/><path id="line2d_49" d="m19.882 271.8 4.062-.109 4.57-.355 5.078-.633 5.84-.962 6.6-1.313 1.524-.567 1.523-.817 1.524-1.06 1.777-1.53 1.777-1.837 2.031-2.46 2.031-2.825 2.285-3.594 2.285-4.01 2.54-4.909 2.792-5.912 3.047-7.009 3.3-8.18 3.555-9.408 4.062-11.387 4.824-14.211 6.347-19.45 15.487-47.775 4.824-14.031 4.063-11.185 3.554-9.192 3.3-7.949 3.047-6.767 2.793-5.67 2.539-4.668 2.285-3.777 2.285-3.348 2.031-2.594 2.031-2.216 1.777-1.615 1.778-1.3 1.523-.853 7.87-3.58 8.633-3.694 8.124-3.242 7.871-2.904 7.617-2.575 7.363-2.254 7.108-1.947 6.855-1.651 6.856-1.42 6.6-1.137 6.348-.874 6.347-.648 6.094-.404 6.093-.182 11.425-.01h15.741" clip-path="url(#pb4c28acfcc)" style="fill:none;stroke:#8e71ff;stroke-opacity:.5;stroke-linecap:square"/><path id="line2d_50" d="m19.882 271.8 3.3-.105 3.555-.328 4.062-.608 4.57-.927 5.332-1.32L46.033 267l1.523-.705 1.523-.964 1.524-1.216 1.777-1.727 1.777-2.045 2.031-2.711 2.031-3.091 2.285-3.908 2.285-4.337 2.54-5.288 2.792-6.344 3.047-7.493 3.3-8.718 3.809-10.73 4.316-12.873 5.078-15.874 7.362-23.824 10.918-35.29 5.077-15.669 4.317-12.63 3.808-10.46 3.3-8.445 3.047-7.208 2.793-6.053 2.539-5.001 2.285-4.06 2.285-3.612 2.031-2.813 2.031-2.42 1.777-1.777 1.778-1.449 1.523-.969 1.523-.71 2.285-.716 9.902-2.86 9.394-2.487 9.394-2.256 9.14-1.962 8.886-1.678 8.632-1.406 8.379-1.145 8.378-.92 8.125-.672 8.124-.448 7.87-.213 10.664-.023h18.28" clip-path="url(#pb4c28acfcc)" style="fill:none;stroke:#807fff;stroke-opacity:.5;stroke-linecap:square"/><path id="line2d_51" d="m19.882 271.8 102.318-.11 35.798-.213 10.917-.333 9.902-.517 9.394-.712 8.632-.872 8.379-1.068 7.87-1.221 7.617-1.4 7.363-1.574 7.363-1.804 7.109-1.975 5.839-1.836.508-.474.508-.793.761-1.767.762-2.435 1.016-4.234 1.015-5.297 1.27-8.008 1.269-9.422 1.523-12.977 1.778-17.143 2.03-21.77 2.54-29.652 4.062-50.482 4.824-59.303 1.27-14.608h0" clip-path="url(#pb4c28acfcc)" style="fill:none;stroke:#f0f;stroke-opacity:.5;stroke-linecap:square"/><path id="line2d_52" d="m19.882 271.8 37.322-.111 12.186-.332 12.441-.562 12.695-.797 12.948-1.039 13.202-1.285 13.456-1.535 13.203-1.727 2.539-.534 2.539-.776 2.538-1.014 2.54-1.245 2.792-1.63 2.793-1.897 2.793-2.155 3.046-2.637 3.047-2.926 3.3-3.486 3.301-3.802 3.555-4.434 3.808-5.125 3.808-5.493 4.063-6.244 4.316-7.045 4.57-7.89 4.824-8.775 5.078-9.691 5.585-11.145 6.093-12.671 6.602-14.244 7.616-16.978 9.14-20.94 2.285-5.545 2.032-5.574 2.285-6.937 2.538-8.423 3.047-10.927 3.808-14.596 5.586-22.431 4.316-17.402h0" clip-path="url(#pb4c28acfcc)" style="fill:none;stroke:#f0f;stroke-opacity:.5;stroke-linecap:square"/><path id="line2d_53" d="m19.882 271.8 30.974-.104 6.094-.322 6.347-.563 6.347-.788 6.601-1.05 6.602-1.273 6.855-1.55 7.109-1.84 7.362-2.142 7.617-2.456 7.87-2.779 8.125-3.107 8.379-3.44 8.886-3.886 3.3-1.604 1.778-1.151 2.03-1.599 2.032-1.888 2.285-2.455 2.285-2.791 2.539-3.473 2.539-3.844 2.792-4.628 3.047-5.492 3.3-6.428 3.555-7.42 4.062-9.036 4.57-10.76 5.332-13.178 6.855-17.605 18.534-47.954 5.332-12.978 4.57-10.535 4.062-8.792 3.555-7.174 3.3-6.172 3.047-5.232 2.793-4.37 2.538-3.593 2.54-3.207 3.3-3.719 3.808-3.99 4.063-3.927 4.062-3.608 4.062-3.307 4.062-3.03 2.54-1.76h0" clip-path="url(#pb4c28acfcc)" style="fill:none;stroke:#f0f;stroke-opacity:.5;stroke-linecap:square"/><path id="line2d_54" d="m19.882 271.8 28.69-.11 3.808-.306 4.062-.558 4.062-.788 4.063-1.009 4.316-1.303 4.316-1.529 4.57-1.853 4.824-2.204 5.078-2.576 5.331-2.97 5.586-3.376 5.84-3.796 6.347-4.4 6.855-5.035 7.616-5.882 8.633-6.958 10.917-9.105 3.808-3.354 2.031-2.14 2.285-2.738 2.54-3.43 2.538-3.813 2.793-4.608 3.047-5.48 3.3-6.425 3.555-7.42 4.062-9.032 4.57-10.74 5.585-13.748 7.871-20.043 11.679-29.698 5.586-13.558 4.57-10.521 4.062-8.79 3.554-7.174 3.3-6.163 3.048-5.214 2.792-4.34 2.54-3.553 2.284-2.855 2.285-2.51 2.031-1.93 2.032-1.63 1.777-1.17 1.777-.924 1.777-.666 5.586-1.511 5.585-1.33 4.57-.87 4.063-.547 3.554-.266 2.285-.051h0" clip-path="url(#pb4c28acfcc)" style="fill:none;stroke:#f0f;stroke-opacity:.5;stroke-linecap:square"/><path id="line2d_55" d="m19.882 271.8 27.166-.107 2.793-.273 2.793-.494 2.792-.707 3.047-1.005 3.047-1.239 3.3-1.592 3.301-1.842 3.554-2.245 3.809-2.689 3.808-2.962 4.062-3.438 4.317-3.939 4.823-4.716 5.078-5.279 5.84-6.405 6.6-7.584 8.38-9.987 26.658-32.062 4.57-5.422 2.793-3.73 3.046-4.436 3.3-5.198 3.555-6.01 4.062-7.325 4.57-8.732 5.332-10.702 6.855-14.305 18.534-38.97L207 67.869l4.57-8.546 4.062-7.124 3.555-5.807 3.3-4.988 3.047-4.221 2.793-3.519 2.793-3.156 2.538-2.534 2.285-1.992 2.285-1.703 2.032-1.261 2.03-1.013 2.032-.755 1.777-.441 1.777-.23 7.87-.364 11.172-.349 6.601-.065h0" clip-path="url(#pb4c28acfcc)" style="fill:none;stroke:#f0f;stroke-opacity:.5;stroke-linecap:square"/><path id="line2d_56" d="m19.882 271.8 24.881-.112 2.539-.121 2.285-.364 2.285-.602 2.285-.83 2.285-1.051 2.539-1.416 2.539-1.666 2.793-2.106 2.792-2.38 3.047-2.886 3.3-3.45 3.555-4.058 3.808-4.71 4.063-5.391 4.57-6.46 5.078-7.587 5.839-9.14 7.617-12.36 19.295-31.503 5.84-9.01 5.078-7.438 4.57-6.295 4.062-5.222 3.808-4.906 4.316-5.935 4.824-7.035 5.332-8.177 6.601-10.547 10.664-17.532 10.41-16.975 6.346-9.933 5.332-7.936 4.57-6.416 4.062-5.346 3.809-4.662 3.554-4.01 3.3-3.4 3.047-2.837 3.047-2.529 2.793-2.03 2.539-1.592 2.539-1.338 2.539-1.074 2.285-.73 2.285-.496 2.285-.256 3.046-.05 23.358-.1h0" clip-path="url(#pb4c28acfcc)" style="fill:none;stroke:#f0f;stroke-opacity:.5;stroke-linecap:square"/><path id="line2d_57" d="m19.882 271.8 17.01-.112 9.902-.217 1.777-.316 1.778-.522 2.03-.838 2.032-1.089 2.031-1.328 2.285-1.77 2.285-2.048 2.539-2.586 2.539-2.895 2.793-3.519 3.046-4.21 3.3-4.963 3.555-5.766 3.809-6.608 4.316-7.948 4.824-9.353 6.093-12.333 9.648-20.126 9.648-19.969 5.84-11.582 4.823-9.084 4.316-7.647 3.809-6.293 3.554-5.434 3.047-4.278 3.046-3.896 18.28-22.225 21.073-26.28 6.856-8.119 5.839-6.582 5.078-5.407 4.824-4.814 4.316-4.004 4.062-3.475 3.808-2.977 3.555-2.512 3.554-2.236 3.3-1.814 3.048-1.438 3.046-1.198 3.047-.947 2.793-.64 2.793-.409 2.792-.172 8.887-.013 17.01-.008h0" clip-path="url(#pb4c28acfcc)" style="fill:none;stroke:#db24ff;stroke-opacity:.5;stroke-linecap:square"/><path id="line2d_58" d="m19.882 271.8 12.44-.112 13.71-.331 1.524-.242 1.777-.528 1.777-.784 1.778-1.03 1.777-1.27 2.03-1.73 2.032-2.02 2.285-2.599 2.285-2.927 2.539-3.617 2.793-4.392 3.046-5.246 3.301-6.171 3.554-7.151 3.809-8.166 4.316-9.781 5.078-12.061 6.855-16.894 14.98-37.103 5.331-12.515 4.316-9.603 3.809-7.973 3.554-6.942 3.3-5.951 3.047-5.022 2.793-4.168 2.539-3.398 2.285-2.718 2.285-2.378 21.835-21.073 8.378-7.745 7.109-6.28 6.347-5.32 5.84-4.603 5.331-3.927 5.078-3.464 4.824-3.016 4.57-2.59 4.316-2.187 4.062-1.816 4.063-1.565 3.808-1.228 3.808-.983 3.555-.689 3.554-.456 3.3-.209 4.57-.024 22.343-.002h0" clip-path="url(#pb4c28acfcc)" style="fill:none;stroke:#bf40ff;stroke-opacity:.5;stroke-linecap:square"/><path id="line2d_59" d="m19.882 271.8 9.648-.114 11.932-.381 5.078-.296 1.524-.38 1.523-.608 1.523-.826 1.778-1.234 1.777-1.513 2.03-2.057 2.032-2.393 2.285-3.072 2.285-3.455 2.539-4.258 2.793-5.16 3.046-6.148 3.301-7.214 3.554-8.335 4.063-10.14 4.57-12.037 5.585-15.364 10.156-28.747 7.617-21.253 5.077-13.558 4.317-10.922 3.808-9.05 3.3-7.312 3.047-6.25 2.793-5.262 2.539-4.36 2.539-3.923 2.285-3.133 2.03-2.45 2.032-2.116 1.777-1.567 3.3-2.48 9.649-7.023 8.378-5.832 7.617-5.036 7.109-4.432 6.6-3.85 6.094-3.304 5.84-2.918 5.585-2.546 5.332-2.19 5.078-1.854 5.078-1.615 4.823-1.3 4.57-1.011 4.57-.788 4.57-.554 4.317-.3 4.316-.079h24.627" clip-path="url(#pb4c28acfcc)" style="fill:none;stroke:#a5f;stroke-opacity:.5;stroke-linecap:square"/><path id="line2d_60" d="m19.882 271.8 7.617-.113 8.886-.367 9.648-.616 1.523-.366 1.523-.621 1.524-.868 1.523-1.108 1.777-1.584 1.777-1.887 2.031-2.513 2.032-2.875 2.285-3.644 2.285-4.053 2.539-4.952 2.792-5.952 3.047-7.04 3.3-8.204 3.809-10.111 4.316-12.151 5.078-15.008 7.109-21.787 11.933-36.625 5.077-14.853 4.317-11.967 3.808-9.911 3.3-8 3.047-6.829 2.793-5.736 2.539-4.739 2.285-3.847 2.285-3.426 2.031-2.669 2.031-2.297 1.777-1.69 1.778-1.378 1.777-1.063 8.886-4.67 8.378-4.153 7.871-3.656 7.617-3.291 7.109-2.834 6.855-2.5 6.6-2.18 6.348-1.87 6.347-1.639 6.094-1.344 5.84-1.069 5.839-.845 5.585-.59 5.586-.368 5.585-.14 25.897-.001h0" clip-path="url(#pb4c28acfcc)" style="fill:none;stroke:#96f;stroke-opacity:.5;stroke-linecap:square"/><path id="line2d_61" d="m19.882 271.8 133.292-.11 12.695-.228 11.17-.416 10.41-.607 9.648-.782 9.14-.96 8.886-1.158 8.379-1.314 8.124-1.497 7.87-1.675 7.618-1.845 1.269-.363.508-.45.508-.773.761-1.75.762-2.43 1.016-4.245 1.015-5.328 1.27-8.073 1.269-9.513 1.523-13.116 1.778-17.342 2.03-22.037 2.54-30.028 4.062-51.132 4.57-57.02 1.523-17.808h0" clip-path="url(#pb4c28acfcc)" style="fill:none;stroke:#f0f;stroke-opacity:.5;stroke-linecap:square"/><path id="line2d_62" d="m19.882 271.8 42.907-.109 18.026-.335 18.28-.565 18.535-.798 18.787-1.035 12.187-.851 2.54-.446 2.538-.662 2.793-.972 2.793-1.223 2.792-1.468 2.793-1.71 3.047-2.132 3.047-2.406 3.3-2.907 3.3-3.21 3.555-3.788 3.555-4.12 3.808-4.77 3.808-5.126 4.063-5.844 4.316-6.618 4.316-7.02 4.57-7.849 4.824-8.726 5.078-9.644 5.331-10.6 5.84-12.124 6.093-13.174 6.601-14.812 5.586-12.986 1.523-4.096 1.777-5.417 2.032-6.95 2.285-8.67 2.538-10.518 3.047-13.587 4.062-19.2 7.363-35.532h0" clip-path="url(#pb4c28acfcc)" style="fill:none;stroke:#f0f;stroke-opacity:.5;stroke-linecap:square"/><path id="line2d_63" d="m19.882 271.8 33.513-.105 8.633-.334 8.632-.555 8.886-.798 8.886-1.018 9.14-1.27 9.394-1.53 9.648-1.803 9.902-2.082 10.155-2.368 10.156-2.594 1.777-.618 1.777-.868 1.778-1.11 2.03-1.554 2.032-1.85 2.031-2.131 2.285-2.722 2.539-3.407 2.539-3.787 2.793-4.579 3.046-5.454 3.3-6.404 3.555-7.42 3.809-8.48 4.316-10.18 4.824-11.965 5.84-15.096 8.885-23.67 10.918-28.955 5.84-14.854 4.823-11.683 4.316-9.864 3.809-8.152 3.554-7.07 3.047-5.597 3.046-5.13 2.793-4.26 4.062-5.676 4.317-5.644 4.57-5.6 4.823-5.556 5.332-5.805 2.285-2.402h0" clip-path="url(#pb4c28acfcc)" style="fill:none;stroke:#f0f;stroke-opacity:.5;stroke-linecap:square"/><path id="line2d_64" d="m19.882 271.8 30.213-.103 5.331-.336 5.332-.563 5.332-.784 5.585-1.046 5.586-1.269 5.84-1.552 6.093-1.856 6.347-2.175 6.347-2.407 6.602-2.736 7.108-3.192 7.363-3.555 7.87-4.054 8.38-4.575 8.124-4.678 1.777-1.282 1.777-1.557 2.031-2.102 2.031-2.433 2.285-3.113 2.285-3.489 2.54-4.292 2.792-5.191 3.047-6.18 3.3-7.242 3.555-8.365 4.062-10.174 4.57-12.08 5.586-15.432 9.14-26.04 8.886-25.098 5.332-14.413 4.316-11.077 3.808-9.208 3.555-8.02 3.3-6.88 2.793-5.343 2.793-4.863 2.539-3.97 2.285-3.18 2.285-2.785 2.03-2.127 2.032-1.782 1.777-1.265 1.777-.978 3.047-1.28 5.84-2.285 4.316-1.454 3.554-.971 3.3-.67 3.047-.38 2.793-.118h0" clip-path="url(#pb4c28acfcc)" style="fill:none;stroke:#f0f;stroke-opacity:.5;stroke-linecap:square"/><path id="line2d_65" d="m19.882 271.8 28.69-.107 3.554-.32 3.554-.533 3.809-.798 3.808-1.023 4.062-1.33 4.063-1.561 4.316-1.902 4.57-2.27 4.57-2.518 4.824-2.908 5.077-3.316 5.586-3.924 5.84-4.378 6.347-5.04 7.109-5.935 8.124-7.082 10.156-9.162 10.155-9.403 2.285-2.51 2.285-2.855 2.54-3.554 2.538-3.93 2.793-4.729 3.047-5.601 3.3-6.541 3.555-7.53 4.062-9.133 4.824-11.436 5.84-14.461 10.663-27.163 7.87-19.74 5.332-12.78 4.316-9.804 3.809-8.138 3.554-7.082 3.3-6.068 3.047-5.117 2.793-4.243 2.539-3.455 2.285-2.762 2.285-2.41 2.031-1.834 2.031-1.53 1.777-1.077 1.778-.825 1.777-.563 1.523-.269 6.348-.518 8.886-.561 7.362-.246 3.047-.025h0" clip-path="url(#pb4c28acfcc)" style="fill:none;stroke:#f0f;stroke-opacity:.5;stroke-linecap:square"/><path id="line2d_66" d="m19.882 271.8 27.674-.103 2.793-.324 2.792-.556 2.793-.78 3.047-1.095 3.047-1.34 3.046-1.571 3.3-1.953 3.555-2.376 3.555-2.643 3.808-3.107 4.062-3.603 4.317-4.126 4.823-4.936 5.078-5.517 5.84-6.685 6.855-8.209 8.886-11.02 21.327-26.593 11.17-13.664 3.048-4.37 3.3-5.119 3.555-5.917 4.062-7.21 4.57-8.595 5.332-10.533 6.855-14.08 18.787-38.879 5.332-10.361 4.57-8.401 4.062-7.003 3.555-5.707 3.3-4.901 3.047-4.148 2.793-3.457 2.793-3.101 2.539-2.49 2.285-1.957 2.285-1.674 2.03-1.239 2.032-.996 2.031-.742 1.777-.435 1.777-.227 2.793-.062 21.327-.193 2.031-.002h0" clip-path="url(#pb4c28acfcc)" style="fill:none;stroke:#f0f;stroke-opacity:.5;stroke-linecap:square"/><path id="line2d_67" d="m19.882 271.8 26.912-.096 2.285-.3 2.285-.54 2.285-.772 2.285-.995 2.54-1.358 2.538-1.61 2.793-2.052 2.793-2.327 3.046-2.835 3.3-3.399 3.301-3.713 3.555-4.32 4.062-5.305 4.316-6.014 4.824-7.113 5.586-8.648 6.855-11.041 24.881-40.483 5.332-8.039 4.824-6.873 4.316-5.76 8.378-10.925 4.57-6.522 5.078-7.648 6.093-9.603 8.125-13.26 16.503-27.037 6.093-9.507 5.078-7.538 4.57-6.402 4.062-5.328 3.809-4.64 3.554-3.986 3.3-3.373 3.047-2.81 3.047-2.5 2.793-1.998 2.539-1.561 2.539-1.306 2.285-.946 2.285-.722 2.285-.487 2.285-.245 3.046-.033 23.358-.03h0" clip-path="url(#pb4c28acfcc)" style="fill:none;stroke:#f0f;stroke-opacity:.5;stroke-linecap:square"/><path id="line2d_68" d="m19.882 271.8 26.404-.108 1.778-.235 1.777-.437 2.031-.74 2.031-.988 2.031-1.226 2.285-1.652 2.285-1.93 2.54-2.452 2.538-2.76 2.793-3.37 3.047-4.048 3.3-4.788 3.555-5.58 3.808-6.41 4.316-7.732 4.824-9.124 5.84-11.555 8.378-17.138 12.187-24.892 5.839-11.405 4.824-8.949 4.316-7.538 3.808-6.21 3.555-5.365 3.3-4.567 3.047-3.825 7.87-9.491 7.871-9.91 27.42-34.853 6.094-7.217 5.332-5.99 4.823-5.102 4.57-4.51 4.063-3.712 3.808-3.2 3.808-2.903 3.555-2.423 3.3-1.984 3.047-1.59 3.047-1.349 3.047-1.092 2.792-.767 2.793-.534 2.793-.29 2.793-.054 24.373-.005h0" clip-path="url(#pb4c28acfcc)" style="fill:none;stroke:#e01fff;stroke-opacity:.5;stroke-linecap:square"/><path id="line2d_69" d="m19.882 271.8 24.373-.112 2.54-.121 1.776-.374 1.778-.627 1.777-.872 1.777-1.109 2.031-1.545 2.031-1.83 2.285-2.386 2.285-2.713 2.54-3.378 2.792-4.129 2.793-4.53 3.047-5.363 3.3-6.257 3.808-7.73 4.063-8.761 4.824-10.96 5.84-13.846 10.916-26.618 7.871-18.881 5.332-12.225 4.316-9.38 3.808-7.793 3.555-6.786 3.3-5.821 3.047-4.917 2.793-4.083 2.539-3.334 2.285-2.672 2.792-2.88L173.74 64l7.87-7.505 6.602-6 6.093-5.239 5.586-4.503 5.078-3.81 4.824-3.34 4.57-2.89 4.316-2.465 4.062-2.066 3.808-1.7 3.809-1.459 3.554-1.13 3.555-.899 3.3-.617 3.3-.398 3.301-.173 8.125-.007h18.026" clip-path="url(#pb4c28acfcc)" style="fill:none;stroke:#c738ff;stroke-opacity:.5;stroke-linecap:square"/><path id="line2d_70" d="m19.882 271.8 18.026-.111 8.632-.19 1.524-.33 1.523-.55 1.523-.766 1.778-1.156 1.777-1.43 2.03-1.956 2.032-2.285 2.285-2.944 2.285-3.319 2.539-4.1 2.793-4.977 2.793-5.43 3.046-6.389 3.555-8.004 3.808-9.143 4.316-10.947 5.332-14.17 7.617-20.963 11.425-31.418 5.331-13.987 4.316-10.74 3.809-8.918 3.554-7.756 3.047-6.149 2.793-5.185 2.793-4.712 2.538-3.84 2.285-3.068 2.285-2.68 2.032-2.036 2.03-1.714 10.918-8.617 8.886-6.736 7.617-5.506 7.109-4.867 6.6-4.246 6.094-3.656 5.84-3.24 5.331-2.711 5.078-2.348 5.078-2.102 4.824-1.756 4.57-1.433 4.57-1.2 4.316-.906 4.316-.677 4.063-.42 4.062-.2 6.347-.016h20.565" clip-path="url(#pb4c28acfcc)" style="fill:none;stroke:#b34cff;stroke-opacity:.5;stroke-linecap:square"/><path id="line2d_71" d="m19.882 271.8 138.878-.11 13.202-.285 11.933-.48 10.917-.66 10.156-.83 9.648-1.008 9.394-1.206 8.886-1.363 8.632-1.547 6.855-1.43.508-.43.508-.759.761-1.735.762-2.426 1.016-4.253 1.015-5.35 1.27-8.123 1.269-9.58 1.523-13.223 1.778-17.494 2.03-22.24 2.54-30.315 4.062-51.627 4.57-57.558 1.523-17.968h0" clip-path="url(#pb4c28acfcc)" style="fill:none;stroke:#f0f;stroke-opacity:.5;stroke-linecap:square"/><path id="line2d_72" d="m19.882 271.8 51.032-.11 26.15-.333 26.405-.559 24.12-.715 2.792-.28 2.793-.508 2.793-.734 2.793-.955 3.046-1.292 3.047-1.547 3.047-1.799 3.047-2.046 3.3-2.49 3.3-2.77 3.555-3.29 3.555-3.602 3.808-4.197 3.808-4.538 4.063-5.208 4.062-5.577 4.316-6.318 4.316-6.711 4.57-7.52 4.824-8.387 4.824-8.828 5.078-9.754 5.331-10.727 5.586-11.748 5.84-12.811 4.062-9.369 1.523-4.32 1.523-4.989 1.778-6.592 2.03-8.438 2.286-10.48 2.793-13.96 3.554-19.062 8.886-49.436h0" clip-path="url(#pb4c28acfcc)" style="fill:none;stroke:#f0f;stroke-opacity:.5;stroke-linecap:square"/><path id="line2d_73" d="m19.882 271.8 37.068-.111 11.933-.338 11.932-.56 12.187-.793 12.44-1.037 12.441-1.258 12.695-1.506 12.948-1.76 4.57-.75 1.778-.583 1.777-.823 1.777-1.055 2.031-1.481 2.031-1.766 2.285-2.312 2.285-2.643 2.54-3.305 2.538-3.674 2.793-4.442 3.047-5.293 3.3-6.22 3.555-7.213 3.808-8.256 4.316-9.93 4.824-11.697 5.586-14.154 7.616-19.969 15.995-42.105 5.84-14.632 4.824-11.498 4.316-9.71 3.808-8.03 3.555-6.975 3.3-5.976 4.317-7.251 5.585-8.958 6.093-9.347 7.617-11.264 2.285-3.325h0" clip-path="url(#pb4c28acfcc)" style="fill:none;stroke:#f0f;stroke-opacity:.5;stroke-linecap:square"/><path id="line2d_74" d="m19.882 271.8 31.99-.104 7.109-.335 7.109-.562 7.109-.78 7.363-1.03 7.616-1.293 7.617-1.519 7.87-1.794 8.125-2.083 8.378-2.381 8.633-2.688 8.886-3.003 9.14-3.323 1.523-.71 1.524-.94 1.777-1.378 1.777-1.672 2.031-2.256 2.031-2.607 2.285-3.333 2.285-3.734 2.54-4.589 2.792-5.547 3.047-6.597 3.3-7.728 3.555-8.917 4.062-10.835 4.57-12.852 5.586-16.394 10.155-30.668 7.87-23.423 5.079-14.45 4.316-11.645 3.808-9.651 3.3-7.804 3.047-6.676 2.793-5.627 2.54-4.667 2.538-4.208 2.285-3.367 2.031-2.64 2.031-2.29 1.777-1.702 1.778-1.411 1.777-1.12 6.347-3.576 4.062-2.048 3.555-1.54 3.047-1.077 2.792-.751 2.54-.458 2.284-.207.254-.01h0" clip-path="url(#pb4c28acfcc)" style="fill:none;stroke:#f0f;stroke-opacity:.5;stroke-linecap:square"/><path id="line2d_75" d="m19.882 271.8 29.705-.1 4.57-.314 4.824-.557 4.824-.78 5.078-1.05 5.077-1.279 5.332-1.574 5.332-1.802 5.585-2.118 5.84-2.452 6.093-2.8 6.348-3.163 6.855-3.673 7.108-4.065 7.617-4.614 8.379-5.344 8.632-5.759 1.777-1.41 1.777-1.688 2.031-2.256 2.032-2.59 2.285-3.291 2.285-3.67 2.538-4.493 2.793-5.412 3.047-6.417 3.3-7.495 3.555-8.624 4.062-10.45 4.824-13.064 6.094-17.195 18.28-52.058 4.824-12.813 4.062-10.175 3.554-8.335 3.3-7.185 3.047-6.097 2.793-5.09 2.54-4.176 2.284-3.365 2.285-2.968 2.031-2.286 2.031-1.939 1.778-1.398 1.777-1.108 1.523-.711 1.524-.484 1.777-.296 9.14-1.112 6.601-.582 5.586-.275 3.3-.048h0" clip-path="url(#pb4c28acfcc)" style="fill:none;stroke:#f0f;stroke-opacity:.5;stroke-linecap:square"/><path id="line2d_76" d="m19.882 271.8 28.436-.096 3.3-.306 3.555-.557 3.554-.784 3.554-1.003 3.809-1.306 3.808-1.535 4.062-1.876 4.317-2.249 4.316-2.495 4.57-2.892 4.824-3.31 5.331-3.94 5.586-4.41 6.093-5.1 6.855-6.041 7.87-7.249 9.903-9.444 14.471-14.131 2.285-2.607 2.285-2.935 2.54-3.625 2.792-4.4 3.047-5.253 3.3-6.18 3.555-7.157 3.808-8.173 4.316-9.787 5.332-12.682 7.109-17.55 14.218-35.22 5.331-12.538 4.57-10.177 3.809-7.966 3.554-6.934 3.3-5.944 3.048-5.013 2.792-4.16 2.54-3.39 2.284-2.71 2.285-2.369 2.031-1.804 2.032-1.508 1.777-1.065 1.777-.82 1.777-.564 1.524-.275 1.777-.093 17.518-.338 7.11-.039h0" clip-path="url(#pb4c28acfcc)" style="fill:none;stroke:#f0f;stroke-opacity:.5;stroke-linecap:square"/><path id="line2d_77" d="m19.882 271.8 27.674-.093 2.539-.295 2.793-.555 2.792-.788 2.793-1.011 3.047-1.348 3.047-1.591 3.3-1.984 3.3-2.24 3.555-2.682 3.808-3.161 4.063-3.675 4.316-4.215 4.57-4.776 5.078-5.634 5.585-6.533 6.601-8.075 8.633-10.944 22.342-28.512 6.601-7.966 3.047-3.73 3.047-4.11 3.3-4.85 3.555-5.638 3.808-6.467 4.316-7.785 4.824-9.171 5.84-11.594 8.886-18.209 10.917-22.29 5.84-11.427 4.823-8.975 4.316-7.566 3.809-6.239 3.554-5.397 3.3-4.598 3.047-3.858 2.793-3.182 2.54-2.577 2.538-2.26 2.285-1.746 2.285-1.46 2.031-1.049 2.031-.803 2.031-.548 1.778-.264 2.03-.065 24.628-.064h0" clip-path="url(#pb4c28acfcc)" style="fill:none;stroke:#f0f;stroke-opacity:.5;stroke-linecap:square"/><path id="line2d_78" d="m19.882 271.8 27.166-.09 2.285-.324 2.285-.563 2.285-.795 2.285-1.018 2.539-1.381 2.539-1.634 2.793-2.075 2.793-2.351 3.046-2.86 3.3-3.423 3.555-4.036 3.809-4.69 4.062-5.375 4.316-6.08 4.824-7.173 5.84-9.107 7.362-11.933 21.327-34.84 5.84-8.952 4.823-7.006 4.316-5.899 4.317-5.508 4.062-5.32 4.316-6.03 4.824-7.127 5.585-8.663 7.11-11.47 23.865-38.893 5.586-8.464 4.824-6.907 4.316-5.794 3.808-4.76 3.555-4.11 3.3-3.497 3.047-2.934 3.046-2.63 2.793-2.127 2.793-1.837 2.539-1.408 2.539-1.144 2.285-.795 2.285-.563 2.285-.323 2.285-.08 24.881-.011h0" clip-path="url(#pb4c28acfcc)" style="fill:none;stroke:#f0f;stroke-opacity:.5;stroke-linecap:square"/><path id="line2d_79" d="m19.882 271.8 26.912-.101 1.777-.282 2.032-.565 2.03-.813 2.032-1.052 2.285-1.46 2.285-1.739 2.285-2.005 2.539-2.525 2.793-3.119 2.792-3.453 3.047-4.12 3.3-4.848 3.555-5.62 3.808-6.433 4.317-7.728 5.077-9.575 6.094-11.992 10.155-20.573 9.394-18.844 5.84-11.218 4.824-8.798 4.316-7.404 3.808-6.097 3.555-5.265 3.3-4.48 3.047-3.753 5.84-7.1 7.108-9.005 10.41-13.59 14.218-18.516 7.109-8.883 5.839-6.957 5.078-5.728 4.824-5.109 4.316-4.254 4.062-3.697 3.808-3.17 3.555-2.676 3.3-2.225 3.301-1.957 3.047-1.556 3.046-1.3 2.793-.96 2.793-.725 2.793-.481 2.539-.219 3.3-.029 23.358-.001h0" clip-path="url(#pb4c28acfcc)" style="fill:none;stroke:#e31cff;stroke-opacity:.5;stroke-linecap:square"/><path id="line2d_80" d="m19.882 271.8 26.658-.109 1.778-.319 1.777-.567 1.777-.806 1.777-1.038 2.031-1.46 2.031-1.74 2.285-2.276 2.285-2.6 2.54-3.244 2.538-3.598 2.793-4.338 3.047-5.15 3.3-6.026 3.555-6.952 4.062-8.452 4.57-10.04 5.586-12.84 8.124-19.315 11.171-26.507 5.586-12.676 4.57-9.849 4.062-8.24 3.555-6.737 3.3-5.798 3.047-4.917 2.793-4.104 2.539-3.37 2.538-3.001 3.301-3.466L178.31 61.75l7.11-6.918 6.347-5.873 5.585-4.879 5.332-4.36 4.824-3.664 4.57-3.198 4.316-2.752 4.062-2.335 3.808-1.949 3.809-1.701 3.554-1.353 3.555-1.113 3.3-.81 3.3-.585 3.301-.35 3.047-.109h25.39" clip-path="url(#pb4c28acfcc)" style="fill:none;stroke:#c3f;stroke-opacity:.5;stroke-linecap:square"/><path id="line2d_81" d="m19.882 271.8 141.67-.109 13.965-.295 12.694-.487 11.679-.67 10.917-.845 10.41-1.027 9.902-1.2 9.647-1.396 7.617-1.306.508-.414.508-.747.761-1.724.762-2.422 1.016-4.259 1.015-5.368 1.27-8.16 1.269-9.634 1.523-13.305 1.778-17.611 2.03-22.399 2.54-30.538 4.062-52.015 4.57-57.977 1.523-18.092h0" clip-path="url(#pb4c28acfcc)" style="fill:none;stroke:#f0f;stroke-opacity:.5;stroke-linecap:square"/><path id="line2d_82" d="m19.882 271.8 62.965-.11 37.83-.333 27.927-.432 3.047-.312 3.047-.544 3.046-.775 3.047-1.002 3.047-1.228 3.3-1.582 3.3-1.842 3.301-2.099 3.3-2.352 3.555-2.814 3.555-3.101 3.554-3.385 3.809-3.939 3.808-4.255 4.062-4.885 4.062-5.236 4.317-5.941 4.316-6.326 4.57-7.11 4.57-7.525 4.824-8.386 4.824-8.833 5.077-9.77 5.078-10.243 5.332-11.255 2.793-6.287 1.27-3.598 1.523-5.096 1.523-5.876 1.777-7.742 2.031-9.877 2.285-12.214 2.793-16.167 3.808-23.468 7.363-46.06h0" clip-path="url(#pb4c28acfcc)" style="fill:none;stroke:#f0f;stroke-opacity:.5;stroke-linecap:square"/><path id="line2d_83" d="m19.882 271.8 41.384-.108 16.503-.334 16.503-.556 16.756-.786 17.011-1.023 17.01-1.244 3.301-.367 1.778-.475 1.777-.701 1.777-.92 2.031-1.311 2.031-1.579 2.285-2.085 2.285-2.4 2.54-3.018 2.538-3.371 2.793-4.094 3.047-4.899 3.046-5.32 3.3-6.202 3.555-7.143 4.062-8.69 4.317-9.77 5.077-12.078 5.84-14.492 7.87-20.171 15.996-41.134 6.093-14.965 5.078-11.886 4.316-9.568 4.062-8.47 4.062-7.93 14.98-28.572 8.632-16.338h0" clip-path="url(#pb4c28acfcc)" style="fill:none;stroke:#f0f;stroke-opacity:.5;stroke-linecap:square"/><path id="line2d_84" d="m19.882 271.8 34.529-.11 9.394-.336 9.394-.557 9.648-.795 9.901-1.045 9.902-1.268 10.156-1.528 10.41-1.794 10.409-2.019 10.663-2.291 3.555-.881 1.523-.657 1.523-.893 1.777-1.333 1.778-1.635 1.777-1.925 2.031-2.542 2.031-2.889 2.285-3.645 2.539-4.512 2.539-4.967 2.793-5.949 3.046-7.019 3.301-8.164 3.808-10.05 4.316-12.073 5.078-14.92 6.601-20.139 14.98-45.922 5.078-14.724 4.316-11.848 3.808-9.807 3.3-7.919 3.048-6.765 2.792-5.692 2.54-4.714 2.538-4.241 2.285-3.385 2.031-2.646 2.031-2.286 1.778-1.691 2.03-1.609 4.57-3.333 4.063-2.693 3.554-2.094 3.301-1.684 3.047-1.3 2.792-.955 2.54-.652.507-.104h0" clip-path="url(#pb4c28acfcc)" style="fill:none;stroke:#f0f;stroke-opacity:.5;stroke-linecap:square"/><path id="line2d_85" d="m19.882 271.8 31.228-.106 6.094-.33 6.093-.548 6.347-.794 6.348-1.013 6.6-1.277 6.856-1.558 6.855-1.784 7.109-2.077 7.363-2.384 7.616-2.7 7.87-3.026 8.125-3.358 8.633-3.81 4.824-2.299 1.523-1.015 1.777-1.481 1.777-1.79 1.778-2.086 2.03-2.73 2.286-3.494 2.285-3.915 2.539-4.811 2.792-5.814 3.047-6.91 3.3-8.087 3.555-9.32 4.062-11.306 4.824-14.139 6.094-18.608 17.264-53.153 4.824-13.881 4.062-11.02 3.555-9.019 3.3-7.764 3.047-6.576 2.793-5.476 2.539-4.479 2.285-3.594 2.03-2.826 2.032-2.459 1.777-1.837 1.777-1.53 1.778-1.213 1.523-.776 1.523-.525 2.54-.522 7.362-1.332 5.586-.788 4.824-.458 4.316-.191 1.27-.011h0" clip-path="url(#pb4c28acfcc)" style="fill:none;stroke:#f0f;stroke-opacity:.5;stroke-linecap:square"/><path id="line2d_86" d="m19.882 271.8 29.451-.103 4.316-.326 4.316-.542 4.57-.8 4.57-1.024 4.824-1.312 4.824-1.54 5.078-1.854 5.332-2.19 5.585-2.546 5.84-2.918 6.093-3.303 6.347-3.698 6.855-4.26 7.363-4.845 8.125-5.627 9.14-6.617 5.585-4.245 1.778-1.682 2.03-2.244 2.032-2.57 2.285-3.261 2.539-4.058 2.539-4.484 2.792-5.388 3.047-6.376 3.3-7.433 3.81-9.169 4.061-10.367 4.824-12.927 6.348-17.686 16.248-45.613 5.078-13.408 4.063-10.14 3.808-8.909 3.3-7.172 3.047-6.105 2.793-5.116 2.539-4.215 2.539-3.77 2.285-2.984 2.03-2.31 2.032-1.972 1.777-1.434 1.777-1.151 1.524-.755 1.523-.532 1.523-.304 2.032-.117 13.964-.472 10.155-.126h0" clip-path="url(#pb4c28acfcc)" style="fill:none;stroke:#f0f;stroke-opacity:.5;stroke-linecap:square"/><path id="line2d_87" d="m19.882 271.8 28.436-.102 3.3-.33 3.3-.55 3.555-.83 3.555-1.066 3.554-1.29 3.808-1.622 4.063-1.986 4.062-2.237 4.316-2.633 4.57-3.057 4.824-3.501 5.078-3.963 5.585-4.652 6.094-5.378 6.855-6.364 7.87-7.625 10.41-10.42 15.487-15.807 2.285-2.742 2.54-3.409 2.792-4.16 2.793-4.559 3.046-5.391 3.3-6.285 3.81-7.758 4.062-8.786 4.823-10.981 6.094-14.477 21.834-52.5 4.57-10.142 4.063-8.507 3.554-6.968 3.3-6.012 3.047-5.112 2.793-4.278 2.54-3.524 2.538-3.151 2.285-2.497 2.285-2.157 2.031-1.618 2.031-1.323 1.777-.906 1.778-.662 1.777-.411 1.523-.146 8.379-.063 17.264-.062h0" clip-path="url(#pb4c28acfcc)" style="fill:none;stroke:#f0f;stroke-opacity:.5;stroke-linecap:square"/><path id="line2d_88" d="m19.882 271.8 27.674-.092 2.539-.303 2.793-.571 2.792-.812 2.793-1.04 3.047-1.388 3.047-1.637 3.3-2.042 3.3-2.304 3.555-2.756 3.808-3.249 4.063-3.775 4.316-4.327 4.57-4.9 5.078-5.777 5.585-6.692 6.601-8.262 8.887-11.511 19.803-25.782 6.855-8.485 6.093-7.52 3.047-4.237 3.3-4.961 3.555-5.731 4.062-6.983 4.57-8.323 5.332-10.202 6.855-13.645 19.55-39.255 5.331-10.041 4.57-8.142 4.063-6.79 3.554-5.535 3.3-4.758 3.047-4.032 3.047-3.653 2.793-2.991 2.539-2.402 2.539-2.082 2.285-1.585 2.285-1.3 2.03-.903 2.032-.659 2.031-.404 1.777-.138 10.918-.015 14.725-.008h0" clip-path="url(#pb4c28acfcc)" style="fill:none;stroke:#f0f;stroke-opacity:.5;stroke-linecap:square"/><path id="line2d_89" d="m19.882 271.8 27.42-.106 2.285-.35 2.285-.588 2.285-.82 2.285-1.04 2.539-1.408 2.539-1.658 2.793-2.1 2.792-2.375 3.047-2.884 3.3-3.448 3.555-4.061 3.808-4.714 4.063-5.398 4.57-6.47 5.078-7.601 5.839-9.16 7.617-12.39 19.042-31.173 5.839-9.048 5.078-7.472 4.57-6.328 4.062-5.25 4.062-5.227 4.316-5.944 4.824-7.048 5.332-8.193 6.601-10.571L182.372 91.4l10.41-17.014 6.346-9.955 5.332-7.95 4.57-6.426 4.062-5.353 3.809-4.666 3.554-4.01 3.3-3.4 3.047-2.834 3.047-2.524 2.793-2.022 2.539-1.584 2.539-1.33 2.539-1.061 2.285-.718 2.285-.484 2.285-.24 3.046-.027 23.358-.003h0" clip-path="url(#pb4c28acfcc)" style="fill:none;stroke:#f0f;stroke-opacity:.5;stroke-linecap:square"/><path id="line2d_90" d="m19.882 271.8 26.912-.084 1.777-.276 2.032-.554 2.03-.798 2.032-1.034 2.285-1.434 2.285-1.71 2.539-2.207 2.539-2.514 2.792-3.099 2.793-3.427 3.047-4.085 3.3-4.801 3.555-5.565 4.062-6.8 4.316-7.666 5.078-9.487 6.347-12.37 11.425-22.892 8.379-16.537 5.585-10.562 4.824-8.657 4.316-7.28 3.809-5.99 3.554-5.167 3.3-4.392 3.555-4.32 6.094-7.546 7.362-9.504 11.426-15.176 12.186-16.078 7.11-9.006 5.839-7.046 5.077-5.794 4.57-4.896 4.317-4.307 4.062-3.738 3.808-3.2 3.555-2.695 3.3-2.235 3.3-1.96 3.048-1.549 3.046-1.287 2.793-.939 2.793-.698 2.539-.417 2.539-.202 4.062-.019h22.342" clip-path="url(#pb4c28acfcc)" style="fill:none;stroke:#e619ff;stroke-opacity:.5;stroke-linecap:square"/><path id="line2d_91" d="m19.882 271.8 143.956-.11 14.98-.303 13.455-.487 12.44-.67 11.68-.847 11.171-1.035 10.663-1.214 9.902-1.342.508-.23.508-.571.507-.902.762-1.953.762-2.645 1.015-4.55 1.016-5.651 1.27-8.499 1.269-9.956 1.523-13.668 1.777-17.999 2.032-22.79 2.792-34.148 5.078-65.738 3.555-44.666 1.015-12.026h0" clip-path="url(#pb4c28acfcc)" style="fill:none;stroke:#f0f;stroke-opacity:.5;stroke-linecap:square"/><path id="line2d_92" d="m19.882 271.8 79.975-.11 48.24-.302 3.3-.241 3.3-.475 3.301-.707 3.3-.94 3.301-1.17 3.3-1.401 3.301-1.63 3.555-2.01 3.554-2.276 3.555-2.537 3.554-2.799 3.809-3.288 3.808-3.585 3.808-3.883 4.063-4.466 4.062-4.8 4.062-5.133 4.316-5.815 4.316-6.188 4.57-6.954 4.57-7.366 4.57-7.775 4.824-8.65 4.824-9.1 5.078-10.065 2.793-5.873 1.015-2.71 1.27-4.04 1.523-5.738 1.524-6.628L256 134.41l2.03-11.137 2.286-13.748 3.047-19.837 4.57-31.545 5.585-38.342h0" clip-path="url(#pb4c28acfcc)" style="fill:none;stroke:#f0f;stroke-opacity:.5;stroke-linecap:square"/><path id="line2d_93" d="m19.882 271.8 47.731-.11 22.85-.334 22.85-.557 23.104-.785 11.68-.547 1.777-.352 1.777-.559 2.031-.886 2.031-1.143 2.031-1.391 2.285-1.852 2.285-2.145 2.54-2.712 2.538-3.045 2.793-3.713 2.793-4.075 3.046-4.833 3.3-5.663 3.555-6.555 3.809-7.502 4.062-8.49 4.57-10.076 5.078-11.737 6.093-14.67 8.125-20.194 17.772-44.362 6.093-14.527 5.332-12.143 4.57-9.87 5.332-11.514 6.347-14.281 8.378-19.451 5.078-11.926h0" clip-path="url(#pb4c28acfcc)" style="fill:none;stroke:#f0f;stroke-opacity:.5;stroke-linecap:square"/><path id="line2d_94" d="m19.882 271.8 37.576-.108 12.44-.33 12.695-.561 12.694-.782 12.949-1.02 13.202-1.265 13.202-1.487 12.44-1.608 1.524-.392 1.524-.635 1.523-.869 1.777-1.302 1.777-1.601 1.778-1.89 2.03-2.499 2.032-2.844 2.285-3.592 2.539-4.451 2.539-4.904 2.792-5.88 3.047-6.944 3.3-8.085 3.809-9.965 4.062-11.263 4.824-14.046 6.347-19.237 18.027-55.11 4.824-13.812 4.062-11.006 3.808-9.674 3.3-7.794 3.047-6.644 2.793-5.577 2.54-4.607 2.538-4.133 2.285-3.287 2.031-2.558 2.031-2.199 3.555-3.34 3.808-3.31 3.808-3.015 3.555-2.527 3.3-2.084 3.301-1.816 3.047-1.426 1.27-.521h0" clip-path="url(#pb4c28acfcc)" style="fill:none;stroke:#f0f;stroke-opacity:.5;stroke-linecap:square"/><path id="line2d_95" d="m19.882 271.8 33.006-.106 7.87-.325 8.125-.56 8.124-.782 8.379-1.03 8.378-1.251 8.632-1.511 8.886-1.783 9.14-2.065 9.394-2.357 9.648-2.657 7.87-2.36 1.524-.709 1.523-.97 1.524-1.22 1.777-1.732 1.777-2.05 2.031-2.717 2.031-3.096 2.285-3.914 2.285-4.341 2.54-5.294 2.792-6.35 3.047-7.498 3.3-8.723 3.809-10.735 4.316-12.878 5.078-15.877 7.363-23.827 10.917-35.287 5.078-15.664 4.316-12.625 3.808-10.455 3.3-8.44 3.047-7.201 2.793-6.048 2.54-4.996 2.284-4.053 2.285-3.607 2.031-2.808 2.031-2.413 1.778-1.773 1.777-1.443 1.523-.964 1.523-.705 1.778-.538L256 22.245l5.078-1.12 4.316-.727 3.808-.421 3.555-.171.761-.006h0" clip-path="url(#pb4c28acfcc)" style="fill:none;stroke:#f0f;stroke-opacity:.5;stroke-linecap:square"/><path id="line2d_96" d="m19.882 271.8 30.72-.108 5.586-.338 5.586-.56 5.84-.815 5.839-1.04 6.093-1.316 6.093-1.541 6.348-1.834 6.6-2.143 6.856-2.466 7.109-2.8 7.363-3.144 7.616-3.495 8.125-3.978 8.632-4.482 3.808-2.153 1.524-1.162 1.777-1.646 1.777-1.947 2.031-2.578 2.031-2.937 2.285-3.71 2.54-4.595 2.538-5.061 2.793-6.06 3.047-7.15 3.3-8.306 3.809-10.212 4.316-12.242 5.331-15.851 7.871-24.215 10.156-31.133 5.331-15.597 4.317-11.951 3.808-9.893 3.3-7.981 3.047-6.81 2.793-5.716 2.539-4.72 2.285-3.829 2.285-3.405 2.031-2.65 2.031-2.278 1.777-1.672 1.778-1.36 1.523-.91 1.523-.662 1.524-.41 1.523-.16 12.187-.68 8.632-.264 4.062-.034h0" clip-path="url(#pb4c28acfcc)" style="fill:none;stroke:#f0f;stroke-opacity:.5;stroke-linecap:square"/><path id="line2d_97" d="m19.882 271.8 29.197-.102 4.062-.324 4.063-.54 4.316-.8 4.316-1.023 4.57-1.318 4.57-1.547 4.824-1.869 5.078-2.214 5.331-2.582 5.332-2.826 5.84-3.355 6.093-3.765 6.601-4.351 7.109-4.967 7.617-5.595 8.632-6.619 9.902-7.877 1.777-1.654 2.031-2.2 2.031-2.52 2.285-3.193 2.54-3.97 2.538-4.385 2.793-5.267 3.046-6.23 3.301-7.26 3.808-8.956 4.317-10.776 5.077-13.337 6.602-18.028 15.233-41.85 5.078-13.18 4.316-10.596 3.808-8.762 3.3-7.065 3.047-6.028 2.793-5.063 2.54-4.183 2.538-3.754 2.285-2.987 2.031-2.325 2.031-1.998 1.778-1.468 1.777-1.196 1.777-.914 1.523-.55 1.524-.33 1.523-.103 23.358-.197 1.777-.001h0" clip-path="url(#pb4c28acfcc)" style="fill:none;stroke:#f0f;stroke-opacity:.5;stroke-linecap:square"/><path id="line2d_98" d="m19.882 271.8 28.436-.108 3.3-.35 3.3-.586 3.301-.81 3.555-1.113 3.554-1.353 3.809-1.701 3.808-1.949 4.062-2.335 4.316-2.752 4.57-3.198 4.824-3.663 5.078-4.147 5.586-4.865 6.093-5.62 6.855-6.643 8.124-8.204 11.426-11.894 15.487-16.395 2.539-3.225 2.539-3.58 2.792-4.319 3.047-5.131 3.3-6.008 3.555-6.935 4.062-8.435 4.57-10.025 5.586-12.828 8.125-19.307 11.425-27.106 5.585-12.663 4.57-9.835 4.062-8.226 3.555-6.72 3.3-5.781 3.047-4.9 2.793-4.088 2.539-3.353 2.539-2.983 2.285-2.35 2.285-2.015 2.03-1.495 2.032-1.205 1.777-.806 1.777-.567 1.778-.32 1.777-.073 24.881-.035h0" clip-path="url(#pb4c28acfcc)" style="fill:none;stroke:#f0f;stroke-opacity:.5;stroke-linecap:square"/><path id="line2d_99" d="m19.882 271.8 27.674-.093 2.539-.31 2.539-.522 2.792-.808 2.793-1.046 2.793-1.271 3.047-1.634 3.046-1.879 3.301-2.296 3.554-2.758 3.809-3.26 3.808-3.552 4.316-4.345 4.57-4.932 5.078-5.827 5.586-6.763 6.6-8.364 8.633-11.332 20.82-27.493 6.6-8.265 6.855-8.516 3.3-4.638 3.555-5.407 3.809-6.215 4.316-7.5 4.824-8.855 5.84-11.225 8.124-16.167 13.202-26.293 5.84-11.111 4.823-8.724 4.317-7.353 3.808-6.063 3.554-5.247 3.3-4.472 3.048-3.754 2.792-3.1 2.54-2.513 2.538-2.207 2.285-1.71 2.285-1.434 2.031-1.034 2.031-.798 2.032-.554 2.03-.3 2.032-.054 24.627-.006h0" clip-path="url(#pb4c28acfcc)" style="fill:none;stroke:#f0f;stroke-opacity:.5;stroke-linecap:square"/><path id="line2d_100" d="m19.882 271.8 27.42-.104 2.285-.349 2.285-.588 2.285-.82 2.285-1.04 2.539-1.407 2.539-1.658 2.793-2.1 2.792-2.375 3.047-2.884 3.3-3.448 3.555-4.06 3.808-4.715 4.063-5.398 4.57-6.47 5.078-7.602 5.839-9.16 7.617-12.39 19.042-31.175 5.839-9.048 5.078-7.473 4.57-6.327 4.062-5.251 4.062-5.228 4.316-5.943 4.824-7.049 5.332-8.193 6.601-10.572L182.372 91.4l10.41-17.015 6.346-9.955 5.332-7.95 4.57-6.427 4.062-5.353 3.809-4.666 3.554-4.011 3.3-3.398 3.047-2.835 3.047-2.523 2.793-2.023 2.539-1.584 2.539-1.329 2.539-1.062 2.285-.717 2.285-.483 2.285-.24 3.046-.027 23.358-.001h0" clip-path="url(#pb4c28acfcc)" style="fill:none;stroke:#f0f;stroke-opacity:.5;stroke-linecap:square"/></g></g><defs><clipPath id="pb4c28acfcc"><path d="M7.2 7.2h279v277.2H7.2z"/></clipPath></defs></svg>