<svg xmlns="http://www.w3.org/2000/svg" xmlns:xlink="http://www.w3.org/1999/xlink" width="391.2" height="388.8" viewBox="0 0 293.4 291.6"><defs><style>*{stroke-linejoin:round;stroke-linecap:butt}</style></defs><g id="figure_1"><path id="patch_1" d="M0 291.6h293.4V0H0z" style="fill:none"/><g id="axes_1"><g id="line2d_1"><path d="M19.882 271.8H46.58l13.35-.001 13.349-.002h13.35l13.349-.01 13.349-.037 13.35-.112 13.348-1.666 13.35-.02 13.349-.85 13.35-4.9 13.348-4.029 13.35-31.098 13.35-39.633L233.47 149.4l13.35-6.046 13.349-28.124 13.35-95.429" clip-path="url(#pff89707320)" style="fill:none;stroke:#f0f;stroke-linecap:square"/><defs><path id="mcc1988ffbe" d="M0 2.5a2.5 2.5 0 1 0 0-5 2.5 2.5 0 0 0 0 5z" style="stroke:#f0f"/></defs><g clip-path="url(#pff89707320)"><use xlink:href="#mcc1988ffbe" x="19.882" y="271.8" style="fill:#f0f;stroke:#f0f"/><use xlink:href="#mcc1988ffbe" x="33.231" y="271.8" style="fill:#f0f;stroke:#f0f"/><use xlink:href="#mcc1988ffbe" x="46.58" y="271.799" style="fill:#f0f;stroke:#f0f"/><use xlink:href="#mcc1988ffbe" x="59.93" y="271.799" style="fill:#f0f;stroke:#f0f"/><use xlink:href="#mcc1988ffbe" x="73.279" y="271.797" style="fill:#f0f;stroke:#f0f"/><use xlink:href="#mcc1988ffbe" x="86.628" y="271.797" style="fill:#f0f;stroke:#f0f"/><use xlink:href="#mcc1988ffbe" x="99.978" y="271.787" style="fill:#f0f;stroke:#f0f"/><use xlink:href="#mcc1988ffbe" x="113.327" y="271.75" style="fill:#f0f;stroke:#f0f"/><use xlink:href="#mcc1988ffbe" x="126.676" y="271.638" style="fill:#f0f;stroke:#f0f"/><use xlink:href="#mcc1988ffbe" x="140.025" y="269.972" style="fill:#f0f;stroke:#f0f"/><use xlink:href="#mcc1988ffbe" x="153.375" y="269.952" style="fill:#f0f;stroke:#f0f"/><use xlink:href="#mcc1988ffbe" x="166.724" y="269.102" style="fill:#f0f;stroke:#f0f"/><use xlink:href="#mcc1988ffbe" x="180.073" y="264.203" style="fill:#f0f;stroke:#f0f"/><use xlink:href="#mcc1988ffbe" x="193.422" y="260.173" style="fill:#f0f;stroke:#f0f"/><use xlink:href="#mcc1988ffbe" x="206.772" y="229.075" style="fill:#f0f;stroke:#f0f"/><use xlink:href="#mcc1988ffbe" x="220.121" y="189.442" style="fill:#f0f;stroke:#f0f"/><use xlink:href="#mcc1988ffbe" x="233.47" y="149.399" style="fill:#f0f;stroke:#f0f"/><use xlink:href="#mcc1988ffbe" x="246.82" y="143.353" style="fill:#f0f;stroke:#f0f"/><use xlink:href="#mcc1988ffbe" x="260.169" y="115.229" style="fill:#f0f;stroke:#f0f"/><use xlink:href="#mcc1988ffbe" x="273.518" y="19.8" style="fill:#f0f;stroke:#f0f"/></g></g><g id="line2d_2"><path d="m19.882 271.8 13.35-8.044L46.58 242.75l13.35-41.835 13.349-12.252 13.35-9.589 13.349-2.17 13.349-24.726 13.35-6.175 13.348-6.158 13.35-5.943 13.349-16.166 13.35-1.587 13.348-4.087 13.35-13.466 13.35-9.677L233.47 41.58l13.35-14.349 13.349-5.675 13.35-1.755" clip-path="url(#pff89707320)" style="fill:none;stroke:#f0f;stroke-linecap:square"/><g clip-path="url(#pff89707320)"><use xlink:href="#mcc1988ffbe" x="19.882" y="271.8" style="fill:#f0f;stroke:#f0f"/><use xlink:href="#mcc1988ffbe" x="33.231" y="263.756" style="fill:#f0f;stroke:#f0f"/><use xlink:href="#mcc1988ffbe" x="46.58" y="242.749" style="fill:#f0f;stroke:#f0f"/><use xlink:href="#mcc1988ffbe" x="59.93" y="200.914" style="fill:#f0f;stroke:#f0f"/><use xlink:href="#mcc1988ffbe" x="73.279" y="188.662" style="fill:#f0f;stroke:#f0f"/><use xlink:href="#mcc1988ffbe" x="86.628" y="179.073" style="fill:#f0f;stroke:#f0f"/><use xlink:href="#mcc1988ffbe" x="99.978" y="176.903" style="fill:#f0f;stroke:#f0f"/><use xlink:href="#mcc1988ffbe" x="113.327" y="152.177" style="fill:#f0f;stroke:#f0f"/><use xlink:href="#mcc1988ffbe" x="126.676" y="146.002" style="fill:#f0f;stroke:#f0f"/><use xlink:href="#mcc1988ffbe" x="140.025" y="139.844" style="fill:#f0f;stroke:#f0f"/><use xlink:href="#mcc1988ffbe" x="153.375" y="133.901" style="fill:#f0f;stroke:#f0f"/><use xlink:href="#mcc1988ffbe" x="166.724" y="117.735" style="fill:#f0f;stroke:#f0f"/><use xlink:href="#mcc1988ffbe" x="180.073" y="116.148" style="fill:#f0f;stroke:#f0f"/><use xlink:href="#mcc1988ffbe" x="193.422" y="112.061" style="fill:#f0f;stroke:#f0f"/><use xlink:href="#mcc1988ffbe" x="206.772" y="98.595" style="fill:#f0f;stroke:#f0f"/><use xlink:href="#mcc1988ffbe" x="220.121" y="88.918" style="fill:#f0f;stroke:#f0f"/><use xlink:href="#mcc1988ffbe" x="233.47" y="41.579" style="fill:#f0f;stroke:#f0f"/><use xlink:href="#mcc1988ffbe" x="246.82" y="27.23" style="fill:#f0f;stroke:#f0f"/><use xlink:href="#mcc1988ffbe" x="260.169" y="21.555" style="fill:#f0f;stroke:#f0f"/><use xlink:href="#mcc1988ffbe" x="273.518" y="19.8" style="fill:#f0f;stroke:#f0f"/></g></g><g id="line2d_3"><path d="m19.882 271.8 13.35-134.751 13.348-41.44 13.35-11.56 13.349-1.041 13.35-2.598 13.349-14.212 13.349-10.943 13.35-13.957 13.348-15.495 13.35-3.635 13.349-2.338 13.35-.017 13.348-.012 13.35-.001h66.747" clip-path="url(#pff89707320)" style="fill:none;stroke:#f0f;stroke-linecap:square"/><g clip-path="url(#pff89707320)"><use xlink:href="#mcc1988ffbe" x="19.882" y="271.8" style="fill:#f0f;stroke:#f0f"/><use xlink:href="#mcc1988ffbe" x="33.231" y="137.049" style="fill:#f0f;stroke:#f0f"/><use xlink:href="#mcc1988ffbe" x="46.58" y="95.608" style="fill:#f0f;stroke:#f0f"/><use xlink:href="#mcc1988ffbe" x="59.93" y="84.049" style="fill:#f0f;stroke:#f0f"/><use xlink:href="#mcc1988ffbe" x="73.279" y="83.008" style="fill:#f0f;stroke:#f0f"/><use xlink:href="#mcc1988ffbe" x="86.628" y="80.41" style="fill:#f0f;stroke:#f0f"/><use xlink:href="#mcc1988ffbe" x="99.978" y="66.198" style="fill:#f0f;stroke:#f0f"/><use xlink:href="#mcc1988ffbe" x="113.327" y="55.255" style="fill:#f0f;stroke:#f0f"/><use xlink:href="#mcc1988ffbe" x="126.676" y="41.298" style="fill:#f0f;stroke:#f0f"/><use xlink:href="#mcc1988ffbe" x="140.025" y="25.803" style="fill:#f0f;stroke:#f0f"/><use xlink:href="#mcc1988ffbe" x="153.375" y="22.168" style="fill:#f0f;stroke:#f0f"/><use xlink:href="#mcc1988ffbe" x="166.724" y="19.83" style="fill:#f0f;stroke:#f0f"/><use xlink:href="#mcc1988ffbe" x="180.073" y="19.813" style="fill:#f0f;stroke:#f0f"/><use xlink:href="#mcc1988ffbe" x="193.422" y="19.801" style="fill:#f0f;stroke:#f0f"/><use xlink:href="#mcc1988ffbe" x="206.772" y="19.8" style="fill:#f0f;stroke:#f0f"/><use xlink:href="#mcc1988ffbe" x="220.121" y="19.8" style="fill:#f0f;stroke:#f0f"/><use xlink:href="#mcc1988ffbe" x="233.47" y="19.8" style="fill:#f0f;stroke:#f0f"/><use xlink:href="#mcc1988ffbe" x="246.82" y="19.8" style="fill:#f0f;stroke:#f0f"/><use xlink:href="#mcc1988ffbe" x="260.169" y="19.8" style="fill:#f0f;stroke:#f0f"/><use xlink:href="#mcc1988ffbe" x="273.518" y="19.8" style="fill:#f0f;stroke:#f0f"/></g></g></g></g><defs><clipPath id="pff89707320"><path d="M7.2 7.2h279v277.2H7.2z"/></clipPath></defs></svg>