<svg
	xmlns="http://www.w3.org/2000/svg" viewBox="0 0 446.07 61.93" preserveAspectRatio="xMidYMid meet" width="446" height="161">
	<style>
    path {
    fill: black;
    }
  </style>
	<path d="M134.18,50.08a18.89,18.89,0,0,1-2.54,1.45,20.86,20.86,0,0,1-3.89,1.39,18.07,18.07,0,0,1-4.9.52,20.72,20.72,0,0,1-8-1.57,17.66,17.66,0,0,1-6-4.17,18.79,18.79,0,0,1-3.78-6.09,20.44,20.44,0,0,1-1.31-7.32,22.76,22.76,0,0,1,1.34-7.93A17.59,17.59,0,0,1,114.92,16a19.16,19.16,0,0,1,7.56-1.47,20.63,20.63,0,0,1,6.35.92,21.28,21.28,0,0,1,4.83,2.18l-2.31,5.25a22.41,22.41,0,0,0-3.73-2,12.19,12.19,0,0,0-5-1,12.38,12.38,0,0,0-5,1.05,12.66,12.66,0,0,0-4.2,3,14.81,14.81,0,0,0-2.86,4.51,14.56,14.56,0,0,0-1,5.56,16.08,16.08,0,0,0,.95,5.54,12.87,12.87,0,0,0,2.73,4.49A12.63,12.63,0,0,0,117.41,47a15.29,15.29,0,0,0,10.71.16,14.17,14.17,0,0,0,3.65-2Z"/>
	<path d="M147.57,39.43a8.06,8.06,0,0,0,1.21,4.36,9,9,0,0,0,3.2,3.09A8.83,8.83,0,0,0,156.49,48a9.22,9.22,0,0,0,4.65-1.16,8.87,8.87,0,0,0,3.2-3.09,8.22,8.22,0,0,0,1.18-4.36V15H171V39.53a13.67,13.67,0,0,1-1.94,7.33,13.35,13.35,0,0,1-5.28,4.85,16.46,16.46,0,0,1-14.69,0,13.42,13.42,0,0,1-5.23-4.85A13.67,13.67,0,0,1,142,39.53V15h5.62Z"/>
	<path d="M181.21,53V13.66h.06l20.2,28.71-2.41-.53,20.21-28.18h0V53h-5.56V26.36l.31,2.83-14,19.9H200l-14.33-19.9,1-2.62V53Z"/>
	<path d="M235.07,39.43a8.14,8.14,0,0,0,1.2,4.36,9.11,9.11,0,0,0,3.2,3.09A8.89,8.89,0,0,0,244,48a9.16,9.16,0,0,0,4.64-1.16,8.82,8.82,0,0,0,3.21-3.09A8.31,8.31,0,0,0,253,39.43V15h5.51V39.53a13.67,13.67,0,0,1-1.94,7.33,13.35,13.35,0,0,1-5.28,4.85,16.48,16.48,0,0,1-14.7,0,13.46,13.46,0,0,1-5.22-4.85,13.67,13.67,0,0,1-1.94-7.33V15h5.62Z"/>
	<path d="M268.71,15h5.56V47.62h19.06V53H268.71Z"/>
	<path d="M297.58,53l16.8-39.68h.36L331.43,53H325L312.85,22.16l4-2.68L303.14,53Zm10.23-14.27h13.6l1.84,4.77H306.14Z"/>
	<path d="M332.85,15H358.2v5.35h-10V53h-5.62V20.32h-9.71Z"/>
	<path d="M366.18,15h5.56V53h-5.56Z"/>
	<path d="M385.81,15,398,45.62l-3.15-.68,11.5-30H413L396.05,54.76,379.14,15Z"/>
	<path d="M420.4,15h24.93v5.35H426V31.19h17.27V36.6H426v11h20.11V53H420.4Z"/>
	<path d="M5.64.25a7.09,7.09,0,0,0-3.39,2,5.91,5.91,0,0,0-1.45,2A9.16,9.16,0,0,0,.14,6.19C.05,6.71,0,10.45,0,17.33V27.69l6.17,0,6.16,0,4.85-6.3c2.65-3.48,5-6.52,5.28-6.77a2.71,2.71,0,0,1,1.92-.94,2.82,2.82,0,0,1,2.54.88c.38.39,3.25,4.95,8,12.72,4.09,6.67,7.46,12.08,7.51,12s1.91-2.45,4.13-5.33a69.15,69.15,0,0,1,4.58-5.61,3.82,3.82,0,0,1,1.22-.5c.42-.07,3.53-.13,7.61-.13H66.9V17.2c0-11.52,0-11.43-.81-13.1A8.2,8.2,0,0,0,62.81.8C61-.06,63,0,33.45,0,7.4,0,6.57,0,5.64.25Z"/>
	<path d="M20.37,27.92a73.09,73.09,0,0,1-4.62,5.68,4,4,0,0,1-1.23.5c-.42.07-3.53.13-7.61.13H0V44.59c0,6.88.05,10.62.14,11.14A9.16,9.16,0,0,0,.8,57.59a5.91,5.91,0,0,0,1.45,2,6.94,6.94,0,0,0,3.45,2c1,.26,1.5.26,27.74.26,29.48,0,27.49,0,29.27-.83a8,8,0,0,0,3.38-3.48,10.15,10.15,0,0,0,.67-1.89c.09-.51.14-4.36.14-11.14V34.23H54.68l-5,6.54c-2.75,3.61-5.2,6.69-5.42,6.88a3.35,3.35,0,0,1-4.47-.24c-.22-.25-3.71-5.88-7.76-12.53s-7.38-12.13-7.42-12.19S22.63,25,20.37,27.92Z"/>
</svg>

