<svg
	xmlns="http://www.w3.org/2000/svg" viewBox="0 0 66.9 61.93">
	<style>
    path {
    fill: black;
    }
  </style>
	<path class="cls-1" d="M5.64.25a7.09,7.09,0,0,0-3.39,2,5.91,5.91,0,0,0-1.45,2A9.16,9.16,0,0,0,.14,6.19C.05,6.71,0,10.45,0,17.33V27.69l6.17,0,6.16,0,4.85-6.3c2.65-3.48,5-6.52,5.28-6.77a2.71,2.71,0,0,1,1.92-.94,2.82,2.82,0,0,1,2.54.88c.38.39,3.25,4.95,8,12.72,4.09,6.67,7.46,12.08,7.51,12s1.91-2.45,4.13-5.33a69.15,69.15,0,0,1,4.58-5.61,3.82,3.82,0,0,1,1.22-.5c.42-.07,3.53-.13,7.61-.13H66.9V17.2c0-11.52,0-11.43-.81-13.1A8.2,8.2,0,0,0,62.81.8C61-.06,63,0,33.45,0,7.4,0,6.57,0,5.64.25Z"/>
	<path class="cls-1" d="M20.37,27.92a73.09,73.09,0,0,1-4.62,5.68,4,4,0,0,1-1.23.5c-.42.07-3.53.13-7.61.13H0V44.59c0,6.88.05,10.62.14,11.14A9.16,9.16,0,0,0,.8,57.59a5.91,5.91,0,0,0,1.45,2,6.94,6.94,0,0,0,3.45,2c1,.26,1.5.26,27.74.26,29.48,0,27.49,0,29.27-.83a8,8,0,0,0,3.38-3.48,10.15,10.15,0,0,0,.67-1.89c.09-.51.14-4.36.14-11.14V34.23H54.68l-5,6.54c-2.75,3.61-5.2,6.69-5.42,6.88a3.35,3.35,0,0,1-4.47-.24c-.22-.25-3.71-5.88-7.76-12.53s-7.38-12.13-7.42-12.19S22.63,25,20.37,27.92Z"/>
</svg>