<svg xmlns="http://www.w3.org/2000/svg" width="391.2" height="388.8" viewBox="0 0 293.4 291.6"><defs><style>*{stroke-linejoin:round;stroke-linecap:butt}</style></defs><g id="figure_1"><path id="patch_1" d="M0 291.6h293.4V0H0z" style="fill:none"/><g id="axes_1"><path id="line2d_1" d="m19.882 267.608 7.622 1.958 4.657.958 3.811.55 3.388.258 3.81.032 16.091-.142 5.928-.195 3.388-.38 3.387-.592 3.811-.896 3.81-1.116 3.812-1.313.847-.467.846-.7 1.27-1.441 1.271-1.845 1.694-2.963 2.117-4.265 6.351-13.297 1.694-2.849 1.27-1.734 1.27-1.31.848-.6.847-.358.846-.09.847.224.847.54.847.826.847 1.087 1.27 2.056 1.27 2.482 1.694 3.812 2.964 7.426 2.964 7.362 1.694 3.718 1.27 2.384 1.27 1.934.847.993.847.723.847.424.847.107 26.253.102 17.36.784 8.046-.174 13.973-.572 8.045-.578 7.199-.438 4.658-.055 3.81.216 5.505.581 6.775.686 3.81.146 8.046-.11 8.045-.334 5.082-.324.423-.156.423-.45.424-.738.847-2.319.847-3.4.846-4.435.847-5.422 1.27-9.876 1.27-11.826 1.695-18.52 1.693-21.315 2.118-29.986 2.54-39.897 2.964-50.305 2.964-52.394h0" clip-path="url(#p409d549192)" style="fill:none;stroke:#0ff;stroke-opacity:.5;stroke-linecap:square"/><path id="line2d_2" d="m19.882 269.049 8.892 1.459 5.081.612 4.234.301 4.235.065 17.784-.129 5.505-.176 3.81-.376 4.235-.653 4.658-.963 5.08-1.293 1.271-.54 1.27-.834 1.27-1.087 1.694-1.766 2.118-2.568 7.198-9.12 1.694-1.642 1.27-.97 1.27-.697 1.27-.38.847-.055.847.144.847.345.847.528 1.27 1.099 1.27 1.412 1.694 2.265 2.118 3.247 5.504 8.693 1.694 2.192 1.27 1.34 1.27 1.01.847.462.847.271 1.27.069 27.947.09 13.973.396 11.01-.115 14.396-.367 16.514-.674 4.235.1 6.351.399 8.045.469 5.081.038 12.703-.156 5.929-.15.423-.138.423-.434.424-.725.847-2.295.847-3.385.846-4.426.847-5.418 1.27-9.881 1.27-11.843 1.695-18.557 1.693-21.367 2.118-30.07 2.54-40.013 2.964-50.453 2.964-52.539h0" clip-path="url(#p409d549192)" style="fill:none;stroke:#0ff;stroke-opacity:.5;stroke-linecap:square"/><path id="line2d_3" d="m19.882 269.39 9.315 1.346 5.505.56 4.658.238 5.928.014 18.63-.15 4.659-.236 5.08-.48 5.505-.756 4.658-.833 1.27-.5 1.27-.754 1.695-1.33 1.693-1.621 2.54-2.773 5.082-5.641 1.694-1.572 1.694-1.264 1.27-.692 1.27-.428 1.27-.126.847.118.847.282 1.27.702 1.27.99 1.694 1.686 2.118 2.53 7.198 9.154 1.694 1.614 1.27.923 1.27.622.847.222 1.27.056 27.1.1 15.667.408 12.703-.141 12.703-.334 15.244-.637 4.658.097 6.774.42 7.622.431 5.081.037 12.703-.157 5.929-.15.423-.139.423-.434.424-.724.847-2.296.847-3.386.846-4.425.847-5.419 1.27-9.882 1.27-11.844 1.695-18.56 1.693-21.368 2.118-30.07 2.54-40.018 2.964-50.457 2.964-52.543h0" clip-path="url(#p409d549192)" style="fill:none;stroke:#0ff;stroke-opacity:.5;stroke-linecap:square"/><path id="line2d_4" d="m19.882 268.46 8.892 1.438 5.505.676 4.657.359 5.505.166 13.973.214 6.775-.071L69 270.92l4.234-.605 4.658-.917 5.081-1.237 1.27-.434 1.27-.75 1.271-1.03 1.694-1.728 2.117-2.583 3.388-4.606 2.964-3.916 1.693-1.954 1.694-1.612 1.27-.92 1.27-.62.848-.225.846-.057.847.145.847.35.847.534 1.27 1.112 1.27 1.43 1.694 2.293 2.118 3.287 5.504 8.8 1.694 2.221 1.27 1.357 1.27 1.025.847.468.847.277 1.27.07 26.253.148 16.514.555 9.316-.154 19.478-.613 10.162-.312 5.505.045 6.351.337 9.316.49 5.504.013 9.316-.19 8.469-.362.423-.149.423-.442.424-.732.847-2.309.847-3.393.846-4.43.847-5.42 1.27-9.879 1.27-11.833 1.695-18.536 1.693-21.336 2.118-30.022 2.54-39.947 2.964-50.368 2.964-52.456h0" clip-path="url(#p409d549192)" style="fill:none;stroke:#0ff;stroke-opacity:.5;stroke-linecap:square"/><path id="line2d_5" d="m19.882 269.164 8.468 1.381 5.082.62 4.234.315 4.234.082 14.397-.126 8.469-.231 3.387-.345 3.811-.609 4.234-.903 5.082-1.326 2.964-.924 1.27-.652 1.694-1.156 2.117-1.799 2.964-2.914 4.658-4.612 2.117-1.746 1.694-1.097 1.27-.597 1.27-.37 1.27-.107.847.12.847.287 1.27.713 1.27 1.008 1.694 1.714 2.118 2.573 7.198 9.31 1.694 1.642 1.27.939 1.27.632.847.226 1.27.056 27.1.085 15.244.446 9.739-.137 18.207-.533 11.857-.38 5.08.047 6.352.327 9.316.474 5.928.017 12.703-.171 4.658-.117.423-.138.423-.433.424-.724.847-2.295.847-3.384.846-4.424.847-5.417 1.27-9.88 1.27-11.842 1.695-18.557 1.693-21.365 2.118-30.068 2.54-40.012 2.964-50.45 2.964-52.537h0" clip-path="url(#p409d549192)" style="fill:none;stroke:#0ff;stroke-opacity:.5;stroke-linecap:square"/><path id="line2d_6" d="m19.882 267.856 7.622 1.822 4.657.888 3.811.508 3.388.239 4.234.027 14.397-.153 6.775-.23 2.964-.377 3.387-.672 3.388-.894 3.81-1.227 4.658-1.743 1.27-.608 1.27-.93 1.271-1.214 1.694-1.981 2.117-2.895 7.622-10.964 1.694-1.847 1.27-1.089 1.27-.78.847-.327.847-.154.847.048.847.298.847.53.846.742 1.27 1.462 1.271 1.815 1.694 2.846 2.54 4.831 3.811 7.36 1.694 2.871 1.27 1.842 1.27 1.494 1.27 1.073.848.446.847.205 4.234.009 22.018.072 19.055.589 10.586-.204 31.757-.715 6.775.275 9.74.391 5.927-.017 8.045-.238 8.046-.47.847-.063.423-.158.423-.45.424-.74.847-2.319.847-3.401.846-4.435.847-5.42 1.27-9.875 1.27-11.822 1.695-18.513 1.693-21.306 2.118-29.973 2.54-39.88 2.964-50.284 2.964-52.371h0" clip-path="url(#p409d549192)" style="fill:none;stroke:#0ff;stroke-opacity:.5;stroke-linecap:square"/><path id="line2d_7" d="m19.882 268.293 8.045 1.738 4.658.79 3.81.444 3.388.194 5.505.01 18.207-.15 4.235-.242 4.234-.46 4.658-.73 5.081-1.028 2.117-.522 1.27-.61 1.27-.908 1.271-1.16 1.694-1.857 2.117-2.672 6.351-8.317 1.694-1.78 1.27-1.084 1.27-.818 1.271-.507.847-.142.847.038.847.243.847.432 1.27.966 1.27 1.293 1.694 2.133 2.117 3.125 6.352 9.798 1.693 2.053 1.27 1.218 1.27.874.848.363.847.167 5.08.004 21.172.05 19.478.546 11.01-.211 14.396-.484 11.433-.456 5.081.031 5.505.294 10.586.62 5.08.023 10.587-.166 7.622-.252.423-.143.423-.438.424-.728.847-2.3.847-3.389.846-4.427.847-5.418 1.27-9.88 1.27-11.836 1.695-18.546 1.693-21.35 2.118-30.045 2.54-39.98 2.964-50.409 2.964-52.495h0" clip-path="url(#p409d549192)" style="fill:none;stroke:#0ff;stroke-opacity:.5;stroke-linecap:square"/><path id="line2d_8" d="m19.882 269.124 9.315 1.44 5.082.565 4.234.267 4.658.045 20.748-.126 4.234-.266 4.235-.492 4.657-.772 5.081-1.075 2.118-.604 1.27-.722 1.27-1.004 1.694-1.699 2.117-2.55 3.388-4.565 2.964-3.891 1.693-1.944 1.694-1.604 1.27-.916 1.27-.618.848-.224.846-.057.847.143.847.344.847.528 1.27 1.097 1.27 1.409 1.694 2.26 2.118 3.242 5.504 8.678 1.694 2.19 1.27 1.337 1.27 1.01.847.463.847.272 1.27.07 27.947.143 14.397.302 16.09-.124 10.163-.237 14.82-.56 5.081.091 8.892.45 6.352.225 7.198-.029 10.162-.244 5.082-.207.423-.145.423-.44.424-.73.847-2.305.847-3.391.846-4.43.847-5.42 1.27-9.88 1.27-11.837 1.695-18.544 1.693-21.348 2.118-30.039 2.54-39.97 2.964-50.4 2.964-52.486h0" clip-path="url(#p409d549192)" style="fill:none;stroke:#0ff;stroke-opacity:.5;stroke-linecap:square"/><path id="line2d_9" d="m19.882 268.553 8.892 1.317 5.928.664 5.081.347 8.469.243 12.28.174 4.657-.097 3.388-.33 3.81-.612 4.235-.93 4.658-1.265 2.54-.8 1.27-.71 1.27-1.016 1.271-1.271 1.694-2.014 2.117-2.868 5.928-8.317 1.694-1.968 1.27-1.228 1.27-.962 1.27-.649.848-.235.846-.06.847.157.847.377.847.577 1.27 1.2 1.27 1.543 1.694 2.475 2.118 3.549 5.504 9.503 1.694 2.398 1.27 1.467 1.27 1.108.847.508.847.3.847.078 28.794.228 12.703.365 12.28-.078 13.549-.279 18.208-.786 4.657.18 15.667.83 9.316-.12 9.315-.342 2.118-.11.423-.148.423-.443.424-.732.847-2.31.847-3.394.846-4.431.847-5.421 1.27-9.88 1.27-11.835 1.695-18.54 1.693-21.34 2.118-30.026 2.54-39.953 2.964-50.377 2.964-52.464h0" clip-path="url(#p409d549192)" style="fill:none;stroke:#0ff;stroke-opacity:.5;stroke-linecap:square"/><path id="line2d_10" d="m19.882 269.347 8.892 1.302 5.505.583 4.657.261 5.081.027 18.632-.148 4.234-.187 4.658-.438 4.657-.655 5.082-.931 2.964-.72 1.27-.646 1.27-.898 1.694-1.516 2.117-2.275 3.388-4.07 2.964-3.467 2.117-2.12 1.694-1.34 1.27-.731 1.27-.453 1.27-.133.847.127.847.307 1.27.761 1.27 1.075 1.694 1.83 2.118 2.744 7.198 9.94 1.694 1.756 1.27 1.005 1.27.678.847.244 1.27.065 28.794.195 13.126.281 13.55-.116 12.28-.288 16.09-.68 4.658.114 7.622.468 6.775.338 5.504.02 12.28-.171 5.505-.15.423-.139.423-.434.424-.725.847-2.297.847-3.386.846-4.426.847-5.418 1.27-9.882 1.27-11.842 1.695-18.558 1.693-21.365 2.118-30.067 2.54-40.011 2.964-50.45 2.964-52.535h0" clip-path="url(#p409d549192)" style="fill:none;stroke:#0ff;stroke-opacity:.5;stroke-linecap:square"/><path id="line2d_11" d="m19.882 269.483 9.739 1.282 5.504.501 4.658.2 8.469.008 17.36-.114 4.235-.329 4.658-.591 5.504-.947 4.235-.929 1.27-.554 1.694-1.035 1.693-1.305 2.541-2.297 6.351-5.969 1.694-1.27 1.694-.99 1.27-.511 1.27-.28 1.27-.006 1.271.327 1.27.632 1.27.893 1.694 1.519 2.118 2.28 7.198 8.249 1.694 1.455 1.27.832 1.27.56 1.27.243 6.352-.005 20.325.032 18.631.426 11.433-.195 19.054-.545 8.469-.172 5.081.089 9.316.456 6.351.201 9.316-.047 12.28-.256.423-.012.423-.14.423-.433.424-.725.847-2.296.847-3.385.846-4.425.847-5.417 1.27-9.88 1.27-11.842 1.695-18.555 1.693-21.364 2.118-30.064 2.54-40.007 2.964-50.445 2.964-52.531h0" clip-path="url(#p409d549192)" style="fill:none;stroke:#0ff;stroke-opacity:.5;stroke-linecap:square"/><path id="line2d_12" d="m19.882 268.673 8.045 1.535 5.081.744 4.235.393 3.81.122 14.397-.11 9.316-.234 3.81-.379 3.812-.602 4.234-.896 4.658-1.215 2.964-.96 1.27-.752 1.27-1.002 1.694-1.655 2.117-2.442 8.045-9.768 1.694-1.493 1.27-.85 1.27-.573 1.271-.255.847.04.847.245.847.437 1.27.975 1.27 1.308 1.694 2.155 2.117 3.157 6.352 9.905 1.693 2.078 1.27 1.232 1.27.886.848.369.847.17 5.08.02 22.443.133 16.09.408 11.856-.14 15.667-.392 12.28-.372 5.505.064 8.468.383 7.199.244 6.775-.034 8.892-.248 6.775-.339.423-.15.423-.445.424-.734.847-2.311.847-3.396.846-4.432.847-5.42 1.27-9.876 1.27-11.83 1.695-18.53 1.693-21.328 2.118-30.008 2.54-39.928 2.964-50.345 2.964-52.432h0" clip-path="url(#p409d549192)" style="fill:none;stroke:#0ff;stroke-opacity:.5;stroke-linecap:square"/><path id="line2d_13" d="m19.882 268.89 8.468 1.493 5.082.673 4.234.343 3.81.09 15.244-.116 8.47-.222 3.81-.375 4.234-.655 4.658-.97 5.081-1.302 1.27-.44 1.27-.71 1.271-.95 1.694-1.572 2.117-2.323 4.658-5.643 2.54-2.835 1.694-1.588 1.27-.965 1.27-.727 1.271-.45 1.27-.132.847.135.847.326 1.27.809 1.27 1.142 1.271 1.42 1.694 2.224 2.54 3.775 4.235 6.342 1.693 2.162 1.27 1.356 1.271 1.064 1.27.717.847.257 1.27.065 27.1.117 15.667.374 13.127-.14 13.973-.343 12.703-.413 5.505.065 8.468.387 7.199.247 8.045-.023 12.703-.236 1.694-.048.423-.14.423-.433.424-.725.847-2.295.847-3.385.846-4.424.847-5.417 1.27-9.88 1.27-11.84 1.695-18.555 1.693-21.362 2.118-30.063 2.54-40.005 2.964-50.443 2.964-52.528h0" clip-path="url(#p409d549192)" style="fill:none;stroke:#0ff;stroke-opacity:.5;stroke-linecap:square"/><path id="line2d_14" d="m19.882 268.178 8.045 1.75 4.658.793 3.81.445 3.388.194 5.505.008 17.36-.168 2.965-.2 2.964-.412 3.387-.7 3.811-1.032 4.234-1.392 3.811-1.442 1.27-.79 1.27-1.08 1.695-1.81 2.117-2.706 3.387-4.846 2.964-4.165 2.117-2.588 1.694-1.675 1.27-.953 1.27-.642.848-.232.846-.06.847.167.847.398.847.61 1.27 1.27 1.27 1.63 1.694 2.617 2.118 3.751 5.504 10.041 1.694 2.532 1.27 1.547 1.27 1.168.847.533.847.314.847.079 27.523.094 14.82.574 9.316-.122 15.243-.457 17.785-.746 4.234.132 6.775.483 6.775.434 4.234.06 8.469-.137 8.469-.351 2.964-.173.423-.152.423-.446.424-.735.847-2.313.847-3.397.846-4.432.847-5.42 1.27-9.876 1.27-11.829 1.695-18.526 1.693-21.324 2.118-30.001 2.54-39.919 2.964-50.333 2.964-52.42h0" clip-path="url(#p409d549192)" style="fill:none;stroke:#0ff;stroke-opacity:.5;stroke-linecap:square"/><path id="line2d_15" d="m19.882 268.449 8.468 1.719 4.658.726 3.811.396 3.388.158 8.468-.011 15.667-.178 3.811-.297 4.235-.575 4.234-.798 5.081-1.201 2.54-.772 1.27-.733 1.271-.997 1.694-1.664 2.117-2.475 3.811-4.955 2.964-3.668 1.694-1.789 1.694-1.436 1.27-.785 1.27-.485.847-.136.847.038.847.243.847.431 1.27.964 1.27 1.292 1.694 2.13 2.117 3.121 6.352 9.796 1.693 2.057 1.27 1.221 1.27.88.848.368.847.173 5.08.037 22.866.188 15.244.367 9.315-.13 17.785-.518 12.703-.422 5.08.048 6.352.328 9.316.478 5.504.012 8.892-.193 8.893-.41.423-.151.423-.445.424-.733.847-2.311.847-3.396.846-4.431.847-5.42 1.27-9.878 1.27-11.83 1.695-18.532 1.693-21.33 2.118-30.012 2.54-39.934 2.964-50.35 2.964-52.439h0" clip-path="url(#p409d549192)" style="fill:none;stroke:#0ff;stroke-opacity:.5;stroke-linecap:square"/><path id="line2d_16" d="m19.882 268.498 8.045 1.623 5.081.79 4.235.42 3.387.13 13.126-.064 11.433-.216 4.234-.357 4.235-.582 4.658-.877 4.657-1.108.847-.264.847-.457 1.27-1.033 1.27-1.395 1.694-2.32 2.118-3.43 7.621-13.007 1.27-1.646 1.271-1.334 1.27-.96.847-.4.847-.19.847.049.847.314.847.559.846.782 1.27 1.54 1.271 1.914 1.694 3 2.54 5.093 3.811 7.759 1.694 3.027 1.27 1.942 1.27 1.574.847.809.847.588.847.346.847.087 27.523.09 14.82.506 8.469-.116 16.09-.494 17.361-.658 4.235.108 6.351.43 7.622.49 4.658.056 8.468-.152 8.469-.37 2.54-.153.424-.153.423-.446.424-.736.847-2.314.847-3.398.846-4.433.847-5.42 1.27-9.878 1.27-11.83 1.695-18.528 1.693-21.324 2.118-30.003 2.54-39.92 2.964-50.335 2.964-52.423h0" clip-path="url(#p409d549192)" style="fill:none;stroke:#0ff;stroke-opacity:.5;stroke-linecap:square"/><path id="line2d_17" d="m19.882 268.644 8.468 1.582 5.082.715 4.234.366 3.81.097 17.362-.116 7.198-.198 4.234-.378 4.658-.645 5.081-.948 3.811-.888 1.27-.606 1.27-.9 1.271-1.147 1.694-1.838 2.117-2.641 6.351-8.219 1.694-1.759 1.27-1.07 1.27-.809 1.271-.5.847-.14.847.037.847.24.847.428 1.27.957 1.27 1.28 1.694 2.113 2.117 3.093 6.352 9.702 1.693 2.034 1.27 1.205 1.27.866.848.36.847.165h5.08l20.749.027 8.469.429 6.775.252 6.775-.022 13.55-.266 8.468-.306 13.127-.592 4.657.038 5.505.31 10.586.653 5.08.02 8.893-.18 8.892-.399.424-.024.423-.15.423-.445.424-.733.847-2.311.847-3.396.846-4.432.847-5.42 1.27-9.88 1.27-11.831 1.695-18.534 1.693-21.333 2.118-30.016 2.54-39.938 2.964-50.358 2.964-52.445h0" clip-path="url(#p409d549192)" style="fill:none;stroke:#0ff;stroke-opacity:.5;stroke-linecap:square"/><path id="line2d_18" d="m19.882 267.782 8.468 1.748 5.082.81 4.234.438 3.81.155 18.632.153 5.081-.091 3.388-.31 3.81-.583 3.811-.804 4.235-1.115 3.387-1.081.847-.532.847-.745 1.27-1.472 1.27-1.836 1.694-2.892 2.117-4.098 5.505-10.957 1.694-2.817 1.27-1.76 1.27-1.381.847-.676.847-.456.847-.215.847.056.847.36.847.644.846.899 1.27 1.771 1.271 2.2 1.694 3.45 2.54 5.855 3.811 8.92 1.694 3.48 1.27 2.232 1.27 1.81.847.93.847.676.847.398.847.1 27.523.097 14.397.657 8.892-.102 14.397-.415 7.622-.454 8.468-.452 4.658-.028 4.234.21 15.244 1.005 8.469-.113 8.468-.343 4.235-.257.423-.154.423-.448.424-.736.847-2.315.847-3.398.846-4.433.847-5.42 1.27-9.876 1.27-11.825 1.695-18.522 1.693-21.316 2.118-29.99 2.54-39.904 2.964-50.313 2.964-52.401h0" clip-path="url(#p409d549192)" style="fill:none;stroke:#0ff;stroke-opacity:.5;stroke-linecap:square"/><path id="line2d_19" d="m19.882 268.51 8.045 1.656 4.658.747 4.234.451 3.388.157 7.621-.018 15.244-.222 3.81-.234 4.235-.494 4.235-.714 4.657-1.01 3.811-1.007 1.27-.638 1.27-.923 1.695-1.595 1.693-1.918 2.54-3.252 4.659-6.06 1.693-1.893 1.694-1.561 1.27-.89 1.27-.6.848-.218.846-.055.847.142.847.343.847.525 1.27 1.09 1.27 1.403 1.694 2.25 2.118 3.224 5.504 8.632 1.694 2.177 1.27 1.33 1.27 1.003.847.459.847.27 1.27.067 26.253.086 16.938.577 10.585-.151 12.28-.388 6.775-.528 7.622-.538 4.234-.075 3.811.173 5.505.516 7.198.67 3.81.133 8.893-.106 8.892-.324 3.388-.18.423-.15.423-.444.424-.734.847-2.31.847-3.395.846-4.432.847-5.42 1.27-9.877 1.27-11.831 1.695-18.533 1.693-21.33 2.118-30.014 2.54-39.935 2.964-50.353 2.964-52.441h0" clip-path="url(#p409d549192)" style="fill:none;stroke:#0ff;stroke-opacity:.5;stroke-linecap:square"/><path id="line2d_20" d="m19.882 268.64 8.468 1.636 4.658.691 4.235.405 3.81.127 18.208-.112 6.352-.179 3.81-.363 4.235-.633 4.658-.937 5.08-1.266 1.271-.542 1.27-.853 1.27-1.117 1.694-1.821 2.118-2.659 7.198-9.467 1.694-1.709 1.27-1.009 1.27-.725 1.27-.396.847-.057.847.147.847.353.847.541 1.27 1.125 1.27 1.445 1.694 2.319 2.118 3.324 5.504 8.898 1.694 2.244 1.27 1.37 1.27 1.036.847.472.847.278 1.27.07 27.524.09 14.396.434 12.28-.12 16.09-.369 12.28-.35 5.928.068 20.748.534 11.433-.189 5.505-.168.423-.141.423-.436.424-.726.847-2.298.847-3.386.846-4.426.847-5.417 1.27-9.878 1.27-11.837 1.695-18.547 1.693-21.354 2.118-30.05 2.54-39.986 2.964-50.42 2.964-52.504h0" clip-path="url(#p409d549192)" style="fill:none;stroke:#0ff;stroke-opacity:.5;stroke-linecap:square"/><path id="line2d_21" d="m19.882 269.577 9.315 1.235 5.505.513 4.658.218 6.351.011 18.208-.15 4.234-.269 4.658-.54 5.081-.833 5.505-1.127 1.27-.417 1.27-.63 1.694-1.113 2.117-1.728 2.964-2.784 4.235-3.988 2.117-1.677 1.694-1.056 1.27-.576 1.27-.357 1.27-.104.847.106 1.27.437 1.27.73 1.271.976 1.694 1.61 2.117 2.36 6.352 7.399 1.693 1.551 1.27.92 1.27.66 1.271.356 1.27.05 27.947.086 13.973.354 11.856-.115 13.974-.345 16.09-.651 4.658.115 7.198.449 6.775.362 5.081.036 12.703-.15 5.929-.142.423-.139.423-.433.424-.724.847-2.295.847-3.384.846-4.426.847-5.417 1.27-9.882 1.27-11.843 1.695-18.559 1.693-21.368 2.118-30.071 2.54-40.018 2.964-50.457 2.964-52.543h0" clip-path="url(#p409d549192)" style="fill:none;stroke:#0ff;stroke-opacity:.5;stroke-linecap:square"/><path id="line2d_22" d="m19.882 269.093 8.468 1.438 5.082.644 4.234.328 3.81.087 14.398-.123 9.315-.25 3.811-.355 4.234-.623 4.235-.842 4.657-1.153 1.694-.507 1.27-.712 1.27-1.05 1.271-1.335 1.694-2.134 2.117-3.065 6.351-9.521 1.694-2.036 1.27-1.24 1.27-.935 1.271-.579.847-.162.847.044.847.281.847.5 1.27 1.12 1.27 1.498 1.694 2.47 2.117 3.62 6.352 11.355 1.693 2.382 1.27 1.413 1.27 1.017.848.424.847.196 4.234.024 24.136.16 14.82.328 16.514-.122 9.315-.225 15.667-.653 4.658.1 8.045.444 6.775.286h6.352l11.856-.2 4.658-.14.423-.14.423-.435.424-.726.847-2.298.847-3.386.846-4.426.847-5.419 1.27-9.88 1.27-11.841 1.695-18.554 1.693-21.361 2.118-30.06 2.54-40.003 2.964-50.437 2.964-52.524h0" clip-path="url(#p409d549192)" style="fill:none;stroke:#0ff;stroke-opacity:.5;stroke-linecap:square"/><path id="line2d_23" d="m19.882 269.244 9.315 1.41 5.082.555 4.234.261 4.658.045 20.748-.12 3.81-.236 4.235-.484 4.658-.758 5.504-1.133 2.118-.556 1.27-.587 1.694-1.087 1.693-1.363 2.541-2.39 5.928-5.822 2.117-1.68 1.694-1.022 1.27-.53 1.27-.288 1.27-.006.848.191 1.27.564 1.27.854 1.27 1.098 1.694 1.761 2.54 3.056 4.659 5.762 1.693 1.782 1.694 1.44 1.27.79 1.27.488.848.135 6.351.024 22.442.143 14.82.258 14.82-.136 13.55-.293 11.856-.29 5.928.079 19.478.485 11.856-.168 5.929-.165.423-.14.423-.435.424-.725.847-2.298.847-3.386.846-4.426.847-5.418 1.27-9.881 1.27-11.842 1.695-18.555 1.693-21.363 2.118-30.064 2.54-40.006 2.964-50.443 2.964-52.529h0" clip-path="url(#p409d549192)" style="fill:none;stroke:#0ff;stroke-opacity:.5;stroke-linecap:square"/><path id="line2d_24" d="m19.882 268.093 7.622 1.75 4.657.847 3.811.483 3.388.226 4.234.023 11.856-.163 9.316-.302 3.81-.355 4.235-.626 4.234-.857 4.235-1.076 2.54-.788.847-.491 1.27-1.087 1.27-1.451 1.694-2.395 2.118-3.525 7.198-12.673 1.694-2.297 1.27-1.359 1.27-.977.847-.408.847-.193.847.051.847.329.847.585.846.818 1.27 1.613 1.271 2.003 1.694 3.14 2.54 5.33 3.811 8.121 1.694 3.169 1.27 2.032 1.27 1.648.847.846.847.616.847.362.847.09 26.676.098 16.938.548 12.703-.15 11.856-.33 15.667-.737 4.234.08 6.352.385 8.468.497 5.081.036 10.163-.167 8.469-.31.423-.144.423-.44.424-.73.847-2.303.847-3.39.846-4.429.847-5.418 1.27-9.878 1.27-11.833 1.695-18.54 1.693-21.343 2.118-30.031 2.54-39.962 2.964-50.388 2.964-52.473h0" clip-path="url(#p409d549192)" style="fill:none;stroke:#0ff;stroke-opacity:.5;stroke-linecap:square"/><path id="line2d_25" d="m19.882 267.334 7.622 2.094 4.234.943 3.81.616 3.388.308 3.388.055 15.243-.13 7.199-.198 3.387-.353 3.388-.565 3.81-.871 3.811-1.1 4.235-1.468.847-.492.846-.757.847-.997 1.27-1.892 1.271-2.294 1.694-3.543 2.54-5.956 4.235-10.008 1.693-3.463 1.27-2.213 1.271-1.792.847-.92.847-.673.847-.4.846-.102.847.247.847.594.847.91.847 1.197 1.27 2.263 1.27 2.734 1.694 4.197 2.54 6.981 3.388 9.3 1.694 4.094 1.27 2.625 1.27 2.13.847 1.092.847.796.847.468.847.117 26.253.094 17.36.793 8.046-.164 14.397-.567 9.739-.676 6.351-.309 4.234.01 4.235.273 13.973 1.155 5.505-.032 7.621-.243 7.622-.462 1.27-.098.424-.16.423-.452.424-.74.847-2.321.847-3.402.846-4.436.847-5.42 1.27-9.873 1.27-11.82 1.695-18.509 1.693-21.299 2.118-29.963 2.54-39.866 2.964-50.267 2.964-52.354h0" clip-path="url(#p409d549192)" style="fill:none;stroke:#0ff;stroke-opacity:.5;stroke-linecap:square"/><path id="line2d_26" d="m19.882 268.94 8.468 1.465 5.082.663 4.234.34 3.81.09 18.632-.118 6.351-.178 4.658-.38 5.081-.647 5.082-.871 2.54-.544 1.27-.591 1.27-.906 1.271-1.172 1.694-1.895 2.117-2.742 6.351-8.593 1.694-1.846 1.27-1.125 1.27-.85 1.271-.527.847-.147.847.037.847.242.847.432 1.27.963 1.27 1.291 1.694 2.129 2.117 3.118 6.352 9.78 1.693 2.053 1.27 1.217 1.27.875.848.364.847.17 5.08.019 21.172.125 18.632.613 12.28-.174 11.008-.344 16.514-.901 3.811.104 5.505.413 8.892.69 4.234.07 10.163-.136 9.739-.337.423-.145.423-.44.424-.729.847-2.304.847-3.39.846-4.43.847-5.42 1.27-9.88 1.27-11.837 1.695-18.546 1.693-21.349 2.118-30.041 2.54-39.975 2.964-50.403 2.964-52.49h0" clip-path="url(#p409d549192)" style="fill:none;stroke:#0ff;stroke-opacity:.5;stroke-linecap:square"/><path id="line2d_27" d="m19.882 267.392 8.045 1.992 4.658.91 3.81.51 3.388.223 5.081.015 18.631-.136 2.541-.243L69 270.13l2.964-.772 3.388-1.137 3.387-1.367 4.234-1.967.847-.468.847-.69 1.27-1.437 1.27-1.855 1.694-2.997 2.118-4.343 6.774-14.574 1.694-2.903 1.27-1.765 1.27-1.33.848-.61.847-.362.846-.092.847.245.847.59.847.905.847 1.189 1.27 2.249 1.27 2.716 1.694 4.17 2.54 6.938 3.388 9.243 1.694 4.07 1.27 2.611 1.27 2.12.847 1.087.847.793.847.467.847.12 26.676.19 16.09.635 8.893-.14 16.09-.533 15.667-.67 4.235.069 5.504.349 9.74.656 4.657.041 8.892-.168 8.892-.397 1.27-.075.424-.151.423-.446.424-.734.847-2.312.847-3.396.846-4.432.847-5.42 1.27-9.876 1.27-11.828 1.695-18.527 1.693-21.325 2.118-30.003 2.54-39.921 2.964-50.337 2.964-52.423h0" clip-path="url(#p409d549192)" style="fill:none;stroke:#0ff;stroke-opacity:.5;stroke-linecap:square"/><path id="line2d_28" d="m19.882 268.08 7.622 1.725 4.657.839 3.811.48 3.388.226 4.234.025 14.397-.16 6.775-.218 3.387-.387 3.388-.606 3.81-.911 4.235-1.259 3.81-1.317.848-.419 1.27-.933 1.27-1.254 1.694-2.076 2.117-3.071 3.811-6.12 2.54-3.915 1.694-2.29 1.694-1.885 1.27-1.075 1.27-.725.848-.262.846-.067.847.178.847.429.847.657 1.27 1.364 1.27 1.754 1.694 2.814 2.118 4.033 5.504 10.798 1.694 2.722 1.27 1.664 1.27 1.255.847.574.847.338.847.084 26.253.107 17.784.599 10.586-.166 15.244-.463 12.703-.492 5.08.046 6.352.33 9.316.48 5.504.013 9.316-.197 8.469-.379.423-.149.423-.443.424-.733.847-2.31.847-3.393.846-4.43.847-5.418 1.27-9.876 1.27-11.83 1.695-18.53 1.693-21.328 2.118-30.01 2.54-39.932 2.964-50.35 2.964-52.435h0" clip-path="url(#p409d549192)" style="fill:none;stroke:#0ff;stroke-opacity:.5;stroke-linecap:square"/><path id="line2d_29" d="m19.882 268.6 9.315 1.335 5.928.634 5.082.331 10.585.311 11.01.138 2.964-.082 3.387-.334 3.388-.554 3.81-.839 4.658-1.26 3.811-1.182 1.27-.636 1.27-.864 1.695-1.446 2.117-2.156 3.387-3.855 3.388-3.748 2.117-1.98 1.694-1.243 1.27-.678 1.27-.42 1.27-.122.847.132.847.32 1.27.79 1.27 1.118 1.271 1.388 1.694 2.177 2.54 3.693 4.235 6.205 1.693 2.114 1.27 1.326 1.271 1.041 1.27.701.847.251 1.27.063 27.524.094 14.396.437 11.856-.121 15.244-.376 13.55-.473 5.081.06 7.198.363 8.046.367 5.928.008 9.739-.191 7.622-.3.423-.146.423-.441.424-.73.847-2.306.847-3.392.846-4.43.847-5.419 1.27-9.88 1.27-11.836 1.695-18.542 1.693-21.345 2.118-30.035 2.54-39.965 2.964-50.392 2.964-52.478h0" clip-path="url(#p409d549192)" style="fill:none;stroke:#0ff;stroke-opacity:.5;stroke-linecap:square"/><path id="line2d_30" d="m19.882 267.649 8.468 1.609 5.505.81 4.234.416 4.235.194 13.126.293 8.469-.004 2.964-.279 2.964-.506 3.387-.822 3.811-1.183 4.235-1.568 2.54-1.075.847-.572 1.27-1.186 1.27-1.527 1.694-2.462 2.118-3.564 6.774-11.946 1.694-2.377 1.27-1.446 1.27-1.09.848-.498.847-.297.846-.075.847.202.847.488.847.747 1.27 1.552 1.27 1.994 1.694 3.2 2.118 4.588 5.504 12.28 1.694 3.096 1.27 1.891 1.27 1.429.847.652.847.384.847.096 26.253.11 17.784.589 8.469-.186 17.36-.664 11.857-.507 5.08.016 5.082.287 11.856.784 5.081.003 7.622-.2 8.045-.438 2.118-.155.423-.157.423-.452.424-.739.847-2.32.847-3.401.846-4.435.847-5.42 1.27-9.875 1.27-11.821 1.695-18.513 1.693-21.304 2.118-29.97 2.54-39.878 2.964-50.28 2.964-52.367h0" clip-path="url(#p409d549192)" style="fill:none;stroke:#0ff;stroke-opacity:.5;stroke-linecap:square"/><path id="line2d_31" d="m19.882 269.07 8.468 1.429 5.082.644 4.234.33 3.81.087 17.362-.12 6.775-.178 4.234-.366 4.658-.633 5.08-.922 4.235-.94 1.27-.517 1.27-.732 1.695-1.254 2.117-1.9 3.387-3.445 3.388-3.377 2.117-1.791 1.694-1.13 1.27-.615 1.27-.382 1.27-.111.847.113 1.27.466 1.27.776 1.271 1.04 1.694 1.716 2.117 2.513 6.352 7.88 1.693 1.651 1.27.979 1.27.703 1.271.38 1.27.054 28.37.087 13.974.295 13.126-.131 13.55-.322 13.973-.477 5.082.072 8.045.387 7.198.277 6.775-.003 12.28-.2 3.81-.106.424-.139.423-.434.424-.725.847-2.296.847-3.385.846-4.425.847-5.418 1.27-9.88 1.27-11.84 1.695-18.555 1.693-21.362 2.118-30.063 2.54-40.005 2.964-50.442 2.964-52.528h0" clip-path="url(#p409d549192)" style="fill:none;stroke:#0ff;stroke-opacity:.5;stroke-linecap:square"/><path id="line2d_32" d="m19.882 268.661 8.468 1.634 5.082.74 4.234.38 3.81.1 18.632-.12 6.775-.175 5.505-.396 5.504-.618 5.505-.83 1.27-.395 1.27-.678 1.27-.92 1.694-1.532 2.118-2.27 7.621-8.62 1.694-1.413 1.27-.806 1.27-.545 1.271-.242.847.032.847.205 1.27.606 1.27.917 1.27 1.179 1.694 1.891 2.54 3.281 4.659 6.182 1.693 1.91 1.694 1.544 1.27.844 1.27.52.848.141 5.08-.01 20.749-.03 9.316.433 6.775.198 7.198-.082 17.784-.533 17.36-.472 4.659.09 7.198.413 7.622.38 5.504.018 12.28-.168 5.505-.147.423-.139.423-.434.424-.725.847-2.296.847-3.385.846-4.425.847-5.417 1.27-9.88 1.27-11.841 1.695-18.554 1.693-21.363 2.118-30.062 2.54-40.006 2.964-50.442 2.964-52.528h0" clip-path="url(#p409d549192)" style="fill:none;stroke:#0ff;stroke-opacity:.5;stroke-linecap:square"/><path id="line2d_33" d="m19.882 269.394 9.315 1.314 5.505.549 4.658.233 6.351.014 19.055-.152 4.657-.3 4.658-.519 5.081-.78 4.658-.904 1.27-.507 1.27-.748 1.695-1.309 2.117-2.011 2.964-3.21 3.81-4.106 2.118-1.935 1.694-1.221 1.27-.668 1.27-.413 1.27-.121.847.115 1.27.472 1.27.789 1.271 1.056 1.694 1.742 2.117 2.551 6.352 8.01 1.693 1.682 1.27.998 1.27.72 1.271.392 1.27.062 28.37.246 12.704.364 9.738-.079 14.82-.346 8.47-.489 7.198-.338 4.657-.004 4.658.248 13.55.897 7.198-.033 10.586-.242 4.235-.158.423-.144.423-.438.424-.729.847-2.302.847-3.39.846-4.43.847-5.42 1.27-9.882 1.27-11.84 1.695-18.551 1.693-21.357 2.118-30.051 2.54-39.99 2.964-50.422 2.964-52.509h0" clip-path="url(#p409d549192)" style="fill:none;stroke:#0ff;stroke-opacity:.5;stroke-linecap:square"/><path id="line2d_34" d="m19.882 263.993 6.775 3.07 3.81 1.483 2.965.935 2.54.604 2.54.387 2.541.134 22.442-.08 1.694-.288 1.694-.492 2.117-.872 2.117-1.128 2.54-1.642 2.965-2.238L80.009 261l3.811-3.507.847-1.083 1.27-2.077 1.27-2.543 1.694-3.967 2.118-5.598 5.928-16.208 1.693-3.897 1.27-2.474 1.271-1.995.847-1.02.847-.745.847-.441.846-.112.424.108.847.588.847 1.046.846 1.463.847 1.836 1.27 3.364 1.694 5.397 2.118 7.737 5.504 20.71 1.694 5.222 1.27 3.19.847 1.702.847 1.311.847.88.847.404 2.117.021 22.865.085 4.658.398 9.739.915 3.81.09 7.2-.136 14.82-.58 10.585-.592 6.775-.264 4.658.025 4.658.286 12.28.91 4.233.003 5.505-.21 5.505-.428 5.504-.644 2.118-.305.423-.189.423-.478.424-.763.847-2.36.847-3.428.846-4.452.847-5.426 1.27-9.866 1.27-11.793 1.695-18.448 1.693-21.214 2.118-29.829 2.54-39.675 2.964-50.026 2.964-52.117h0" clip-path="url(#p409d549192)" style="fill:none;stroke:#807fff;stroke-opacity:.5;stroke-linecap:square"/><path id="line2d_35" d="m19.882 266.457 6.775 2.328 4.234 1.22 3.388.755 2.964.448 2.964.21 5.504-.004 13.974-.197 4.657-.19 2.54-.346 2.965-.639 2.964-.865 3.387-1.23 3.811-1.639 3.388-1.639.847-.561 1.27-1.217 1.27-1.608 1.694-2.64 2.117-3.877 3.811-7.685 2.54-4.899 1.694-2.86 1.27-1.821 1.271-1.472 1.27-1.056.847-.442.847-.208.847.063.847.392.847.698.846.977 1.27 1.923 1.271 2.39 1.694 3.748 2.54 6.362 3.811 9.7 1.694 3.788 1.27 2.432 1.27 1.976.847 1.016.847.743.847.44.847.119 20.325.116 7.198.17 14.397.424 16.514-.103 8.468-.194 6.352-.472 7.622-.54 4.234-.08 4.658.163 16.937.86 10.163-.14 9.739-.349.423-.145.423-.44.424-.73.847-2.302.847-3.388.846-4.426.847-5.415 1.27-9.872 1.27-11.826 1.695-18.529 1.693-21.329 2.118-30.012 2.54-39.936 2.964-50.355 2.964-52.44h0" clip-path="url(#p409d549192)" style="fill:none;stroke:#807fff;stroke-opacity:.5;stroke-linecap:square"/><path id="line2d_36" d="m19.882 264.489 5.928 2.809 3.81 1.566 2.965 1.005 2.964.763 2.54.424 2.541.177 6.775-.058 9.315-.29 6.775-.388 2.118-.373 2.117-.582 2.54-.949 2.54-1.195 2.965-1.666 3.387-2.203 3.811-2.777.847-.704.847-.958 1.27-1.893 1.27-2.366 1.694-3.744 2.118-5.341L97.37 229.1l1.694-3.637 1.27-2.263 1.27-1.77.847-.864.847-.582.847-.275.847.087.847.533.847.951.846 1.33 1.27 2.619 1.271 3.255 1.694 5.103 2.117 7.173 4.658 16.062 1.693 4.974 1.27 3.124 1.271 2.46.847 1.207.847.815.847.386 2.54.07 23.712.488 6.352.711 5.928.592 3.81.15 5.506-.1 7.621-.393 13.974-.975 11.432-.982 4.235-.105 3.387.157 4.234.457 10.163 1.216 3.387.108 7.199-.127 7.198-.356 6.352-.504.423-.164.423-.457.424-.744.847-2.325.847-3.403.846-4.432.847-5.415 1.27-9.858 1.27-11.8 1.695-18.472 1.693-21.255 2.118-29.898 2.54-39.778 2.964-50.154 2.964-52.24h0" clip-path="url(#p409d549192)" style="fill:none;stroke:#807fff;stroke-opacity:.5;stroke-linecap:square"/><path id="line2d_37" d="m19.882 267.603 8.045 1.896 4.658.876 3.81.505 3.388.242 5.505.08 17.784.073 2.54-.178 2.965-.446 2.964-.672 3.387-1.008 3.811-1.383 4.658-1.958.847-.503 1.27-1.107 1.27-1.477 1.694-2.438 2.117-3.594 3.811-7.147 2.54-4.565 1.694-2.668 1.27-1.7 1.271-1.373 1.27-.987.847-.412.847-.194.847.057.847.36.847.64.846.894 1.27 1.763 1.271 2.19 1.694 3.434 2.54 5.827 3.811 8.88 1.694 3.466 1.27 2.223 1.27 1.803.847.926.847.675.847.397.847.101 26.676.149 16.514.548 9.74-.143 17.36-.51 12.28-.414 5.504.048 7.622.34 8.045.308 6.352-.014 8.892-.216 7.622-.354.423-.15.423-.443.424-.732.847-2.308.847-3.393.846-4.428.847-5.416 1.27-9.871 1.27-11.824 1.695-18.52 1.693-21.319 2.118-29.995 2.54-39.911 2.964-50.324 2.964-52.409h0" clip-path="url(#p409d549192)" style="fill:none;stroke:#807fff;stroke-opacity:.5;stroke-linecap:square"/><path id="line2d_38" d="m19.882 267.162 8.045 2.058 4.234.866 3.811.555 3.388.261 3.81.033 19.902-.125 2.54-.24 2.541-.474 2.54-.683 2.965-1.029 3.387-1.438 3.811-1.888 2.964-1.664.847-.746 1.27-1.525 1.27-1.947 1.694-3.125 2.118-4.506 6.774-15.035 1.694-2.985 1.27-1.814 1.27-1.367.848-.626.847-.372.846-.094.847.261.847.63.847.963.847 1.266 1.27 2.396 1.27 2.893 1.694 4.443 2.54 7.39 3.388 9.844 1.694 4.333 1.27 2.779 1.27 2.254.847 1.157.847.842.847.495.847.124 29.217.085 12.28.392 12.702-.068 12.28-.226 6.352-.428 8.468-.547 4.235-.05 4.657.189 15.667.87 9.74-.121 9.738-.344 1.27-.062.424-.147.423-.44.424-.731.847-2.306.847-3.39.846-4.43.847-5.417 1.27-9.875 1.27-11.83 1.695-18.534 1.693-21.334 2.118-30.018 2.54-39.945 2.964-50.364 2.964-52.451h0" clip-path="url(#p409d549192)" style="fill:none;stroke:#807fff;stroke-opacity:.5;stroke-linecap:square"/><path id="line2d_39" d="m19.882 265.938 6.775 2.588 3.81 1.24 3.388.875 2.964.536 2.54.254 2.965.048 15.667-.133 7.198-.22 3.388-.382 3.387-.595 3.811-.906 3.81-1.138 3.812-1.351.847-.509.846-.79.847-1.044 1.27-1.988 1.271-2.417 1.694-3.738 2.54-6.29 4.235-10.584 1.693-3.664 1.27-2.342 1.271-1.897.847-.975.847-.712.847-.423.846-.109.847.257.847.617.847.946.847 1.243 1.27 2.352 1.27 2.843 1.694 4.368 2.54 7.276 3.388 9.723 1.694 4.3 1.27 2.772 1.27 2.264.847 1.175.847.87.847.534.847.175 8.045.392 9.74.24 18.63.168 20.749-.023 11.009-.152 17.784-.615 8.045.183 11.433.247 11.433-.108 9.739-.264.423-.141.423-.436.424-.726.847-2.296.847-3.384.846-4.423.847-5.414 1.27-9.872 1.27-11.83 1.695-18.536 1.693-21.341 2.118-30.031 2.54-39.963 2.964-50.39 2.964-52.472h0" clip-path="url(#p409d549192)" style="fill:none;stroke:#807fff;stroke-opacity:.5;stroke-linecap:square"/><path id="line2d_40" d="m19.882 267.338 6.775 1.964 4.234 1.015 3.811.686 3.387.375 2.964.11 9.74-.117 10.585-.352 3.388-.234 2.964-.43 3.387-.733 3.388-.97 3.81-1.343 3.811-1.578 1.694-.81.847-.626 1.27-1.296 1.27-1.665 1.694-2.683 2.118-3.88 6.774-12.988 1.694-2.584 1.27-1.57 1.27-1.185.848-.542.847-.322.846-.082.847.22.847.532.847.814.847 1.07 1.27 2.024 1.27 2.444 1.694 3.753 2.964 7.31 2.964 7.249 1.694 3.66 1.27 2.348 1.27 1.904.847.977.847.712.847.418.847.105 27.1.087 15.243.675 7.199-.12 13.973-.526 8.045-.421 9.316-.455 5.081-.03 4.234.215 15.244 1.032 11.01-.11 10.162-.301.423-.143.423-.437.424-.727.847-2.3.847-3.385.846-4.425.847-5.416 1.27-9.875 1.27-11.831 1.695-18.539 1.693-21.342 2.118-30.033 2.54-39.965 2.964-50.39 2.964-52.476h0" clip-path="url(#p409d549192)" style="fill:none;stroke:#807fff;stroke-opacity:.5;stroke-linecap:square"/><path id="line2d_41" d="m19.882 268.435 7.622 1.625 4.657.784 4.235.484 3.81.192 6.776-.023 12.28-.23 5.504-.254 2.964-.396 3.387-.69 3.388-.912 3.81-1.247 4.658-1.776 1.27-.618 1.27-.94 1.271-1.223 1.694-1.992 2.117-2.907 7.622-10.992 1.694-1.85 1.27-1.09 1.27-.783.847-.326.847-.154.847.047.847.294.847.524.846.733 1.27 1.445 1.271 1.795 1.694 2.816 2.54 4.785 4.235 8.058 1.693 2.759 1.27 1.738 1.271 1.374.847.678.847.465.847.228 3.81.117 13.55.188 10.163.248 13.973.388 7.622-.068 21.172-.53 13.55-.273 5.927.086 19.055.532 8.892-.178 8.892-.393.424-.024.423-.15.423-.444.424-.733.847-2.31.847-3.394.846-4.43.847-5.42 1.27-9.875 1.27-11.829 1.695-18.528 1.693-21.327 2.118-30.007 2.54-39.928 2.964-50.344 2.964-52.43h0" clip-path="url(#p409d549192)" style="fill:none;stroke:#807fff;stroke-opacity:.5;stroke-linecap:square"/><path id="line2d_42" d="m19.882 265.01 6.351 2.792 3.811 1.442 3.388 1.03 2.964.647 2.54.326 2.54.087 11.434-.12 10.162-.298 2.54-.31 2.541-.556 2.54-.783 2.965-1.174 2.964-1.429 3.387-1.904 3.388-2.155.847-.781.846-1.106 1.27-2.2 1.271-2.758 1.694-4.367 2.117-6.225 5.928-18.054 1.694-4.272 1.27-2.666 1.27-2.088.847-1.021.847-.689.847-.325.423-.015.424.108.847.584.847 1.042.846 1.455.847 1.828 1.27 3.348 1.694 5.375 2.118 7.707 5.504 20.66 1.694 5.225 1.27 3.2.847 1.713.847 1.326.847.898.847.428 2.117.084 11.01.176 13.972.259 14.82.345 22.442-.062 2.541-.181 3.388-.493 6.351-1.245 3.81-.634 2.965-.276 2.54-.011 2.965.243 3.81.582 9.316 1.588 2.964.223 4.658.004 11.856-.176 5.505-.154.423-.14.423-.435.424-.725.847-2.296.847-3.384.846-4.425.847-5.416 1.27-9.877 1.27-11.836 1.695-18.548 1.693-21.354 2.118-30.051 2.54-39.99 2.964-50.423 2.964-52.507h0" clip-path="url(#p409d549192)" style="fill:none;stroke:#807fff;stroke-opacity:.5;stroke-linecap:square"/><path id="line2d_43" d="m19.882 266.6 7.622 1.845 5.08 1.005 4.235.62 3.811.34 10.162.452 8.893.198 4.234-.061 2.117-.268 2.54-.557 2.541-.784 2.964-1.16 3.388-1.588 4.234-2.268 2.117-1.25.847-.715 1.27-1.414 1.27-1.765 1.694-2.79 2.118-3.98 6.351-12.39 1.694-2.707 1.27-1.684 1.27-1.317.847-.643.847-.433.847-.204.847.065.847.405.847.721.846 1.008 1.27 1.987 1.271 2.469 1.694 3.87 2.54 6.572 3.811 10.02 1.694 3.915 1.27 2.514 1.27 2.043.847 1.052.847.77.847.457.847.124 15.244.11 11.009.173 16.514.441 5.928-.153 14.82-.515 11.01.119 22.441.264 13.127-.008 7.198-.251 7.198-.47 2.118-.179.423-.163.423-.455.424-.744.847-2.326.847-3.407.846-4.438.847-5.422 1.27-9.873 1.27-11.817 1.695-18.504 1.693-21.29 2.118-29.95 2.54-39.846 2.964-50.24 2.964-52.33h0" clip-path="url(#p409d549192)" style="fill:none;stroke:#807fff;stroke-opacity:.5;stroke-linecap:square"/><path id="line2d_44" d="m19.882 265.473 6.775 2.653 3.81 1.268 3.388.894 2.964.547 2.54.258 2.965.05 13.55-.137 7.621-.228 2.118-.365 2.117-.612 2.117-.83 2.54-1.245 2.965-1.735 3.387-2.261 4.658-3.392 1.27-1.202 1.27-1.596 1.27-1.927 1.694-2.979 2.541-5.043 5.081-10.328 1.694-2.973 1.694-2.492 1.27-1.464 1.27-1.049.847-.437.847-.205.847.075.847.456.847.813.846 1.136 1.27 2.238 1.271 2.78 1.694 4.36 2.54 7.398 3.811 11.272 1.694 4.398 1.27 2.82 1.27 2.288.847 1.175.847.854.847.503.847.126 11.856-.119 11.433-.055 6.775.24 10.586.39 6.351-.043 10.163-.32 16.513-.735 8.046-.323 4.657.004 4.658.263 13.55.95 5.928-.039 8.045-.26 8.046-.488.423-.157.423-.45.424-.74.847-2.319.847-3.401.846-4.436.847-5.421 1.27-9.876 1.27-11.824 1.695-18.518 1.693-21.31 2.118-29.98 2.54-39.89 2.964-50.295 2.964-52.383h0" clip-path="url(#p409d549192)" style="fill:none;stroke:#807fff;stroke-opacity:.5;stroke-linecap:square"/><path id="line2d_45" d="m19.882 266.748 8.045 1.647 5.505.914 4.657.567 4.658.345 10.586.548 7.622.175 2.964-.083 2.117-.32 2.117-.529 2.54-.876 2.965-1.297 3.387-1.758 4.658-2.707 2.54-1.63 1.27-1.179 1.271-1.455 1.694-2.285 2.117-3.248 6.775-10.768 1.694-2.175 1.27-1.35 1.27-1.053 1.27-.708.848-.255.846-.065.847.21.847.505.847.774.847 1.017 1.27 1.923 1.27 2.323 1.694 3.569 2.964 6.953 2.964 6.9 1.694 3.49 1.27 2.24 1.27 1.822.847.937.847.686.847.409.847.111 15.667.106 10.586.168 16.514.453 9.315-.13 22.019-.613 9.315-.201 5.082.076 8.045.404 7.198.289 5.928-.015 8.045-.229 8.046-.452.847-.06.423-.156.423-.45.424-.739.847-2.318.847-3.402.846-4.435.847-5.422 1.27-9.878 1.27-11.828 1.695-18.522 1.693-21.316 2.118-29.99 2.54-39.902 2.964-50.31 2.964-52.4h0" clip-path="url(#p409d549192)" style="fill:none;stroke:#807fff;stroke-opacity:.5;stroke-linecap:square"/><path id="line2d_46" d="m19.882 267.096 6.775 2.043 4.234 1.062 3.811.721 3.387.395 2.964.116 11.01-.111 10.586-.305 2.117-.25 2.117-.467 2.54-.805 2.965-1.218 3.387-1.664 5.081-2.796 3.811-2.268 1.694-1.422 2.117-2.155 2.964-3.444 4.658-5.481 2.117-2.14 1.694-1.404 1.27-.822 1.27-.588 1.27-.318.847-.045.847.17.847.406.847.623 1.27 1.295 1.27 1.665 1.694 2.672 2.118 3.833 5.504 10.282 1.694 2.604 1.27 1.596 1.27 1.213.847.56.847.338.847.099 11.433.148 15.243.225 15.667.34 8.469-.121 18.208-.322 18.63-.071 24.983.154 7.622-.323 6.352-.439.423-.16.423-.452.424-.74.847-2.323.847-3.403.846-4.436.847-5.42 1.27-9.874 1.27-11.82 1.695-18.508 1.693-21.299 2.118-29.962 2.54-39.864 2.964-50.264 2.964-52.352h0" clip-path="url(#p409d549192)" style="fill:none;stroke:#807fff;stroke-opacity:.5;stroke-linecap:square"/><path id="line2d_47" d="m19.882 265.818 6.351 2.448 3.811 1.262 3.388.9 2.964.566 2.54.285 2.54.076 11.434-.121 10.162-.302 2.117-.274 2.117-.475 2.54-.803 2.542-1.027 2.964-1.434 3.387-1.88 4.658-2.864 1.27-1.046 1.27-1.416 1.27-1.727 1.694-2.687 2.541-4.578 5.081-9.431 1.694-2.723 1.694-2.285 1.27-1.344 1.27-.963.847-.4.847-.19.847.066.847.4.847.713.846.997 1.27 1.965 1.271 2.44 1.694 3.827 2.54 6.496 3.811 9.899 1.694 3.864 1.27 2.48 1.27 2.012.847 1.034.847.753.847.445.847.115 27.1.243 14.82.666 10.586-.109 12.28-.339 4.234-.354 13.55-1.345 3.387-.005 3.81.258 5.929.688 5.928.63 3.387.153 5.505-.063 6.352-.273 6.351-.482 3.388-.342.423-.171.423-.463.424-.75.847-2.335.847-3.412.846-4.44.847-5.42 1.27-9.865 1.27-11.803 1.695-18.475 1.693-21.253 2.118-29.892 2.54-39.767 2.964-50.141 2.964-52.23h0" clip-path="url(#p409d549192)" style="fill:none;stroke:#807fff;stroke-opacity:.5;stroke-linecap:square"/><path id="line2d_48" d="m19.882 265.823 6.775 2.523 3.81 1.2 3.388.845 2.964.516 2.54.245 2.965.045 11.856-.14 8.892-.27 2.117-.319 2.117-.561 2.117-.78 2.541-1.189 2.964-1.68 3.388-2.22 4.234-3.077 1.27-1.003 1.27-1.399 1.27-1.812 1.695-2.943 2.117-4.295 3.81-8.504 2.541-5.461 1.694-3.227 1.694-2.708 1.27-1.592.847-.815.847-.594.847-.352.846-.089.847.28.847.671.847 1.03.847 1.351 1.27 2.558 1.27 3.09 1.694 4.743 2.54 7.891 3.388 10.514 1.694 4.63 1.27 2.97 1.27 2.41.847 1.238.847.902.847.532.847.136 27.947.222 13.973.465 7.198-.11 35.569-.919 6.351.134 15.244.436 10.162-.127 10.163-.345.423-.144.423-.44.424-.728.847-2.3.847-3.387.846-4.424.847-5.413 1.27-9.868 1.27-11.823 1.695-18.522 1.693-21.323 2.118-30.004 2.54-39.926 2.964-50.342 2.964-52.425h0" clip-path="url(#p409d549192)" style="fill:none;stroke:#807fff;stroke-opacity:.5;stroke-linecap:square"/><path id="line2d_49" d="m19.882 267.227 7.622 2.1 4.234.95 3.81.625 3.388.313 3.388.056 20.748-.12 2.54-.25 2.541-.49 2.964-.83 2.964-1.066 3.388-1.444 4.657-2.25 2.118-1.179 1.27-1.069 1.27-1.352 1.694-2.158 2.117-3.104 7.198-11.004 1.694-2.03 1.27-1.229 1.27-.925 1.271-.57.847-.16.847.054.847.331.847.59.846.825 1.27 1.624 1.271 2.02 1.694 3.164 2.54 5.374 3.811 8.193 1.694 3.2 1.27 2.054 1.27 1.669.847.858.847.628.847.372.847.1 30.91.4 9.74.296 7.198-.046 14.82-.369 14.397-.448 8.045-.11 5.505.147 15.667.562 7.198-.135 7.198-.354 5.929-.456.423-.163.423-.456.424-.743.847-2.326.847-3.406.846-4.438.847-5.422 1.27-9.872 1.27-11.817 1.695-18.501 1.693-21.289 2.118-29.947 2.54-39.843 2.964-50.236 2.964-52.325h0" clip-path="url(#p409d549192)" style="fill:none;stroke:#807fff;stroke-opacity:.5;stroke-linecap:square"/><path id="line2d_50" d="m19.882 264.868 5.928 2.735 3.81 1.52 2.965.974 2.964.738 2.54.41 2.541.17 6.352-.058 8.468-.283 8.045-.48 2.541-.418 2.54-.656 2.541-.877 2.964-1.281 2.964-1.535 3.388-2.03 2.964-1.992.847-.8.846-1.108 1.27-2.179 1.271-2.71 1.694-4.267 2.117-6.056 5.928-17.49 1.694-4.13 1.27-2.573 1.27-2.017.847-.985.847-.664.847-.313.423-.015.424.107.847.578.847 1.03.846 1.441.847 1.81 1.27 3.312 1.694 5.317 2.118 7.623 5.504 20.417 1.694 5.155 1.27 3.153.847 1.684.847 1.3.847.876.847.41 2.117.047 25.83.371 13.55.665 5.927-.056 9.74-.346 23.288-.843 6.351-.03 5.928.228 11.857.523 5.928-.042 6.775-.263 6.775-.483 2.964-.28.423-.169.423-.46.424-.746.847-2.33.847-3.408.846-4.437.847-5.417 1.27-9.861 1.27-11.801 1.695-18.474 1.693-21.253 2.118-29.895 2.54-39.771 2.964-50.146 2.964-52.234h0" clip-path="url(#p409d549192)" style="fill:none;stroke:#807fff;stroke-opacity:.5;stroke-linecap:square"/><path id="line2d_51" d="m19.882 265.353 6.351 2.608 3.811 1.34 3.388.953 2.964.598 2.54.301 2.54.08 9.74-.123 10.162-.351 2.54-.213 2.118-.453 2.117-.692 2.117-.905 2.54-1.332 2.965-1.838 3.387-2.39 4.235-3.275.847-.817 1.27-1.62 1.27-2.03 1.694-3.218 2.117-4.61 6.775-15.419 1.694-3.13 1.27-1.943 1.27-1.518.847-.74.847-.498.847-.235.847.083.847.506.847.9.846 1.26 1.27 2.48 1.271 3.082 1.694 4.832 2.117 6.791 4.658 15.199 1.693 4.702 1.27 2.95 1.271 2.321.847 1.136.847.764.847.357 2.54.043 30.064.341 10.162.17 7.622-.128 13.55-.516 6.352-.366 11.009-.666 4.658-.05 3.81.188 5.928.549 6.775.578 3.811.102 7.622-.128 7.622-.36 5.505-.405.423-.161.423-.454.424-.742.847-2.323.847-3.404.846-4.436.847-5.42 1.27-9.871 1.27-11.817 1.695-18.502 1.693-21.291 2.118-29.951 2.54-39.85 2.964-50.244 2.964-52.332h0" clip-path="url(#p409d549192)" style="fill:none;stroke:#807fff;stroke-opacity:.5;stroke-linecap:square"/><path id="line2d_52" d="m19.882 268.531 8.045 1.614 5.081.786 4.235.416 3.387.129 12.703-.063 11.01-.205 3.387-.327 3.387-.547 3.811-.861 3.811-1.1 4.234-1.478.847-.384.847-.665.847-.94 1.27-1.868 1.27-2.34 1.694-3.694 2.117-5.246 5.505-14.053 1.694-3.617 1.27-2.26 1.27-1.775.847-.869.847-.586.847-.277.847.072.847.457.847.816.846 1.14 1.27 2.248 1.271 2.791 1.694 4.377 2.54 7.43 3.811 11.32 1.694 4.42 1.27 2.836 1.27 2.302.847 1.182.847.862.847.51.847.13 29.64.27 11.857.315 5.08-.091 8.47-.438 6.774-.256 7.622.013 19.901.248 17.785.297 11.009-.14 8.469-.252.423-.142.423-.437.424-.726.847-2.3.847-3.386.846-4.426.847-5.417 1.27-9.878 1.27-11.836 1.695-18.546 1.693-21.35 2.118-30.046 2.54-39.981 2.964-50.412 2.964-52.497h0" clip-path="url(#p409d549192)" style="fill:none;stroke:#807fff;stroke-opacity:.5;stroke-linecap:square"/><path id="line2d_53" d="m19.882 261.329 5.928 3.276 3.81 1.858 2.965 1.221 2.54.843 2.541.618 2.117.318 2.964.172 10.586.353 9.316.089 1.693-.186 1.694-.406 1.694-.612 2.117-1.03 2.117-1.295 2.54-1.863 2.541-2.15 2.964-2.8 3.388-3.488.847-1.165.846-1.564 1.27-3.012 1.271-3.694 1.694-5.765 2.117-8.123 5.505-21.774 1.693-5.695 1.27-3.625 1.271-2.927.847-1.5.847-1.095.847-.65.423-.147.423-.018.424.146.423.316.847 1.11.847 1.702.847 2.236 1.27 4.23 1.27 5.11 1.694 7.848 2.54 13.054 3.388 17.398 1.694 7.664 1.27 4.919 1.27 3.993.847 2.053.847 1.498.847.887.424.196 1.693.056 24.56.43 5.928.659 6.351.65 3.81.152 3.812-.112 4.658-.38 10.585-.951 4.235-.093 19.901-.113 5.081.158 16.09.706 5.082-.143 5.081-.359 5.081-.573 5.082-.786.423-.198.423-.486.424-.77.847-2.367.847-3.432.846-4.45.847-5.419 1.27-9.845 1.27-11.765 1.695-18.395 1.693-21.148 2.118-29.731 2.54-39.544 2.964-49.857 2.964-51.947h0" clip-path="url(#p409d549192)" style="fill:none;stroke:#807fff;stroke-opacity:.5;stroke-linecap:square"/><path id="line2d_54" d="m19.882 265.73 6.775 2.455 4.234 1.284 3.388.791 2.964.47 2.54.205 3.811.02 11.856-.16 7.622-.254 1.694-.317 1.693-.547 1.694-.753 2.117-1.197 2.118-1.441 2.54-1.988 3.388-2.965 5.504-5.185 1.27-1.583 1.27-1.95 1.695-3.065 2.117-4.361 7.198-15.42 1.694-2.902 1.27-1.797 1.27-1.4.847-.68.847-.459.847-.215.847.087.847.52.847.926.846 1.294 1.27 2.55 1.271 3.169 1.694 4.966 2.117 6.979 4.658 15.61 1.693 4.826 1.27 3.026 1.271 2.376.847 1.16.847.778.847.358 2.54.018 23.712.064 8.47.5 6.35.265 5.505-.03 8.892-.288 26.677-.96 5.504.035 5.081.294 11.01.717 4.657.022 8.046-.187 8.045-.416 2.54-.18.424-.156.423-.45.424-.74.847-2.32.847-3.4.846-4.436.847-5.421 1.27-9.876 1.27-11.824 1.695-18.517 1.693-21.31 2.118-29.98 2.54-39.888 2.964-50.295 2.964-52.382h0" clip-path="url(#p409d549192)" style="fill:none;stroke:#807fff;stroke-opacity:.5;stroke-linecap:square"/><path id="line2d_55" d="m19.882 266.752 6.775 2.11 4.234 1.098 3.388.675 3.387.44 2.964.153 8.469-.063 11.009-.285 3.81-.243 2.118-.445 2.117-.684 2.54-1.093 2.541-1.342 2.964-1.813 3.811-2.596 3.811-2.765 1.27-1.243 1.27-1.55 1.695-2.456 2.117-3.519 7.198-12.537 1.694-2.369 1.27-1.467 1.27-1.145 1.27-.768.848-.278.846-.07.847.24.847.576.847.883.847 1.16 1.27 2.195 1.27 2.65 1.694 4.071 2.54 6.774 3.388 9.03 1.694 3.978 1.27 2.555 1.27 2.075.847 1.068.847.78.847.464.847.124 17.36.107 9.74.173 15.243.4 8.892-.117 20.325-.569 11.01-.293 6.351.058 20.325.464 7.622-.214 7.621-.43 2.118-.157.423-.158.423-.452.424-.739.847-2.319.847-3.4.846-4.432.847-5.417 1.27-9.867 1.27-11.812 1.695-18.499 1.693-21.287 2.118-29.948 2.54-39.846 2.964-50.24 2.964-52.326h0" clip-path="url(#p409d549192)" style="fill:none;stroke:#807fff;stroke-opacity:.5;stroke-linecap:square"/><path id="line2d_56" d="m19.882 266.767 7.622 1.614 5.504.957 4.658.604 4.658.373 11.009.592 7.622.18 2.964-.068 2.117-.268 2.54-.563 2.541-.799 2.964-1.193 2.964-1.432 3.388-1.873 3.387-2.117.847-.842.847-1.094 1.27-2.06 1.27-2.485 1.694-3.83 2.54-6.44 4.235-10.908 1.694-3.836 1.27-2.492 1.27-2.068 1.27-1.558.848-.714.847-.424.846-.108.847.288.847.694.847 1.063.847 1.397 1.27 2.643 1.27 3.192 1.694 4.903 2.54 8.16 3.388 10.882 1.694 4.798 1.27 3.083 1.27 2.507.847 1.291.847.947.847.565.847.158 10.586.145 13.126.21 6.775.415 8.469.49 4.234.043 3.811-.193 5.928-.573 6.775-.61 3.811-.111 11.856.121 13.127.339 17.784.808 7.198-.13 7.198-.346 5.929-.444.423-.162.423-.454.424-.743.847-2.326.847-3.405.846-4.438.847-5.422 1.27-9.875 1.27-11.82 1.695-18.506 1.693-21.294 2.118-29.956 2.54-39.856 2.964-50.252 2.964-52.341h0" clip-path="url(#p409d549192)" style="fill:none;stroke:#807fff;stroke-opacity:.5;stroke-linecap:square"/><path id="line2d_57" d="m19.882 263.512 6.351 2.206 4.658 1.397 3.811.933 3.387.627 3.388.402 9.315.739 6.775.324 5.082.057 1.693-.238 1.694-.52 1.694-.775 1.693-1.007 2.118-1.55 2.117-1.825 2.54-2.491 2.964-3.214 4.235-4.925.847-1.208 1.27-2.38 1.27-2.968 1.694-4.695 2.117-6.71 6.775-22.386 1.694-4.538 1.27-2.817 1.27-2.2.847-1.072.847-.722.847-.34.423-.014.424.135.423.293.847 1.031.847 1.58.847 2.075 1.27 3.926 1.27 4.742 1.694 7.281 2.54 12.112 3.388 16.137 1.694 7.104 1.27 4.558 1.27 3.698.847 1.898.847 1.383.847.815.424.178 1.693.035 24.136.188 6.775.507 6.775.454 4.234.062 5.505-.172 18.207-.774 16.514-.188 5.505.095 8.469.443 6.775.254 5.08-.039 5.505-.244 5.928-.494 5.929-.73.423-.184.423-.475.424-.76.847-2.354.847-3.426.846-4.45.847-5.425 1.27-9.865 1.27-11.796 1.695-18.454 1.693-21.223 2.118-29.843 2.54-39.696 2.964-50.052 2.964-52.142h0" clip-path="url(#p409d549192)" style="fill:none;stroke:#807fff;stroke-opacity:.5;stroke-linecap:square"/><path id="line2d_58" d="m19.882 267.31 8.045 1.985 4.658.91 3.81.513 3.388.225 5.081.018 19.478-.11 2.54-.359 2.541-.587 2.965-.939 2.964-1.17 3.387-1.563 4.234-2.2.847-.503.847-.697 1.27-1.397 1.27-1.76 1.694-2.799 2.118-4.009 6.351-12.55 1.694-2.749 1.27-1.711 1.27-1.34.847-.653.847-.44.847-.209.847.065.847.4.847.715.846.998 1.27 1.967 1.271 2.444 1.694 3.831 2.54 6.503 3.811 9.91 1.694 3.868 1.27 2.482 1.27 2.014.847 1.034.847.754.847.445.847.114 26.253.212 16.937.825 7.622-.163 33.451-1.016 4.658.118 7.198.459 6.775.37 4.658.032 6.775-.173 6.775-.388 5.505-.47.423-.167.423-.46.424-.746.847-2.332.847-3.41.846-4.441.847-5.425 1.27-9.874 1.27-11.818 1.695-18.5 1.693-21.285 2.118-29.94 2.54-39.832 2.964-50.223 2.964-52.313h0" clip-path="url(#p409d549192)" style="fill:none;stroke:#807fff;stroke-opacity:.5;stroke-linecap:square"/><path id="line2d_59" d="m19.882 265.116 6.775 2.078 4.658 1.214 3.81.788 3.388.501 3.387.286 10.163.534 8.045.2 3.387-.053 1.694-.251 2.117-.563 2.117-.814L71.541 268l2.54-1.497 2.964-2.034 3.388-2.609 3.387-2.857.847-1.026 1.27-2.006 1.27-2.487 1.694-3.915 2.118-5.564 6.351-17.264 1.694-3.763 1.27-2.34 1.27-1.83.847-.893.847-.6.847-.284.423-.012.424.105.847.57.847 1.015.846 1.42.847 1.784 1.27 3.266 1.694 5.242 2.118 7.514 5.504 20.13 1.694 5.083 1.27 3.109.847 1.66.847 1.283.847.864.847.404 2.117.049 24.982.375 14.82.906 5.082-.077 8.045-.38 8.892-.375 19.055-.328 6.351.086 9.316.457 6.351.201 6.352-.066 6.774-.284 6.775-.5 2.118-.2.423-.166.423-.46.424-.745.847-2.331.847-3.408.846-4.437.847-5.42 1.27-9.866 1.27-11.807 1.695-18.482 1.693-21.265 2.118-29.912 2.54-39.794 2.964-50.176 2.964-52.263h0" clip-path="url(#p409d549192)" style="fill:none;stroke:#807fff;stroke-opacity:.5;stroke-linecap:square"/><path id="line2d_60" d="m19.882 265.725 6.775 2.52 3.81 1.204 3.388.85 2.964.519 2.54.246 2.965.047 13.973-.136 7.622-.238 2.117-.327 2.54-.64 2.541-.878 2.964-1.284 3.388-1.751 3.81-2.242 2.541-1.647.847-.786 1.27-1.542 1.27-1.917 1.694-3.022 2.118-4.3 6.351-13.361 1.694-2.915 1.27-1.813 1.27-1.417.847-.692.847-.466.847-.22.847.073.847.445.847.794.846 1.109 1.27 2.185 1.271 2.715 1.694 4.257 2.54 7.225 3.811 11.01 1.694 4.299 1.27 2.757 1.27 2.238.847 1.15.847.838.847.494.847.127 29.217.24 12.28.326 6.774-.092 35.992-.895 5.505.113 17.784.575 8.892-.162 8.892-.383 1.27-.073.424-.15.423-.445.424-.733.847-2.31.847-3.394.846-4.43.847-5.418 1.27-9.874 1.27-11.825 1.695-18.524 1.693-21.32 2.118-30 2.54-39.915 2.964-50.329 2.964-52.415h0" clip-path="url(#p409d549192)" style="fill:none;stroke:#807fff;stroke-opacity:.5;stroke-linecap:square"/><path id="line2d_61" d="m19.882 264.166 5.928 2.923 3.81 1.625 2.965 1.042 2.964.79 2.54.439 2.541.183 6.352-.06 8.468-.287 7.622-.468 1.694-.326 2.117-.675L69 268.41l2.117-1.182 2.54-1.69 2.965-2.278 3.387-2.908 3.811-3.558.847-1.07 1.27-2.017 1.27-2.44 1.694-3.772 2.118-5.288 5.928-15.197 1.693-3.639 1.27-2.307 1.271-1.86.847-.95.847-.693.847-.411.846-.103.424.104.847.57.847 1.012.846 1.417.847 1.779 1.27 3.258 1.694 5.23 2.118 7.496 5.504 20.084 1.694 5.073 1.27 3.103.847 1.657.847 1.281.847.864.847.405 2.117.053 24.982.413 14.82.952 8.046-.062 13.973-.343 5.081-.272 14.397-.926 3.81.035 4.659.291 12.28.927 4.233.005 5.929-.215 5.928-.447 5.928-.678.847-.116.423-.183.423-.473.424-.76.847-2.352.847-3.424.846-4.449.847-5.425 1.27-9.867 1.27-11.797 1.695-18.458 1.693-21.228 2.118-29.85 2.54-39.708 2.964-50.066 2.964-52.156h0" clip-path="url(#p409d549192)" style="fill:none;stroke:#807fff;stroke-opacity:.5;stroke-linecap:square"/><path id="line2d_62" d="m19.882 266.044 7.198 2.146 4.658 1.151 3.81.707 3.388.397 3.388.152 13.126.258 8.045-.004 2.118-.223 2.54-.509 2.54-.748 2.541-.964 2.964-1.365 3.388-1.833 3.81-2.343.848-.77.846-1.102.847-1.406 1.27-2.608 1.271-3.112 1.694-4.752 2.54-7.909 3.811-11.946 1.694-4.696 1.27-3.055 1.27-2.537.847-1.352.847-1.043.847-.703.847-.332.423-.015.424.109.847.593.847 1.056.846 1.476.847 1.854 1.27 3.396 1.27 4.004 1.695 6.038L116 247.238l2.54 9.512 1.694 5.52 1.27 3.465 1.271 2.727.847 1.336.847.901.847.423 2.117.06 16.937.142 10.586.22 12.28.255 11.432-.084 14.397-.312 18.208-.715 5.08.172 15.244.672 8.046-.124 8.045-.352 4.658-.308.423-.156.423-.45.424-.739.847-2.318.847-3.4.846-4.435.847-5.42 1.27-9.873 1.27-11.822 1.695-18.514 1.693-21.306 2.118-29.974 2.54-39.882 2.964-50.286 2.964-52.373h0" clip-path="url(#p409d549192)" style="fill:none;stroke:#807fff;stroke-opacity:.5;stroke-linecap:square"/><path id="line2d_63" d="m19.882 267.125 6.775 2.076 4.234 1.072 3.811.724 3.387.395 2.964.116 9.316-.115 10.162-.36 3.388-.241 2.117-.388 2.54-.71 2.541-.938 2.964-1.33 3.811-1.983 5.505-3.152 1.27-.9 1.27-1.148 1.694-1.844 2.117-2.678 4.235-5.883 2.54-3.368 2.117-2.426 1.694-1.558 1.27-.882 1.27-.592.848-.214.846-.054.847.189.847.453.847.694 1.27 1.444 1.27 1.854 1.694 2.978 2.118 4.269 5.504 11.442 1.694 2.893 1.27 1.771 1.27 1.343.847.617.847.369.847.102 14.82.115 11.856.171 16.09.351 9.316-.14 27.523-.552 8.893.008 22.865.277 9.315-.247 5.929-.272.423-.148.423-.442.424-.732.847-2.306.847-3.39.846-4.428.847-5.416 1.27-9.871 1.27-11.825 1.695-18.523 1.693-21.32 2.118-30.001 2.54-39.92 2.964-50.332 2.964-52.419h0" clip-path="url(#p409d549192)" style="fill:none;stroke:#807fff;stroke-opacity:.5;stroke-linecap:square"/><path id="line2d_64" d="m19.882 265.784 6.351 2.303 4.235 1.289 3.387.803 2.964.489 2.964.25 3.388.018 8.892-.175 9.315-.414 2.117-.19 1.694-.371 1.694-.567 2.117-.96 2.117-1.213 2.54-1.75 2.541-2.023 2.964-2.64 3.811-3.717.847-.923.847-1.216 1.27-2.353 1.27-2.899 1.694-4.542 2.118-6.431 6.351-19.88 1.694-4.323 1.27-2.687 1.27-2.1.847-1.025.847-.69.847-.325.423-.014.424.124.423.267.847.939.847 1.44.847 1.89 1.27 3.577 1.27 4.321 1.694 6.634 2.54 11.035 3.388 14.699 1.694 6.47 1.27 4.15 1.27 3.366.847 1.728.847 1.257.847.74.424.16 1.693.011 4.658-.194 14.82-.822 2.54.084 3.388.365 4.658.766 5.928.953 3.388.299 3.387.024 7.622-.19 11.01-.53 3.81-.297 5.081-.667 7.622-1.02 3.81-.264 2.965.021 2.964.284 3.81.623 8.47 1.504 2.964.264 2.964.023 5.928-.184 5.928-.419 5.928-.652 1.694-.229.423-.183.423-.475.424-.76.847-2.354.847-3.426.846-4.45.847-5.427 1.27-9.87 1.27-11.8 1.695-18.463 1.693-21.232 2.118-29.858 2.54-39.716 2.964-50.076 2.964-52.168h0" clip-path="url(#p409d549192)" style="fill:none;stroke:#807fff;stroke-opacity:.5;stroke-linecap:square"/><path id="line2d_65" d="m19.882 267.661 8.045 1.942 4.658.883 3.81.495 3.388.216 5.081.012 17.785-.155 2.54-.224 2.54-.47 2.541-.686 2.964-1.029 3.388-1.417 4.234-2.023 3.388-1.82 1.27-1.046 1.27-1.31 1.694-2.076 2.117-2.974 7.198-10.479 1.694-1.927 1.27-1.166 1.27-.877 1.271-.542.847-.151.847.054.847.324.847.578.846.807 1.27 1.592 1.271 1.978 1.694 3.1 2.54 5.265 3.811 8.025 1.694 3.134 1.27 2.012 1.27 1.634.847.841.847.614.847.364.847.098 33.451.395 8.892.148 11.01-.124 18.63-.456 11.01-.275 5.928.074 20.325.568 8.892-.212 8.469-.415.423-.151.423-.446.424-.734.847-2.312.847-3.397.846-4.432.847-5.42 1.27-9.877 1.27-11.83 1.695-18.53 1.693-21.327 2.118-30.006 2.54-39.926 2.964-50.343 2.964-52.429h0" clip-path="url(#p409d549192)" style="fill:none;stroke:#807fff;stroke-opacity:.5;stroke-linecap:square"/><path id="line2d_66" d="m19.882 262.233 5.928 3.66 3.387 1.842 2.964 1.361 2.541.927 2.117.57 2.117.357 2.117.122 9.74-.116 10.162-.353 2.54-.188 1.694-.352 1.694-.546 2.117-.938 2.117-1.197 2.117-1.43 2.541-1.989 2.964-2.64 3.387-3.354 1.694-1.86.847-1.35.847-1.714 1.27-3.175 1.27-3.789 1.694-5.79 2.54-9.668 4.235-16.274 1.694-5.703 1.27-3.7 1.27-3.067.847-1.632.847-1.258.847-.847.847-.4.423-.017.424.142.423.307.847 1.081.847 1.657.847 2.178 1.27 4.118 1.27 4.975 1.694 7.641 2.54 12.713 3.388 16.946 1.694 7.467 1.27 4.795 1.27 3.895.847 2.004.847 1.464.847.87.424.194 1.693.067 12.28.13 9.739.18 5.505.395 10.162.785 4.234.063 4.235-.174 6.351-.508 8.045-.616 8.469-.3 11.433-.25 5.504.062 4.235.316 12.28 1.069 3.81.013 5.505-.209 5.504-.445 5.505-.68 2.54-.39.424-.194.423-.483.424-.767.847-2.365.847-3.433.846-4.453.847-5.427 1.27-9.863 1.27-11.787 1.695-18.434 1.693-21.195 2.118-29.8 2.54-39.637 2.964-49.975 2.964-52.067h0" clip-path="url(#p409d549192)" style="fill:none;stroke:#807fff;stroke-opacity:.5;stroke-linecap:square"/><path id="line2d_67" d="m19.882 267.38 6.775 1.966 4.234 1.02 3.811.69 3.387.377 2.964.111 10.163-.11 11.433-.349 3.387-.288 3.387-.521 3.388-.74 3.81-1.077 3.812-1.313 3.387-1.394.847-.615 1.27-1.316 1.27-1.725 1.694-2.815 2.118-4.11 7.198-14.64 1.694-2.643 1.27-1.56 1.27-1.122.847-.47.847-.22.847.06.847.39.847.694.846.97 1.27 1.912 1.271 2.376 1.694 3.727 2.54 6.33 3.811 9.662 1.694 3.78 1.27 2.433 1.27 1.982.847 1.023.847.753.847.454.847.136 10.586.234 26.676.258 27.947.084 5.08-.25 12.704-.772 4.658.036 7.198.321 8.892.365 7.622.003 15.244-.144.423-.132.423-.429.424-.719.847-2.286.847-3.377.846-4.42.847-5.412 1.27-9.876 1.27-11.84 1.695-18.557 1.693-21.369 2.118-30.075 2.54-40.024 2.964-50.467 2.964-52.55h0" clip-path="url(#p409d549192)" style="fill:none;stroke:#807fff;stroke-opacity:.5;stroke-linecap:square"/><path id="line2d_68" d="m19.882 264.738 6.351 2.786 3.811 1.44 3.388 1.031 2.964.648 2.54.327 2.54.087 12.704-.122 8.892-.244 1.694-.258 2.117-.58 2.117-.837 2.117-1.061 2.54-1.524 2.965-2.053 3.81-2.936 3.388-2.792 1.27-1.448 1.27-1.836 1.695-2.937 2.117-4.242 7.621-16.022 1.694-2.764 1.27-1.672 1.27-1.255.848-.574.847-.34.846-.085.847.282.847.68.847 1.041.847 1.368 1.27 2.589 1.27 3.126 1.694 4.8 2.54 7.984 3.388 10.637 1.694 4.683 1.27 3.004 1.27 2.437.847 1.25.847.912.847.536.847.136 26.253.159 17.36.698 10.586-.155 11.857-.382 5.928-.495 8.468-.706 4.235-.112 3.81.146 5.082.45 8.468.772 3.811.106 7.199-.124 7.198-.346 6.352-.489.423-.163.423-.456.424-.743.847-2.326.847-3.405.846-4.436.847-5.42 1.27-9.868 1.27-11.81 1.695-18.493 1.693-21.278 2.118-29.932 2.54-39.823 2.964-50.21 2.964-52.299h0" clip-path="url(#p409d549192)" style="fill:none;stroke:#807fff;stroke-opacity:.5;stroke-linecap:square"/><path id="line2d_69" d="m19.882 266.047 7.198 1.888 5.081 1.106 4.235.695 3.81.396 7.199.383 9.315.317 6.352.032 2.117-.231 2.117-.458 2.54-.814 2.542-1.065 2.964-1.504 3.387-1.986 4.658-3.023.847-.7 1.27-1.42 1.27-1.805 1.694-2.889 2.117-4.167 7.198-14.807 1.694-2.735 1.27-1.658 1.27-1.247.848-.57.847-.339.846-.085.847.256.847.615.847.943.847 1.239 1.27 2.345 1.27 2.833 1.694 4.355 2.54 7.253 3.388 9.691 1.694 4.286 1.27 2.763 1.27 2.256.847 1.17.847.867.847.532.847.173 7.622.362 10.162.247 21.595.248 13.127-.063 11.856-.244 2.54-.264 3.388-.591 10.586-2.079 2.54-.204 2.118.012 2.54.25 2.964.53 5.081 1.197 4.235.919 2.964.41 2.54.103 10.163-.123 10.162-.35.424-.02.423-.146.423-.44.424-.73.847-2.307.847-3.393.846-4.431.847-5.422 1.27-9.885 1.27-11.843 1.695-18.553 1.693-21.357 2.118-30.052 2.54-39.989 2.964-50.42 2.964-52.51h0" clip-path="url(#p409d549192)" style="fill:none;stroke:#f0f;stroke-opacity:.5;stroke-linecap:square"/><path id="line2d_70" d="m19.882 265.965 7.198 2.15 4.658 1.156 3.81.71 3.388.4 3.388.158 13.126.273 8.045-.006 2.118-.242 2.54-.547 2.54-.798 2.541-1.02 2.964-1.425 3.388-1.884 3.81-2.358.848-.712.846-.965 1.27-1.868 1.271-2.3 1.694-3.599 2.117-5.08 5.505-13.647 1.693-3.574 1.27-2.276 1.271-1.838.847-.942.847-.687.847-.409.846-.104.847.29.847.697.847 1.068.847 1.404 1.27 2.655 1.27 3.208 1.694 4.927 2.54 8.202 3.388 10.942 1.694 4.828 1.27 3.104 1.27 2.527.847 1.303.847.958.847.575.847.167 11.01.275 13.973.109 28.37-.02 11.856-.195 3.387-.34 5.081-.776 5.928-.868 3.388-.265 2.964.01 2.964.247 4.234.612 8.046 1.239 2.964.23 3.81.02 9.316-.173 9.316-.396.423-.149.423-.443.424-.733.847-2.309.847-3.395.846-4.431.847-5.421 1.27-9.88 1.27-11.836 1.695-18.54 1.693-21.339 2.118-30.026 2.54-39.953 2.964-50.376 2.964-52.464h0" clip-path="url(#p409d549192)" style="fill:none;stroke:#f0f;stroke-opacity:.5;stroke-linecap:square"/><path id="line2d_71" d="m19.882 267.076 8.045 1.829 5.081.92 4.235.538 3.81.252 13.127.334 8.892.045 2.117-.183 2.54-.456 2.541-.687 2.964-1.053 3.388-1.482 3.81-1.937 3.388-1.93.847-.727 1.27-1.455 1.27-1.834 1.694-2.914 2.118-4.176 6.351-13.068 1.694-2.862 1.27-1.781 1.27-1.395.847-.68.847-.46.847-.216.847.069.847.421.847.751.846 1.05 1.27 2.07 1.271 2.572 1.694 4.033 2.54 6.848 3.811 10.449 1.694 4.086 1.27 2.626 1.27 2.137.847 1.102.847.809.847.484.847.139 11.856.195 35.145.238 11.856-.222 6.352-.263 2.964-.42 3.81-.787 7.199-1.529 2.964-.378 2.54-.094 2.118.128 2.54.369 3.388.733 8.045 1.878 2.54.349 2.541.107 13.974-.119 6.775-.138.423-.137.423-.432.424-.722.847-2.293.847-3.383.846-4.424.847-5.418 1.27-9.881 1.27-11.844 1.695-18.561 1.693-21.372 2.118-30.077 2.54-40.026 2.964-50.468 2.964-52.553h0" clip-path="url(#p409d549192)" style="fill:none;stroke:#f0f;stroke-opacity:.5;stroke-linecap:square"/><path id="line2d_72" d="m19.882 265.77 7.622 1.817 5.504 1.089 4.658.709 4.658.473 10.162.768 6.352.271 4.657-.004 2.118-.243 2.54-.548 2.54-.795 2.965-1.197 2.964-1.435 3.81-2.112 3.388-2.09.847-.77 1.27-1.528 1.27-1.911 1.694-3.026 2.118-4.32 6.351-13.472 1.694-2.945 1.27-1.832 1.27-1.434.847-.7.847-.47.847-.223.847.07.847.438.847.778.846 1.09 1.27 2.146 1.271 2.667 1.694 4.184 2.117 5.884 4.658 13.2 1.693 4.1 1.27 2.584 1.271 2.043.847 1.01.847.692.847.341 2.964.157 9.315.286 15.244.202 18.63.077 14.398-.182 6.774-.237 5.505-.507 8.045-.74 3.811-.127 3.388.104 4.234.359 11.01 1.07 3.81.066 9.74-.14 9.738-.36.424-.02.423-.146.423-.442.424-.73.847-2.306.847-3.392.846-4.429.847-5.419 1.27-9.878 1.27-11.833 1.695-18.538 1.693-21.34 2.118-30.026 2.54-39.955 2.964-50.378 2.964-52.465h0" clip-path="url(#p409d549192)" style="fill:none;stroke:#f0f;stroke-opacity:.5;stroke-linecap:square"/><path id="line2d_73" d="m19.882 263.571 6.775 2.188 5.08 1.408 4.235.958 3.811.655 6.352.776 7.198.714 5.505.322 4.234.03 1.694-.201 2.117-.502 2.117-.75 2.117-.97 2.54-1.413 2.965-1.924 3.81-2.786 3.388-2.688.847-.928 1.27-1.776 1.27-2.174 1.694-3.388 2.118-4.78 5.928-13.833 1.693-3.324 1.27-2.111 1.271-1.702.847-.87.847-.635.847-.377.846-.095.847.297.847.714.847 1.095.847 1.438 1.27 2.721 1.27 3.288 1.694 5.05 2.54 8.406 3.388 11.215 1.694 4.948 1.27 3.182 1.27 2.59.847 1.336.847.981.847.59.847.171 11.433.303 11.432.08 33.875-.125 8.892-.202 3.388-.397 5.504-.933 5.081-.795 2.965-.269 2.54-.04 2.964.204 3.388.474 11.432 1.827 2.54.11 10.163-.104 10.586-.332.424-.018.423-.144.423-.44.424-.728.847-2.303.847-3.39.846-4.429.847-5.419 1.27-9.88 1.27-11.839 1.695-18.547 1.693-21.351 2.118-30.045 2.54-39.98 2.964-50.409 2.964-52.496h0" clip-path="url(#p409d549192)" style="fill:none;stroke:#f0f;stroke-opacity:.5;stroke-linecap:square"/><path id="line2d_74" d="m19.882 266.575 7.622 2.19 4.234.999 3.81.66 2.965.31 2.964.097 22.018.002 2.118-.231 2.54-.52 2.54-.756 2.965-1.137 3.387-1.574 3.811-2.034 2.964-1.75.847-.735 1.27-1.457 1.27-1.824 1.694-2.888 2.118-4.125 6.351-12.867 1.694-2.813 1.27-1.75 1.27-1.37.847-.668.847-.45.847-.213.847.068.847.421.847.75.846 1.05 1.27 2.067 1.271 2.57 1.694 4.03 2.54 6.846 3.811 10.452 1.694 4.093 1.27 2.633 1.27 2.147.847 1.11.847.817.847.495.847.15 11.01.332 10.585.098 41.92-.108 3.81-.178 5.082-.493 8.045-.803 3.811-.141 3.388.104 4.234.362 11.01 1.076 3.81.065 8.892-.145 8.892-.375 2.118-.123.423-.151.423-.446.424-.734.847-2.313.847-3.397.846-4.434.847-5.422 1.27-9.88 1.27-11.834 1.695-18.536 1.693-21.333 2.118-30.017 2.54-39.939 2.964-50.359 2.964-52.446h0" clip-path="url(#p409d549192)" style="fill:none;stroke:#f0f;stroke-opacity:.5;stroke-linecap:square"/><path id="line2d_75" d="m19.882 266.523 6.775 2.275 4.234 1.186 3.388.73 2.964.434 2.964.202 5.08-.006 11.433-.203 7.199-.307 2.117-.352 2.54-.664 2.541-.897 2.964-1.297 3.388-1.744 4.234-2.458 2.54-1.674 1.27-1.259 1.271-1.577 1.694-2.502 2.117-3.584 6.775-11.988 1.694-2.434 1.27-1.511 1.27-1.18 1.27-.795.848-.287.846-.072.847.224.847.538.847.826.847 1.084 1.27 2.053 1.27 2.48 1.694 3.812 2.54 6.348 3.388 8.481 1.694 3.75 1.27 2.418 1.27 1.973.847 1.024.847.758.847.464.847.15 8.045.309 15.244.295 18.63.254 7.2-.113 8.468-.374 7.198-.49 2.964-.496 3.811-.906 7.199-1.772 2.964-.463 2.54-.15 2.117.12 2.118.352 2.54.647 4.234 1.368 4.235 1.331 2.54.59 2.118.286 2.117.054 9.739-.131 9.739-.356.847-.042.423-.147.423-.441.424-.732.847-2.308.847-3.394.846-4.433.847-5.423 1.27-9.885 1.27-11.842 1.695-18.551 1.693-21.355 2.118-30.047 2.54-39.983 2.964-50.413 2.964-52.501h0" clip-path="url(#p409d549192)" style="fill:none;stroke:#f0f;stroke-opacity:.5;stroke-linecap:square"/><path id="line2d_76" d="m19.882 267.051 7.198 2.209 4.235 1.067 3.387.647 2.964.37 2.964.154 9.316-.057 12.703-.279 2.54-.235 2.54-.452 2.965-.776 2.964-1.014 3.387-1.41 3.811-1.849 2.964-1.635.847-.722 1.27-1.464 1.27-1.858 1.694-2.972 2.118-4.275 6.774-14.222 1.694-2.82 1.27-1.713 1.27-1.29.848-.59.847-.352.846-.089.847.248.847.594.847.912.847 1.197 1.27 2.266 1.27 2.738 1.694 4.206 2.54 7 3.388 9.342 1.694 4.122 1.27 2.651 1.27 2.16.847 1.114.847.82.847.493.847.144 11.856.278 13.55.078 26.253-.067 12.703-.312 3.387-.317 4.658-.699 7.198-1.085 3.388-.266 2.54-.003 2.965.251 3.387.526 10.162 1.767 2.964.194 7.199-.034 11.433-.243 2.964-.1.423-.141.423-.437.424-.727.847-2.3.847-3.389.846-4.43.847-5.42 1.27-9.887 1.27-11.846 1.695-18.562 1.693-21.37 2.118-30.072 2.54-40.017 2.964-50.457 2.964-52.544h0" clip-path="url(#p409d549192)" style="fill:none;stroke:#f0f;stroke-opacity:.5;stroke-linecap:square"/><path id="line2d_77" d="m19.882 267.674 8.892 1.391 6.351.775 5.505.45 12.28.602 8.045.18 3.387-.093 2.54-.335 2.541-.548 2.965-.87 3.387-1.243 4.234-1.827 3.811-1.832 1.27-.927 1.27-1.228 1.695-2.018 2.117-2.976 3.387-5.272 2.964-4.499 2.117-2.785 1.694-1.799 1.27-1.022 1.27-.688.848-.249.846-.063.847.19.847.456.847.698 1.27 1.452 1.27 1.866 1.694 2.995 2.118 4.298 5.504 11.53 1.694 2.921 1.27 1.793 1.27 1.363.847.63.847.382.847.115 12.703.264 13.55.047 38.109-.13 5.081-.231 13.973-.815 4.235.065 5.504.336 9.74.633 4.657.044 16.514-.139 2.54-.04.424-.134.423-.43.424-.72.847-2.29.847-3.38.846-4.424.847-5.418 1.27-9.884 1.27-11.849 1.695-18.57 1.693-21.385 2.118-30.097 2.54-40.052 2.964-50.501 2.964-52.587h0" clip-path="url(#p409d549192)" style="fill:none;stroke:#f0f;stroke-opacity:.5;stroke-linecap:square"/><path id="line2d_78" d="m19.882 266.528 6.775 2.26 4.234 1.178 3.388.725 2.964.43 2.964.201 5.08-.007 11.433-.206 7.199-.304 2.54-.422 2.541-.668 2.54-.881 2.965-1.258 3.387-1.68 4.234-2.357 2.118-1.352 1.27-1.21 1.27-1.524 1.694-2.42 2.117-3.475 7.198-12.27 1.694-2.26 1.27-1.368 1.27-1.028.848-.47.847-.28.846-.07.847.216.847.52.847.796.847 1.047 1.27 1.98 1.27 2.395 1.694 3.68 2.54 6.128 3.388 8.192 1.694 3.624 1.27 2.336 1.27 1.91.847.991.847.735.847.452.847.15 8.045.338 11.856.245 22.442.253 7.622-.12 9.316-.384 5.928-.404 2.964-.51 4.234-1.016 5.928-1.443 2.964-.493 2.54-.192 2.118.067 2.117.297 2.54.586 3.812 1.153 5.08 1.548 2.541.565 2.118.273 2.117.052 10.162-.131 10.163-.359.423-.145.423-.44.424-.731.847-2.306.847-3.393.846-4.432.847-5.422 1.27-9.885 1.27-11.843 1.695-18.554 1.693-21.358 2.118-30.054 2.54-39.99 2.964-50.424 2.964-52.512h0" clip-path="url(#p409d549192)" style="fill:none;stroke:#f0f;stroke-opacity:.5;stroke-linecap:square"/><path id="line2d_79" d="m19.882 265.956 8.045 1.587 6.352 1.039 5.504.69 10.586.98 6.775.435 5.081.113 1.694-.11 1.694-.3 2.117-.62 2.117-.862 2.54-1.31 2.541-1.556 3.388-2.367 4.657-3.578 1.27-1.14 1.27-1.587 1.271-1.978 1.694-3.13 2.117-4.472 6.775-14.92 1.694-3.024 1.27-1.877 1.27-1.467.847-.714.847-.481.847-.227.847.08.847.49.847.87.846 1.219 1.27 2.4 1.271 2.985 1.694 4.68 2.117 6.582 4.658 14.763 1.693 4.586 1.27 2.887 1.271 2.284.847 1.128.847.771.847.38 2.54.15 9.316.345 9.315.12 33.875-.105 11.01-.245 4.234-.402 11.856-1.327 3.387-.07 2.964.16 4.234.483 9.74 1.252 3.387.146 10.586-.105 10.586-.32.423-.143.423-.438.424-.727.847-2.302.847-3.39.846-4.429.847-5.42 1.27-9.882 1.27-11.84 1.695-18.553 1.693-21.357 2.118-30.054 2.54-39.993 2.964-50.426 2.964-52.513h0" clip-path="url(#p409d549192)" style="fill:none;stroke:#f0f;stroke-opacity:.5;stroke-linecap:square"/><path id="line2d_80" d="m19.882 267.933 8.468 1.554 5.505.786 4.658.442 4.658.205 12.703.313 7.621.013 2.541-.221 2.964-.501 2.964-.73 3.388-1.065 3.81-1.433 4.235-1.792 1.27-.78 1.27-1.123 1.27-1.414 1.694-2.247 2.118-3.218 6.774-10.654 1.694-2.107 1.27-1.279 1.27-.963.848-.44.847-.263.846-.066.847.189.847.453.847.696 1.27 1.444 1.27 1.858 1.694 2.982 2.118 4.276 5.504 11.474 1.694 2.906 1.27 1.782 1.27 1.354.847.626.847.378.847.112 12.703.23 18.631.08 21.172-.07 14.82-.315 17.784-.686 4.658.164 16.937.864 12.28-.132 7.622-.194.423-.139.423-.435.424-.725.847-2.297.847-3.387.846-4.427.847-5.42 1.27-9.886 1.27-11.846 1.695-18.564 1.693-21.372 2.118-30.078 2.54-40.025 2.964-50.467 2.964-52.553h0" clip-path="url(#p409d549192)" style="fill:none;stroke:#f0f;stroke-opacity:.5;stroke-linecap:square"/><path id="line2d_81" d="m19.882 267.601 8.045 1.88 4.658.866 3.81.494 3.388.227 5.505.048 18.63-.01 2.541-.26 2.964-.541 2.965-.763 3.387-1.094 4.234-1.617 3.811-1.634 1.27-.847 1.27-1.134 1.695-1.878 2.117-2.78 3.387-4.947 2.964-4.23 2.117-2.623 1.694-1.695 1.27-.964 1.27-.649.848-.235.846-.06.847.176.847.42.847.645 1.27 1.34 1.27 1.721 1.694 2.765 2.118 3.965 5.504 10.64 1.694 2.695 1.27 1.653 1.27 1.258.847.582.847.351.847.106 12.703.23 19.055.087 28.37-.053 6.351-.143 4.658-.41 10.162-.985 3.388-.087 3.387.127 4.658.42 9.739.947 3.81.088 9.316-.13 9.316-.352 1.694-.088.423-.148.423-.443.424-.733.847-2.309.847-3.395.846-4.432.847-5.421 1.27-9.881 1.27-11.837 1.695-18.541 1.693-21.342 2.118-30.03 2.54-39.958 2.964-50.383 2.964-52.47h0" clip-path="url(#p409d549192)" style="fill:none;stroke:#f0f;stroke-opacity:.5;stroke-linecap:square"/><path id="line2d_82" d="m19.882 265.96 7.198 1.921 5.081 1.126 4.235.706 3.81.402 7.199.385 9.315.317 6.352.035 2.117-.213 2.117-.423 2.54-.76 2.542-1.006 2.964-1.442 3.387-1.939 3.81-2.465 1.271-.928.847-.913.847-1.18 1.27-2.214 1.27-2.665 1.694-4.098 2.54-6.88 4.235-11.636 1.694-4.089 1.27-2.656 1.27-2.203 1.27-1.66.848-.76.847-.451.846-.115.424.1.847.547.847.973.846 1.361.847 1.709 1.27 3.129 1.694 5.021 2.118 7.198 5.504 19.268 1.694 4.859 1.27 2.968.847 1.584.847 1.22.847.819.847.376 2.54.023 25.406.12 15.667.368 11.433-.137 9.739-.292 2.54-.319 2.965-.601 11.432-2.6 2.54-.197 2.118.058 2.54.338 2.965.659 5.928 1.654 3.387.815 2.54.396 2.118.121 11.856-.108 9.316-.239.423-.14.423-.435.424-.726.847-2.298.847-3.386.846-4.427.847-5.42 1.27-9.882 1.27-11.844 1.695-18.558 1.693-21.366 2.118-30.067 2.54-40.012 2.964-50.45 2.964-52.536h0" clip-path="url(#p409d549192)" style="fill:none;stroke:#f0f;stroke-opacity:.5;stroke-linecap:square"/><path id="line2d_83" d="m19.882 264.176 5.928 2.761 3.81 1.544 2.965.993 2.964.755 2.54.42 2.541.175 7.198-.052 10.163-.275 5.504-.303 1.694-.348 1.694-.54 2.117-.928 2.117-1.18 2.54-1.715 2.541-1.995 2.964-2.62 3.388-3.291 1.27-1.365.847-1.268 1.27-2.5 1.27-3.12 1.694-4.93 2.118-7.027 6.351-21.877 1.694-4.778 1.27-2.972 1.27-2.325.847-1.135.847-.764.847-.36.423-.016.424.132.423.286.847 1.004.847 1.539.847 2.022 1.27 3.826 1.27 4.622 1.694 7.1 2.54 11.82 3.388 15.767 1.694 6.957 1.27 4.473 1.27 3.641.847 1.88.847 1.38.847.828.424.192 1.693.11 8.046.245 19.478.503 11.009.32 6.775-.032 8.045-.268 9.739-.545 2.964-.393 4.234-.83 7.199-1.47 2.964-.383 2.54-.124 2.117.098 2.541.36 2.964.656 9.739 2.395 2.54.297 2.541.043 10.586-.132 9.316-.292.423-.143.423-.438.424-.728.847-2.3.847-3.389.846-4.427.847-5.418 1.27-9.878 1.27-11.836 1.695-18.545 1.693-21.349 2.118-30.042 2.54-39.976 2.964-50.406 2.964-52.492h0" clip-path="url(#p409d549192)" style="fill:none;stroke:#f0f;stroke-opacity:.5;stroke-linecap:square"/><path id="line2d_84" d="m19.882 268.274 8.892 1.346 5.928.687 5.081.379 8.469.312 11.01.227 5.08-.053 2.964-.285 3.388-.573 3.387-.805 3.811-1.138 4.234-1.495 1.694-.69.847-.556 1.27-1.172 1.27-1.523 1.694-2.472 2.118-3.597 7.198-12.76 1.694-2.298 1.27-1.356 1.27-.975.847-.408.847-.192.847.055.847.347.847.619.846.864 1.27 1.704 1.271 2.117 1.694 3.32 2.54 5.637 3.811 8.597 1.694 3.36 1.27 2.159 1.27 1.755.847.904.847.662.847.395.847.11 15.244.138 37.685.107 12.28-.263 3.81-.362 8.046-1.097 4.234-.429 3.388-.11 2.964.143 3.81.44 11.433 1.551 2.964.094 11.01-.115 9.739-.282.423-.142.423-.437.424-.727.847-2.3.847-3.389.846-4.428.847-5.42 1.27-9.882 1.27-11.842 1.695-18.554 1.693-21.36 2.118-30.06 2.54-40 2.964-50.435 2.964-52.521h0" clip-path="url(#p409d549192)" style="fill:none;stroke:#f0f;stroke-opacity:.5;stroke-linecap:square"/><path id="line2d_85" d="m19.882 267.108 8.045 1.834 5.081.924 4.235.54 3.81.256 13.127.344 9.315.034 2.541-.224 2.964-.51 2.964-.75 3.388-1.112 3.81-1.517 4.235-1.941.847-.56.846-.784 1.27-1.552 1.271-1.94 1.694-3.066 2.117-4.362 5.928-12.627 1.694-2.986 1.27-1.862 1.27-1.458.847-.713.847-.481.847-.227.847.066.847.416.847.74.846 1.036 1.27 2.04 1.271 2.535 1.694 3.975 2.54 6.75 3.811 10.298 1.694 4.026 1.27 2.588 1.27 2.105.847 1.085.847.795.847.477.847.134 12.703.192 32.181.17 16.09-.16 5.505-.18 5.081-.466 9.316-.903 3.81-.109 3.388.139 4.658.454 9.315 1.001 3.388.123 11.01-.107 10.162-.291.423-.142.423-.437.424-.727.847-2.3.847-3.39.846-4.427.847-5.42 1.27-9.883 1.27-11.841 1.695-18.555 1.693-21.36 2.118-30.06 2.54-39.999 2.964-50.435 2.964-52.521h0" clip-path="url(#p409d549192)" style="fill:none;stroke:#f0f;stroke-opacity:.5;stroke-linecap:square"/><path id="line2d_86" d="m19.882 266.807 7.622 1.948 4.657.973 3.811.59 3.388.323 4.234.148 13.126.238 7.199-.048 2.117-.265 2.54-.551 2.541-.773 2.964-1.14 3.388-1.55 4.234-2.197 2.117-1.198 1.27-1.064 1.27-1.41 1.695-2.317 2.117-3.417 3.387-6.056 2.964-5.167 1.694-2.607 1.694-2.19 1.27-1.29 1.27-.925.847-.386.847-.181.847.06.847.37.847.66.846.922 1.27 1.817 1.271 2.259 1.694 3.543 2.54 6.02 4.235 10.14 1.693 3.471 1.27 2.187 1.271 1.73.847.854.847.585.847.288 3.387.145 10.586.249 19.478.178 16.514-.017 13.55-.263 2.964-.195 3.387-.47 12.703-2.04 2.54-.078 2.541.15 2.964.415 4.235.849 5.928 1.181 2.964.365 2.54.091 11.01-.12 9.739-.294.423-.142.423-.438.424-.728.847-2.302.847-3.39.846-4.43.847-5.42 1.27-9.886 1.27-11.844 1.695-18.558 1.693-21.365 2.118-30.064 2.54-40.006 2.964-50.444 2.964-52.53h0" clip-path="url(#p409d549192)" style="fill:none;stroke:#f0f;stroke-opacity:.5;stroke-linecap:square"/><path id="line2d_87" d="m19.882 265.484 7.198 2.418 4.235 1.19 3.387.739 2.964.445 2.964.219 11.01.172 11.432.03 2.117-.26 2.117-.512 2.117-.739 2.541-1.147 2.54-1.388 2.965-1.862 3.81-2.665 2.541-1.92.847-.889 1.27-1.715 1.27-2.11 1.694-3.3 2.118-4.672 6.351-14.426 1.694-3.135 1.27-1.95 1.27-1.522.847-.743.847-.5.847-.236.847.08.847.491.847.875.846 1.224 1.27 2.411 1.271 2.997 1.694 4.7 2.117 6.608 4.658 14.817 1.693 4.599 1.27 2.894 1.271 2.287.847 1.127.847.77.847.375 2.54.131 10.163.31 10.162.09 42.767-.065 3.81-.297 6.352-.785 5.081-.547 3.388-.162 3.387.08 4.235.357 11.856 1.188 3.81.046 9.316-.149 9.316-.368.847-.045.423-.148.423-.443.424-.732.847-2.308.847-3.393.846-4.431.847-5.42 1.27-9.878 1.27-11.832 1.695-18.536 1.693-21.336 2.118-30.02 2.54-39.946 2.964-50.368 2.964-52.454h0" clip-path="url(#p409d549192)" style="fill:none;stroke:#f0f;stroke-opacity:.5;stroke-linecap:square"/><path id="line2d_88" d="m19.882 267.228 8.045 1.798 5.081.905 4.235.529 3.81.248 13.127.33 9.315.028 2.541-.249 2.54-.464 2.965-.78 3.387-1.152 3.811-1.555 4.658-2.149 1.27-.83 1.27-1.174 1.27-1.465 1.694-2.315 2.118-3.3 6.351-10.274 1.694-2.244 1.27-1.396 1.27-1.092 1.27-.735.848-.266.846-.067.847.197.847.473.847.725 1.27 1.508 1.27 1.937 1.694 3.11 2.118 4.462 5.504 11.97 1.694 3.03 1.27 1.86 1.27 1.412.847.654.847.394.847.116 11.856.22 24.56.164 17.36-.058 11.01-.22 2.54-.308 3.387-.655 9.74-2.082 2.54-.257 2.117-.028 2.54.215 2.965.511 4.234.995 5.081 1.174 2.964.457 2.54.147 11.434-.11 9.739-.268.423-.14.423-.437.424-.727.847-2.3.847-3.387.846-4.427.847-5.42 1.27-9.882 1.27-11.841 1.695-18.555 1.693-21.362 2.118-30.06 2.54-40.003 2.964-50.438 2.964-52.525h0" clip-path="url(#p409d549192)" style="fill:none;stroke:#f0f;stroke-opacity:.5;stroke-linecap:square"/><path id="line2d_89" d="m19.882 267.17 6.775 2.06 4.234 1.072 3.811.727 3.387.398 2.964.117 11.01-.113 11.009-.323 2.964-.306 2.964-.534 3.388-.861 3.387-1.094 3.81-1.464 3.812-1.664.847-.502 1.27-1.07 1.27-1.4 1.694-2.286 2.117-3.343 7.622-12.676 1.694-2.136 1.27-1.26 1.27-.903.847-.377.847-.178.847.055.847.34.847.606.846.848 1.27 1.671 1.271 2.077 1.694 3.259 2.54 5.539 4.235 9.337 1.693 3.202 1.27 2.02 1.271 1.6.847.794.847.547.847.275 3.387.175 9.74.315 9.738.086 32.18-.108 11.434-.275 4.657-.41 10.586-1.011 3.811-.08 3.388.176 4.657.502 8.469.978 3.387.16 8.893-.045 12.703-.247.423-.138.423-.433.424-.724.847-2.296.847-3.385.846-4.427.847-5.42 1.27-9.884 1.27-11.847 1.695-18.565 1.693-21.375 2.118-30.081 2.54-40.03 2.964-50.475 2.964-52.56h0" clip-path="url(#p409d549192)" style="fill:none;stroke:#f0f;stroke-opacity:.5;stroke-linecap:square"/><path id="line2d_90" d="m19.882 267.44 8.045 1.623 5.505.881 4.657.509 4.235.228 12.28.358 8.468.054 2.54-.23 2.541-.472 2.54-.683 2.965-1.025 3.387-1.413 4.235-2.029 2.54-1.339 1.27-1.015 1.27-1.355 1.695-2.24 2.117-3.313 3.387-5.888 2.964-5.032 1.694-2.543 1.694-2.136 1.27-1.259 1.27-.902.847-.376.847-.178.847.058.847.358.847.636.846.89 1.27 1.755 1.271 2.18 1.694 3.42 2.54 5.81 4.235 9.78 1.693 3.346 1.27 2.106 1.271 1.663.847.82.847.559.847.272 3.387.115 12.28.21 26.252.157 11.857-.106 11.856-.316 3.81-.353 13.55-1.498 2.965-.017 2.964.201 4.234.547 8.892 1.254 2.964.185 5.081.001 13.127-.182 3.81-.095.424-.138.423-.433.424-.724.847-2.295.847-3.385.846-4.426.847-5.418 1.27-9.884 1.27-11.846 1.695-18.564 1.693-21.373 2.118-30.08 2.54-40.027 2.964-50.471 2.964-52.557h0" clip-path="url(#p409d549192)" style="fill:none;stroke:#f0f;stroke-opacity:.5;stroke-linecap:square"/><path id="line2d_91" d="m19.882 268.399 8.892 1.573 5.081.677 4.234.352 4.235.11 20.325.093 2.117-.149 2.54-.422 2.54-.652 2.965-1 3.387-1.387 4.658-2.174 3.388-1.735 1.27-.947 1.694-1.594 2.117-2.395 2.964-3.784 3.81-4.881 2.118-2.367 1.694-1.562 1.27-.917 1.27-.656 1.27-.357.847-.05.847.167.847.404.847.619 1.27 1.286 1.27 1.654 1.694 2.656 2.118 3.81 5.504 10.231 1.694 2.596 1.27 1.596 1.27 1.215.847.565.847.345.847.109 11.856.3 11.856.072 35.992-.119 6.352-.157 4.234-.398 11.433-1.234 3.387-.068 3.388.188 4.234.482 9.315 1.14 3.388.14 12.703-.108 8.469-.195.423-.138.423-.434.424-.724.847-2.297.847-3.386.846-4.427.847-5.42 1.27-9.887 1.27-11.848 1.695-18.568 1.693-21.377 2.118-30.085 2.54-40.035 2.964-50.479 2.964-52.566h0" clip-path="url(#p409d549192)" style="fill:none;stroke:#f0f;stroke-opacity:.5;stroke-linecap:square"/><path id="line2d_92" d="m19.882 266.546 7.622 1.674 5.504.984 4.658.6 4.234.311 11.433.504 8.045.143 2.54-.083 2.118-.313 2.117-.523 2.54-.875 2.541-1.109 2.964-1.54 3.388-2.01 3.81-2.478.848-.714 1.27-1.477 1.27-1.901 1.694-3.07 2.117-4.455 7.198-15.944 1.694-2.956 1.27-1.793 1.27-1.35.848-.617.847-.367.846-.092.847.272.847.654.847 1.003.847 1.318 1.27 2.493 1.27 3.012 1.694 4.627 2.54 7.703 3.388 10.279 1.694 4.537 1.27 2.918 1.27 2.377.847 1.227.847.903.847.544.847.16 9.316.24 33.027.438 11.856-.12 10.586-.3 2.964-.343 4.235-.76 7.198-1.35 2.964-.335 2.54-.083 2.541.154 2.964.426 4.235.87 5.928 1.213 2.964.374 2.54.094 10.163-.124 10.162-.355.424-.02.423-.145.423-.44.424-.73.847-2.306.847-3.391.846-4.43.847-5.42 1.27-9.88 1.27-11.835 1.695-18.543 1.693-21.345 2.118-30.036 2.54-39.966 2.964-50.394 2.964-52.48h0" clip-path="url(#p409d549192)" style="fill:none;stroke:#f0f;stroke-opacity:.5;stroke-linecap:square"/><path id="line2d_93" d="m19.882 266.379 7.622 2.124 4.657 1.058 3.811.638 3.388.342 3.81.133 13.55.228 6.775-.025 2.118-.256 2.117-.46 2.54-.798 2.54-1.03 2.965-1.455 3.387-1.928 4.235-2.693.847-.722.846-.964 1.27-1.848 1.271-2.263 1.694-3.525 2.117-4.96 5.505-13.278 1.693-3.47 1.27-2.208 1.271-1.783.847-.914.847-.666.847-.396.846-.1.847.284.847.686.847 1.052.847 1.381 1.27 2.614 1.27 3.159 1.694 4.851 2.54 8.078 3.388 10.78 1.694 4.76 1.27 3.061 1.27 2.495.847 1.289.847.949.847.572.847.172 10.586.344 10.162.113 38.11-.103 7.198-.186 3.81-.392 12.28-1.463 2.964-.052 2.964.162 3.811.433 10.586 1.365 2.964.116 9.315-.105 9.74-.337 2.117-.104.423-.148.423-.442.424-.732.847-2.308.847-3.393.846-4.432.847-5.42 1.27-9.882 1.27-11.836L261.24 214l1.693-21.344 2.118-30.032 2.54-39.962 2.964-50.387 2.964-52.474h0" clip-path="url(#p409d549192)" style="fill:none;stroke:#f0f;stroke-opacity:.5;stroke-linecap:square"/><path id="line2d_94" d="m19.882 266.738 6.775 2.168 4.234 1.128 3.388.696 2.964.412 2.964.192 5.504-.011 11.433-.211 7.198-.3 2.964-.405 2.964-.632 2.964-.845 3.388-1.207 3.387-1.441 3.388-1.658.847-.637.846-.936.847-1.208 1.27-2.26 1.271-2.714 1.694-4.161 2.54-6.953 3.811-10.536 1.694-4.15 1.27-2.7 1.27-2.245 1.27-1.694.848-.776.847-.462.846-.118.847.3.847.72.847 1.102.847 1.45 1.27 2.74 1.27 3.312 1.694 5.085 2.54 8.46 3.388 11.274 1.694 4.966 1.27 3.187 1.27 2.587.847 1.33.847.97.847.574.847.15 35.992.445 8.469.07 13.126-.169 9.315-.276 6.775-.524 7.199-.502 4.234-.077 3.811.155 5.928.5 7.198.581 3.811.096 15.244-.116 5.505-.095.423-.135.423-.43.424-.722.847-2.29.847-3.38.846-4.422.847-5.415 1.27-9.88 1.27-11.842 1.695-18.56 1.693-21.37 2.118-30.077 2.54-40.026 2.964-50.468 2.964-52.552h0" clip-path="url(#p409d549192)" style="fill:none;stroke:#f0f;stroke-opacity:.5;stroke-linecap:square"/><path id="line2d_95" d="m19.882 265.208 7.198 2.588 4.235 1.272 3.387.783 2.964.46 2.54.194 5.505.058 17.361.035 2.117-.25 2.117-.498 2.117-.723 2.541-1.134 2.54-1.389 2.965-1.891 3.387-2.446 2.964-2.385.847-1.046.847-1.344 1.27-2.51 1.27-3.012 1.694-4.624 2.54-7.75 4.235-13.086 1.694-4.595 1.27-2.984 1.27-2.474.847-1.316.847-1.016.847-.683.847-.323.423-.015.424.115.847.62.847 1.103.846 1.543.847 1.938 1.27 3.549 1.27 4.184 1.695 6.309L116 246.236l2.54 9.93 1.694 5.758 1.27 3.611 1.271 2.838.847 1.388.847.932.847.43 2.117.036 26.253.22 13.973.421 8.892-.101 10.586-.353 3.387-.22 2.117-.377 2.541-.67 4.234-1.399 4.658-1.491 2.54-.592 2.118-.287 2.117-.037 2.117.25 2.117.49 2.541.81 9.739 3.37 2.117.374 1.694.107 9.739-.109 9.739-.33 1.694-.08.423-.146.423-.441.424-.73.847-2.307.847-3.393.846-4.43.847-5.42 1.27-9.882 1.27-11.836 1.695-18.544 1.693-21.347 2.118-30.036 2.54-39.967 2.964-50.395 2.964-52.481h0" clip-path="url(#p409d549192)" style="fill:none;stroke:#f0f;stroke-opacity:.5;stroke-linecap:square"/><path id="line2d_96" d="m19.882 266.797 8.045 1.625 5.505.903 5.08.606 5.082.362 10.162.527 7.199.165 2.964-.072 2.117-.28 2.54-.577 2.541-.809 2.964-1.187 3.388-1.605 4.657-2.49 2.118-1.292 1.27-1.16 1.27-1.462 1.694-2.326 2.117-3.341 7.198-11.815 1.694-2.176 1.27-1.319 1.27-.991.848-.453.847-.27.846-.067.847.21.847.504.847.773.847 1.016 1.27 1.923 1.27 2.323 1.694 3.57 2.54 5.943 3.388 7.936 1.694 3.506 1.27 2.258 1.27 1.84.847.953.847.703.847.427.847.133 10.162.29 13.127.14 26.676.036 14.82-.195 2.964-.3 3.811-.623 8.469-1.467 2.964-.257 2.54-.007 2.541.208 3.388.52 11.432 1.995 2.54.12 9.74-.11 9.739-.338 1.694-.082.423-.147.423-.442.424-.731.847-2.308.847-3.395.846-4.432.847-5.423 1.27-9.884 1.27-11.842 1.695-18.55 1.693-21.353 2.118-30.046 2.54-39.98 2.964-50.41 2.964-52.498h0" clip-path="url(#p409d549192)" style="fill:none;stroke:#f0f;stroke-opacity:.5;stroke-linecap:square"/><path id="line2d_97" d="m19.882 266.537 7.622 2.151 4.234.983 3.81.658 3.388.349 3.388.1 18.63.132 2.965-.088 2.117-.329 2.117-.548 2.54-.914 2.541-1.153 2.964-1.593 3.811-2.34 3.811-2.58.847-.813 1.27-1.576 1.27-1.942 1.694-3.044 2.118-4.312 6.351-13.333 1.694-2.9 1.27-1.804 1.27-1.409.847-.687.847-.463.847-.218.847.072.847.446.847.794.846 1.11 1.27 2.189 1.271 2.72 1.694 4.268 2.117 6.003 4.658 13.48 1.693 4.194 1.27 2.646 1.271 2.097.847 1.04.847.717.847.361 2.54.182 8.469.4 8.469.177 19.477.04 22.866-.1 5.081-.156 4.658-.45 9.739-1.048 3.387-.123 3.388.112 4.234.387 11.01 1.152 3.387.071 9.739-.133 9.739-.36.847-.043.423-.147.423-.442.424-.731.847-2.307.847-3.393.846-4.43.847-5.42 1.27-9.88 1.27-11.835 1.695-18.54 1.693-21.342 2.118-30.03 2.54-39.959 2.964-50.383 2.964-52.47h0" clip-path="url(#p409d549192)" style="fill:none;stroke:#f0f;stroke-opacity:.5;stroke-linecap:square"/><path id="line2d_98" d="m19.882 267.305 8.892 1.394 6.775.852 5.928.535 13.126.866 6.352.185 3.387-.084 2.54-.312 2.965-.616 2.964-.849 3.387-1.205 4.235-1.771 3.387-1.591 1.27-.944 1.27-1.276 1.695-2.124 2.117-3.16 3.387-5.64 2.964-4.833 1.694-2.445 1.694-2.057 1.27-1.212 1.27-.87.847-.362.847-.171.847.054.847.338.847.6.846.84 1.27 1.656 1.271 2.057 1.694 3.227 2.54 5.482 4.235 9.231 1.693 3.16 1.27 1.988 1.271 1.571.847.776.847.53.847.259 3.387.119 11.856.227 16.938.062 24.135-.075 9.74-.212 3.81-.41 13.127-1.698 2.964-.023 2.964.219 3.81.524 9.74 1.47 2.963.168 7.622-.039 11.433-.246 2.54-.085.424-.14.423-.437.424-.726.847-2.3.847-3.389.846-4.429.847-5.42 1.27-9.886 1.27-11.845 1.695-18.561 1.693-21.369 2.118-30.07 2.54-40.016 2.964-50.455 2.964-52.542h0" clip-path="url(#p409d549192)" style="fill:none;stroke:#f0f;stroke-opacity:.5;stroke-linecap:square"/><path id="line2d_99" d="m19.882 266.318 7.622 2.294 4.234 1.049 3.81.705 3.388.377 3.388.115 16.937.163 4.658-.075 2.117-.293 2.54-.607 2.541-.85 2.964-1.246 3.388-1.69 4.234-2.378 2.54-1.614 1.27-1.236 1.271-1.56 1.694-2.488 2.117-3.578 7.198-12.672 1.694-2.336 1.27-1.415 1.27-1.064.848-.487.847-.289.846-.073.847.225.847.541.847.829.847 1.089 1.27 2.06 1.27 2.49 1.694 3.823 2.54 6.364 3.388 8.49 1.694 3.745 1.27 2.408 1.27 1.96.847 1.01.847.742.847.445.847.128 12.28.201 30.063.18 13.55-.113 8.892-.225 2.54-.32 3.388-.673 9.74-2.126 2.54-.262 2.117-.028 2.54.223 2.965.53 4.234 1.032 5.081 1.217 2.964.473 2.54.153 11.01-.108 10.163-.292.423-.142.423-.438.424-.727.847-2.3.847-3.389.846-4.428.847-5.419 1.27-9.882 1.27-11.841 1.695-18.553 1.693-21.36 2.118-30.056 2.54-39.997 2.964-50.431 2.964-52.518h0" clip-path="url(#p409d549192)" style="fill:none;stroke:#f0f;stroke-opacity:.5;stroke-linecap:square"/><path id="line2d_100" d="m19.882 266.143 7.198 1.987 4.658 1.075 4.234.743 3.388.388 4.234.237 10.586.383 8.469.095 2.117-.15 2.54-.428 2.54-.67 2.965-1.043 2.964-1.278 3.81-1.907 4.235-2.387 1.27-1.126 1.27-1.51 1.271-1.833 1.694-2.838 2.54-4.803 4.658-9.007 1.694-2.858 1.694-2.403 1.27-1.415 1.27-1.015.847-.424.847-.2.847.065.847.398.847.708.846.991 1.27 1.954 1.271 2.428 1.694 3.808 2.54 6.47 4.235 10.899 1.693 3.732 1.27 2.35 1.271 1.86.847.92.847.628.847.31 2.964.145 10.162.301 10.162.076 35.992-.129 7.199-.17 3.81-.4 12.28-1.508 2.964-.054 2.964.165 3.811.443 10.586 1.392 2.964.118 10.586-.108 10.586-.33.423-.143.423-.438.424-.728.847-2.302.847-3.39.846-4.428.847-5.42 1.27-9.88 1.27-11.839 1.695-18.549 1.693-21.353 2.118-30.047 2.54-39.984 2.964-50.415 2.964-52.502h0" clip-path="url(#p409d549192)" style="fill:none;stroke:#f0f;stroke-opacity:.5;stroke-linecap:square"/></g></g><defs><clipPath id="p409d549192"><path d="M7.2 7.2h279v277.2H7.2z"/></clipPath></defs></svg>