<svg xmlns="http://www.w3.org/2000/svg" width="391.2" height="388.8" viewBox="0 0 293.4 291.6"><defs><style>*{stroke-linejoin:round;stroke-linecap:butt}</style></defs><g id="figure_1"><path id="patch_1" d="M0 291.6h293.4V0H0z" style="fill:none"/><g id="axes_1"><path id="line2d_1" d="m19.882 271.8 6.093-3.298 6.347-3.693 6.602-4.105 6.855-4.53 7.109-4.968 7.362-5.413 7.871-6.065 8.378-6.74 8.379-7.015 5.078-4.541 5.331-5.068 5.84-5.852 6.6-6.933 7.871-8.598 10.918-12.293 19.295-21.76 12.441-13.872 13.964-15.969 30.72-35.236 11.426-12.685 18.534-20.225 18.28-19.619 18.026-19.018 4.316-4.504h0" clip-path="url(#pb66b892df9)" style="fill:none;stroke:#0ff;stroke-opacity:.5;stroke-linecap:square"/><path id="line2d_2" d="m19.882 271.8 9.648-11.962 9.14-10.98 8.886-10.323 8.378-9.397 8.125-8.783 7.87-8.184 7.617-7.6 7.109-6.789 6.601-5.991 7.363-6.38 8.632-7.171 11.68-9.383 20.564-16.489 28.182-23.033 13.71-11.158 8.632-7.305 7.363-6.514 6.601-6.129 6.348-6.2 6.855-7.01 7.109-7.59 7.362-8.186 7.617-8.804 7.87-9.436 8.38-10.403 8.631-11.079 7.363-9.721h0" clip-path="url(#pb66b892df9)" style="fill:none;stroke:#0ff;stroke-opacity:.5;stroke-linecap:square"/><path id="line2d_3" d="m19.882 271.8 8.124-12.85 7.617-11.637 7.109-10.468 6.855-9.706 6.601-8.96 6.347-8.232 6.094-7.53 5.84-6.856 5.585-6.21 5.332-5.6 5.585-5.543 5.84-5.486 6.347-5.657 7.109-6.032 8.378-6.804 12.44-9.777 14.98-11.824 8.633-6.834 9.647-7.317 31.229-23.44 7.617-6.134 6.855-5.812 8.124-7.222 8.378-7.741 8.633-8.274 9.14-9.076 9.394-9.648 9.648-10.23 10.155-11.1h0" clip-path="url(#pb66b892df9)" style="fill:none;stroke:#0ff;stroke-opacity:.5;stroke-linecap:square"/><path id="line2d_4" d="m19.882 271.8 18.534-18.742 18.28-18.168 17.772-17.354 16.757-16.058 16.249-15.238 23.104-21.327 27.42-25.06 21.58-19.086 11.426-10.313 8.632-8.081 7.617-7.428 7.617-7.754 8.632-9.093 8.886-9.678 9.394-10.567 9.648-11.197 9.901-11.835 10.156-12.484 2.031-2.537h0" clip-path="url(#pb66b892df9)" style="fill:none;stroke:#0ff;stroke-opacity:.5;stroke-linecap:square"/><path id="line2d_5" d="m19.882 271.8 11.425-14.173 10.917-13.19 10.664-12.535 10.41-11.89 9.9-10.977 9.649-10.373 9.647-10.046 10.156-10.246 10.917-10.692 11.933-11.369 13.71-12.744 12.95-11.765 8.886-7.733L172.978 114l23.611-19.855 9.14-8.024 8.379-7.659 11.933-11.208 12.186-11.756 12.441-12.31 12.695-12.873L273.518 19.8h0" clip-path="url(#pb66b892df9)" style="fill:none;stroke:#0ff;stroke-opacity:.5;stroke-linecap:square"/><path id="line2d_6" d="m19.882 271.8 9.648-13.325 9.14-12.245 8.632-11.205 8.378-10.521 8.125-9.852 7.87-9.2 7.617-8.565 7.87-8.504 9.14-9.561 8.887-8.98 8.632-8.41 8.379-7.856 8.124-7.318 7.87-6.798 7.617-6.295 5.586-4.37 5.586-4.074 6.347-4.348 8.124-5.282 20.058-12.913 6.347-4.418 5.585-4.155 5.078-4.053 5.332-4.56 6.093-5.51 6.094-5.807 6.347-6.35 6.601-6.913 6.855-7.494 7.363-8.385 7.617-9.014 8.124-9.966 4.57-5.753h0" clip-path="url(#pb66b892df9)" style="fill:none;stroke:#0ff;stroke-opacity:.5;stroke-linecap:square"/><path id="line2d_7" d="m19.882 271.8 18.28-17.536 18.534-18.087 19.042-18.896 13.456-13.615 9.394-9.89 33.513-35.6 7.363-7.331 6.601-6.261 5.586-5.01 6.093-5.167 7.11-5.736 10.155-7.875 15.233-11.815 7.363-6.016 6.093-5.263 5.586-5.118 6.347-6.153 7.11-7.192 7.362-7.771 7.617-8.367 7.87-8.978 8.125-9.604 8.632-10.557 8.886-11.222 2.285-2.94h0" clip-path="url(#pb66b892df9)" style="fill:none;stroke:#0ff;stroke-opacity:.5;stroke-linecap:square"/><path id="line2d_8" d="m19.882 271.8 16.503-18.76 16.249-18.14 15.995-17.523 15.74-16.916 29.706-31.504 11.68-12.019 9.9-9.874 8.633-8.305 7.363-6.797 7.617-6.704 8.886-7.514 14.471-11.896 13.457-11.163 8.378-7.233 7.363-6.648 11.171-10.42 11.679-11.201 11.933-11.76 12.187-12.325 12.44-12.897 2.285-2.402h0" clip-path="url(#pb66b892df9)" style="fill:none;stroke:#0ff;stroke-opacity:.5;stroke-linecap:square"/><path id="line2d_9" d="m19.882 271.8 12.694-12.502 12.441-11.94 11.933-11.147 11.679-10.609 11.425-10.079 9.14-7.796 8.632-7.042 10.917-8.6 28.436-22.252 8.632-7.127 36.307-30.81 7.87-7.128 7.11-6.741 6.346-6.316 6.094-6.373 5.84-6.427 6.093-7.042 6.347-7.685 6.601-8.353 6.855-9.044 7.109-9.755 7.363-10.484 7.87-11.607 8.125-12.382 1.777-2.759h0" clip-path="url(#pb66b892df9)" style="fill:none;stroke:#0ff;stroke-opacity:.5;stroke-linecap:square"/><path id="line2d_10" d="m19.882 271.8 13.456-12.289 13.71-12.827 13.964-13.373 14.218-13.925 12.44-12.473 8.379-8.767 10.917-11.77 24.12-26.102 8.378-8.685 7.11-7.06 6.854-6.49 7.87-7.126 9.902-8.642 25.643-22.22 7.87-7.212 6.856-6.583 9.902-9.856 10.155-10.428 10.41-11.012 10.663-11.606 10.917-12.208 9.902-11.346h0" clip-path="url(#pb66b892df9)" style="fill:none;stroke:#0ff;stroke-opacity:.5;stroke-linecap:square"/><path id="line2d_11" d="m19.882 271.8 16.503-18.072 15.995-17.19 15.741-16.595 15.487-16.007 16.757-16.984 15.995-15.9 15.487-15.084 14.98-14.282 9.14-8.462 11.425-10.256 33.26-29.654 8.886-8.333 11.933-11.568L234.165 60.8l12.949-13.181 13.202-13.756L273.518 19.8h0" clip-path="url(#pb66b892df9)" style="fill:none;stroke:#0ff;stroke-opacity:.5;stroke-linecap:square"/><path id="line2d_12" d="m19.882 271.8 8.886-6.486 9.14-6.948 9.394-7.422 9.648-7.904 10.155-8.612 10.41-9.12 10.41-9.412 9.14-8.575 9.393-9.126 9.394-9.433 9.648-10.002 9.902-10.586 10.155-11.185 5.586-6.397 5.586-6.78 6.347-8.065 8.632-11.363 18.534-24.514 6.601-8.3 5.586-6.669 4.824-5.427 4.824-5.088 8.886-9.035 8.378-8.213 8.125-7.655 7.616-6.88 7.363-6.357 7.11-5.849 6.854-5.355 6.601-4.878.508-.364h0" clip-path="url(#pb66b892df9)" style="fill:none;stroke:#1ce3ff;stroke-opacity:.5;stroke-linecap:square"/><path id="line2d_13" d="m19.882 271.8 4.316-2.6 4.316-2.857 4.57-3.293 4.824-3.758 5.078-4.252 5.332-4.771 5.585-5.31 5.84-5.863 6.347-6.703 6.855-7.58 7.363-8.484 5.078-6.12 2.792-3.763 3.047-4.463 3.554-5.62 4.063-6.882 4.57-8.197 6.093-11.426 15.487-29.271 4.57-8.064 4.063-6.722 3.554-5.452 3.047-4.296 2.793-3.59 2.792-3.225 3.301-3.402 4.57-4.426 4.824-4.368 5.078-4.302 5.585-4.429 6.094-4.534 6.855-4.818 9.14-6.13 18.788-12.53 12.948-8.837 12.695-8.393 12.186-7.79 11.68-7.209 11.424-6.795 2.54-1.475h0" clip-path="url(#pb66b892df9)" style="fill:none;stroke:#1ce3ff;stroke-opacity:.5;stroke-linecap:square"/><path id="line2d_14" d="m19.882 271.8 18.788-20.302 18.534-19.699 18.026-18.837 24.373-25.092 17.773-18.073L130.07 157.2l10.664-10.278 9.14-8.514 7.616-6.773 9.14-7.82 19.296-16.107 10.41-8.891 7.87-7.01 6.855-6.395 9.648-9.35 9.902-9.91 10.155-10.487 10.41-11.07 10.663-11.663 11.171-12.554.508-.578h0" clip-path="url(#pb66b892df9)" style="fill:none;stroke:#1ce3ff;stroke-opacity:.5;stroke-linecap:square"/><path id="line2d_15" d="m19.882 271.8 4.316-2.058 4.57-2.438 4.57-2.691 4.824-3.1 5.078-3.534 5.331-3.987 5.586-4.46 5.84-4.942 6.347-5.664 6.855-6.418 7.616-7.442 5.078-5.2 3.555-4.034 3.808-4.686 4.062-5.362 4.57-6.412 5.332-7.886 6.601-10.184 22.089-34.441 5.077-7.343 4.57-6.227 30.213-39.534 6.855-8.498 5.84-6.883 5.078-5.65 4.57-4.773 4.316-4.198 4.062-3.646 3.809-3.125 8.886-6.83 7.616-5.58 6.855-4.75 6.348-4.124 5.84-3.53 5.585-3.11 5.078-2.581 4.823-2.216 4.824-1.97 4.57-1.623 2.793-.87h0" clip-path="url(#pb66b892df9)" style="fill:none;stroke:#1ce3ff;stroke-opacity:.5;stroke-linecap:square"/><path id="line2d_16" d="m19.882 271.8 5.585-4.234 5.84-4.709 6.093-5.207 6.348-5.726 6.6-6.264 6.856-6.817 7.109-7.382 7.616-8.235 8.125-9.122 5.84-6.842 3.554-4.578 4.062-5.622 4.57-6.734 5.332-8.269 7.616-12.263 11.933-19.208 5.586-8.535 4.57-6.578 4.062-5.45 3.555-4.4 3.3-3.732 3.047-3.11 4.57-4.28 4.824-4.196 5.078-4.112 5.585-4.225 6.347-4.511 8.379-5.655 17.772-11.907 6.347-4.568 5.84-4.483 13.964-11.086 14.218-11.577 14.471-12.072 14.726-12.573 4.316-3.738h0" clip-path="url(#pb66b892df9)" style="fill:none;stroke:#1ce3ff;stroke-opacity:.5;stroke-linecap:square"/><path id="line2d_17" d="m19.882 271.8 4.824-3.157 5.078-3.601 5.077-3.871 5.332-4.341 5.586-4.833 5.84-5.346 6.092-5.874 6.602-6.679 7.109-7.523 7.616-8.399 6.094-7 3.046-3.88 3.3-4.559 3.81-5.655 4.315-6.828 5.332-8.892 7.87-13.628 9.648-16.634 5.332-8.74 4.316-6.654 3.809-5.462 3.3-4.362 3.047-3.676 2.793-3.038 2.793-2.71 4.316-3.861 4.316-3.569 4.824-3.69 5.077-3.6 5.84-3.865 7.363-4.594L198.62 81.53l5.839-3.944 5.078-3.694 8.632-6.678 10.156-8.122 10.41-8.608 10.916-9.322 11.172-9.838 11.425-10.356 1.27-1.168h0" clip-path="url(#pb66b892df9)" style="fill:none;stroke:#1ce3ff;stroke-opacity:.5;stroke-linecap:square"/><path id="line2d_18" d="m19.882 271.8 6.855-5.594 7.109-6.084 7.363-6.59 7.616-7.112 8.125-7.899 8.378-8.464 8.632-9.036 9.14-9.892 4.824-5.461 5.332-6.385 6.093-7.666 7.11-9.316 10.155-13.715 15.487-20.91 7.363-9.543 6.093-7.534 18.788-22.761 11.172-13.425 7.362-8.519 6.348-7.01 5.585-5.843 5.078-4.993 4.57-4.196 4.316-3.675 5.84-4.619 8.378-6.377 7.617-5.515 6.855-4.695 6.347-4.09 6.093-3.67 5.84-3.259 5.585-2.862 5.332-2.482 5.078-2.123 1.777-.685h0" clip-path="url(#pb66b892df9)" style="fill:none;stroke:#1ce3ff;stroke-opacity:.5;stroke-linecap:square"/><path id="line2d_19" d="m19.882 271.8 15.741-13.832 15.995-14.35 16.503-15.108 16.757-15.644 26.658-25.224 12.44-12.104 10.41-10.433 9.394-9.727 7.11-7.648 6.093-6.912 7.362-8.7 10.41-12.686 16.503-20.116 7.616-8.904 6.094-6.798 5.585-5.904 10.156-10.287 9.648-9.466 9.394-8.91 9.14-8.362 8.632-7.602 8.378-7.092 7.617-6.191h0" clip-path="url(#pb66b892df9)" style="fill:none;stroke:#1ce3ff;stroke-opacity:.5;stroke-linecap:square"/><path id="line2d_20" d="m19.882 271.8 8.124-3.858 8.379-4.226 8.632-4.602 9.14-5.131 9.394-5.53 9.902-6.091 10.41-6.667 5.33-3.632 6.094-4.433 6.855-5.269 8.886-7.127 24.374-19.708 6.855-5.173 5.84-4.141 4.57-2.972 5.331-3.187 6.347-3.519 22.597-12.27 5.077-3.166 4.57-3.116 4.063-3.027 4.062-3.311 3.808-3.397 3.3-3.228 2.794-3.074 2.792-3.396 3.047-4.06 3.3-4.8 3.301-5.197 3.555-6.021 3.808-6.914 4.062-7.868 4.316-8.88 4.57-9.941 4.824-11.04 5.332-12.785 5.84-14.613 6.6-17.16 3.555-9.47h0" clip-path="url(#pb66b892df9)" style="fill:none;stroke:#1ce3ff;stroke-opacity:.5;stroke-linecap:square"/><path id="line2d_21" d="m19.882 271.8 16.757-14.602 17.01-15.122 17.265-15.647L87.67 210.95l12.948-12.276 18.28-17.671 29.197-28.226 10.664-9.986 35.037-32.555 8.378-8.233 7.617-7.794 8.632-9.186 9.14-10.053 9.394-10.668 9.648-11.297 9.902-11.936 10.409-12.905 6.601-8.364h0" clip-path="url(#pb66b892df9)" style="fill:none;stroke:#1ce3ff;stroke-opacity:.5;stroke-linecap:square"/><path id="line2d_22" d="m19.882 271.8 7.87-10.873 7.363-9.804 6.855-8.769 6.601-8.084 6.094-7.123 5.84-6.496 5.585-5.892 5.332-5.313 5.077-4.763 5.078-4.459 5.078-4.157 5.586-4.298 6.093-4.402 6.601-4.481 7.109-4.552 8.378-5.093 11.68-6.81 21.834-12.463 6.093-3.036 8.125-3.769 14.725-6.792 6.094-3.085 5.078-2.81 4.57-2.77 4.316-2.869 4.062-2.957 3.808-3.033 3.047-2.718 3.047-3.024 3.3-3.606 3.3-3.935 3.555-4.59 3.809-5.304 3.808-5.679 4.062-6.447 4.316-7.26 4.57-8.112 5.078-9.48 5.332-10.427 5.84-11.903 6.6-13.965 3.047-6.597h0" clip-path="url(#pb66b892df9)" style="fill:none;stroke:#38c7ff;stroke-opacity:.5;stroke-linecap:square"/><path id="line2d_23" d="m19.882 271.8 24.627-20.88 24.12-20.162 38.845-32.378 13.71-11.379 9.394-7.52 8.124-6.225 7.11-5.174 4.823-3.283 4.824-3.007 5.586-3.211 7.109-3.816 17.264-9.16 5.586-3.283 4.824-3.09 4.316-3.018 4.062-3.1 4.062-3.391 3.555-3.25 3.047-3.096 3.3-3.68 3.3-4.01 3.555-4.667 3.808-5.386 4.063-6.161 4.062-6.566 4.316-7.39 4.57-8.26 5.078-9.654 5.332-10.627 5.84-12.149 6.346-13.723 5.078-11.304h0" clip-path="url(#pb66b892df9)" style="fill:none;stroke:#38c7ff;stroke-opacity:.5;stroke-linecap:square"/><path id="line2d_24" d="m19.882 271.8 7.363-13.403 6.6-11.57 6.094-10.236 5.586-8.95 5.078-7.736 4.823-6.961 4.57-6.218 4.317-5.51 4.062-4.845 4.062-4.494L76.245 188l3.555-3.314 3.554-3.004 4.317-3.32 4.57-3.231 4.823-3.135 5.078-3.039 5.84-3.225 6.855-3.516 9.901-4.797 12.695-6.189 6.601-3.467 13.71-7.38 11.425-5.681 10.918-5.508 6.855-3.707 5.84-3.412 5.077-3.214 4.824-3.311 4.57-3.405 4.316-3.496 3.554-3.185 3.555-3.48 3.808-4.042 4.062-4.652 4.063-4.987 4.316-5.645 4.57-6.342 4.824-7.075 5.078-7.836 5.585-9.04 6.094-10.31 6.6-11.629 5.84-10.625h0" clip-path="url(#pb66b892df9)" style="fill:none;stroke:#38c7ff;stroke-opacity:.5;stroke-linecap:square"/><path id="line2d_25" d="m19.882 271.8 7.87-10.309 7.363-9.282 6.855-8.285 6.348-7.331 6.093-6.702 5.84-6.09 5.585-5.495 5.332-4.929 5.077-4.388 4.824-3.88 4.57-3.4 4.824-3.304 5.078-3.203 5.586-3.259 6.6-3.581 9.14-4.675 14.473-7.393 6.6-3.638 5.586-3.326 5.84-3.753 18.534-12.166 8.124-5.63 6.855-5.019 6.094-4.732 5.585-4.606 5.332-4.673 5.078-4.735 5.078-5.041 3.808-4.054 4.062-4.652 4.316-5.297 4.316-5.649 4.57-6.343 4.824-7.08 5.078-7.855 5.332-8.66 5.586-9.496 6.093-10.81 6.347-11.71 7.11-13.6 2.03-3.969h0" clip-path="url(#pb66b892df9)" style="fill:none;stroke:#38c7ff;stroke-opacity:.5;stroke-linecap:square"/><path id="line2d_26" d="m19.882 271.8 7.617-11.61 6.855-10.054 6.347-8.925 5.84-7.84 5.585-7.134 5.332-6.444 5.077-5.78 4.824-5.145 4.57-4.545 4.316-3.981 4.063-3.457 4.062-3.167 4.57-3.271 4.824-3.177 5.078-3.08 5.84-3.272 6.6-3.438 9.394-4.614 14.218-6.986 6.601-3.5 5.84-3.345 7.616-4.353 13.964-7.65 9.394-5.282 6.601-3.955 5.84-3.754 5.332-3.695 4.824-3.608 4.57-3.685 4.57-3.976 3.3-3.128 3.555-3.685 3.554-4 3.808-4.623 4.063-5.294 4.316-6.017 4.316-6.396 4.57-7.161 4.824-7.961 5.332-9.242 5.585-10.133 6.094-11.522 6.6-12.96 3.555-7.155h0" clip-path="url(#pb66b892df9)" style="fill:none;stroke:#38c7ff;stroke-opacity:.5;stroke-linecap:square"/><path id="line2d_27" d="m19.882 271.8 7.617-12.185 6.855-10.549 6.093-8.987 5.84-8.224 5.331-7.138 5.078-6.44 4.824-5.77 4.57-5.129 4.316-4.526 4.316-4.198 4.062-3.638 3.809-3.121 4.316-3.223 4.57-3.134 4.824-3.04 5.331-3.092 6.094-3.26 7.363-3.672 24.12-11.814 5.839-3.233 14.725-8.397 17.265-9.674 7.109-4.276 6.093-3.93 5.332-3.697 5.078-3.791 4.824-3.885 4.57-3.966 3.554-3.354 3.555-3.656 3.808-4.24 4.062-4.873 4.062-5.219 4.317-5.904 4.57-6.63 4.823-7.397 5.078-8.193 5.586-9.456 5.84-10.333 6.347-11.692 7.109-13.582.761-1.482h0" clip-path="url(#pb66b892df9)" style="fill:none;stroke:#38c7ff;stroke-opacity:.5;stroke-linecap:square"/><path id="line2d_28" d="m19.882 271.8 7.87-11.16 7.11-9.697 6.6-8.63 6.094-7.61 5.84-6.94 5.585-6.287 5.332-5.658 5.077-5.055 4.824-4.483 4.57-3.946 4.316-3.444 4.57-3.363 5.078-3.452 5.332-3.349 5.84-3.402 6.855-3.727 9.393-4.827 15.996-8.198 6.855-3.787 19.55-11.094 15.486-8.508 6.855-4.052 5.586-3.55 5.078-3.475 4.824-3.568 4.57-3.655 4.316-3.73 3.554-3.342 3.301-3.417 3.554-4.011 3.555-4.34 3.808-4.997 4.063-5.708 4.316-6.468 4.57-7.273 4.824-8.118 5.077-8.996 5.332-9.897 5.84-11.314 6.347-12.789 6.093-12.683h0" clip-path="url(#pb66b892df9)" style="fill:none;stroke:#38c7ff;stroke-opacity:.5;stroke-linecap:square"/><path id="line2d_29" d="m19.882 271.8 7.87-10.816 7.363-9.746 6.855-8.71 6.348-7.718 6.093-7.069 5.84-6.437 5.585-5.827 5.332-5.244 5.077-4.687 4.824-4.162 4.824-3.877 5.586-4.202 5.84-4.11 6.347-4.189 7.109-4.41 8.124-4.77 11.679-6.573 16.503-9.308 5.078-2.795 5.84-2.947 7.362-3.449 18.788-8.673 5.84-3.016 5.077-2.875 4.57-2.84 4.316-2.944 4.062-3.039 3.555-2.913 2.793-2.572 3.046-3.107 3.301-3.71 3.3-4.05 3.555-4.724 3.808-5.46 3.809-5.848 4.062-6.639 4.316-7.475 4.57-8.352 5.078-9.758 5.332-10.727 6.093-12.783 6.855-14.932 2.031-4.517h0" clip-path="url(#pb66b892df9)" style="fill:none;stroke:#38c7ff;stroke-opacity:.5;stroke-linecap:square"/><path id="line2d_30" d="m19.882 271.8 7.617-13.655 6.855-11.837 6.347-10.521 5.84-9.263 5.585-8.45 5.332-7.658 5.077-6.898 4.824-6.171 4.57-5.483 4.316-4.837 4.063-4.235 4.062-3.918 4.824-4.325 5.078-4.239 5.331-4.148 5.586-4.066 6.347-4.34 7.617-4.926 12.694-7.89 10.918-6.888 14.471-9.27 8.633-5.092 19.803-11.587 6.855-4.332 5.84-3.953 5.331-3.878 4.824-3.774 4.57-3.842 4.824-4.355 4.824-4.653 5.078-5.202 5.332-5.782 5.585-6.39 5.84-7.021 6.093-7.672 6.601-8.678 6.855-9.38 7.363-10.447 2.031-2.944h0" clip-path="url(#pb66b892df9)" style="fill:none;stroke:#5af;stroke-opacity:.5;stroke-linecap:square"/><path id="line2d_31" d="m19.882 271.8 10.41-12.062 9.901-11.136 9.648-10.513 9.14-9.636 8.886-9.053 8.632-8.48 8.379-7.925 8.124-7.372 8.632-7.532 9.648-8.12 11.425-9.317 17.011-13.546 13.202-10.325 7.11-5.168 10.155-7.07 13.71-9.566 7.109-5.244 5.84-4.574 5.331-4.452 5.078-4.534 4.824-4.617 4.824-4.93 5.077-5.51 5.332-6.129 5.586-6.775 5.84-7.452 6.093-8.154 6.347-8.876 6.601-9.615 7.109-10.756 7.617-11.94 1.015-1.621h0" clip-path="url(#pb66b892df9)" style="fill:none;stroke:#5af;stroke-opacity:.5;stroke-linecap:square"/><path id="line2d_32" d="m19.882 271.8 10.917-12.2 10.41-11.304 10.155-10.704 9.902-10.11 9.394-9.281 9.14-8.728 7.87-7.228 6.856-5.959 7.87-6.537 11.171-8.958 16.757-13.445 7.87-6.615 6.602-5.824 6.855-6.361 8.124-7.845 9.14-9.148 10.918-11.26 15.74-16.596 46.97-49.956 18.788-20.483L273.518 19.8h0" clip-path="url(#pb66b892df9)" style="fill:none;stroke:#5af;stroke-opacity:.5;stroke-linecap:square"/><path id="line2d_33" d="m19.882 271.8 7.87-12.697 7.363-11.453 6.855-10.25 6.348-9.101 6.093-8.356 5.84-7.632 5.585-6.932 5.332-6.264 5.077-5.626 4.824-5.025 5.078-4.954 5.586-5.148 5.84-5.087 6.346-5.228 6.602-5.148 7.362-5.457 8.379-5.926 10.917-7.433 13.71-9.086 5.332-3.21 6.347-3.555 8.632-4.557 14.472-7.63 6.347-3.622 5.332-3.288 4.824-3.228 4.57-3.324 4.316-3.415 4.062-3.505 4.317-4.035 4.316-4.34 4.57-4.915 4.824-5.524 5.077-6.166 5.332-6.837 5.586-7.531 5.84-8.244 6.346-9.35 6.855-10.5 5.332-8.421h0" clip-path="url(#pb66b892df9)" style="fill:none;stroke:#5af;stroke-opacity:.5;stroke-linecap:square"/><path id="line2d_34" d="m19.882 271.8 7.617-13.074 7.108-11.775 6.602-10.52 6.347-9.701 5.84-8.537 5.585-7.792 5.332-7.075 5.077-6.388 5.078-6.03 4.824-5.38 4.57-4.768 4.824-4.7 5.078-4.622 5.332-4.548 5.84-4.685 6.854-5.202 9.14-6.631 16.757-12.118 6.855-5.267 10.156-8.185 25.896-21.055 14.472-12.057 12.187-10.436L219.44 70.51l13.202-11.934 13.456-12.467 13.71-13.007 13.71-13.303h0" clip-path="url(#pb66b892df9)" style="fill:none;stroke:#5af;stroke-opacity:.5;stroke-linecap:square"/><path id="line2d_35" d="m19.882 271.8 8.124-12.577 7.87-11.773 7.364-10.613 6.855-9.505 6.6-8.786 6.348-8.088 6.094-7.413 5.839-6.765 5.586-6.145 5.585-5.821 6.347-6.29 6.602-6.217 6.855-6.15 7.362-6.31 8.379-6.877 9.648-7.62 13.71-10.517 7.109-5.275 6.093-4.212 7.363-4.815 12.948-8.14 10.156-6.507 6.855-4.658 5.84-4.235 5.331-4.144 5.078-4.237 5.585-4.957 5.84-5.484 6.093-6.035 6.348-6.61 6.6-7.204 6.856-7.816 7.109-8.44 7.616-9.394 8.125-10.384 1.523-1.986h0" clip-path="url(#pb66b892df9)" style="fill:none;stroke:#5af;stroke-opacity:.5;stroke-linecap:square"/><path id="line2d_36" d="m19.882 271.8 16.757-18.879 16.502-18.26 16.25-17.65 36.56-39.485 11.17-12.057 7.617-7.903 6.348-6.285 5.84-5.473 5.33-4.69 4.825-3.954 4.57-3.452 4.824-3.356 5.331-3.433 6.348-3.811 9.901-5.64 10.156-5.853 6.093-3.763 5.078-3.382 4.824-3.484 4.316-3.389 4.316-3.675 4.57-4.173 4.824-4.702 5.078-5.264 5.332-5.858 5.585-6.479 5.84-7.125 6.093-7.79 6.348-8.474 6.855-9.523 7.362-10.616 2.793-4.122h0" clip-path="url(#pb66b892df9)" style="fill:none;stroke:#5af;stroke-opacity:.5;stroke-linecap:square"/><path id="line2d_37" d="m19.882 271.8 8.886-12.98 8.632-12.217 8.125-11.118 7.87-10.396 7.617-9.689 7.363-9 7.109-8.333 6.855-7.686 8.124-8.73 8.379-8.687 8.124-8.107 7.87-7.548 7.871-7.239 7.617-6.702 7.363-6.189 7.363-5.896 5.585-4.226 5.332-3.73 5.84-3.81 7.108-4.363 25.643-15.47 5.586-3.772 5.078-3.689 4.824-3.784 5.331-4.492 5.586-4.999 5.84-5.53 6.093-6.087 6.347-6.664 6.601-7.262 6.855-7.873 7.363-8.805 7.617-9.458 5.84-7.469h0" clip-path="url(#pb66b892df9)" style="fill:none;stroke:#5af;stroke-opacity:.5;stroke-linecap:square"/><path id="line2d_38" d="m19.882 271.8 7.363-13.804 6.6-11.924 6.094-10.56 5.586-9.254 5.331-8.41 5.078-7.589 4.824-6.8 4.57-6.046 4.316-5.334 4.063-4.67 3.808-4.051 3.808-3.722 3.809-3.392 4.316-3.55 4.57-3.472 4.824-3.387 5.331-3.465 6.094-3.682 7.616-4.32 21.581-12.068 5.84-3.607 14.725-9.333 21.073-13.142 7.617-5.062 6.601-4.653 5.84-4.38 5.585-4.467 5.078-4.333 5.078-4.637 5.077-4.935 5.332-5.49 5.586-6.071 5.84-6.68 6.093-7.31 6.347-7.961 6.855-8.963 7.109-9.66 7.617-10.724.761-1.092h0" clip-path="url(#pb66b892df9)" style="fill:none;stroke:#5af;stroke-opacity:.5;stroke-linecap:square"/><path id="line2d_39" d="m19.882 271.8 9.14-13.243 8.632-12.127 8.379-11.393 8.124-10.67 7.617-9.648 7.363-8.982 7.108-8.335 7.11-7.992 10.155-11.003 9.14-9.577 8.125-8.203 7.616-7.385 7.11-6.592 6.854-6.055 6.347-5.32 6.094-4.826 5.332-3.954 4.823-3.288 5.332-3.367 6.347-3.734 8.887-4.938 13.456-7.483 6.347-3.804 5.332-3.45 4.824-3.38 4.57-3.48 5.077-4.182 5.078-4.47 5.332-4.991 5.586-5.538 5.839-6.11 6.093-6.704 6.348-7.317 6.855-8.254 7.109-8.915 7.616-9.91 2.54-3.38h0" clip-path="url(#pb66b892df9)" style="fill:none;stroke:#5af;stroke-opacity:.5;stroke-linecap:square"/><path id="line2d_40" d="m19.882 271.8 5.585-2.25 5.84-2.59 6.093-2.946 6.348-3.318 6.6-3.699 7.11-4.244 7.362-4.654 8.125-5.407 8.632-6.015 6.601-4.824 5.84-4.558 6.093-5.044 6.094-5.33 6.347-5.846 6.6-6.39 6.856-6.955 6.855-7.27 7.109-7.859 7.363-8.472 3.3-4.087 3.809-5.092 4.062-5.816 4.57-6.934 5.586-8.903 7.87-13.018 12.695-21.013 5.585-8.8 4.57-6.82 4.062-5.688 3.809-4.952 3.554-4.245 8.125-9.217 7.616-8.304 7.11-7.418 6.6-6.57 6.348-6.003 5.84-5.228 5.585-4.72 5.585-4.425 5.332-3.937 4.57-3.139h0" clip-path="url(#pb66b892df9)" style="fill:none;stroke:#718eff;stroke-opacity:.5;stroke-linecap:square"/><path id="line2d_41" d="m19.882 271.8 5.332-1.798 5.585-2.121 5.84-2.463 6.093-2.818 6.347-3.185 6.601-3.558 7.11-4.084 7.616-4.631 8.378-5.356 7.617-5.11 4.824-3.526 5.332-4.183 5.585-4.677 5.84-5.18 6.347-5.923 7.109-6.946 8.124-8.26 9.902-10.399 10.917-11.774 5.586-6.417 6.093-7.349 7.11-8.942 8.632-11.242 15.487-20.627 11.425-15.037 8.632-10.982 37.068-46.568L273.518 19.8h0" clip-path="url(#pb66b892df9)" style="fill:none;stroke:#718eff;stroke-opacity:.5;stroke-linecap:square"/><path id="line2d_42" d="m19.882 271.8 5.332-2.193 5.331-2.431 5.586-2.786 5.84-3.16 6.093-3.547 6.6-4.107 6.856-4.532 7.363-5.136 7.87-5.761 8.379-6.405 5.331-4.358 5.586-4.868 5.585-5.164 5.84-5.7 6.093-6.258 6.348-6.84 6.6-7.437 7.11-8.354 7.362-8.999 7.11-9.03 3.046-4.255 3.3-4.99 3.809-6.178 4.316-7.447 5.332-9.677 8.378-15.75 8.632-16.092 5.078-9.013 4.316-7.213 3.809-5.92 3.3-4.724 3.047-3.977 2.793-3.284 2.539-2.657 7.109-6.782 7.362-6.77 6.348-5.546 5.585-4.594 5.078-3.9 4.824-3.427 4.57-2.966 4.316-2.526 4.062-2.111 3.809-1.728 3.554-1.38 3.555-1.139 3.3-.833.254-.055h0" clip-path="url(#pb66b892df9)" style="fill:none;stroke:#718eff;stroke-opacity:.5;stroke-linecap:square"/><path id="line2d_43" d="m19.882 271.8 4.824-1.833 4.824-2.068 5.077-2.417 5.332-2.787 5.586-3.174 5.84-3.575 6.346-4.157 6.602-4.592 7.109-5.213 7.87-6.048 6.855-5.51 4.57-3.994 4.824-4.525 5.078-5.079 5.332-5.652 5.84-6.527 6.346-7.444 6.855-8.388 7.871-9.989 9.648-12.618 6.855-9.248 3.3-4.916 3.809-6.088 4.316-7.342 5.332-9.547 8.124-15.083 9.14-16.864 5.078-8.924 4.316-7.15 3.808-5.878 3.301-4.699 3.047-3.965 2.792-3.283 2.54-2.665 2.538-2.349 9.902-8.651 7.109-5.917 5.84-4.58 5.331-3.903 4.824-3.258 4.57-2.813 4.062-2.25 4.063-1.992 3.808-1.614 3.554-1.268 3.555-1.022 3.3-.718 2.793-.423h0" clip-path="url(#pb66b892df9)" style="fill:none;stroke:#718eff;stroke-opacity:.5;stroke-linecap:square"/><path id="line2d_44" d="m19.882 271.8 5.332-2.212 5.585-2.56 5.84-2.927 6.093-3.31 6.347-3.704 6.601-4.11 7.11-4.692 7.616-5.3 8.124-5.926 7.871-5.999 5.586-4.557 5.585-4.839 5.84-5.35 6.093-5.89 6.347-6.457 6.348-6.773 6.6-7.365 6.856-7.981 7.109-8.618 5.84-7.392 3.046-4.269 3.3-5.002 3.809-6.19 4.316-7.458 5.332-9.685L177.04 117l8.378-15.607 5.078-9.007 4.316-7.206 3.555-5.533 3.3-4.75 3.047-4.004 2.793-3.312 2.539-2.685 8.886-8.643 7.109-6.612 6.093-5.374 5.586-4.631 5.077-3.926 4.824-3.445 4.317-2.821 4.316-2.553 4.062-2.139L264.124 23l3.555-1.407 3.554-1.17 2.285-.622h0" clip-path="url(#pb66b892df9)" style="fill:none;stroke:#718eff;stroke-opacity:.5;stroke-linecap:square"/><path id="line2d_45" d="m19.882 271.8 5.078-2.066 5.331-2.414 5.586-2.784 5.84-3.17 6.093-3.573 6.347-3.985 6.601-4.403 7.11-5.008 7.87-5.825 8.378-6.476 4.824-3.968 5.078-4.458 5.331-4.975 5.586-5.516 5.84-6.075 6.347-6.934 6.6-7.544 7.11-8.463 7.87-9.73 8.379-10.708 3.047-4.176 3.3-4.905 3.808-6.082 4.317-7.342 5.077-9.093 7.617-14.153 10.156-18.809 5.078-8.94 4.316-7.16 3.808-5.88 3.3-4.698 3.047-3.961 2.793-3.277 2.539-2.656 4.062-3.82 8.379-7.642 6.6-5.738 5.84-4.793 5.332-4.091 4.824-3.43 4.57-2.977 4.316-2.544 4.062-2.136 3.809-1.755 3.554-1.408 3.554-1.172 3.301-.866 2.031-.421h0" clip-path="url(#pb66b892df9)" style="fill:none;stroke:#718eff;stroke-opacity:.5;stroke-linecap:square"/><path id="line2d_46" d="m19.882 271.8 5.585-2.12 5.84-2.462 6.093-2.819 6.348-3.189 6.6-3.57 6.856-3.959 7.363-4.508 7.87-5.08 8.632-5.84 7.363-5.217 6.347-4.793 6.094-4.876 6.093-5.157 6.094-5.45 6.093-5.754 6.093-6.068 6.094-6.395 5.84-6.444 5.839-6.765 5.077-6.192 2.793-3.816 3.047-4.577 3.3-5.39 3.555-6.233 4.316-8.051 5.332-10.474 9.394-19.08 7.109-14.198 4.824-9.149 4.062-7.224 3.554-5.862 3.047-4.617 2.793-3.857 2.539-3.16 2.539-2.801 8.886-9.073 6.855-6.697 6.093-5.647 5.332-4.65 5.078-4.131 4.57-3.439 4.316-2.978 4.062-2.54 3.808-2.135 3.809-1.877 3.554-1.505 3.555-1.254 3.3-.927h0" clip-path="url(#pb66b892df9)" style="fill:none;stroke:#718eff;stroke-opacity:.5;stroke-linecap:square"/><path id="line2d_47" d="m19.882 271.8 7.617-4.22 7.87-4.611 8.125-5.014 8.632-5.593 8.886-6.025 9.394-6.645 9.902-7.285 10.917-8.325 9.394-7.427 8.124-6.696 7.617-6.565 7.109-6.426 6.601-6.263 6.347-6.321 6.094-6.374 5.585-6.149 3.301-3.965 3.808-4.94 4.063-5.642 4.57-6.727 5.585-8.638 7.87-12.638 12.95-20.822 5.585-8.55 4.824-6.983 4.062-5.509 3.808-4.793 4.316-5.026 8.125-9.152 7.617-8.254 7.109-7.388 6.855-6.808 6.6-6.24 6.348-5.686 5.84-4.943 5.839-4.651 5.586-4.161.761-.545h0" clip-path="url(#pb66b892df9)" style="fill:none;stroke:#718eff;stroke-opacity:.5;stroke-linecap:square"/><path id="line2d_48" d="m19.882 271.8 4.316-1.42 4.57-1.736 4.824-2.077 5.078-2.441 5.33-2.824 5.586-3.223 5.84-3.631 6.347-4.22 6.855-4.835 7.616-5.657 8.125-6.306 4.062-3.42 4.316-3.945 4.57-4.497 4.824-5.072 5.078-5.659 5.586-6.556 6.347-7.803 7.363-9.417 9.648-12.733 13.202-17.782 3.554-5.248 4.063-6.404 4.823-8.05 6.094-10.648 18.788-33.194 4.824-7.88 4.062-6.219 3.554-5.053 3.3-4.316 3.048-3.621 2.792-2.98 2.793-2.65 9.14-8.234 7.11-6.106 6.093-4.94 5.331-4.05 5.078-3.58 4.57-2.958 4.316-2.54 4.062-2.146 4.063-1.89 3.808-1.52 3.554-1.187 3.555-.95 1.777-.382h0" clip-path="url(#pb66b892df9)" style="fill:none;stroke:#718eff;stroke-opacity:.5;stroke-linecap:square"/><path id="line2d_49" d="m19.882 271.8 4.316-1.516 4.57-1.847 4.57-2.083 4.824-2.44 5.078-2.816 5.331-3.212 5.586-3.62 6.093-4.219 6.602-4.85 7.108-5.5 8.125-6.573 4.57-3.909 3.808-3.576 4.063-4.117 4.57-4.966 4.823-5.582 5.332-6.514 6.094-7.802 7.616-10.141 13.203-18.04 10.41-14.06 4.061-5.55 4.57-6.625 5.332-8.127 7.109-11.268 16.503-26.317 5.585-8.4 4.57-6.49 4.063-5.402 3.808-4.693 3.3-3.737 3.047-3.147 3.555-3.33 8.378-7.548 7.109-6.106 6.347-5.158 5.84-4.455 5.331-3.79 5.078-3.335 4.824-2.895 4.57-2.478 4.316-2.084 4.063-1.722 4.062-1.474 1.523-.486h0" clip-path="url(#pb66b892df9)" style="fill:none;stroke:#718eff;stroke-opacity:.5;stroke-linecap:square"/><path id="line2d_50" d="m19.882 271.8 4.824-1.81 5.078-2.146 5.331-2.506 5.586-2.884 5.84-3.277 6.093-3.684 6.347-4.098 6.855-4.69 7.363-5.308 8.378-6.323 5.84-4.635 4.824-4.133 5.077-4.645 5.332-5.182 5.586-5.746 5.84-6.33 6.092-6.93 6.602-7.851 7.109-8.815 7.616-9.808 6.855-9.166 2.793-4.14 3.3-5.316 3.555-6.166 4.062-7.504 5.078-9.883 7.87-15.897 8.633-17.299 4.824-9.181 4.062-7.268 3.555-5.908 3.046-4.664 2.793-3.903 2.539-3.205 2.539-2.846 2.285-2.231 3.554-3.044 10.41-8.69 6.601-5.225 5.586-4.141 4.824-3.31 4.57-2.861 4.062-2.288 3.808-1.9 3.555-1.538 3.554-1.292 3.3-.963 3.047-.673 3.047-.454 3.047-.222 1.27-.021h0" clip-path="url(#pb66b892df9)" style="fill:none;stroke:#718eff;stroke-opacity:.5;stroke-linecap:square"/><path id="line2d_51" d="m19.882 271.8 4.824-1.944 5.078-2.297 5.077-2.54 5.332-2.91 5.586-3.3 5.84-3.703 6.346-4.295 6.602-4.733 7.362-5.561 7.87-6.227 6.856-5.677 4.824-4.33 5.078-4.876 5.331-5.445 5.586-6.037 5.84-6.645 6.347-7.57 6.855-8.537 7.363-9.527 8.378-11.21 6.347-8.783 3.047-4.686 3.3-5.508 3.809-6.827 4.316-8.219 5.586-11.153 16.248-32.8 4.317-8.059 3.808-6.642 3.3-5.315 3.047-4.48 2.793-3.7 2.539-2.99 2.285-2.358 2.031-1.813 2.539-1.942 9.14-6.686 6.855-4.745 5.84-3.774 5.077-3.03 4.824-2.621 4.316-2.105 4.063-1.748 4.062-1.503 3.808-1.166 3.555-.86 3.554-.628 3.3-.36 3.301-.134.254-.001h0" clip-path="url(#pb66b892df9)" style="fill:none;stroke:#718eff;stroke-opacity:.5;stroke-linecap:square"/><path id="line2d_52" d="m19.882 271.8 4.062-1.436 4.316-1.761 4.57-2.116 4.57-2.358 4.824-2.735 5.078-3.132 5.332-3.546 5.84-4.156 6.346-4.805 6.855-5.479 7.617-6.378 6.347-5.56 3.555-3.45 3.808-4.009 4.062-4.6 4.57-5.525 5.078-6.511 5.84-7.88 7.109-10 11.933-17.253 10.155-14.524 13.202-18.683 5.84-8.986 8.632-13.755 11.171-17.75 5.84-8.858 4.824-6.925 4.316-5.802 3.808-4.75 3.555-4.07 3.3-3.43 3.047-2.837 5.078-4.28 8.378-6.83 6.855-5.302 6.094-4.43 5.331-3.61 5.078-3.176 4.824-2.747 4.316-2.214 4.316-1.962 4.062-1.599 3.809-1.266 3.808-1.028 2.285-.496h0" clip-path="url(#pb66b892df9)" style="fill:none;stroke:#718eff;stroke-opacity:.5;stroke-linecap:square"/><path id="line2d_53" d="m19.882 271.8 9.14-14.396 8.632-13.186 8.379-12.39 7.87-11.25 7.617-10.51 7.363-9.788 7.109-9.088 6.855-8.413 14.471-17.2 9.14-10.536 7.363-8.165 6.601-7 6.094-6.134 5.585-5.305 5.078-4.525 4.824-4.009 4.57-3.516 4.316-3.05 4.57-2.964 5.078-3.027 5.84-3.21 7.362-3.77 20.058-10.114 5.84-3.29 5.077-3.118 4.57-3.066 5.078-3.695 5.585-4.328 5.84-4.804 6.093-5.301 6.347-5.82 6.602-6.353 6.855-6.901 7.362-7.73 7.871-8.598 6.601-7.45h0" clip-path="url(#pb66b892df9)" style="fill:none;stroke:#8e71ff;stroke-opacity:.5;stroke-linecap:square"/><path id="line2d_54" d="m19.882 271.8 10.41-14.659 9.901-13.565 9.648-12.842 9.394-12.132 9.14-11.436 8.632-10.451 8.632-10.104 9.902-11.235 9.648-10.613 9.648-10.281 9.394-9.692 9.394-9.376 9.394-9.06 8.886-8.263 8.632-7.71 9.648-8.309 11.171-9.315 15.487-12.597 37.068-29.793 17.519-13.704 17.01-13.028 5.078-3.835h0" clip-path="url(#pb66b892df9)" style="fill:none;stroke:#8e71ff;stroke-opacity:.5;stroke-linecap:square"/><path id="line2d_55" d="m19.882 271.8 8.632-11.762 8.125-10.705 7.87-10.004 7.363-9.01 7.109-8.356 6.855-7.72 6.601-7.106 6.347-6.512 6.094-5.938 5.078-4.645 5.585-4.81 6.347-5.16 7.617-5.893 27.674-21.105 6.093-5.1 5.586-4.966 6.601-6.17 7.617-7.436 9.14-9.251 13.71-14.242 16.757-17.345 9.14-9.134 22.596-22.113 22.342-21.556L273.518 19.8h0" clip-path="url(#pb66b892df9)" style="fill:none;stroke:#8e71ff;stroke-opacity:.5;stroke-linecap:square"/><path id="line2d_56" d="m19.882 271.8 17.264-17.045 17.011-16.481L70.66 222.59l15.487-14.42 8.886-7.958 12.187-10.58 19.804-17.178 8.886-8.028 7.616-7.18 6.602-6.522 6.6-6.847 7.617-8.23 9.648-10.776 31.736-35.749 8.379-8.91 16.503-17.219 16.249-16.63 15.74-15.796L273.519 19.8h0" clip-path="url(#pb66b892df9)" style="fill:none;stroke:#8e71ff;stroke-opacity:.5;stroke-linecap:square"/><path id="line2d_57" d="m19.882 271.8 8.886-13.286 8.378-12.13 7.871-11.016 7.617-10.29 7.362-9.58 7.11-8.886 6.854-8.216 6.602-7.569 6.855-7.513 7.87-8.316 7.87-7.998 7.871-7.685 7.871-7.374 7.87-7.066 7.871-6.76 7.617-6.256 7.109-5.563 5.332-3.867 5.839-3.958 7.109-4.535 11.171-6.813 10.917-6.738 6.855-4.497 5.586-3.919 5.078-3.823 5.078-4.11 5.84-5.01 6.092-5.515 6.348-6.044 6.6-6.592 6.856-7.158 7.109-7.74 7.617-8.624 7.87-9.246 6.855-8.307h0" clip-path="url(#pb66b892df9)" style="fill:none;stroke:#8e71ff;stroke-opacity:.5;stroke-linecap:square"/><path id="line2d_58" d="m19.882 271.8 7.617-14.22 7.108-12.823 6.855-11.908 6.348-10.59 6.093-9.74 5.84-8.913 5.585-8.117 5.332-7.354 5.078-6.627 4.824-5.94 4.824-5.591 5.839-6.43 6.093-6.37 6.094-6.054 6.347-5.999 6.855-6.166 7.109-6.097 7.87-6.45 8.887-6.985 9.14-6.913 5.84-4.116 6.346-4.2 7.617-4.77 12.187-7.325 11.933-7.257 7.363-4.738 6.093-4.174 6.093-4.45 8.379-6.393 8.632-6.869 8.886-7.356 9.14-7.853 9.648-8.589 9.902-9.114 5.84-5.509h0" clip-path="url(#pb66b892df9)" style="fill:none;stroke:#8e71ff;stroke-opacity:.5;stroke-linecap:square"/><path id="line2d_59" d="m19.882 271.8 7.617-14.084 6.855-12.22 6.347-10.88 6.093-10.005 5.586-8.76 5.331-7.965 5.078-7.2 4.824-6.472 4.57-5.78 4.57-5.421 4.316-4.777 4.317-4.433 4.57-4.372 4.823-4.303 5.078-4.232 5.586-4.368 6.601-4.867 8.886-6.245 15.741-11.026 6.601-4.923 6.348-5.023 17.264-13.99 19.55-16.133 23.612-19.788 21.834-18.556 22.089-19.064 19.55-17.113h0" clip-path="url(#pb66b892df9)" style="fill:none;stroke:#8e71ff;stroke-opacity:.5;stroke-linecap:square"/><path id="line2d_60" d="m19.882 271.8 7.363-5.978 7.616-6.48 7.87-6.999 8.125-7.53 8.379-8.072 8.632-8.625 9.14-9.45 8.379-8.968 4.316-4.973 4.824-5.901 5.839-7.52 7.617-10.211 17.518-23.625 5.84-7.426 4.824-5.798 4.316-4.86 4.062-4.24 3.808-3.65 4.824-4.307 5.078-4.23 5.586-4.361 6.6-4.86 9.14-6.421 13.965-9.817 6.6-4.934 5.586-4.45 5.078-4.331 7.617-6.839 7.87-7.362 8.125-7.903 8.378-8.456 8.887-9.292 9.14-9.886 9.394-10.486 3.3-3.759h0" clip-path="url(#pb66b892df9)" style="fill:none;stroke:#8e71ff;stroke-opacity:.5;stroke-linecap:square"/><path id="line2d_61" d="m19.882 271.8 9.14-10.875 8.632-9.937 8.379-9.312 8.124-8.695 7.617-7.834 7.363-7.263 7.108-6.71 6.855-6.177 4.317-3.658 4.824-3.785 5.331-3.886 6.347-4.338 11.68-7.64 8.124-5.459 5.586-4.01 4.823-3.722 4.57-3.809 4.317-3.901 4.062-3.987 2.539-2.8 2.539-3.124 2.792-3.776 3.047-4.48 3.555-5.636 4.062-6.878 5.078-9.076 8.378-15.533 7.617-13.944 4.824-8.363 3.808-6.183 3.3-4.975 3.047-4.216 2.793-3.5 2.539-2.848 2.285-2.264 3.808-3.347 8.886-7.579 6.855-5.558 5.84-4.455 5.332-3.787 4.824-3.155 4.57-2.72 4.316-2.3 4.062-1.903 3.808-1.537 3.555-1.201 3.554-.963 3.3-.669 1.524-.232h0" clip-path="url(#pb66b892df9)" style="fill:none;stroke:#8e71ff;stroke-opacity:.5;stroke-linecap:square"/><path id="line2d_62" d="m19.882 271.8 7.363-14.387 6.6-12.426 6.094-11.007 5.586-9.647 5.331-8.768 5.078-7.915 4.57-6.73 4.57-6.333 4.316-5.593 4.063-4.9 3.808-4.256 3.808-3.917 3.555-3.34 4.062-3.515 4.316-3.437 4.57-3.348 5.078-3.43 5.586-3.5 7.109-4.178 19.041-11.048 5.586-3.581 4.824-3.345 5.332-3.996 7.108-5.593 8.125-6.687 9.394-8.038 11.933-10.527 54.586-48.826 19.042-17.456L273.518 19.8h0" clip-path="url(#pb66b892df9)" style="fill:none;stroke:#8e71ff;stroke-opacity:.5;stroke-linecap:square"/><path id="line2d_63" d="m19.882 271.8 8.124-4.955 8.379-5.37 8.632-5.796 8.886-6.23 9.394-6.86 9.648-7.32 10.155-7.983 9.394-7.654 8.887-7.525 8.632-7.6 8.378-7.672 8.125-7.74 7.87-7.796 7.87-8.11 6.856-7.363 4.824-5.55 5.332-6.493 6.093-7.79 7.617-10.131 27.42-36.852 5.84-7.277 5.331-6.293 10.917-12.466 10.41-11.552 10.155-10.938 9.902-10.333 9.394-9.488 9.14-8.923 2.031-1.94h0" clip-path="url(#pb66b892df9)" style="fill:none;stroke:#a5f;stroke-opacity:.5;stroke-linecap:square"/><path id="line2d_64" d="m19.882 271.8 10.41-10.375 9.901-9.56 9.648-9.007 9.14-8.236 8.886-7.714 8.632-7.204 8.125-6.502 5.332-3.988 5.839-4.084 7.109-4.686 12.187-7.706 9.647-6.22 6.602-4.522 5.585-4.096 5.078-4.003 4.57-3.874 4.062-3.726 4.316-4.28 4.57-4.852 5.078-5.723 5.84-6.938 6.855-8.508 9.901-12.69 14.472-18.533 6.855-8.416 12.187-14.426 42.146-49.629L273.518 19.8h0" clip-path="url(#pb66b892df9)" style="fill:none;stroke:#a5f;stroke-opacity:.5;stroke-linecap:square"/><path id="line2d_65" d="m19.882 271.8 10.917-10.026 10.663-9.491 10.156-8.746 9.902-8.236 9.648-7.733 9.394-7.242 6.6-4.85 5.332-3.613 6.348-4.016 8.378-5.013 14.98-8.929 6.347-4.073 5.332-3.68 4.823-3.594 4.57-3.684 4.317-3.775 3.046-2.954 3.3-3.506 3.555-4.098 4.063-5.041 4.316-5.714 5.078-7.099 6.347-9.282 23.358-34.569 4.824-6.538 4.316-5.49 9.648-11.637 10.41-12.225 9.9-11.296 9.649-10.676 9.394-10.07 9.14-9.475 5.585-5.629h0" clip-path="url(#pb66b892df9)" style="fill:none;stroke:#a5f;stroke-opacity:.5;stroke-linecap:square"/><path id="line2d_66" d="m19.882 271.8 33.513-16.54 38.846-19.197 8.632-3.747 15.995-6.902 6.347-3.006 5.586-2.888 5.078-2.883 4.57-2.846 4.316-2.942 4.062-3.023 2.285-1.928 2.539-2.465 2.539-2.781 2.793-3.397 3.046-4.074 3.3-4.802 3.555-5.565 4.063-6.781 4.823-8.509 6.348-11.694 15.74-29.227 4.825-8.389 4.062-6.646 3.555-5.424 11.17-16.263 10.918-15.5 10.41-14.399 10.155-13.675 9.902-12.966 9.648-12.27 1.015-1.271h0" clip-path="url(#pb66b892df9)" style="fill:none;stroke:#a5f;stroke-opacity:.5;stroke-linecap:square"/><path id="line2d_67" d="m19.882 271.8 12.44-10.652 12.187-10.14 11.68-9.43 11.424-8.94 11.171-8.455 8.125-5.914 5.585-3.757 6.602-4.166 9.901-5.95 11.933-7.22 6.601-4.265 5.586-3.879 5.078-3.805 4.57-3.702 4.316-3.775 3.047-2.935 3.3-3.492 3.555-4.092 3.808-4.719 4.316-5.708 4.824-6.75 6.093-8.937 9.394-14.243 10.156-15.292 5.84-8.397 4.823-6.563 4.316-5.502 10.918-13.317 10.41-12.35 10.155-11.706 9.902-11.07 9.393-10.174 9.14-9.581 3.047-3.122h0" clip-path="url(#pb66b892df9)" style="fill:none;stroke:#a5f;stroke-opacity:.5;stroke-linecap:square"/><path id="line2d_68" d="m19.882 271.8 38.083-20.88 33.006-18.08 7.87-3.841 19.804-9.54 6.093-3.25 5.332-3.095 4.824-3.051 4.57-3.155 4.316-3.249 3.809-3.126 2.285-2.158 2.539-2.712 2.792-3.337 3.047-4.027 3.3-4.77 3.555-5.55 4.062-6.784 4.57-8.077 6.094-11.263 17.01-31.74 4.57-7.925 4.063-6.607 3.554-5.362 5.078-7.13 9.14-12.502 8.632-11.437 8.379-10.734 8.124-10.042 7.617-9.07 7.363-8.435 7.108-7.82 3.047-3.251h0" clip-path="url(#pb66b892df9)" style="fill:none;stroke:#a5f;stroke-opacity:.5;stroke-linecap:square"/><path id="line2d_69" d="m19.882 271.8 4.57-1.259 4.57-1.49 4.824-1.809 5.078-2.148 5.331-2.505 5.586-2.875 5.84-3.255 6.347-3.793 6.855-4.355 7.87-5.272 8.125-5.702 3.808-2.96 4.062-3.46 4.316-3.98 4.57-4.52 5.078-5.338 5.84-6.475 6.855-7.945 10.155-12.155 13.964-16.683 15.995-18.836 10.156-12.493 18.788-23.556 13.202-16.365 9.14-10.987 17.01-19.956 16.504-19.02 16.249-18.394L273.518 19.8h0" clip-path="url(#pb66b892df9)" style="fill:none;stroke:#a5f;stroke-opacity:.5;stroke-linecap:square"/><path id="line2d_70" d="m19.882 271.8 9.14-9.815 8.632-8.944 8.125-8.102 7.87-7.535 7.363-6.75 7.109-6.228 6.855-5.719 6.601-5.23 5.332-3.966 4.824-3.283 5.331-3.35 6.348-3.71 9.901-5.485 10.156-5.701 6.093-3.68 5.078-3.32 4.57-3.242 4.316-3.33 4.063-3.417 3.046-2.854 3.3-3.402 3.555-3.99 3.809-4.607 4.316-5.574 5.078-6.945 6.093-8.733 11.171-16.5 8.125-11.81 5.585-7.747 4.57-5.985 4.063-4.982 10.409-12.17 10.156-11.536 9.647-10.63 9.394-10.03 9.14-9.436 8.887-8.859 5.585-5.403h0" clip-path="url(#pb66b892df9)" style="fill:none;stroke:#a5f;stroke-opacity:.5;stroke-linecap:square"/><path id="line2d_71" d="m19.882 271.8 16.757-11.924 16.502-11.47 15.996-10.849 15.233-10.074 5.84-3.64 7.108-4.155 10.918-6.08 11.679-6.571 6.855-4.118 5.84-3.77 5.077-3.532 4.824-3.622 4.57-3.708 3.554-3.17 3.555-3.467 3.808-4.016 4.316-4.889 4.57-5.518 5.078-6.48 6.093-8.156 7.617-10.595 22.596-31.695 27.167-36.73 14.217-19.768 14.472-20.499 9.394-13.504h0" clip-path="url(#pb66b892df9)" style="fill:none;stroke:#a5f;stroke-opacity:.5;stroke-linecap:square"/><path id="line2d_72" d="m19.882 271.8 9.14-7.786 8.632-7.063 8.125-6.363 7.616-5.69 7.363-5.228 7.11-4.773 6.854-4.332 6.601-3.906 5.078-2.783 4.57-2.235 5.078-2.23 6.093-2.42 9.14-3.351 10.41-3.864 5.84-2.4 5.077-2.327 4.57-2.344 4.062-2.324 4.063-2.587 3.046-2.183 2.285-1.94 2.54-2.466 2.538-2.769 2.793-3.367 3.047-4.023 3.3-4.723 3.809-5.856 4.316-7.068 5.331-9.197 8.125-14.54 9.394-16.707 5.078-8.586 4.316-6.872 3.808-5.639 5.332-7.373 10.663-14.423 10.156-13.367 9.901-12.668 9.648-11.98 9.394-11.307 9.14-10.65.254-.29h0" clip-path="url(#pb66b892df9)" style="fill:none;stroke:#a5f;stroke-opacity:.5;stroke-linecap:square"/><path id="line2d_73" d="m19.882 271.8 12.187-7.26 12.44-7.672 12.695-8.087 13.202-8.675 13.71-9.279 10.41-6.965 18.026-12.03 7.616-5.374 6.602-4.926 5.84-4.627 5.585-4.714 5.077-4.567 4.824-4.637 3.301-3.497 3.554-4.095 3.809-4.724 4.316-5.72 4.824-6.775 5.84-8.616 7.87-12.058 15.233-23.417 5.84-8.52 4.824-6.668 4.824-6.281 11.17-14.157 10.918-13.483 10.663-12.817L255.492 40l9.902-11.234 8.124-8.965h0" clip-path="url(#pb66b892df9)" style="fill:none;stroke:#a5f;stroke-opacity:.5;stroke-linecap:square"/><path id="line2d_74" d="m19.882 271.8 13.202-9.658 12.949-9.198 12.44-8.569 12.187-8.126 11.933-7.688 5.331-3.25 5.586-3.121 6.601-3.424 13.202-6.514 7.871-4.039 5.84-3.243 5.077-3.073 4.57-3.023 4.316-3.12 4.063-3.208 3.3-2.873 2.54-2.572 2.538-2.895 2.793-3.526 3.047-4.217 3.3-4.955 3.808-6.144 4.317-7.412 5.331-9.635 8.886-16.624 7.871-14.556 5.078-8.933 4.062-6.725 3.555-5.486 3.3-4.697 4.062-5.317 8.125-10.308 7.617-9.32 7.362-8.663 6.855-7.736 6.602-7.127 6.347-6.535 6.093-5.965 5.84-5.416 5.84-5.109h0" clip-path="url(#pb66b892df9)" style="fill:none;stroke:#a5f;stroke-opacity:.5;stroke-linecap:square"/><path id="line2d_75" d="m19.882 271.8 10.155-8.45 9.648-7.74 9.14-7.052 8.886-6.574 8.379-5.928 8.124-5.484 7.87-5.05 5.079-3.05 4.824-2.622 5.585-2.77 6.855-3.139 19.296-8.684 5.332-2.72 4.824-2.706 4.316-2.668 4.062-2.764 3.808-2.845 2.54-2.114 2.284-2.192 2.54-2.743 2.792-3.362 3.047-4.042 3.3-4.77 3.555-5.53 4.062-6.735 4.824-8.435 6.855-12.481 11.933-21.766 5.077-8.751 4.063-6.582 3.554-5.367 3.3-4.591 7.617-9.895 8.379-10.545 7.87-9.558 7.617-8.903 7.363-8.262 6.855-7.368 6.601-6.785 6.601-6.464 4.824-4.513h0" clip-path="url(#pb66b892df9)" style="fill:none;stroke:#a5f;stroke-opacity:.5;stroke-linecap:square"/><path id="line2d_76" d="m19.882 271.8 14.472-8.728 14.98-9.297 15.233-9.719 15.74-10.31 11.68-7.621 27.928-17.825 6.347-4.453 5.84-4.37 5.331-4.27 5.078-4.356 4.824-4.442 3.046-3.09 3.301-3.668 3.554-4.286 3.809-4.936 4.316-5.962 5.078-7.422 6.093-9.333 9.648-15.262 9.902-15.55 5.84-8.771 4.823-6.866 4.316-5.775 11.425-14.752L233.404 67l10.663-13.064 10.41-12.4 10.155-11.748 8.886-9.987h0" clip-path="url(#pb66b892df9)" style="fill:none;stroke:#a5f;stroke-opacity:.5;stroke-linecap:square"/><path id="line2d_77" d="m19.882 271.8 7.617-13.888 6.855-12.04 6.347-10.701 5.84-9.422 5.585-8.595 5.332-7.792 5.077-7.019 4.824-6.28 4.57-5.581 4.316-4.925 4.063-4.312 4.062-3.986 3.808-3.421 4.063-3.344 4.316-3.258 4.824-3.35 5.585-3.596 7.87-4.774 11.172-6.798 5.586-3.678 4.57-3.262 4.316-3.356 4.062-3.452 3.554-3.318 2.793-2.965 2.793-3.286 3.3-4.248 3.555-4.953 4.062-6.046 5.078-7.973 9.648-15.686 6.601-10.508 4.57-6.874 3.808-5.346 3.301-4.276 3.047-3.6 2.792-2.965 2.54-2.386 2.284-1.872 2.285-1.598 12.187-7.88 7.11-4.336 5.839-3.317 5.331-2.779 4.824-2.267 4.57-1.9 4.316-1.542 4.063-1.207 3.808-.896 3.554-.614 3.555-.387 3.3-.142.508-.003h0" clip-path="url(#pb66b892df9)" style="fill:none;stroke:#c738ff;stroke-opacity:.5;stroke-linecap:square"/><path id="line2d_78" d="m19.882 271.8 7.87-16.234 7.363-14.696 7.11-13.697 6.6-12.253 6.348-11.327 6.093-10.43 5.84-9.565 5.585-8.733 5.332-7.94 5.331-7.538 8.887-12.034 7.616-9.955 6.855-8.608 6.348-7.623 5.839-6.68 5.586-6.055 5.331-5.448 5.078-4.863 4.824-4.304 4.57-3.776 4.57-3.477 5.332-3.773 5.585-3.678 6.094-3.738 6.6-3.786 7.871-4.246 10.918-5.604 17.264-8.858 25.643-13.52 16.25-8.26 15.994-7.88 7.11-3.421h0" clip-path="url(#pb66b892df9)" style="fill:none;stroke:#c738ff;stroke-opacity:.5;stroke-linecap:square"/><path id="line2d_79" d="m19.882 271.8 8.124-12.725 7.617-11.521 7.109-10.363 6.855-9.606 6.601-8.864 6.347-8.143 5.84-7.142 5.84-6.79 5.585-6.15 5.078-5.276 4.57-4.416 4.824-4.34 5.331-4.486 6.094-4.828 8.632-6.523 12.948-9.79 6.094-4.899 5.331-4.572 4.824-4.44 4.317-4.278 3.3-3.596 3.555-4.2 4.062-5.152 4.824-6.506 6.093-8.628 18.28-26.184 4.824-6.369 4.062-5.003 3.555-4.043 3.3-3.428 3.047-2.85 2.793-2.32 5.84-4.374 8.378-6.055 6.855-4.69 6.093-3.906 5.586-3.322 5.077-2.771 4.824-2.388 4.57-2.02 4.317-1.67 4.062-1.347 4.062-1.114 3.808-.82.508-.092h0" clip-path="url(#pb66b892df9)" style="fill:none;stroke:#c738ff;stroke-opacity:.5;stroke-linecap:square"/><path id="line2d_80" d="m19.882 271.8 10.41-13.108 10.155-12.432 9.648-11.466 9.394-10.826 9.14-10.198 8.886-9.583 8.124-8.447 5.586-5.482 6.347-5.916 7.87-7.017 25.136-22.168 6.347-6.049 5.586-5.634 5.078-5.44 3.554-4.152 3.808-4.807 4.317-5.82 5.077-7.236 6.855-10.19 13.964-20.853 5.332-7.495 4.316-5.697 3.809-4.673 3.554-4.006 3.047-3.121 3.046-2.8 3.047-2.474 9.14-7.061 7.363-5.41 6.347-4.391 5.586-3.608 5.331-3.182 4.824-2.63 4.57-2.251 4.317-1.891 4.316-1.644 4.062-1.306 3.808-.998 2.54-.538h0" clip-path="url(#pb66b892df9)" style="fill:none;stroke:#c738ff;stroke-opacity:.5;stroke-linecap:square"/><path id="line2d_81" d="m19.882 271.8 7.87-13.743 7.363-12.406 6.855-11.117 6.348-9.886 6.093-9.094 5.84-8.323 5.585-7.582 5.332-6.87 5.077-6.195 5.078-5.837 4.824-5.198 4.824-4.856 5.078-4.79 5.585-4.956 6.348-5.32 8.124-6.497 20.058-15.9 6.347-5.399 5.585-5.046 5.84-5.595 6.855-6.888 9.394-9.783 17.264-18.017 7.11-7.054 5.839-5.488 5.078-4.482 4.824-3.96 9.393-7.275 8.633-6.41 8.124-5.764 7.87-5.31 7.364-4.703 7.109-4.28 6.855-3.868 6.6-3.47 1.27-.638h0" clip-path="url(#pb66b892df9)" style="fill:none;stroke:#c738ff;stroke-opacity:.5;stroke-linecap:square"/><path id="line2d_82" d="m19.882 271.8 7.363-14.707 6.6-12.697 5.84-10.775 5.586-9.846 5.078-8.515 4.824-7.667 4.57-6.853 4.316-6.079 4.062-5.35 3.808-4.67 3.809-4.317 3.554-3.698 3.3-3.134 3.555-3.063 3.809-2.984 4.062-2.889 4.316-2.786 4.824-2.837 5.585-3.02 8.633-4.377 9.394-4.828 5.331-2.983 4.57-2.798 4.063-2.731 3.808-2.813 3.554-2.894 3.047-2.81 3.047-3.109 3.554-3.961 3.809-4.585 4.57-5.876 5.585-7.577 11.425-16.012 6.601-9.003 4.824-6.213 4.063-4.88 3.554-3.939 3.3-3.33 3.047-2.757 3.3-2.655 8.633-6.645 7.363-5.396 6.601-4.57 6.093-3.953 5.586-3.368 5.332-2.96 5.078-2.567 4.823-2.19 4.57-1.834 4.317-1.506 3.3-.993h0" clip-path="url(#pb66b892df9)" style="fill:none;stroke:#c738ff;stroke-opacity:.5;stroke-linecap:square"/><path id="line2d_83" d="m19.882 271.8 8.886-13.664 8.378-12.488 8.125-11.715 7.87-10.955 7.363-9.878 7.11-9.178 6.854-8.502 6.601-7.847 6.094-6.923 6.093-6.575 6.601-6.792 7.617-7.504 9.394-8.924 26.404-24.893 7.11-7.105 7.108-7.446 10.41-11.262 14.472-15.628 7.109-7.348 6.093-5.983 5.332-4.924 4.823-4.153 4.317-3.437 9.14-6.824 8.124-5.798 7.617-5.17 7.109-4.565 6.855-4.14 6.347-3.581 6.093-3.194 5.84-2.821 5.84-2.572.507-.211h0" clip-path="url(#pb66b892df9)" style="fill:none;stroke:#c738ff;stroke-opacity:.5;stroke-linecap:square"/><path id="line2d_84" d="m19.882 271.8 7.87-12.23 7.11-10.647 6.6-9.504 6.348-8.756 6.093-8.022 5.586-6.997 5.331-6.34 5.078-5.713 5.078-5.377 4.824-4.782 4.57-4.221 4.062-3.435 4.062-3.15 4.57-3.256 5.078-3.34 6.348-3.892 19.295-11.621 5.078-3.434 4.316-3.174 4.062-3.252 3.809-3.324 3.046-2.907 2.54-2.753 2.792-3.38 3.047-4.06 3.3-4.78 3.809-5.93 4.57-7.563 6.093-10.565 12.44-21.677 4.57-7.46 3.81-5.812 3.3-4.657 3.046-3.926 2.793-3.24 2.539-2.615 2.285-2.057 3.047-2.386 10.155-7.688 7.11-5.105 5.839-3.927 5.331-3.316 4.824-2.736 4.316-2.203 4.063-1.837 3.808-1.496 3.808-1.256 3.555-.94 3.554-.702 3.301-.425 1.777-.134h0" clip-path="url(#pb66b892df9)" style="fill:none;stroke:#c738ff;stroke-opacity:.5;stroke-linecap:square"/><path id="line2d_85" d="m19.882 271.8 17.772-21.936 17.519-21.27 17.264-20.613 34.275-40.395 12.949-15.047 9.648-10.878 8.124-8.837 7.363-7.688 8.378-8.389 9.902-9.612 9.902-9.297 9.647-8.757 9.648-8.46 9.648-8.164 9.648-7.873 11.171-8.816 10.664-8.135 10.409-7.66 9.902-7.01 9.648-6.561 9.394-6.118.761-.484h0" clip-path="url(#pb66b892df9)" style="fill:none;stroke:#e31cff;stroke-opacity:.5;stroke-linecap:square"/><path id="line2d_86" d="m19.882 271.8 39.86-36.875 49.255-45.602L125.5 174.01l11.171-10.667 9.394-9.268 7.617-7.798 8.632-9.166 10.918-11.936 34.02-37.44 12.188-12.81 18.787-19.462 18.534-18.877L273.518 19.8h0" clip-path="url(#pb66b892df9)" style="fill:none;stroke:#e31cff;stroke-opacity:.5;stroke-linecap:square"/><path id="line2d_87" d="m19.882 271.8 8.124-7.194 8.379-7.722 8.632-8.264 8.886-8.819 9.14-9.383 9.648-10.231 9.902-10.828 4.824-5.504 5.077-6.164 5.84-7.462 7.363-9.796 22.088-29.645 5.84-7.316 4.824-5.708 4.316-4.789 4.062-4.187 5.332-5.117 5.585-5.045 6.094-5.198 6.855-5.554 8.886-6.897 21.834-16.822 6.855-5.633 9.14-7.87 14.726-12.943 14.98-13.465 15.233-13.994 11.171-10.45h0" clip-path="url(#pb66b892df9)" style="fill:none;stroke:#e31cff;stroke-opacity:.5;stroke-linecap:square"/><path id="line2d_88" d="m19.882 271.8 18.788-17.209 19.04-17.741 19.55-18.521 20.057-19.312 19.042-18.633 17.772-17.697 16.25-16.485 11.678-12.177 17.519-18.63 21.834-23.163 12.187-12.59 20.057-20.36 19.55-19.529 19.296-18.964 1.015-.989h0" clip-path="url(#pb66b892df9)" style="fill:none;stroke:#e31cff;stroke-opacity:.5;stroke-linecap:square"/><path id="line2d_89" d="m19.882 271.8 5.585-2.95 5.586-3.2 5.84-3.599 6.093-4.016 6.347-4.45 6.601-4.894 7.11-5.55 7.616-6.238 8.124-6.95 7.11-6.345 4.315-4.177 4.824-4.987 5.332-5.847 6.093-7.032 7.363-8.866 11.171-13.859 12.949-15.982 7.109-8.423 35.037-40.334 12.44-14.025 9.902-10.831 8.632-9.12 12.187-12.495 11.679-11.66 11.425-11.098 11.171-10.54 10.917-9.992 5.078-4.54h0" clip-path="url(#pb66b892df9)" style="fill:none;stroke:#e31cff;stroke-opacity:.5;stroke-linecap:square"/><path id="line2d_90" d="m19.882 271.8 11.933-11.49L44 248.267l12.441-12.61 12.695-13.182 13.202-14.034 6.601-7.256 6.855-7.893 9.14-10.894 21.835-26.18 7.109-8.091 5.839-6.326 5.332-5.458 5.331-5.124 6.094-5.54 6.6-5.697 7.872-6.49 11.932-9.508 13.71-10.986 7.617-6.388 6.601-5.824 11.425-10.47 11.68-11.01 11.932-11.56L258.03 35.63l12.694-12.94 2.793-2.889h0" clip-path="url(#pb66b892df9)" style="fill:none;stroke:#e31cff;stroke-opacity:.5;stroke-linecap:square"/><path id="line2d_91" d="m19.882 271.8 8.632-13.09 8.125-11.93 7.87-11.168 7.617-10.417 7.109-9.355 6.855-8.666 6.601-7.999 6.347-7.356 6.348-7.013 6.6-6.948 6.856-6.887 7.363-7.078 8.124-7.498 9.648-8.585 13.456-11.64 18.026-15.327 9.394-7.583 13.456-10.541 18.534-14.548 9.394-7.672 8.886-7.557 12.949-11.293 13.202-11.81 13.456-12.335 13.964-13.106 4.824-4.598h0" clip-path="url(#pb66b892df9)" style="fill:none;stroke:#e31cff;stroke-opacity:.5;stroke-linecap:square"/><path id="line2d_92" d="m19.882 271.8 10.917-9.455 11.171-9.973 11.425-10.498 11.68-11.033L77.26 219.02l10.41-10.38 7.87-8.202 9.648-10.4 15.741-17.362 14.472-15.835 8.886-9.403 8.886-9.064 11.933-11.856 15.995-15.553L210.3 82.612l38.337-37.99L273.518 19.8h0" clip-path="url(#pb66b892df9)" style="fill:none;stroke:#e31cff;stroke-opacity:.5;stroke-linecap:square"/><path id="line2d_93" d="m19.882 271.8 5.84-3.67 6.093-4.09 6.347-4.526 6.601-4.983 6.855-5.451 7.109-5.933 7.617-6.648 8.124-7.396 8.632-8.168 4.063-4.067 4.316-4.656 4.824-5.55 5.585-6.79 6.855-8.71 24.374-31.336 5.332-6.312 4.57-5.09 4.316-4.477 5.331-5.178 5.84-5.352 6.601-5.735 8.125-6.748 24.12-19.822 6.346-5.612 5.586-5.218 7.363-7.237 8.632-8.786 8.886-9.37 9.14-9.965 9.394-10.575 9.648-11.192 10.156-12.126 1.015-1.231h0" clip-path="url(#pb66b892df9)" style="fill:none;stroke:#e31cff;stroke-opacity:.5;stroke-linecap:square"/><path id="line2d_94" d="m19.882 271.8 10.41-8.401 10.663-8.888 11.17-9.605 11.426-10.12 11.679-10.644 11.425-10.705 8.378-8.166 9.648-9.72 12.44-12.872 40.37-42.026 41.383-42.82 41.638-43.4L273.518 19.8h0" clip-path="url(#pb66b892df9)" style="fill:none;stroke:#e31cff;stroke-opacity:.5;stroke-linecap:square"/><path id="line2d_95" d="m19.882 271.8 6.093-5.18 6.347-5.697 6.602-6.236 6.855-6.795 7.109-7.37 7.362-7.963 7.617-8.564 8.125-9.475 8.124-9.806 3.3-4.284 3.809-5.321 4.316-6.44 5.078-8.01 6.601-10.87 15.741-26.112 5.078-7.91 4.316-6.325 3.809-5.198 3.554-4.466 3.047-3.491 2.792-2.897 3.301-3.074 4.316-3.736 4.57-3.666 4.824-3.592 5.332-3.696 6.347-4.114 8.378-5.135 16.25-9.897 6.347-4.167 5.331-3.757 13.203-9.739 13.456-10.199 13.964-10.865 14.218-11.346 8.124-6.607h0" clip-path="url(#pb66b892df9)" style="fill:none;stroke:#e31cff;stroke-opacity:.5;stroke-linecap:square"/><path id="line2d_96" d="m19.882 271.8 7.363-5.778 7.616-6.26 7.87-6.756 8.125-7.266 8.379-7.787 8.886-8.566 9.14-9.12 8.125-8.39 4.062-4.54 4.57-5.44 5.331-6.696 7.11-9.313 17.518-23.125 5.585-6.912 4.57-5.32 4.063-4.408 3.808-3.812 3.554-3.237 3.555-2.922 4.062-3.068 4.57-3.161 4.824-3.063 5.586-3.282 7.616-4.196 13.71-7.517 5.586-3.335 4.824-3.128 4.316-3.05 4.062-3.13 4.063-3.415 4.57-4.142 4.57-4.44 4.824-4.996 5.077-5.585 5.332-6.204 5.586-6.85 5.84-7.52 6.093-8.208 6.6-9.27 7.11-10.38 5.585-8.412h0" clip-path="url(#pb66b892df9)" style="fill:none;stroke:#f0f;stroke-opacity:.5;stroke-linecap:square"/><path id="line2d_97" d="m19.882 271.8 13.202-14.418 13.456-15.027 13.71-15.642 13.964-16.268 11.425-13.613 4.063-5.233 4.824-6.586 6.093-8.72 19.296-27.923 4.823-6.428 4.063-5.06 3.554-4.102 3.3-3.494 3.047-2.922 2.793-2.395 2.793-2.1 2.539-1.636 3.808-2.125 4.063-1.999 4.316-1.865 4.824-1.828 5.585-1.862 7.87-2.358 11.68-3.497 5.585-1.915 4.824-1.891 4.316-1.937 3.809-1.94 3.554-2.042 3.3-2.159 3.301-2.422 3.555-2.892 3.554-3.172 3.809-3.693 4.062-4.258 4.316-4.861 4.57-5.5 4.824-6.167 5.078-6.855 5.585-7.926 6.094-9.045 6.855-10.59 3.554-5.634h0" clip-path="url(#pb66b892df9)" style="fill:none;stroke:#f0f;stroke-opacity:.5;stroke-linecap:square"/><path id="line2d_98" d="m19.882 271.8 18.28-19.886 18.534-20.49 18.788-21.103 11.425-13.09 5.332-6.552 6.6-8.497 23.105-30.102 5.078-6.07 4.57-5.116 4.062-4.21 3.554-3.383 3.3-2.86 3.301-2.559 3.555-2.435 4.062-2.51 4.316-2.395 4.57-2.285 5.332-2.414 7.109-2.95 15.233-6.234 5.332-2.461 4.57-2.34 4.316-2.458 4.062-2.58 3.809-2.69 3.808-2.972 4.062-3.469 4.063-3.763 4.316-4.306 4.57-4.884 4.824-5.498 5.077-6.14 5.332-6.808 5.586-7.493 6.093-8.553 6.601-9.657 7.11-10.787h0" clip-path="url(#pb66b892df9)" style="fill:none;stroke:#f0f;stroke-opacity:.5;stroke-linecap:square"/><path id="line2d_99" d="m19.882 271.8 7.363-6.285 7.616-6.797 7.87-7.326 8.125-7.868 8.379-8.423 8.886-9.256 9.14-9.847 8.125-9.05 4.316-5.18 4.824-6.153 5.585-7.495 7.617-10.633 16.503-23.161 5.84-7.74 4.823-6.037 4.316-5.052 3.809-4.133 3.554-3.545 4.57-4.187 4.824-4.118 5.332-4.247 5.84-4.358 7.108-5.014 12.948-8.786 8.887-6.172 6.347-4.673 5.332-4.188 5.84-4.89 8.631-7.502 8.887-8.01 9.393-8.774 9.648-9.322 9.902-9.879 10.41-10.706 3.046-3.193h0" clip-path="url(#pb66b892df9)" style="fill:none;stroke:#f0f;stroke-opacity:.5;stroke-linecap:square"/><path id="line2d_100" d="m19.882 271.8 8.378-8.534 8.632-9.106 8.887-9.694 9.14-10.294 9.648-11.205 9.901-11.846 9.648-11.87 3.555-4.697 3.808-5.402 4.57-6.888 5.585-8.846 20.312-32.596 4.316-6.308 3.808-5.192 3.555-4.464 3.046-3.485 2.793-2.886 2.793-2.56 2.539-2.02 2.285-1.552 3.808-2.272 4.062-2.149 4.317-2.016 4.57-1.888 5.331-1.957 7.11-2.348 14.725-4.793 5.332-2.003 4.57-1.941 4.316-2.079 3.808-2.071 3.808-2.327 3.809-2.587 4.062-3.034 4.316-3.52 4.316-3.808 4.57-4.33 4.824-4.879 5.078-5.456 5.332-6.053 5.84-6.974 6.346-7.944 6.855-8.946 5.332-7.18h0" clip-path="url(#pb66b892df9)" style="fill:none;stroke:#f0f;stroke-opacity:.5;stroke-linecap:square"/></g></g><defs><clipPath id="pb66b892df9"><path d="M7.2 7.2h279v277.2H7.2z"/></clipPath></defs></svg>