<svg xmlns="http://www.w3.org/2000/svg" width="391.2" height="388.8" viewBox="0 0 293.4 291.6"><defs><style>*{stroke-linejoin:round;stroke-linecap:butt}</style></defs><g id="figure_1"><path id="patch_1" d="M0 291.6h293.4V0H0z" style="fill:none"/><g id="axes_1"><path id="line2d_1" d="m19.882 271.8 5.585-3.192 5.84-3.59 6.093-4.01 6.348-4.45 6.6-4.908 6.856-5.383 7.109-5.872 7.362-6.37 7.871-7.11 8.378-7.882 8.887-8.673 8.886-8.978 3.808-4.156 4.062-4.768 4.316-5.402 4.824-6.392 5.586-7.79 6.601-9.615 9.14-13.752 15.741-23.725 6.601-9.527 5.586-7.687 4.824-6.282 4.57-5.587 4.062-4.624 3.809-4.007 9.647-9.614 8.887-8.546 8.378-7.75 7.87-6.977 7.363-6.236 7.11-5.732 6.854-5.24 6.602-4.76 6.347-4.3 6.093-3.855 5.84-3.434 3.3-1.824h0" clip-path="url(#p9e6aabee00)" style="fill:none;stroke:#f0f;stroke-opacity:.8;stroke-linecap:square"/><path id="line2d_2" d="m19.882 271.8 9.902-34.122 7.362-24.605 6.348-20.456 5.585-17.282 5.078-15.024 4.824-13.584 4.316-11.523 4.062-10.252 3.809-9.048 3.808-8.464 3.554-7.342 3.301-6.308 3.047-5.366 3.046-4.908 2.793-4.081 2.54-3.35 2.538-2.997 2.285-2.385 2.285-2.082 2.285-1.771 2.031-1.308 5.078-2.886 5.332-2.771 5.585-2.642 5.586-2.398 6.093-2.37 6.347-2.227 6.855-2.172 7.871-2.253 9.394-2.446 15.487-3.757 15.488-3.843 15.487-3.763 13.964-3.17 12.948-2.715 12.187-2.33 11.425-1.96 10.917-1.653 2.793-.386h0" clip-path="url(#p9e6aabee00)" style="fill:none;stroke:#807fff;stroke-opacity:.8;stroke-linecap:square"/><path id="line2d_3" d="m19.882 271.8 9.902-34.122 7.362-24.605 6.348-20.456 5.585-17.282 5.078-15.024 4.824-13.584 4.316-11.523 4.062-10.252 3.809-9.048 3.808-8.464 3.554-7.342 3.301-6.308 3.047-5.366 3.046-4.908 2.793-4.081 2.54-3.35 2.538-2.997 2.285-2.385 2.285-2.082 2.285-1.771 2.031-1.308 5.078-2.886 5.332-2.771 5.585-2.642 5.586-2.398 6.093-2.37 6.347-2.227 6.855-2.172 7.871-2.253 9.394-2.446 15.487-3.757 15.488-3.843 15.487-3.763 13.964-3.17 12.948-2.715 12.187-2.33 11.425-1.96 10.917-1.653 2.793-.386h0" clip-path="url(#p9e6aabee00)" style="fill:none;stroke:#5af;stroke-opacity:.8;stroke-linecap:square"/><path id="line2d_4" d="m19.882 271.8 9.902-34.122 7.362-24.605 6.348-20.456 5.585-17.282 5.078-15.024 4.824-13.584 4.316-11.523 4.062-10.252 3.809-9.048 3.808-8.464 3.554-7.342 3.301-6.308 3.047-5.366 3.046-4.908 2.793-4.081 2.54-3.35 2.538-2.997 2.285-2.385 2.285-2.082 2.285-1.771 2.031-1.308 5.078-2.886 5.332-2.771 5.585-2.642 5.586-2.398 6.093-2.37 6.347-2.227 6.855-2.172 7.871-2.253 9.394-2.446 15.487-3.757 15.488-3.843 15.487-3.763 13.964-3.17 12.948-2.715 12.187-2.33 11.425-1.96 10.917-1.653 2.793-.386h0" clip-path="url(#p9e6aabee00)" style="fill:none;stroke:#40bfff;stroke-opacity:.8;stroke-linecap:square"/><path id="line2d_5" d="m19.882 271.8 9.902-34.122 7.362-24.605 6.348-20.456 5.585-17.282 5.078-15.024 4.824-13.584 4.316-11.523 4.062-10.252 3.809-9.048 3.808-8.464 3.554-7.342 3.301-6.308 3.047-5.366 3.046-4.908 2.793-4.081 2.54-3.35 2.538-2.997 2.285-2.385 2.285-2.082 2.285-1.771 2.031-1.308 5.078-2.886 5.332-2.771 5.585-2.642 5.586-2.398 6.093-2.37 6.347-2.227 6.855-2.172 7.871-2.253 9.394-2.446 15.487-3.757 15.488-3.843 15.487-3.763 13.964-3.17 12.948-2.715 12.187-2.33 11.425-1.96 10.917-1.653 2.793-.386h0" clip-path="url(#p9e6aabee00)" style="fill:none;stroke:#3cf;stroke-opacity:.8;stroke-linecap:square"/><path id="line2d_6" d="m19.882 271.8 9.902-34.122 7.362-24.605 6.348-20.456 5.585-17.282 5.078-15.024 4.824-13.584 4.316-11.523 4.062-10.252 3.809-9.048 3.808-8.464 3.554-7.342 3.301-6.308 3.047-5.366 3.046-4.908 2.793-4.081 2.54-3.35 2.538-2.997 2.285-2.385 2.285-2.082 2.285-1.771 2.031-1.308 5.078-2.886 5.332-2.771 5.585-2.642 5.586-2.398 6.093-2.37 6.347-2.227 6.855-2.172 7.871-2.253 9.394-2.446 15.487-3.757 15.488-3.843 15.487-3.763 13.964-3.17 12.948-2.715 12.187-2.33 11.425-1.96 10.917-1.653 2.793-.386h0" clip-path="url(#p9e6aabee00)" style="fill:none;stroke:#2ad5ff;stroke-opacity:.8;stroke-linecap:square"/><path id="line2d_7" d="m19.882 271.8 9.902-34.122 7.362-24.605 6.348-20.456 5.585-17.282 5.078-15.024 4.824-13.584 4.316-11.523 4.062-10.252 3.809-9.048 3.808-8.464 3.554-7.342 3.301-6.308 3.047-5.366 3.046-4.908 2.793-4.081 2.54-3.35 2.538-2.997 2.285-2.385 2.285-2.082 2.285-1.771 2.031-1.308 5.078-2.886 5.332-2.771 5.585-2.642 5.586-2.398 6.093-2.37 6.347-2.227 6.855-2.172 7.871-2.253 9.394-2.446 15.487-3.757 15.488-3.843 15.487-3.763 13.964-3.17 12.948-2.715 12.187-2.33 11.425-1.96 10.917-1.653 2.793-.386h0" clip-path="url(#p9e6aabee00)" style="fill:none;stroke:#24dbff;stroke-opacity:.8;stroke-linecap:square"/><path id="line2d_8" d="m19.882 271.8 9.902-34.122 7.362-24.605 6.348-20.456 5.585-17.282 5.078-15.024 4.824-13.584 4.316-11.523 4.062-10.252 3.809-9.048 3.808-8.464 3.554-7.342 3.301-6.308 3.047-5.366 3.046-4.908 2.793-4.081 2.54-3.35 2.538-2.997 2.285-2.385 2.285-2.082 2.285-1.771 2.031-1.308 5.078-2.886 5.332-2.771 5.585-2.642 5.586-2.398 6.093-2.37 6.347-2.227 6.855-2.172 7.871-2.253 9.394-2.446 15.487-3.757 15.488-3.843 15.487-3.763 13.964-3.17 12.948-2.715 12.187-2.33 11.425-1.96 10.917-1.653 2.793-.386h0" clip-path="url(#p9e6aabee00)" style="fill:none;stroke:#20dfff;stroke-opacity:.8;stroke-linecap:square"/><path id="line2d_9" d="m19.882 271.8 9.902-34.122 7.362-24.605 6.348-20.456 5.585-17.282 5.078-15.024 4.824-13.584 4.316-11.523 4.062-10.252 3.809-9.048 3.808-8.464 3.554-7.342 3.301-6.308 3.047-5.366 3.046-4.908 2.793-4.081 2.54-3.35 2.538-2.997 2.285-2.385 2.285-2.082 2.285-1.771 2.031-1.308 5.078-2.886 5.332-2.771 5.585-2.642 5.586-2.398 6.093-2.37 6.347-2.227 6.855-2.172 7.871-2.253 9.394-2.446 15.487-3.757 15.488-3.843 15.487-3.763 13.964-3.17 12.948-2.715 12.187-2.33 11.425-1.96 10.917-1.653 2.793-.386h0" clip-path="url(#p9e6aabee00)" style="fill:none;stroke:#1ce3ff;stroke-opacity:.8;stroke-linecap:square"/><path id="line2d_10" d="m19.882 271.8 9.902-34.122 7.362-24.605 6.348-20.456 5.585-17.282 5.078-15.024 4.824-13.584 4.316-11.523 4.062-10.252 3.809-9.048 3.808-8.464 3.554-7.342 3.301-6.308 3.047-5.366 3.046-4.908 2.793-4.081 2.54-3.35 2.538-2.997 2.285-2.385 2.285-2.082 2.285-1.771 2.031-1.308 5.078-2.886 5.332-2.771 5.585-2.642 5.586-2.398 6.093-2.37 6.347-2.227 6.855-2.172 7.871-2.253 9.394-2.446 15.487-3.757 15.488-3.843 15.487-3.763 13.964-3.17 12.948-2.715 12.187-2.33 11.425-1.96 10.917-1.653 2.793-.386h0" clip-path="url(#p9e6aabee00)" style="fill:none;stroke:#19e6ff;stroke-opacity:.8;stroke-linecap:square"/><path id="line2d_11" d="m19.882 271.8 10.663-1.579 11.171-1.877 11.933-2.235 12.44-2.56 13.457-3 14.472-3.457 45.446-11.309 8.125-2.31 7.109-2.243 6.6-2.316 6.094-2.374 5.84-2.519 5.585-2.66 5.332-2.792 5.078-2.91 2.03-1.368 2.032-1.619 2.285-2.114 2.285-2.417 2.539-3.03 2.539-3.384 2.792-4.116 2.793-4.514 3.047-5.364 3.047-5.802 3.3-6.759 3.555-7.802 3.808-8.93 4.062-10.134 4.316-11.408 4.57-12.739 4.824-14.115 5.332-16.31 5.84-18.603 6.6-21.8 7.871-26.8 4.824-16.731h0" clip-path="url(#p9e6aabee00)" style="fill:none;stroke:#f0f;stroke-opacity:.8;stroke-linecap:square"/><path id="line2d_12" d="m19.882 271.8 5.585-3.192 5.84-3.59 6.093-4.01 6.348-4.45 6.6-4.908 6.856-5.383 7.109-5.872 7.362-6.37 7.871-7.11 8.378-7.882 8.887-8.673 8.886-8.978 3.808-4.156 4.062-4.768 4.316-5.402 4.824-6.392 5.586-7.79 6.601-9.615 9.14-13.752 15.741-23.725 6.601-9.527 5.586-7.687 4.824-6.282 4.57-5.587 4.062-4.624 3.809-4.007 9.647-9.614 8.887-8.546 8.378-7.75 7.87-6.977 7.363-6.236 7.11-5.732 6.854-5.24 6.602-4.76 6.347-4.3 6.093-3.855 5.84-3.434 3.3-1.824h0" clip-path="url(#p9e6aabee00)" style="fill:none;stroke:#f0f;stroke-opacity:.8;stroke-linecap:square"/><path id="line2d_13" d="m19.882 271.8 8.378-20.18 7.617-17.788 7.109-16.05 6.601-14.368 6.347-13.28 5.84-11.716 5.585-10.722 5.332-9.763 5.078-8.845 4.824-7.971 4.57-7.146 4.57-6.733 4.316-5.966 4.062-5.251 4.062-4.887 7.617-8.63 7.363-8.025 7.109-7.418 6.601-6.567 6.347-5.997 5.84-5.221 5.585-4.71 5.586-4.416 5.332-3.925 5.077-3.461 4.824-3.027 4.824-2.761 4.57-2.36 4.57-2.104 4.57-1.843 15.234-5.75 10.155-3.598 8.379-2.74 7.616-2.26 6.855-1.809 6.348-1.455 6.093-1.175 5.84-.9 5.585-.637 5.332-.387 5.078-.154 1.015-.004h0" clip-path="url(#p9e6aabee00)" style="fill:none;stroke:#a5f;stroke-opacity:.8;stroke-linecap:square"/><path id="line2d_14" d="m19.882 271.8 8.886-26.955 7.363-21.652 6.6-18.734 5.84-15.934 5.586-14.599 5.078-12.661 4.824-11.438 4.57-10.26 4.316-9.136 4.062-8.078 3.808-7.087 3.555-6.168 3.554-5.719 3.301-4.89 3.047-4.14 3.046-3.77 2.793-3.12 2.793-2.79 3.047-2.694 5.585-4.632 5.586-4.339 5.585-4.058 5.586-3.792 5.84-3.693 5.839-3.43 6.093-3.317 6.094-3.065 6.347-2.943 6.601-2.812 6.855-2.674 7.109-2.535 7.617-2.476 11.933-3.584 13.202-3.777 10.41-2.757 9.14-2.199 8.378-1.791 7.87-1.455 7.363-1.133 6.855-.836 6.601-.585 5.078-.292h0" clip-path="url(#p9e6aabee00)" style="fill:none;stroke:#807fff;stroke-opacity:.8;stroke-linecap:square"/><path id="line2d_15" d="m19.882 271.8 9.394-31.152 7.363-23.686 6.347-19.705 5.84-17.409 5.331-15.19 4.824-13.087 4.57-11.761 4.316-10.487 4.062-9.275 3.809-8.136 3.554-7.076 3.3-6.099 3.301-5.624 3.047-4.75 2.793-3.97 2.793-3.586 2.538-2.917 2.54-2.582 2.284-2.028 2.285-1.74 4.57-3.03 5.332-3.27 5.332-3.01 5.585-2.892 5.84-2.767 6.093-2.634 6.347-2.502 6.856-2.464 7.616-2.499 8.886-2.675 12.187-3.414 27.42-7.392 12.949-3.217 11.679-2.675 10.663-2.22 10.156-1.887 9.647-1.566 9.14-1.258 3.047-.368h0" clip-path="url(#p9e6aabee00)" style="fill:none;stroke:#69f;stroke-opacity:.8;stroke-linecap:square"/><path id="line2d_16" d="m19.882 271.8 9.648-32.418 7.362-23.993 6.348-19.955 5.585-16.87 5.332-15.394 4.824-13.252 4.57-11.898 4.062-9.99 4.062-9.394 3.809-8.23 3.554-7.147 3.3-6.15 3.048-5.239 3.046-4.802 2.793-4.003 2.793-3.607 2.539-2.925 2.539-2.577 2.285-2.013 2.285-1.715 3.046-1.939 5.078-2.998 5.332-2.884 5.331-2.637 5.586-2.522 6.093-2.5 6.348-2.36 6.855-2.315 7.87-2.417 9.648-2.715L201.921 35l14.218-3.639 12.948-3.087 12.187-2.676 11.425-2.283 10.917-1.953 9.902-1.563h0" clip-path="url(#p9e6aabee00)" style="fill:none;stroke:#5af;stroke-opacity:.8;stroke-linecap:square"/><path id="line2d_17" d="m19.882 271.8 9.394-31.023 7.363-23.59 6.347-19.625 5.84-17.338 5.331-15.126 4.824-13.03 4.57-11.706 4.316-10.435 4.062-9.226 3.809-8.09 3.554-7.031 3.3-6.058 3.301-5.58 3.047-4.712 2.793-3.931 2.793-3.548 2.538-2.883 2.54-2.545 2.284-1.994 2.285-1.707 4.57-2.957 5.078-3.034 5.332-2.924 5.585-2.8 5.84-2.666 6.093-2.533 6.601-2.493 7.11-2.444 8.124-2.556 10.41-3.03 45.446-12.726 12.694-3.227 11.933-2.807 11.171-2.403 10.664-2.07 10.155-1.75 2.54-.402h0" clip-path="url(#p9e6aabee00)" style="fill:none;stroke:#49b6ff;stroke-opacity:.8;stroke-linecap:square"/><path id="line2d_18" d="m19.882 271.8 9.394-30.606 7.363-23.266 6.347-19.356 5.84-17.102 5.331-14.926 4.824-12.862 4.57-11.563 4.316-10.315 4.062-9.128 3.809-8.012 3.554-6.974 3.3-6.017 3.301-5.553 3.047-4.698 2.793-3.93 2.793-3.558 2.538-2.901 2.54-2.574 2.284-2.03 2.285-1.75 4.57-3.051 5.078-3.135 5.332-3.025 5.332-2.775 5.585-2.662 6.094-2.653 6.347-2.518 7.109-2.573 7.87-2.609 9.902-3.034 39.353-11.57 13.202-3.626 12.187-3.119 11.425-2.696 10.917-2.346 10.41-2.007 8.632-1.48h0" clip-path="url(#p9e6aabee00)" style="fill:none;stroke:#40bfff;stroke-opacity:.8;stroke-linecap:square"/><path id="line2d_19" d="m19.882 271.8 9.394-30.382 7.363-23.092 6.347-19.211 5.84-16.976 5.331-14.818 4.824-12.772 4.57-11.486 4.316-10.25 4.062-9.076 3.809-7.971 3.554-6.943 3.3-5.994 3.301-5.539 3.047-4.69 3.047-4.269 2.792-3.53 2.54-2.879 2.538-2.556 2.54-2.225 2.284-1.711 5.078-3.405 5.078-3.137 5.331-3.029 5.586-2.907 5.84-2.776 6.093-2.645 6.601-2.613 7.109-2.572 8.124-2.7 10.664-3.293 42.907-12.78 12.44-3.378 11.68-2.945 10.917-2.53 10.41-2.19 10.155-1.908 4.824-.822h0" clip-path="url(#p9e6aabee00)" style="fill:none;stroke:#38c7ff;stroke-opacity:.8;stroke-linecap:square"/><path id="line2d_20" d="m19.882 271.8 9.394-29.903 7.363-22.72 6.347-18.902 5.84-16.705 5.331-14.588 4.824-12.581 4.57-11.322 4.316-10.112 4.062-8.964 3.809-7.882 3.554-6.876 3.555-6.386 3.3-5.472 3.047-4.64 3.047-4.233 2.792-3.508 2.793-3.14 2.539-2.526 2.539-2.204 2.539-1.894 5.078-3.48 5.077-3.21 5.332-3.106 5.586-2.985 5.84-2.857 6.093-2.728 6.6-2.703 7.11-2.667 8.378-2.895 10.917-3.513 41.13-12.792 12.441-3.532 11.425-3.016 10.917-2.653 10.41-2.3 9.902-1.96 5.84-1.045h0" clip-path="url(#p9e6aabee00)" style="fill:none;stroke:#3cf;stroke-opacity:.8;stroke-linecap:square"/><path id="line2d_21" d="m19.882 271.8 10.663-1.579 11.171-1.877 11.933-2.235 12.44-2.56 13.457-3 14.472-3.457 45.446-11.309 8.125-2.31 7.109-2.243 6.6-2.316 6.094-2.374 5.84-2.519 5.585-2.66 5.332-2.792 5.078-2.91 2.03-1.368 2.032-1.619 2.285-2.114 2.285-2.417 2.539-3.03 2.539-3.384 2.792-4.116 2.793-4.514 3.047-5.364 3.047-5.802 3.3-6.759 3.555-7.802 3.808-8.93 4.062-10.134 4.316-11.408 4.57-12.739 4.824-14.115 5.332-16.31 5.84-18.603 6.6-21.8 7.871-26.8 4.824-16.731h0" clip-path="url(#p9e6aabee00)" style="fill:none;stroke:#f0f;stroke-opacity:.8;stroke-linecap:square"/><path id="line2d_22" d="m19.882 271.8 5.078-.115 5.077-.337 5.332-.576 5.586-.833 5.84-1.101 6.093-1.379 6.6-1.732 6.856-2.029 7.616-2.49 8.633-3.067 10.155-3.854 13.203-5.253 4.316-1.945 4.316-2.192 4.57-2.578 4.57-2.832 4.824-3.255 5.078-3.706 5.077-3.978 5.332-4.455 5.586-4.953 5.84-5.47 6.346-6.26 6.602-6.826 7.109-7.675 7.616-8.55 7.617-8.87 4.062-5.072 4.316-5.751 4.57-6.482 4.57-6.87 4.824-7.658 5.078-8.49 5.332-9.367 5.585-10.284 5.84-11.237 6.093-12.221 6.347-13.231 6.856-14.817 7.362-16.466 7.87-18.165 4.063-9.578h0" clip-path="url(#p9e6aabee00)" style="fill:none;stroke:#f0f;stroke-opacity:.8;stroke-linecap:square"/><path id="line2d_23" d="m19.882 271.8 4.062-.11 4.062-.32 4.316-.567 4.317-.788 4.57-1.064 4.57-1.29 4.824-1.596 5.077-1.923 5.078-2.157 5.332-2.5 5.585-2.858 6.094-3.373 6.347-3.768 6.855-4.325 7.617-5.073 6.855-4.81 1.777-1.57 1.777-1.853 2.031-2.45 2.032-2.788 2.285-3.514 2.538-4.343 2.793-5.268 3.047-6.276 3.3-7.35 3.555-8.466 4.062-10.246 5.078-13.442 7.87-21.574 8.887-24.21 5.078-13.178 4.062-9.948 3.554-8.14 3.3-6.995 2.794-5.432 2.539-4.508 2.538-4.058 2.285-3.238 2.032-2.526 2.03-2.175 1.778-1.6 3.808-2.928 8.633-6.415 7.362-5.2 6.602-4.4 6.093-3.803 5.84-3.38 5.331-2.834 5.078-2.456 4.824-2.094 4.57-1.756 4.57-1.518 4.316-1.204 4.316-.967 4.062-.685 4.063-.456 3.808-.21 1.777-.024h0" clip-path="url(#p9e6aabee00)" style="fill:none;stroke:#f0f;stroke-opacity:.8;stroke-linecap:square"/><path id="line2d_24" d="m19.882 271.8 6.601-5.942 6.855-6.48 6.855-6.784 7.109-7.343 7.363-7.921 7.616-8.517 8.125-9.427 8.378-10.071 8.633-10.724 9.14-11.713 8.886-11.733 3.047-4.374 3.3-5.134 3.555-5.937 4.062-7.23 4.57-8.6 5.585-11.01 8.379-17.081 10.663-21.658 5.586-10.831 4.57-8.395 4.062-7.002 3.554-5.701 3.301-4.887 3.047-4.12 2.793-3.418 2.538-2.784 2.54-2.454 2.284-1.91 2.285-1.611 2.031-1.17 2.032-.911 9.14-3.52 8.378-2.995 7.87-2.584 7.617-2.27 7.11-1.893 6.854-1.604 6.601-1.326 6.602-1.096 6.347-.825 6.093-.57 6.094-.34 5.585-.104h0" clip-path="url(#p9e6aabee00)" style="fill:none;stroke:#c03fff;stroke-opacity:.8;stroke-linecap:square"/><path id="line2d_25" d="m19.882 271.8 11.425-18.966 11.171-18.118 10.917-17.281 10.41-16.068 10.155-15.275 9.902-14.498 9.648-13.738 9.394-12.995 7.617-10.557 6.855-9.967 10.663-15.96 11.679-17.383 6.601-9.442 5.586-7.615 4.824-6.22 4.316-5.226 4.062-4.584 3.808-3.968 3.555-3.386 3.3-2.847 3.047-2.355 3.047-2.076 2.793-1.644 2.792-1.383 3.047-1.237 10.156-3.843 9.14-3.222 8.124-2.634 7.617-2.243 7.109-1.869 6.855-1.575 6.601-1.288 6.347-1.009 6.094-.741 5.84-.489 5.585-.252 3.554-.046h0" clip-path="url(#p9e6aabee00)" style="fill:none;stroke:#96f;stroke-opacity:.8;stroke-linecap:square"/><path id="line2d_26" d="m19.882 271.8 8.632-18.329 8.125-16.745 7.616-15.209 7.363-14.21 6.855-12.76 6.601-11.834 6.348-10.932 6.093-10.059 5.84-9.22 5.585-8.416 5.332-7.651 5.331-7.264 5.078-6.545 18.28-22.787 8.379-10.075 7.109-8.209 6.093-6.712 5.586-5.84 5.331-5.25 4.824-4.446 4.57-3.918 4.316-3.416 4.063-2.942 4.062-2.662 3.808-2.224 3.555-1.828 3.554-1.575 7.109-2.755 10.917-4.048 9.14-3.159 8.125-2.576 7.363-2.11 6.855-1.74 6.6-1.448 6.094-1.116 5.84-.855 5.84-.628 5.585-.372 5.331-.134.508-.001h0" clip-path="url(#p9e6aabee00)" style="fill:none;stroke:#807fff;stroke-opacity:.8;stroke-linecap:square"/><path id="line2d_27" d="m19.882 271.8 8.378-21.33 7.617-18.794 6.855-16.343 6.347-14.584 6.094-13.452 5.585-11.813 5.332-10.778 5.078-9.782 4.824-8.828 4.57-7.923 4.57-7.473 4.316-6.625 4.062-5.835 3.808-5.104 3.809-4.737 3.554-4.08 7.11-7.696 6.854-7.098 6.601-6.517 6.348-5.955 6.093-5.416 5.84-4.902 5.839-4.606 5.585-4.118 5.332-3.66 5.332-3.385 5.078-2.96 4.824-2.566 4.823-2.32 4.824-2.068 4.824-1.814 15.741-5.529 10.156-3.339 8.632-2.612 7.617-2.082 7.109-1.718 6.601-1.37 6.347-1.088 5.84-.782 5.585-.534 5.586-.31 4.316-.074h0" clip-path="url(#p9e6aabee00)" style="fill:none;stroke:#6d92ff;stroke-opacity:.8;stroke-linecap:square"/><path id="line2d_28" d="m19.882 271.8 8.632-24.492 7.363-20.25 6.601-17.533 6.093-15.574 5.586-13.69 5.332-12.49 5.078-11.32 4.57-9.67 4.57-9.147 4.316-8.126 4.062-7.17 3.808-6.277 3.555-5.455 3.554-5.048 3.3-4.31 3.301-3.935 3.047-3.286 3.3-3.208 5.586-5.12 5.84-5.046 5.84-4.743 5.839-4.452 5.84-4.171 5.839-3.902 5.84-3.644 6.092-3.538 6.094-3.282 6.347-3.158 6.347-2.908 6.601-2.774 6.602-2.534 7.616-2.669L207 33.951l10.663-3.34 9.14-2.636 8.379-2.184 7.616-1.757 7.11-1.415 6.854-1.136 6.348-.83 6.093-.58 4.316-.273h0" clip-path="url(#p9e6aabee00)" style="fill:none;stroke:#609fff;stroke-opacity:.8;stroke-linecap:square"/><path id="line2d_29" d="m19.882 271.8 9.14-28.279 7.363-22.08 6.6-19.096 5.84-16.228 5.332-14.188 5.078-12.887 4.57-11.025 4.316-9.87 4.062-8.775 4.062-8.243 3.809-7.216 3.554-6.265 3.3-5.392 3.301-4.965 3.047-4.19 3.047-3.796 2.793-3.125 2.792-2.775 2.54-2.209 5.331-4.17 5.332-3.881 5.331-3.611 5.586-3.512 5.586-3.255 5.839-3.149 6.093-3.034 6.348-2.916 6.855-2.903 7.362-2.874 8.125-2.932 9.648-3.24 13.456-4.263 13.456-4.05 11.425-3.21 10.156-2.623 9.394-2.199 8.632-1.797 8.125-1.473 7.87-1.205 7.617-.94 1.523-.159h0" clip-path="url(#p9e6aabee00)" style="fill:none;stroke:#5af;stroke-opacity:.8;stroke-linecap:square"/><path id="line2d_30" d="m19.882 271.8 9.648-31.925 7.362-23.62 6.348-19.644 5.84-17.347 5.33-15.128 4.825-13.024 4.57-11.696 4.316-10.419 4.062-9.206 3.809-8.065 3.554-7.005 3.3-6.03 3.047-5.138 3.047-4.713 2.793-3.932 2.793-3.546 2.538-2.88 2.54-2.54 2.284-1.988 2.285-1.698 4.57-2.94 5.078-3.016 5.332-2.906 5.585-2.781 5.84-2.65 6.093-2.514 6.601-2.476 7.11-2.425 8.124-2.536 10.663-3.077 46.208-12.828 12.695-3.186 11.933-2.768 11.17-2.366 10.664-2.034 10.156-1.715 1.523-.238h0" clip-path="url(#p9e6aabee00)" style="fill:none;stroke:#4cb3ff;stroke-opacity:.8;stroke-linecap:square"/><path id="line2d_31" d="m19.882 271.8 10.663-1.579 11.171-1.877 11.933-2.235 12.44-2.56 13.457-3 14.472-3.457 45.446-11.309 8.125-2.31 7.109-2.243 6.6-2.316 6.094-2.374 5.84-2.519 5.585-2.66 5.332-2.792 5.078-2.91 2.03-1.368 2.032-1.619 2.285-2.114 2.285-2.417 2.539-3.03 2.539-3.384 2.792-4.116 2.793-4.514 3.047-5.364 3.047-5.802 3.3-6.759 3.555-7.802 3.808-8.93 4.062-10.134 4.316-11.408 4.57-12.739 4.824-14.115 5.332-16.31 5.84-18.603 6.6-21.8 7.871-26.8 4.824-16.731h0" clip-path="url(#p9e6aabee00)" style="fill:none;stroke:#f0f;stroke-opacity:.8;stroke-linecap:square"/><path id="line2d_32" d="m19.882 271.8 6.347-.404 6.601-.643 6.855-.891 7.363-1.188 7.617-1.456 8.124-1.776 8.886-2.169 10.156-2.715 11.933-3.43 14.726-4.47 7.616-2.544 7.11-2.601 6.854-2.743 6.601-2.881 6.348-3.015 6.093-3.138 6.093-3.394 5.84-3.509 5.84-3.775 5.585-3.876 5.585-4.147 5.586-4.432 5.332-4.509 2.539-2.355 2.792-2.91 2.793-3.238 3.047-3.894 3.047-4.26 3.3-5.012 3.3-5.412 3.555-6.256 3.809-7.176 4.062-8.166 4.062-8.666 4.316-9.724 4.57-10.837 4.824-12 5.332-13.873 5.585-15.154L256 71.993l6.855-19.99 7.87-23.662 2.793-8.541h0" clip-path="url(#p9e6aabee00)" style="fill:none;stroke:#f0f;stroke-opacity:.8;stroke-linecap:square"/><path id="line2d_33" d="m19.882 271.8 5.585-.107 5.84-.334 5.84-.55 6.093-.797 6.347-1.057 6.601-1.332 6.855-1.62 7.11-1.916 7.362-2.221 7.617-2.53 8.124-2.931 8.632-3.352 4.317-1.85 2.03-1.176 2.032-1.414 2.285-1.866 2.285-2.14 2.539-2.685 2.792-3.302 2.793-3.64 3.047-4.328 3.3-5.067 3.809-6.28 4.062-7.14 4.824-8.957 5.84-11.35 9.393-18.839 9.14-18.173 5.586-10.626 4.57-8.239 4.062-6.878 3.555-5.608 3.3-4.813 3.809-5.123 9.901-12.954 9.394-11.93 8.887-10.935 8.632-10.277 8.378-9.63 8.125-8.994 7.87-8.375 7.617-7.773 7.363-7.19 6.093-5.701h0" clip-path="url(#p9e6aabee00)" style="fill:none;stroke:#f0f;stroke-opacity:.8;stroke-linecap:square"/><path id="line2d_34" d="m19.882 271.8 4.062-.111 4.062-.327 4.316-.577 4.317-.801 4.57-1.083 4.57-1.314 4.824-1.623 4.823-1.853 5.078-2.184 5.332-2.533 5.586-2.898 6.093-3.422 6.347-3.824 6.855-4.392 7.617-5.154 6.855-4.869 1.777-1.558 1.777-1.855 2.032-2.467 2.03-2.817 2.286-3.562 2.539-4.415 2.538-4.858 2.793-5.808 3.047-6.834 3.554-8.541 4.063-10.382 4.824-12.977 6.855-19.156 10.917-30.513 4.824-12.81 4.062-10.184 3.555-8.327 3.046-6.62 2.793-5.586 2.539-4.635 2.539-4.172 2.285-3.328 2.03-2.594 2.032-2.231 1.777-1.64 1.778-1.344 8.632-5.995 7.616-5.018 6.856-4.252 6.347-3.68 5.84-3.138 5.585-2.76 5.332-2.39 5.077-2.042 4.824-1.71 4.824-1.475 4.57-1.167 4.57-.93 4.316-.653 4.316-.422 4.063-.178 1.27-.011h0" clip-path="url(#p9e6aabee00)" style="fill:none;stroke:#f0f;stroke-opacity:.8;stroke-linecap:square"/><path id="line2d_35" d="m19.882 271.8 3.808-1.533 4.062-1.886 4.063-2.133 4.316-2.527 4.316-2.782 4.57-3.211 4.824-3.67 5.078-4.154 5.331-4.662 5.586-5.189 5.84-5.73 6.347-6.546 6.855-7.399 7.616-8.56 8.633-10.054 5.078-6.15 2.538-3.53 2.54-3.914 2.792-4.713 3.047-5.585 3.3-6.513 3.809-8.03 4.316-9.646 5.332-12.508 8.124-19.728 9.394-22.68 5.078-11.698 4.316-9.403 3.808-7.761 3.3-6.24 3.048-5.297 2.792-4.422 2.54-3.626 2.284-2.916 2.285-2.566 2.031-1.968 2.031-1.659 1.778-1.185 1.777-.926 3.554-1.43 8.633-3.275 8.124-2.842 7.617-2.435 7.363-2.124 7.109-1.82 6.855-1.53 6.6-1.249 6.348-.983 6.347-.76 6.094-.508 6.093-.284 4.316-.06h0" clip-path="url(#p9e6aabee00)" style="fill:none;stroke:#c3f;stroke-opacity:.8;stroke-linecap:square"/><path id="line2d_36" d="m19.882 271.8 7.617-7.526 7.87-8.1 8.125-8.694 8.378-9.304 8.632-9.93 8.886-10.57 9.14-11.223 9.394-11.885 9.902-12.888 8.379-11.233 3.3-4.842 3.555-5.61 4.062-6.848 4.57-8.167 5.332-10.003 7.362-14.339 14.472-28.283 5.586-10.352 4.57-8.013 4.062-6.68 3.554-5.437 3.301-4.662 3.047-3.935 2.792-3.266 2.793-2.915 2.54-2.323 2.284-1.808 2.285-1.526 2.031-1.108 2.285-.986 9.14-3.607 8.379-3.074 7.87-2.655 7.363-2.258 7.11-1.954 6.854-1.654 6.601-1.366 6.347-1.088 6.094-.824 6.093-.598 5.84-.348 5.585-.118h.254" clip-path="url(#p9e6aabee00)" style="fill:none;stroke:#a5f;stroke-opacity:.8;stroke-linecap:square"/><path id="line2d_37" d="m19.882 271.8 18.534-27.018 18.28-26.259 18.026-25.507 17.772-24.762 18.28-25.445 5.586-8.449 6.855-10.81 13.202-21.367 8.379-13.314 6.093-9.268 5.078-7.323 4.57-6.195 4.062-5.134 3.809-4.45 3.554-3.801 3.3-3.194 3.047-2.64 2.793-2.14 2.793-1.859 2.539-1.43 2.539-1.172 9.901-3.934 8.887-3.298 8.124-2.784 7.617-2.379 7.109-1.993 6.855-1.693 6.6-1.397 6.348-1.113 6.094-.839 5.839-.58 5.586-.338 5.585-.115h0" clip-path="url(#p9e6aabee00)" style="fill:none;stroke:#926dff;stroke-opacity:.8;stroke-linecap:square"/><path id="line2d_38" d="m19.882 271.8 10.155-18.101 9.648-16.754 9.394-15.873 9.14-15.005 8.633-13.752 8.378-12.942 8.124-12.15 7.871-11.381 7.617-10.636 22.342-30.799 15.995-22.501 7.109-9.582 5.84-7.505 5.077-6.179 4.57-5.23 4.316-4.612 4.063-4.012 3.808-3.445 3.555-2.914 3.3-2.428 3.3-2.142 3.047-1.708 2.793-1.328 4.57-1.842 10.41-3.996 8.886-3.18 8.124-2.675 7.617-2.272 7.109-1.887 6.601-1.525 6.347-1.243 6.094-.968 5.84-.707 5.585-.46 5.585-.236 2.793-.03h0" clip-path="url(#p9e6aabee00)" style="fill:none;stroke:#807fff;stroke-opacity:.8;stroke-linecap:square"/><path id="line2d_39" d="m19.882 271.8 8.632-18.946 8.125-17.291 7.616-15.68 7.11-14.125 6.6-12.64 6.348-11.688 6.093-10.767 5.84-9.875 5.585-9.018 5.332-8.202 5.078-7.424 5.077-7.032 4.824-6.304 5.84-7.22 11.425-13.822 8.378-9.804 7.11-7.995 6.346-6.822 5.84-5.966 5.585-5.388 5.078-4.598 4.824-4.078 4.57-3.58 4.316-3.11 4.316-2.83 4.063-2.392 3.808-1.992 3.808-1.737 5.078-2.012 12.187-4.627 9.648-3.426 8.378-2.74 7.617-2.253 6.855-1.802 6.601-1.506 6.093-1.168 5.84-.9 5.585-.645 5.586-.417 5.332-.171 1.27-.007h0" clip-path="url(#p9e6aabee00)" style="fill:none;stroke:#718eff;stroke-opacity:.8;stroke-linecap:square"/><path id="line2d_40" d="m19.882 271.8 8.378-19.658 7.87-17.9 7.11-15.631 6.855-14.533 6.347-12.94 6.093-11.913 5.586-10.454 5.332-9.534 5.331-9.076 5.078-8.195 4.824-7.362 4.57-6.576 4.316-5.84 4.316-5.469 4.57-5.404 8.379-9.554 7.616-8.35 7.11-7.46 6.6-6.603 6.094-5.788 5.84-5.246 5.585-4.723 5.332-4.219 5.077-3.74 4.824-3.288 4.824-3.017 4.57-2.596 4.316-2.209 4.317-1.963 5.331-2.145 13.964-5.406 9.648-3.506 8.378-2.81 7.363-2.241 6.855-1.856 6.348-1.492 6.093-1.201 5.84-.918 5.585-.646 5.332-.388 5.078-.147.761-.003h0" clip-path="url(#p9e6aabee00)" style="fill:none;stroke:#69f;stroke-opacity:.8;stroke-linecap:square"/><path id="line2d_41" d="m19.882 271.8 10.663-1.579 11.171-1.877 11.933-2.235 12.44-2.56 13.457-3 14.472-3.457 45.446-11.309 8.125-2.31 7.109-2.243 6.6-2.316 6.094-2.374 5.84-2.519 5.585-2.66 5.332-2.792 5.078-2.91 2.03-1.368 2.032-1.619 2.285-2.114 2.285-2.417 2.539-3.03 2.539-3.384 2.792-4.116 2.793-4.514 3.047-5.364 3.047-5.802 3.3-6.759 3.555-7.802 3.808-8.93 4.062-10.134 4.316-11.408 4.57-12.739 4.824-14.115 5.332-16.31 5.84-18.603 6.6-21.8 7.871-26.8 4.824-16.731h0" clip-path="url(#p9e6aabee00)" style="fill:none;stroke:#f0f;stroke-opacity:.8;stroke-linecap:square"/><path id="line2d_42" d="m19.882 271.8 8.886-1.169 9.394-1.465 9.648-1.73 10.41-2.097 10.917-2.428 11.932-2.887 13.203-3.427 18.534-5.076 15.74-4.432 9.14-2.805 7.618-2.562 6.855-2.533 6.347-2.577 6.093-2.717 5.84-2.855 5.585-2.987 5.332-3.108 5.078-3.21 3.808-2.617 2.285-1.87 2.285-2.153 2.54-2.716 2.538-3.049 2.793-3.725 2.793-4.102 3.046-4.89 3.047-5.307 3.3-6.2 3.555-7.18 3.554-7.672 3.809-8.739 4.062-9.876 4.316-11.079 4.57-12.335 5.078-14.369 5.332-15.756 6.093-18.735 6.855-21.846 7.87-25.85 3.555-11.869h0" clip-path="url(#p9e6aabee00)" style="fill:none;stroke:#f0f;stroke-opacity:.8;stroke-linecap:square"/><path id="line2d_43" d="m19.882 271.8 5.585-.11 5.84-.345 5.84-.567 6.093-.815 6.347-1.078 6.601-1.35 6.855-1.634 7.11-1.92 7.616-2.291 8.124-2.678 8.886-3.169 9.902-3.776 2.54-1.14 2.538-1.376 2.793-1.772 2.793-2.03 3.046-2.492 3.3-3.008 3.301-3.305 3.555-3.866 3.808-4.463 4.316-5.417 4.57-6.096 5.332-7.503 6.093-8.972 8.125-12.385 18.026-27.596 6.347-9.226 5.84-8.075 10.663-14.801 10.918-15.533 11.17-16.279 11.426-17.04L246.86 61.88l12.186-18.998 12.441-19.81 2.031-3.272h0" clip-path="url(#p9e6aabee00)" style="fill:none;stroke:#f0f;stroke-opacity:.8;stroke-linecap:square"/><path id="line2d_44" d="m19.882 271.8 5.84-.108 6.093-.338 6.093-.559 6.347-.806 6.601-1.071 6.602-1.297 6.855-1.572 7.109-1.86 7.362-2.157 7.617-2.463 8.125-2.864 8.378-3.19 3.047-1.305 1.777-1.056 1.777-1.3 2.031-1.774 2.031-2.065 2.285-2.655 2.285-2.986 2.54-3.68 2.792-4.457 3.047-5.306 3.3-6.216 3.555-7.169 4.062-8.697 4.824-10.872 6.347-14.893 14.98-35.372 4.824-10.735 4.062-8.542 3.554-7.003 3.3-6.039 3.048-5.12 2.792-4.269 2.54-3.495 3.046-3.764 9.14-10.922 7.87-9.073 7.363-8.15 6.602-6.983 6.347-6.39 5.84-5.57 5.585-5.022 5.332-4.497 5.077-3.993 4.824-3.515 4.57-3.067 4.57-2.798 4.316-2.383 4.317-2.122 1.015-.46h0" clip-path="url(#p9e6aabee00)" style="fill:none;stroke:#f0f;stroke-opacity:.8;stroke-linecap:square"/><path id="line2d_45" d="m19.882 271.8 4.062-.111 4.062-.327 4.316-.577 4.317-.801 4.57-1.083 4.57-1.314 4.824-1.623 4.823-1.853 5.078-2.184 5.332-2.533 5.586-2.898 6.093-3.422 6.347-3.824 6.855-4.392 7.617-5.154 6.855-4.869 1.777-1.558 1.777-1.855 2.032-2.467 2.03-2.817 2.286-3.562 2.539-4.415 2.538-4.858 2.793-5.808 3.047-6.834 3.554-8.541 4.063-10.382 4.824-12.977 6.855-19.156 10.917-30.513 4.824-12.81 4.062-10.184 3.555-8.327 3.046-6.62 2.793-5.586 2.539-4.635 2.539-4.172 2.285-3.328 2.03-2.594 2.032-2.231 1.777-1.64 1.778-1.344 8.632-5.995 7.616-5.018 6.856-4.252 6.347-3.68 5.84-3.138 5.585-2.76 5.332-2.39 5.077-2.042 4.824-1.71 4.824-1.475 4.57-1.167 4.57-.93 4.316-.653 4.316-.422 4.063-.178 1.27-.011h0" clip-path="url(#p9e6aabee00)" style="fill:none;stroke:#f0f;stroke-opacity:.8;stroke-linecap:square"/><path id="line2d_46" d="m19.882 271.8 3.047-.31 3.3-.568 3.3-.798 3.301-1.018 3.555-1.334 3.554-1.567 3.809-1.926 4.062-2.319 4.062-2.575 4.316-2.997 4.57-3.444 4.824-3.91 5.332-4.615 5.84-5.364 6.346-6.136 7.363-7.434 9.394-9.816 6.348-6.873 2.03-2.62 2.286-3.317 2.539-4.118 2.538-4.538 2.793-5.435 3.047-6.403 3.554-8.017 4.063-9.766 4.824-12.238 6.347-16.775 13.456-35.723 4.824-12.076 4.062-9.58 3.555-7.818 3.046-6.204 2.793-5.23 2.539-4.334 2.539-3.896 2.285-3.103 2.031-2.417 2.031-2.075 1.777-1.521 1.778-1.235 1.523-.82 3.047-1.265 8.378-3.282 7.87-2.85 7.617-2.523 7.363-2.203 7.11-1.894 6.854-1.593 6.601-1.308 6.347-1.036 6.348-.81 6.093-.554 6.093-.327 5.332-.092h0" clip-path="url(#p9e6aabee00)" style="fill:none;stroke:#d52aff;stroke-opacity:.8;stroke-linecap:square"/><path id="line2d_47" d="m19.882 271.8 4.824-3.015 4.824-3.278 5.077-3.723 5.332-4.198 5.332-4.48 5.585-4.979 5.84-5.502 6.093-6.045 6.348-6.606 6.855-7.46 7.108-8.063 7.617-8.971 8.379-10.22 6.855-8.655 2.792-3.954 3.047-4.745 3.3-5.598 3.555-6.498 3.808-7.428 4.57-9.43 5.586-12.087 8.632-19.306 9.14-20.293 5.332-11.31 4.316-8.67 3.809-7.182 3.554-6.228 3.047-4.921 2.793-4.132 2.792-3.736 2.54-3.023 2.284-2.397 2.285-2.07 2.031-1.55 2.031-1.264 1.778-.863 8.886-3.603 8.124-3.063 7.871-2.73 7.363-2.324 7.109-2.013 6.855-1.71 6.6-1.42 6.348-1.14 6.094-.876 6.093-.652 5.84-.403 5.839-.178 1.523-.008h0" clip-path="url(#p9e6aabee00)" style="fill:none;stroke:#b649ff;stroke-opacity:.8;stroke-linecap:square"/><path id="line2d_48" d="m19.882 271.8 9.14-9.903 9.394-10.513 9.648-11.137 9.901-11.775 10.156-12.428 10.41-13.09 10.663-13.762 11.171-14.783 6.855-9.366 3.555-5.31 4.062-6.486 4.57-7.743 5.331-9.5 6.856-12.708 18.026-33.66 5.331-9.359 4.57-7.581 4.063-6.312 3.554-5.134 3.3-4.398 3.047-3.712 2.793-3.082 2.793-2.751 2.539-2.196 2.539-1.886 2.285-1.418 2.285-1.141 7.363-3.046 8.632-3.36 8.124-2.928 7.617-2.508 7.109-2.113 6.855-1.808 6.601-1.51 6.347-1.225 6.094-.952 5.84-.693 5.839-.468 5.585-.226 2.793-.029h0" clip-path="url(#p9e6aabee00)" style="fill:none;stroke:#a05fff;stroke-opacity:.8;stroke-linecap:square"/><path id="line2d_49" d="m19.882 271.8 24.373-32.149 24.628-32.852 24.88-33.561 13.965-19.118 4.316-6.388 5.078-7.93 6.093-9.965 8.632-14.604L145.05 92.9l6.093-9.855 5.078-7.804 4.316-6.255 4.062-5.505 3.809-4.776 3.3-3.8 3.3-3.456 3.047-2.858 2.793-2.319 2.54-1.842 2.538-1.577 2.285-1.18 4.062-1.748 9.394-3.85 8.379-3.2 7.87-2.773 7.363-2.358 6.855-1.968 6.601-1.666 6.347-1.372 6.094-1.09 5.84-.822 5.585-.57 5.585-.345 5.332-.11h0" clip-path="url(#p9e6aabee00)" style="fill:none;stroke:#8e71ff;stroke-opacity:.8;stroke-linecap:square"/><path id="line2d_50" d="m19.882 271.8 11.679-19.114 11.425-18.27 10.917-17.043 10.664-16.239 10.409-15.447 10.156-14.672 9.901-13.911 9.648-13.17 5.84-8.07 7.109-10.233 11.425-16.913 11.17-16.401 6.602-9.312 5.586-7.512 4.823-6.139 4.57-5.457 4.063-4.515 3.808-3.912 3.555-3.342 3.3-2.814 3.3-2.516 3.047-2.04 2.793-1.619 2.793-1.365 6.601-2.77 9.648-3.859 8.632-3.215 7.87-2.695 7.364-2.282 6.855-1.891 6.347-1.527 6.093-1.246 5.84-.976 5.84-.746 5.585-.486 5.331-.243 3.047-.038h0" clip-path="url(#p9e6aabee00)" style="fill:none;stroke:#807fff;stroke-opacity:.8;stroke-linecap:square"/><path id="line2d_51" d="m19.882 271.8 10.663-1.579 11.171-1.877 11.933-2.235 12.44-2.56 13.457-3 14.472-3.457 45.446-11.309 8.125-2.31 7.109-2.243 6.6-2.316 6.094-2.374 5.84-2.519 5.585-2.66 5.332-2.792 5.078-2.91 2.03-1.368 2.032-1.619 2.285-2.114 2.285-2.417 2.539-3.03 2.539-3.384 2.792-4.116 2.793-4.514 3.047-5.364 3.047-5.802 3.3-6.759 3.555-7.802 3.808-8.93 4.062-10.134 4.316-11.408 4.57-12.739 4.824-14.115 5.332-16.31 5.84-18.603 6.6-21.8 7.871-26.8 4.824-16.731h0" clip-path="url(#p9e6aabee00)" style="fill:none;stroke:#f0f;stroke-opacity:.8;stroke-linecap:square"/><path id="line2d_52" d="m19.882 271.8 10.41-1.65 10.917-1.958 11.425-2.28 11.933-2.608 12.694-3.002 13.71-3.47 15.995-4.29 15.995-4.185 12.949-3.487 8.632-2.548 7.363-2.4 6.6-2.38 6.094-2.428 5.84-2.567 5.585-2.703 5.332-2.83 5.078-2.945 3.808-2.418 2.285-1.766 2.285-2.065 2.285-2.356 2.54-2.951 2.538-3.292 2.793-4.001 2.793-4.387 3.046-5.21 3.3-6.123 3.301-6.598 3.555-7.613 3.808-8.708 4.062-9.88 4.317-11.118 4.57-12.415 4.824-13.757 5.331-15.902 5.84-18.145 6.6-21.277 7.618-25.332 5.585-18.955h0" clip-path="url(#p9e6aabee00)" style="fill:none;stroke:#f0f;stroke-opacity:.8;stroke-linecap:square"/><path id="line2d_53" d="m19.882 271.8 5.332-.11 5.585-.345 5.586-.565 5.84-.812 6.093-1.071 6.347-1.34 6.855-1.683 7.109-1.977 7.616-2.348 8.379-2.817 9.394-3.396 11.17-4.283 3.302-1.472 3.3-1.713 3.555-2.1 3.554-2.355 3.808-2.788 4.063-3.257 4.316-3.76 4.57-4.29 4.824-4.842 5.331-5.686 5.586-6.283 6.347-7.481 7.363-9.033 9.648-12.219 18.788-24.233 5.585-7.648 5.586-8.02 5.84-8.768 6.093-9.55 6.347-10.367 6.601-11.212 6.855-12.085 7.11-12.981 7.616-14.386 7.87-15.348 8.379-16.835 6.093-12.541h0" clip-path="url(#p9e6aabee00)" style="fill:none;stroke:#f0f;stroke-opacity:.8;stroke-linecap:square"/><path id="line2d_54" d="m19.882 271.8 5.585-.11 5.84-.342 5.84-.564 6.093-.815 6.347-1.08 6.347-1.306 6.601-1.58 6.855-1.866 7.363-2.24 7.617-2.553 8.124-2.96 8.633-3.385 4.824-2.052 2.03-1.145 2.286-1.565 2.285-1.846 2.539-2.362 2.539-2.671 2.792-3.273 3.047-3.942 3.3-4.668 3.555-5.445 3.808-6.255 4.317-7.535 5.077-9.35 6.348-12.203 21.073-40.942 4.823-8.678 4.317-7.313 3.808-6.02 3.554-5.194 4.063-5.479 10.155-13.345 9.902-12.642 9.394-11.634 9.14-10.964 8.632-10.014 8.379-9.388 8.124-8.776 7.87-8.182 7.617-7.606 2.793-2.71h0" clip-path="url(#p9e6aabee00)" style="fill:none;stroke:#f0f;stroke-opacity:.8;stroke-linecap:square"/><path id="line2d_55" d="m19.882 271.8 5.84-.112 5.839-.33 6.093-.57 6.094-.789 6.347-1.046 6.6-1.32 6.602-1.545 6.855-1.83 7.109-2.127 7.363-2.434 7.617-2.747 8.124-3.17 5.078-2.145 1.523-.9 1.777-1.323 1.778-1.607 2.03-2.169 2.032-2.505 2.285-3.198 2.285-3.575 2.539-4.384 2.793-5.28 3.046-6.254 3.3-7.288 3.81-8.973 4.315-10.754 5.586-14.565 19.042-50.257 4.316-10.468 3.808-8.649 3.3-6.954 3.047-5.9 2.793-4.92 2.54-4.024 2.284-3.227 2.285-2.825 2.793-3.005 11.933-12.482 7.87-7.925 6.602-6.347 5.839-5.323 5.332-4.574 5.078-4.065 4.57-3.387 4.316-2.939 4.062-2.516 4.062-2.255 3.809-1.863 3.554-1.504 3.554-1.268 3.301-.954 3.3-.73 3.301-.497 2.285-.202h0" clip-path="url(#p9e6aabee00)" style="fill:none;stroke:#f0f;stroke-opacity:.8;stroke-linecap:square"/><path id="line2d_56" d="m19.882 271.8 4.316-.111 4.316-.329 4.57-.576 4.57-.8 4.824-1.08 4.824-1.307 5.078-1.612 5.331-1.937 5.332-2.174 5.586-2.515 5.84-2.87 6.346-3.376 6.602-3.768 7.109-4.318 7.616-4.885 3.555-2.444 1.777-1.59 1.777-1.908 2.031-2.554 2.031-2.93 2.285-3.718 2.285-4.137 2.54-5.05 2.792-6.056 3.047-7.143 3.554-8.946 4.063-10.889 4.823-13.623 6.855-20.113 10.41-30.529 4.824-13.444 4.062-10.678 3.555-8.715 3.046-6.912 2.793-5.817 2.539-4.81 2.285-3.902 2.285-3.466 2.031-2.691 2.031-2.3 1.777-1.677 1.778-1.346 8.124-5.25 7.363-4.505 6.855-3.941 6.347-3.405 6.094-3.022 5.84-2.65 5.585-2.29 5.331-1.947 5.078-1.623 5.078-1.385 4.824-1.083 4.57-.807 4.57-.584 4.57-.352 4.316-.11h0" clip-path="url(#p9e6aabee00)" style="fill:none;stroke:#f0f;stroke-opacity:.8;stroke-linecap:square"/><path id="line2d_57" d="m19.882 271.8 3.3-.118 3.301-.347 3.3-.569 3.555-.849 3.554-1.084 3.555-1.308 3.808-1.637 4.063-2 4.062-2.247 4.316-2.638 4.57-3.054 4.824-3.489 5.332-4.14 5.585-4.62 6.347-5.545 7.363-6.746 9.14-8.704 6.094-6.025 2.03-2.442 2.032-2.794 2.285-3.536 2.539-4.386 2.539-4.83 2.792-5.777 3.047-6.802 3.555-8.504 4.062-10.342 4.824-12.933 6.855-19.1 10.917-30.445 4.824-12.787 4.062-10.171 3.555-8.32 3.046-6.616 2.793-5.586 2.54-4.637 2.538-4.176 2.285-3.334 2.031-2.6 2.031-2.24 1.777-1.648 1.778-1.342 1.523-.898 2.031-.903 8.379-3.448 7.87-3 7.617-2.663 7.109-2.256 6.855-1.952 6.855-1.718 6.601-1.422 6.347-1.141 6.094-.877 6.093-.652 5.84-.407 5.839-.184 1.777-.011h0" clip-path="url(#p9e6aabee00)" style="fill:none;stroke:#db24ff;stroke-opacity:.8;stroke-linecap:square"/><path id="line2d_58" d="m19.882 271.8 4.062-1.726 4.062-1.975 4.316-2.359 4.317-2.616 4.57-3.039 4.57-3.3 4.824-3.752 5.077-4.23 5.332-4.73 5.586-5.25 6.093-6.039 6.347-6.604 7.11-7.731 7.616-8.618 8.632-10.104 4.062-4.979 2.54-3.553 2.792-4.332 2.793-4.738 3.047-5.588 3.554-7.007 3.808-8.006 4.57-10.153 5.586-12.987 11.933-28.529 6.347-14.8 4.824-10.711 4.062-8.5 3.555-6.948 3.3-5.971 3.047-5.046 2.793-4.187 2.539-3.412 2.285-2.723 2.285-2.373 2.03-1.798 2.032-1.49 1.777-1.04 2.031-.916 8.633-3.565 8.124-3.115 7.617-2.685 7.363-2.36 7.108-2.04 6.602-1.668 6.6-1.439 6.348-1.153 6.093-.884 6.094-.654 5.84-.4 5.585-.169 1.523-.008h0" clip-path="url(#p9e6aabee00)" style="fill:none;stroke:#bf40ff;stroke-opacity:.8;stroke-linecap:square"/><path id="line2d_59" d="m19.882 271.8 5.332-3.992 5.585-4.457 5.84-4.948 6.093-5.465 6.347-6.004 6.601-6.564 6.855-7.144 7.11-7.739 7.362-8.345 7.87-9.265 8.38-10.22 8.885-11.2 4.57-6.002L109.76 176l3.3-5.251 3.555-6.095 3.808-6.97 4.57-8.855 5.332-10.846 7.617-16.058 11.933-25.161 5.331-10.718 4.57-8.702 4.063-7.248 3.554-5.89 3.3-5.033 3.047-4.232 2.793-3.494 2.539-2.831 2.285-2.248 2.285-1.947 2.031-1.463 2.031-1.201 2.285-1.057 8.886-3.754L207 33.748l7.617-2.768 7.362-2.44 6.855-2.044 6.602-1.744 6.347-1.454 6.093-1.178 6.094-.95 5.84-.686 5.585-.44 5.585-.22 2.54-.024h0" clip-path="url(#p9e6aabee00)" style="fill:none;stroke:#a5f;stroke-opacity:.8;stroke-linecap:square"/><path id="line2d_60" d="m19.882 271.8 8.632-9.116 8.886-9.707 9.14-10.315 9.394-10.937 9.648-11.573 9.902-12.222 10.41-13.207 10.663-13.89 9.394-12.561 3.554-5.153 3.808-5.923 4.317-7.145 4.823-8.427 5.84-10.66 9.14-17.214 10.156-19.008 5.84-10.459 4.823-8.19 4.062-6.487 3.809-5.674 3.554-4.886 3.3-4.142 3.047-3.45 2.793-2.822 2.539-2.263 2.539-1.956 2.285-1.485 2.285-1.21 4.824-2.1 8.886-3.68 8.125-3.13 7.616-2.702 7.11-2.294 6.854-1.982 6.601-1.677 6.348-1.38 6.093-1.097 5.84-.827 5.585-.576 5.586-.353 5.331-.12h.254" clip-path="url(#p9e6aabee00)" style="fill:none;stroke:#96f;stroke-opacity:.8;stroke-linecap:square"/><path id="line2d_61" d="m19.882 271.8 10.663-1.579 11.171-1.877 11.933-2.235 12.44-2.56 13.457-3 14.472-3.457 45.446-11.309 8.125-2.31 7.109-2.243 6.6-2.316 6.094-2.374 5.84-2.519 5.585-2.66 5.332-2.792 5.078-2.91 2.03-1.368 2.032-1.619 2.285-2.114 2.285-2.417 2.539-3.03 2.539-3.384 2.792-4.116 2.793-4.514 3.047-5.364 3.047-5.802 3.3-6.759 3.555-7.802 3.808-8.93 4.062-10.134 4.316-11.408 4.57-12.739 4.824-14.115 5.332-16.31 5.84-18.603 6.6-21.8 7.871-26.8 4.824-16.731h0" clip-path="url(#p9e6aabee00)" style="fill:none;stroke:#f0f;stroke-opacity:.8;stroke-linecap:square"/><path id="line2d_62" d="m19.882 271.8 10.155-1.723 10.41-1.992 10.917-2.316 11.425-2.649 12.187-3.053 13.202-3.542 14.472-4.117 16.249-4.632 15.487-4.452 8.886-2.794 7.363-2.544 6.601-2.511 6.094-2.552 5.84-2.688 5.585-2.823 5.332-2.949 5.077-3.06 4.57-2.996 2.285-1.772 2.285-2.057 2.54-2.613 2.538-2.947 2.54-3.272 2.792-3.963 3.047-4.743 3.046-5.165 3.3-6.052 3.301-6.506 3.555-7.49 3.808-8.552 4.062-9.688 4.317-10.888 4.57-12.147 4.824-13.448 5.331-15.536 5.84-17.721 6.6-20.778 7.618-24.744 5.585-18.525h0" clip-path="url(#p9e6aabee00)" style="fill:none;stroke:#f0f;stroke-opacity:.8;stroke-linecap:square"/><path id="line2d_63" d="m19.882 271.8 5.332-.115 5.331-.334 5.586-.571 5.84-.82 6.093-1.081 6.6-1.405 6.856-1.688 7.363-2.04 8.378-2.56 9.648-3.194 12.187-4.286 9.394-3.49 4.57-1.978 4.823-2.333 4.824-2.579 5.078-2.972 5.078-3.228 5.332-3.657 5.331-3.923 5.586-4.384 5.84-4.873 6.093-5.387 6.093-5.684 6.347-6.22 6.602-6.78 6.855-7.354 4.824-5.437 3.554-4.365 3.808-5.03 4.063-5.757 4.062-6.145 4.316-6.939 4.57-7.787 4.824-8.687 4.824-9.144 5.078-10.091 5.331-11.079 5.84-12.662 6.093-13.756 6.601-15.47 7.11-17.251 7.616-19.074 4.062-10.39h0" clip-path="url(#p9e6aabee00)" style="fill:none;stroke:#f0f;stroke-opacity:.8;stroke-linecap:square"/><path id="line2d_64" d="m19.882 271.8 5.332-.106 5.585-.332 5.84-.577 5.84-.8 6.092-1.057 6.348-1.328 6.6-1.609 6.856-1.898 7.363-2.272 7.87-2.67 8.379-3.078 9.394-3.698 5.077-2.17 2.54-1.389 2.538-1.637 2.793-2.073 2.793-2.344 3.046-2.848 3.301-3.404 3.555-4.007 3.808-4.65 4.062-5.324 4.57-6.377 5.078-7.488 6.093-9.414 8.125-13.011 16.503-26.536 6.093-9.324 5.078-7.386 5.585-7.698 17.773-24.536 18.026-25.264 18.534-26.362 18.788-27.116 8.378-12.217h0" clip-path="url(#p9e6aabee00)" style="fill:none;stroke:#f0f;stroke-opacity:.8;stroke-linecap:square"/><path id="line2d_65" d="m19.882 271.8 5.585-.111 5.586-.328 5.84-.565 6.093-.82 6.093-1.045 6.347-1.315 6.602-1.6 6.855-1.894 7.109-2.2 7.362-2.511 7.871-2.924 8.378-3.356 6.094-2.639 1.777-1.036 2.031-1.448 2.031-1.717 2.285-2.238 2.285-2.546 2.54-3.167 2.792-3.869 3.047-4.641 3.3-5.478 3.555-6.362 3.808-7.274 4.57-9.242 5.332-11.308 8.124-17.833 10.41-22.767 5.331-11.128 4.317-8.538 3.808-7.08 3.554-6.147 3.3-5.252 3.048-4.409 2.792-3.65 9.14-11.387 8.379-10.085 7.617-8.832 7.362-8.197 6.855-7.302 6.602-6.705 6.093-5.884 5.84-5.346 5.839-5.043 5.585-4.524 5.332-4.032 5.078-3.569 4.062-2.656h0" clip-path="url(#p9e6aabee00)" style="fill:none;stroke:#f0f;stroke-opacity:.8;stroke-linecap:square"/><path id="line2d_66" d="m19.882 271.8 5.585-.106 5.84-.334 5.84-.553 6.093-.801 6.093-1.022 6.347-1.287 6.601-1.57 6.856-1.867 7.108-2.177 7.363-2.496 7.617-2.823 7.87-3.157 6.348-2.76 1.523-.943 1.777-1.394 1.778-1.696 1.777-1.986 2.031-2.608 2.285-3.341 2.285-3.745 2.539-4.602 2.793-5.55 3.046-6.583 3.301-7.676 3.808-9.452 4.316-11.327 5.586-15.328 17.518-48.608 4.317-11.084 3.808-9.174 3.3-7.386 3.047-6.275 2.793-5.236 2.539-4.287 2.285-3.44 2.031-2.7 2.031-2.346 2.285-2.263 11.171-10.666 7.87-7.218 6.602-5.767 5.84-4.822 5.331-4.131 5.078-3.66 4.824-3.197 4.57-2.753 4.316-2.333 4.062-1.94 3.809-1.58 3.808-1.333 3.555-1.012 3.554-.775 3.3-.498 3.301-.276 2.285-.056h0" clip-path="url(#p9e6aabee00)" style="fill:none;stroke:#f0f;stroke-opacity:.8;stroke-linecap:square"/><path id="line2d_67" d="m19.882 271.8 4.57-.109 4.824-.346 4.824-.574 4.824-.793L44 268.916l5.078-1.285 5.332-1.579 5.585-1.891 5.84-2.224 5.84-2.46 6.093-2.8 6.6-3.285 6.856-3.662 7.363-4.19 6.6-3.99 1.524-1.198 1.524-1.46 1.777-2.017 1.777-2.343 2.031-3.056 2.285-3.89 2.285-4.34 2.54-5.306 2.792-6.373 3.047-7.524 3.3-8.733 3.809-10.702 4.57-13.517 6.6-20.306 10.918-33.636 4.824-14.089 3.808-10.488 3.3-8.505 3.048-7.278 2.792-6.117 2.54-5.05 2.284-4.087 2.285-3.62 2.031-2.8 1.778-2.106 1.777-1.77 1.523-1.236 1.777-1.136 7.871-4.616 7.363-4.064 6.855-3.535 6.601-3.153 6.093-2.673 5.84-2.33 5.84-2.088 5.585-1.757 5.332-1.445 5.077-1.154 5.078-.927 4.824-.662 4.824-.439 4.824-.208 1.777-.016h0" clip-path="url(#p9e6aabee00)" style="fill:none;stroke:#f0f;stroke-opacity:.8;stroke-linecap:square"/><path id="line2d_68" d="m19.882 271.8 3.554-.111 3.555-.328 3.808-.582 3.808-.812 3.809-1.032 4.062-1.331 4.062-1.559 4.316-1.891 4.57-2.251 4.824-2.635 5.078-3.038 5.332-3.459 5.585-3.888 6.094-4.516 6.601-5.168 7.617-6.256 8.378-7.165 1.777-1.79 1.778-2.102 2.03-2.762 2.032-3.126 2.285-3.926 2.539-4.834 2.792-5.842 3.047-6.935 3.3-8.093 3.81-9.97 4.315-11.946 5.586-16.152 16.249-47.447 4.316-11.721 3.808-9.71 3.3-7.822 3.048-6.646 2.792-5.543 2.54-4.536 2.284-3.637 2.031-2.851 2.031-2.47 1.778-1.833 1.777-1.51 1.523-1.026 1.524-.773 8.124-3.512 7.87-3.161 7.364-2.723 7.108-2.397 6.855-2.082 6.602-1.779 6.347-1.49 6.347-1.261 6.094-.987 6.093-.757 5.84-.502 5.839-.273 3.808-.051h0" clip-path="url(#p9e6aabee00)" style="fill:none;stroke:#e01fff;stroke-opacity:.8;stroke-linecap:square"/><path id="line2d_69" d="m19.882 271.8 3.3-.727 3.555-1.018 3.554-1.251 3.809-1.589 3.808-1.834 4.062-2.213 4.063-2.465 4.316-2.878 4.57-3.32 4.824-3.787 5.077-4.274 5.332-4.774 5.84-5.529 6.347-6.316 7.109-7.39 8.378-9.034 7.87-8.76 2.286-2.944 2.285-3.302 2.539-4.062 2.792-4.906 3.047-5.828 3.3-6.81 3.81-8.408 4.315-10.112 5.332-13.115 8.378-21.323 8.633-21.798 5.077-12.235 4.063-9.256 3.554-7.599 3.3-6.556 3.047-5.56 2.793-4.636 2.539-3.792 2.285-3.043 2.285-2.666 2.031-2.036 2.031-1.703 1.777-1.205 1.778-.927 8.378-3.578 8.125-3.227 7.616-2.786 7.363-2.452 6.855-2.055 6.601-1.755 6.601-1.522 6.348-1.231 6.093-.957 5.84-.7 5.839-.477 5.586-.24 3.3-.039h0" clip-path="url(#p9e6aabee00)" style="fill:none;stroke:#c738ff;stroke-opacity:.8;stroke-linecap:square"/><path id="line2d_70" d="m19.882 271.8 4.316-2.157 4.316-2.408 4.57-2.814 4.57-3.073 4.824-3.512 5.078-3.979 5.332-4.473 5.585-4.99 5.84-5.527 6.093-6.079 6.601-6.912 6.855-7.5 7.617-8.673 8.378-9.889 6.348-7.78 2.538-3.537 2.793-4.286 3.047-5.109 3.3-5.99 3.555-6.915 4.062-8.4 4.824-10.52 6.093-13.854 17.265-39.588 4.824-10.326 4.062-8.187 3.555-6.69 3.3-5.75 3.047-4.86 2.793-4.034 2.539-3.289 2.285-2.628 2.285-2.294 2.03-1.743 2.032-1.448 1.777-1.016 2.793-1.258 8.632-3.657 8.125-3.198 7.616-2.757 7.11-2.341 6.854-2.029 6.601-1.725 6.348-1.432 6.093-1.155 6.093-.926 5.84-.662 5.585-.417 5.586-.198 2.031-.015h0" clip-path="url(#p9e6aabee00)" style="fill:none;stroke:#b34cff;stroke-opacity:.8;stroke-linecap:square"/><path id="line2d_71" d="m19.882 271.8 10.663-1.579 11.171-1.877 11.933-2.235 12.44-2.56 13.457-3 14.472-3.457 45.446-11.309 8.125-2.31 7.109-2.243 6.6-2.316 6.094-2.374 5.84-2.519 5.585-2.66 5.332-2.792 5.078-2.91 2.03-1.368 2.032-1.619 2.285-2.114 2.285-2.417 2.539-3.03 2.539-3.384 2.792-4.116 2.793-4.514 3.047-5.364 3.047-5.802 3.3-6.759 3.555-7.802 3.808-8.93 4.062-10.134 4.316-11.408 4.57-12.739 4.824-14.115 5.332-16.31 5.84-18.603 6.6-21.8 7.871-26.8 4.824-16.731h0" clip-path="url(#p9e6aabee00)" style="fill:none;stroke:#f0f;stroke-opacity:.8;stroke-linecap:square"/><path id="line2d_72" d="m19.882 271.8 9.902-1.742 10.155-2.01 10.664-2.337 11.17-2.673 11.934-3.084 12.948-3.583 13.964-4.099 23.612-6.999 11.679-3.565 8.378-2.784 7.109-2.59 6.601-2.641 6.093-2.682 5.586-2.694 5.332-2.808 5.331-3.062 5.078-3.175 4.57-3.112 2.285-1.843 2.285-2.12 2.54-2.673 2.538-2.996 2.793-3.658 2.793-4.027 3.046-4.798 3.047-5.206 3.3-6.08 3.555-7.038 3.808-8.077 3.809-8.6 4.062-9.714 4.316-10.892 4.57-12.123 5.078-14.118 5.332-15.48 6.093-18.403 6.855-21.458 7.87-25.393 3.555-11.663h0" clip-path="url(#p9e6aabee00)" style="fill:none;stroke:#f0f;stroke-opacity:.8;stroke-linecap:square"/><path id="line2d_73" d="m19.882 271.8 5.84-.415 6.093-.653 6.347-.9 6.601-1.156 7.109-1.474 7.617-1.815 8.124-2.17 8.886-2.606 10.156-3.217 12.44-4.184 11.172-3.96 6.6-2.603 6.602-2.845 6.347-2.979 6.348-3.23 6.093-3.354 6.093-3.612 5.84-3.716 5.84-3.978 5.839-4.25 5.84-4.532 5.585-4.612 5.585-4.891 5.586-5.18 3.047-3.04 3.046-3.372 3.047-3.7 3.3-4.365 3.301-4.726 3.555-5.477 3.808-6.299 3.808-6.724 4.063-7.622 4.316-8.579 4.57-9.594 4.824-10.662 5.077-11.773 5.332-12.922 5.84-14.749 6.347-16.661L262.6 50.57l7.87-22.068 3.047-8.703h0" clip-path="url(#p9e6aabee00)" style="fill:none;stroke:#f0f;stroke-opacity:.8;stroke-linecap:square"/><path id="line2d_74" d="m19.882 271.8 5.332-.11 5.585-.343 5.586-.564 5.84-.813 6.093-1.074 6.347-1.348 6.6-1.63 7.11-1.991 7.363-2.294 8.124-2.77 8.886-3.27 10.156-3.983 4.062-1.744 2.793-1.462 3.047-1.848 3.046-2.099 3.3-2.54 3.555-3.028 3.809-3.557 4.062-4.122 4.316-4.714 4.57-5.327 5.078-6.27 5.586-7.251 6.6-8.94 8.887-12.438 19.042-26.764 19.55-26.903 7.87-11.466 8.124-12.23 8.379-13.015 8.632-13.82 8.886-14.643 9.394-15.916 9.648-16.789 8.378-14.924h0" clip-path="url(#p9e6aabee00)" style="fill:none;stroke:#f0f;stroke-opacity:.8;stroke-linecap:square"/><path id="line2d_75" d="m19.882 271.8 5.585-.115 5.586-.34 5.84-.584 5.839-.805 6.093-1.065 6.348-1.34 6.6-1.625 6.856-1.921 7.109-2.224 7.616-2.62 8.125-3.037 8.632-3.467 5.84-2.529 2.285-1.304 2.285-1.574 2.285-1.832 2.539-2.32 2.792-2.883 2.793-3.202 3.047-3.834 3.3-4.518 3.555-5.25 4.062-6.425 4.316-7.248 5.078-8.972 6.347-11.686 21.581-40.145 5.078-8.75 4.316-7.005 3.808-5.78 3.555-5.002 11.425-15.23 10.917-14.19 10.663-13.5 10.41-12.818 9.902-11.85 9.648-11.208 9.393-10.582 9.14-9.97 3.047-3.25h0" clip-path="url(#p9e6aabee00)" style="fill:none;stroke:#f0f;stroke-opacity:.8;stroke-linecap:square"/><path id="line2d_76" d="m19.882 271.8 5.585-.11 5.84-.346 5.84-.57 6.093-.827 6.093-1.05 6.347-1.32 6.601-1.607 6.856-1.903 7.108-2.213 7.363-2.528 7.617-2.849 8.124-3.277 6.094-2.644 1.777-1.046 1.777-1.293 2.031-1.768 2.032-2.062 2.285-2.655 2.285-2.988 2.538-3.687 2.793-4.467 3.047-5.322 3.3-6.237 3.555-7.197 4.062-8.734 4.824-10.922 6.347-14.965 14.98-35.553 4.824-10.79 4.062-8.585 3.555-7.039 3.3-6.067 3.047-5.144 2.793-4.287 2.538-3.51 2.54-3.126 9.393-11.005 8.125-9.182 7.109-7.714 6.6-6.845 6.094-6.01 5.84-5.452 5.585-4.903 5.078-4.171 4.824-3.693 4.824-3.413 4.57-2.96 4.316-2.539 4.316-2.277 4.062-1.893 3.047-1.255h0" clip-path="url(#p9e6aabee00)" style="fill:none;stroke:#f0f;stroke-opacity:.8;stroke-linecap:square"/><path id="line2d_77" d="m19.882 271.8 5.585-.109 5.84-.34 5.84-.563 6.093-.818 6.093-1.041 6.347-1.313 6.601-1.601 6.602-1.83 6.855-2.126 7.109-2.438 7.362-2.756 7.871-3.187 7.109-3.108 1.523-.925 1.524-1.167 1.777-1.655 1.777-1.96 2.031-2.593 2.031-2.951 2.285-3.723 2.54-4.6 2.792-5.58 3.047-6.645 3.3-7.777 3.555-8.948 4.316-11.51 5.332-14.913 19.55-55.414 4.061-10.517 3.555-8.619 3.3-7.413 2.793-5.761 2.54-4.783 2.538-4.309 2.285-3.438 2.031-2.682 2.031-2.31 2.031-1.942 10.156-9.157 7.87-6.803 6.602-5.426 6.093-4.726 5.586-4.054 5.078-3.421 4.823-2.992 4.57-2.58 4.317-2.193 4.316-1.937 4.062-1.575 3.808-1.246 3.809-1.01 3.554-.719 3.555-.495 3.554-.26 2.031-.041h0" clip-path="url(#p9e6aabee00)" style="fill:none;stroke:#f0f;stroke-opacity:.8;stroke-linecap:square"/><path id="line2d_78" d="m19.882 271.8 5.078-.112 5.077-.332 5.332-.576 5.332-.8 5.585-1.07 5.586-1.297 5.84-1.587 6.093-1.895 6.093-2.126 6.347-2.447 6.602-2.78 7.109-3.244 7.362-3.609 7.363-3.845 1.524-1.006 1.523-1.283 1.523-1.551 1.777-2.134 1.778-2.467 2.03-3.206 2.286-4.072 2.285-4.529 2.539-5.527 2.792-6.625 3.047-7.806 3.555-9.763 4.062-11.862 4.824-14.8 7.87-24.997 8.125-25.583 4.824-14.449 3.808-10.748 3.3-8.708 3.047-7.442 2.793-6.246 2.54-5.145 2.284-4.155 2.031-3.286 2.031-2.877 1.778-2.163 1.777-1.814 1.523-1.265 1.777-1.159 7.871-4.702 7.363-4.14 6.855-3.601 6.601-3.213 6.093-2.723 5.84-2.374 5.585-2.04 5.586-1.8 5.332-1.484 5.078-1.187 5.077-.957 4.824-.686 4.824-.459 4.57-.218 2.285-.028h0" clip-path="url(#p9e6aabee00)" style="fill:none;stroke:#f0f;stroke-opacity:.8;stroke-linecap:square"/><path id="line2d_79" d="m19.882 271.8 3.808-.113 3.809-.332 4.062-.588 4.062-.82 4.062-1.04 4.316-1.337 4.317-1.563 4.57-1.89 4.823-2.24 5.078-2.613 5.332-3.004 5.586-3.41 5.839-3.824 6.347-4.424 6.855-5.048 7.87-6.082 5.079-4.14 1.777-1.836 1.777-2.158 2.031-2.84 2.031-3.219 2.285-4.042 2.54-4.98 2.792-6.019 3.047-7.146 3.3-8.338 3.809-10.27 4.316-12.296 5.84-17.38 14.979-44.957 4.57-12.805 3.808-10.009 3.3-8.065 3.048-6.855 2.792-5.719 2.54-4.679 2.284-3.75 2.031-2.94 2.031-2.545 1.778-1.886 1.777-1.552 1.523-1.053 1.524-.79 8.124-3.584 7.617-3.126 7.363-2.786 7.109-2.455 6.855-2.133 6.6-1.824 6.348-1.529 6.347-1.297 6.094-1.016 5.84-.755 5.839-.532 5.585-.291 4.57-.075h0" clip-path="url(#p9e6aabee00)" style="fill:none;stroke:#e31cff;stroke-opacity:.8;stroke-linecap:square"/><path id="line2d_80" d="m19.882 271.8 3.047-.109 3.046-.32 3.3-.577 3.301-.806 3.3-1.026 3.555-1.339 3.555-1.569 3.808-1.923 4.062-2.31 4.317-2.727 4.57-3.17 4.824-3.63 5.077-4.105 5.586-4.809 6.093-5.54 7.11-6.773 8.885-8.786 8.633-8.806 2.03-2.49 2.286-3.191 2.285-3.58 2.539-4.4 2.792-5.315 3.047-6.306 3.3-7.361 3.81-9.075 4.315-10.89 5.332-14.084 19.803-52.982 4.316-10.552 3.555-8.135 3.3-7.012 3.047-5.939 2.793-4.937 2.539-4.027 2.285-3.217 2.031-2.513 2.031-2.168 1.777-1.6 1.778-1.308 1.523-.88 3.047-1.38 8.124-3.482 7.87-3.131 7.364-2.692 7.108-2.364 6.855-2.045 6.602-1.736 6.347-1.442 6.093-1.163 6.094-.936 5.84-.673 5.839-.446 5.585-.204 2.285-.019h0" clip-path="url(#p9e6aabee00)" style="fill:none;stroke:#c3f;stroke-opacity:.8;stroke-linecap:square"/><path id="line2d_81" d="m19.882 271.8 10.663-1.579 11.171-1.877 11.933-2.235 12.44-2.56 13.457-3 14.472-3.457 45.446-11.309 8.125-2.31 7.109-2.243 6.6-2.316 6.094-2.374 5.84-2.519 5.585-2.66 5.332-2.792 5.078-2.91 2.03-1.368 2.032-1.619 2.285-2.114 2.285-2.417 2.539-3.03 2.539-3.384 2.792-4.116 2.793-4.514 3.047-5.364 3.047-5.802 3.3-6.759 3.555-7.802 3.808-8.93 4.062-10.134 4.316-11.408 4.57-12.739 4.824-14.115 5.332-16.31 5.84-18.603 6.6-21.8 7.871-26.8 4.824-16.731h0" clip-path="url(#p9e6aabee00)" style="fill:none;stroke:#f0f;stroke-opacity:.8;stroke-linecap:square"/><path id="line2d_82" d="m19.882 271.8 9.902-1.777 10.155-2.051 10.664-2.384 11.17-2.726 11.934-3.147 12.694-3.582 13.964-4.177 41.13-12.745 7.363-2.65 6.601-2.604 6.094-2.632 5.84-2.765 5.585-2.894 5.331-3.016 5.078-3.124 5.078-3.391 2.539-1.89 2.285-1.986 2.539-2.523 2.539-2.846 2.792-3.493 2.793-3.862 3.047-4.617 3.047-5.025 3.3-5.886 3.555-6.83 3.554-7.314 3.808-8.347 4.063-9.45 4.316-10.62 4.57-11.844 4.824-13.115 5.331-15.152 5.84-17.29 6.601-20.286 7.617-24.178 6.093-19.781h0" clip-path="url(#p9e6aabee00)" style="fill:none;stroke:#f0f;stroke-opacity:.8;stroke-linecap:square"/><path id="line2d_83" d="m19.882 271.8 7.363-.907 7.616-1.167 7.87-1.43 8.38-1.753 8.885-2.092 9.394-2.441 10.41-2.942 11.425-3.464 13.71-4.4 12.187-4.116 9.14-3.319 7.87-3.093 7.11-3.03 6.6-3.053 6.348-3.184 6.093-3.314 5.84-3.437 5.585-3.549 5.332-3.644 5.332-3.913 5.331-4.2 3.3-2.822 2.54-2.483 2.793-3.058 2.792-3.39 3.047-4.065 3.047-4.436 3.3-5.209 3.3-5.612 3.555-6.476 3.809-7.415 4.062-8.423 4.316-9.498 4.57-10.632 4.824-11.819 5.078-13.047 5.585-15 5.84-16.325 6.601-19.134 7.363-22.038 6.093-18.67h0" clip-path="url(#p9e6aabee00)" style="fill:none;stroke:#f0f;stroke-opacity:.8;stroke-linecap:square"/><path id="line2d_84" d="m19.882 271.8 5.332-.114 5.331-.334 5.586-.573 5.84-.825 6.093-1.092 6.347-1.368 6.601-1.648 7.109-2.006 7.617-2.382 8.378-2.855 9.648-3.53 11.425-4.423 3.554-1.586 3.555-1.836 3.808-2.234 3.809-2.495 4.062-2.933 4.316-3.406 4.57-3.908 4.824-4.435 5.078-4.983 5.331-5.542 5.84-6.389 6.601-7.563 7.617-9.082 9.394-11.566 14.218-17.884 5.077-6.762 5.332-7.48 5.586-8.242 5.585-8.64 5.84-9.44 6.093-10.273 6.347-11.14 6.601-12.036 6.855-12.954 7.363-14.397 7.617-15.382 8.124-16.908 5.332-11.354h0" clip-path="url(#p9e6aabee00)" style="fill:none;stroke:#f0f;stroke-opacity:.8;stroke-linecap:square"/><path id="line2d_85" d="m19.882 271.8 5.332-.109 5.585-.34 5.586-.562 5.84-.81 6.093-1.075 6.347-1.353 6.6-1.641 6.856-1.938 7.109-2.239 7.617-2.63 8.378-3.137 9.14-3.668 5.84-2.52 2.538-1.404 2.54-1.665 2.792-2.118 2.793-2.4 3.047-2.924 3.3-3.5 3.555-4.125 3.808-4.79 4.062-5.487 4.57-6.574 5.078-7.715 6.093-9.692 8.379-13.794 14.472-23.865 6.093-9.597 5.078-7.605 4.57-6.45 39.099-53.554 39.353-54.28 6.093-8.439h0" clip-path="url(#p9e6aabee00)" style="fill:none;stroke:#f0f;stroke-opacity:.8;stroke-linecap:square"/><path id="line2d_86" d="m19.882 271.8 5.332-.107 5.585-.335 5.586-.553 5.84-.801 6.093-1.068 6.093-1.29 6.347-1.568 6.601-1.858 6.855-2.158 7.363-2.555 7.617-2.88 8.124-3.308 7.87-3.43 2.032-1.14 2.031-1.407 2.031-1.66 2.285-2.156 2.54-2.736 2.538-3.072 2.793-3.74 3.047-4.478 3.3-5.274 3.555-6.117 4.062-7.47 4.57-8.902 5.585-11.413 8.125-17.179 10.663-22.467 5.586-11.225 4.57-8.685 3.808-6.79 3.555-5.902 3.3-5.046 3.047-4.243 5.078-6.51 8.886-11.097 8.378-10.113 7.871-9.156 7.363-8.234 7.109-7.624 6.855-7.024 6.6-6.442 6.348-5.88 6.094-5.336 5.839-4.82 5.586-4.328 3.3-2.423h0" clip-path="url(#p9e6aabee00)" style="fill:none;stroke:#f0f;stroke-opacity:.8;stroke-linecap:square"/><path id="line2d_87" d="m19.882 271.8 5.585-.112 5.586-.331 5.84-.572 5.839-.791 6.093-1.051 6.348-1.328 6.347-1.553 6.601-1.84 6.855-2.142 7.109-2.45 7.617-2.867 7.87-3.203 7.363-3.207 1.777-1.014 1.778-1.288 1.777-1.553 2.03-2.083 2.032-2.396 2.285-3.05 2.539-3.8 2.539-4.203 2.793-5.05 3.046-5.967 3.3-6.943 3.81-8.539 4.315-10.227 5.586-13.854 20.311-51.01 4.316-9.907 3.809-8.18 3.3-6.576 3.047-5.58 2.793-4.655 2.539-3.81 2.285-3.06 2.285-2.688 10.917-11.937 8.124-8.57 7.11-7.175 6.347-6.088 5.585-5.061 5.332-4.538 5.078-4.025 4.57-3.35 4.57-3.073 4.316-2.627 4.062-2.214 3.808-1.834 3.809-1.588 3.554-1.25 3.555-1.017 3.3-.726.254-.047h0" clip-path="url(#p9e6aabee00)" style="fill:none;stroke:#f0f;stroke-opacity:.8;stroke-linecap:square"/><path id="line2d_88" d="m19.882 271.8 5.585-.113 5.586-.334 5.84-.576 5.839-.8 6.093-1.065 6.094-1.29 6.347-1.57 6.601-1.866 6.855-2.179 7.109-2.502 7.363-2.834 7.617-3.175 7.87-3.522 1.524-.882 1.523-1.145 1.777-1.655 1.777-1.985 1.778-2.299 2.03-2.993 2.286-3.807 2.285-4.241 2.539-5.183 2.792-6.22 3.047-7.341 3.555-9.197 4.062-11.197 4.824-14.006 7.109-21.435 9.647-29.035 4.824-13.816 4.063-10.972 3.554-8.95 3.047-7.094 2.793-5.964 2.538-4.925 2.285-3.989 2.285-3.535 2.032-2.737 1.777-2.062 1.777-1.736 2.285-1.854 8.378-6.516 7.363-5.454 6.601-4.624 6.094-4.008 5.84-3.575 5.33-3.01 5.079-2.623 4.824-2.252 4.824-2.003 4.57-1.652 4.316-1.328 4.316-1.091 4.062-.8 4.062-.57 3.809-.315 3.554-.098h0" clip-path="url(#p9e6aabee00)" style="fill:none;stroke:#f0f;stroke-opacity:.8;stroke-linecap:square"/><path id="line2d_89" d="m19.882 271.8 5.078-.114 5.077-.338 5.078-.554 5.332-.805 5.332-1.025 5.585-1.3 5.84-1.597 5.84-1.826 6.093-2.138 6.347-2.465 6.6-2.806 6.856-3.156 7.363-3.643 7.616-4.02 1.778-1.072 1.523-1.22 1.523-1.502 1.778-2.091 1.777-2.44 2.031-3.196 2.031-3.603 2.285-4.51 2.539-5.536 2.793-6.667 3.047-7.89 3.3-9.174 3.808-11.257 4.57-14.228 6.602-21.376 10.41-33.74 4.823-14.83 3.808-11.029 3.3-8.93 3.048-7.626 2.792-6.394 2.54-5.259 2.284-4.24 2.031-3.346 2.032-2.921 1.777-2.188 1.777-1.825 1.523-1.264 1.524-.974 7.87-4.141 7.363-3.628 7.11-3.256 6.6-2.786 6.347-2.448 6.094-2.123 6.093-1.887 5.84-1.574 5.585-1.28 5.586-1.05 5.332-.778 5.331-.55 5.078-.302 4.316-.082h0" clip-path="url(#p9e6aabee00)" style="fill:none;stroke:#f0f;stroke-opacity:.8;stroke-linecap:square"/><path id="line2d_90" d="m19.882 271.8 4.062-.112 4.062-.33 4.316-.583 4.317-.81 4.316-1.03 4.57-1.318 4.824-1.633 4.824-1.869 5.077-2.206 5.332-2.565 5.586-2.94 5.84-3.327 6.092-3.724 6.602-4.295 7.109-4.888 7.87-5.685 1.524-1.299 1.777-1.84 1.777-2.175 2.031-2.876 2.031-3.27 2.285-4.117 2.54-5.084 2.792-6.155 3.047-7.318 3.3-8.548 3.809-10.537 4.316-12.624 5.84-17.845 14.725-45.366 4.316-12.435 3.808-10.315 3.3-8.315 3.048-7.068 2.792-5.898 2.54-4.825 2.284-3.866 2.031-3.03 2.031-2.622 1.778-1.941 1.777-1.595 1.523-1.08 1.524-.808 8.124-3.656 7.617-3.188 7.363-2.842 7.109-2.505 6.855-2.176 6.6-1.86 6.348-1.56 6.093-1.275 6.094-1.047 5.84-.78 5.839-.552 5.585-.307 4.824-.085h0" clip-path="url(#p9e6aabee00)" style="fill:none;stroke:#e619ff;stroke-opacity:.8;stroke-linecap:square"/><path id="line2d_91" d="m19.882 271.8 10.663-1.579 11.171-1.877 11.933-2.235 12.44-2.56 13.457-3 14.472-3.457 45.446-11.309 8.125-2.31 7.109-2.243 6.6-2.316 6.094-2.374 5.84-2.519 5.585-2.66 5.332-2.792 5.078-2.91 2.03-1.368 2.032-1.619 2.285-2.114 2.285-2.417 2.539-3.03 2.539-3.384 2.792-4.116 2.793-4.514 3.047-5.364 3.047-5.802 3.3-6.759 3.555-7.802 3.808-8.93 4.062-10.134 4.316-11.408 4.57-12.739 4.824-14.115 5.332-16.31 5.84-18.603 6.6-21.8 7.871-26.8 4.824-16.731h0" clip-path="url(#p9e6aabee00)" style="fill:none;stroke:#f0f;stroke-opacity:.8;stroke-linecap:square"/><path id="line2d_92" d="m19.882 271.8 9.648-1.802 9.901-2.076 10.41-2.412 10.917-2.76 11.68-3.188 12.44-3.633 13.456-4.167 38.845-12.465 8.125-2.928 6.855-2.7 6.347-2.733 5.84-2.748 5.585-2.868 5.332-2.982 5.077-3.084 5.078-3.344 4.57-3.268 2.285-1.91 2.54-2.43 2.538-2.745 2.793-3.373 2.793-3.734 3.046-4.469 3.047-4.868 3.3-5.706 3.555-6.627 3.555-7.104 3.808-8.112 4.062-9.193 4.316-10.337 4.57-11.54 4.824-12.789 5.332-14.79 5.84-16.896 6.347-19.07 7.362-22.867 7.617-24.282h0" clip-path="url(#p9e6aabee00)" style="fill:none;stroke:#f0f;stroke-opacity:.8;stroke-linecap:square"/><path id="line2d_93" d="m19.882 271.8 10.155-1.711 10.41-1.979 10.917-2.3 11.68-2.692 12.186-3.038 13.202-3.521 14.472-4.094 15.741-4.455 15.741-4.488 8.886-2.773 7.363-2.525 6.601-2.494 6.094-2.534 5.84-2.671 5.585-2.806 5.332-2.93 5.077-3.044 4.57-2.978 2.285-1.765 2.285-2.052 2.54-2.608 2.538-2.944 2.54-3.27 2.792-3.964 3.047-4.745 3.046-5.17 3.3-6.059 3.301-6.515 3.555-7.502 3.808-8.568 4.062-9.707 4.317-10.911 4.57-12.173 4.824-13.48 5.331-15.572 5.84-17.764 6.6-20.828 7.618-24.802 5.585-18.568h0" clip-path="url(#p9e6aabee00)" style="fill:none;stroke:#f0f;stroke-opacity:.8;stroke-linecap:square"/><path id="line2d_94" d="m19.882 271.8 5.078-.111 5.331-.347 5.332-.568 5.586-.816 5.84-1.074 6.092-1.343 6.602-1.684 7.109-2.047 7.87-2.508 8.886-3.077 10.664-3.94 12.694-4.924 4.316-1.93 4.57-2.295 4.57-2.542 4.824-2.944 4.824-3.2 5.078-3.633 5.332-4.095 5.585-4.583 5.84-5.094 6.093-5.626 6.347-6.174 6.602-6.737 7.108-7.583 7.363-8.18 6.094-7.05 4.062-5.09 4.062-5.446 4.316-6.166 4.57-6.937 4.57-7.342 4.824-8.169 5.078-9.042 5.332-9.96 5.585-10.914 5.84-11.905 6.093-12.922 6.601-14.527 7.11-16.204 7.616-17.932 6.347-15.339h0" clip-path="url(#p9e6aabee00)" style="fill:none;stroke:#f0f;stroke-opacity:.8;stroke-linecap:square"/><path id="line2d_95" d="m19.882 271.8 5.332-.116 5.331-.341 5.586-.586 5.585-.806 5.84-1.064 6.093-1.335 6.347-1.616 6.856-1.981 7.108-2.288 7.617-2.685 8.379-3.19 9.393-3.82 7.11-3.09 2.792-1.514 2.793-1.76 3.047-2.186 3.3-2.665 3.3-2.954 3.555-3.48 3.809-4.047 4.062-4.645 4.57-5.586 4.824-6.254 5.585-7.62 6.602-9.402 9.14-13.447 15.74-23.189 6.602-9.308 23.612-32.683 10.155-14.705 10.41-15.472 10.663-16.256 10.918-17.05 11.17-17.86 10.41-16.999h0" clip-path="url(#p9e6aabee00)" style="fill:none;stroke:#f0f;stroke-opacity:.8;stroke-linecap:square"/><path id="line2d_96" d="m19.882 271.8 5.332-.11 5.585-.348 5.586-.571 5.84-.827 5.839-1.048 6.093-1.317 6.347-1.598 6.601-1.89 6.855-2.189 7.363-2.586 7.87-3.005 8.38-3.44 7.87-3.45 2.285-1.28 2.285-1.55 2.285-1.81 2.539-2.3 2.793-2.861 2.792-3.185 3.047-3.815 3.3-4.503 3.555-5.236 3.808-6.001 4.317-7.219 5.077-8.948 6.348-11.677 22.596-42.059 4.824-8.286 4.316-6.986 3.808-5.757 3.555-4.976 11.17-14.793 10.664-13.756 10.41-13.066 9.902-12.078 9.647-11.426 9.394-10.784 9.14-10.157 8.886-9.546 5.332-5.566h0" clip-path="url(#p9e6aabee00)" style="fill:none;stroke:#f0f;stroke-opacity:.8;stroke-linecap:square"/><path id="line2d_97" d="m19.882 271.8 5.332-.109 5.585-.34 5.586-.564 5.84-.816 5.839-1.039 6.093-1.307 6.347-1.592 6.601-1.89 6.855-2.197 7.11-2.514 7.616-2.935 7.87-3.271 8.125-3.604 1.777-.962 2.032-1.381 2.03-1.67 2.032-1.944 2.285-2.499 2.539-3.142 2.539-3.5 2.792-4.235 3.047-5.038 3.3-5.901 3.555-6.806 4.062-8.261 4.824-10.338 6.094-13.615 17.518-39.483 4.824-10.15 4.062-8.052 3.555-6.586 3.3-5.666 3.047-4.794 2.793-3.989 2.539-3.26 9.14-11.022 8.124-9.462 7.363-8.25 6.855-7.363 6.601-6.765 6.094-5.933 5.839-5.38 5.586-4.847 5.331-4.334 5.078-3.847 4.824-3.386 4.824-3.113 4.57-2.686 4.062-2.162h0" clip-path="url(#p9e6aabee00)" style="fill:none;stroke:#f0f;stroke-opacity:.8;stroke-linecap:square"/><path id="line2d_98" d="m19.882 271.8 5.585-.114 5.586-.337 5.84-.581 5.839-.806 6.093-1.071 6.094-1.294 6.347-1.575 6.601-1.87 6.855-2.177 7.109-2.496 7.363-2.821 7.87-3.262 7.871-3.505 1.523-.886 1.778-1.315 1.777-1.606 2.031-2.175 2.031-2.52 2.285-3.226 2.285-3.612 2.539-4.434 2.793-5.347 3.047-6.34 3.3-7.394 3.808-9.108 4.317-10.92 5.585-14.795 18.788-50.373 4.316-10.644 3.809-8.794 3.3-7.07 3.047-5.997 2.793-4.998 2.538-4.086 2.285-3.273 2.032-2.566 2.03-2.224 13.965-13.91 7.87-7.531 6.601-6.02 5.84-5.034 5.332-4.308 4.824-3.624 4.57-3.166 4.316-2.726 4.062-2.312 3.808-1.928 3.809-1.68 3.554-1.33 3.555-1.088 3.3-.784 3.3-.555 3.301-.317 2.54-.075h0" clip-path="url(#p9e6aabee00)" style="fill:none;stroke:#f0f;stroke-opacity:.8;stroke-linecap:square"/><path id="line2d_99" d="m19.882 271.8 5.585-.115 5.586-.34 5.586-.558 5.84-.807 5.839-1.027 6.093-1.296 6.347-1.583 6.347-1.81 6.602-2.11 6.855-2.423 7.109-2.747 7.362-3.08 7.87-3.535 2.794-1.405 1.523-1.085 1.523-1.352 1.778-1.898 1.777-2.232 2.031-2.936 2.031-3.326 2.285-4.179 2.539-5.145 2.793-6.217 3.047-7.379 3.3-8.605 3.808-10.59 4.57-13.433 6.094-18.698 13.202-40.742 4.57-13.264 3.808-10.4 3.301-8.404 3.047-7.162 2.793-5.994L178.055 71l2.285-3.96 2.032-3.118 2.03-2.716 1.778-2.028 1.777-1.685 1.777-1.36 8.125-5.794 7.363-4.982 6.6-4.21 6.348-3.785 5.84-3.23 5.585-2.84 5.332-2.466 5.078-2.107 4.824-1.771 4.823-1.532 4.57-1.22 4.57-.981 4.317-.7 4.316-.467 4.062-.221 2.031-.028h0" clip-path="url(#p9e6aabee00)" style="fill:none;stroke:#f0f;stroke-opacity:.8;stroke-linecap:square"/><path id="line2d_100" d="m19.882 271.8 5.585-.114 5.586-.337 5.84-.582 5.839-.81 5.84-1.029 6.093-1.297 6.347-1.585 6.347-1.812 6.601-2.114 6.855-2.43 7.11-2.76 7.362-3.097 7.617-3.443 2.539-1.269 1.523-1.094 1.524-1.402 1.523-1.697 1.777-2.339 1.777-2.706 2.031-3.52 2.032-3.948 2.285-4.918 2.538-6.01 2.793-7.21 3.047-8.501 3.554-10.631 4.063-12.908 5.077-16.943 18.788-63.533 3.809-11.716 3.3-9.499 3.047-8.12 2.793-6.811 2.539-5.607 2.285-4.522 2.03-3.569 2.032-3.116 1.777-2.333 1.777-1.947 1.524-1.346 1.523-1.036 1.777-.873 7.87-3.543 7.618-3.182 7.109-2.737 6.855-2.41 6.855-2.172 6.6-1.854 6.348-1.553 6.093-1.267 6.094-1.04 5.84-.773 5.839-.547 5.585-.304 4.824-.084h0" clip-path="url(#p9e6aabee00)" style="fill:none;stroke:#f0f;stroke-opacity:.8;stroke-linecap:square"/></g></g><defs><clipPath id="p9e6aabee00"><path d="M7.2 7.2h279v277.2H7.2z"/></clipPath></defs></svg>